%TF.GenerationSoftware,KiCad,Pcbnew,8.0.3*%
%TF.CreationDate,2024-06-28T03:43:35+08:00*%
%TF.ProjectId,hpm_dap,68706d5f-6461-4702-9e6b-696361645f70,rev?*%
%TF.SameCoordinates,Original*%
%TF.FileFunction,Copper,L2,Bot*%
%TF.FilePolarity,Positive*%
%FSLAX46Y46*%
G04 Gerber Fmt 4.6, Leading zero omitted, Abs format (unit mm)*
G04 Created by KiCad (PCBNEW 8.0.3) date 2024-06-28 03:43:35*
%MOMM*%
%LPD*%
G01*
G04 APERTURE LIST*
G04 Aperture macros list*
%AMRoundRect*
0 Rectangle with rounded corners*
0 $1 Rounding radius*
0 $2 $3 $4 $5 $6 $7 $8 $9 X,Y pos of 4 corners*
0 Add a 4 corners polygon primitive as box body*
4,1,4,$2,$3,$4,$5,$6,$7,$8,$9,$2,$3,0*
0 Add four circle primitives for the rounded corners*
1,1,$1+$1,$2,$3*
1,1,$1+$1,$4,$5*
1,1,$1+$1,$6,$7*
1,1,$1+$1,$8,$9*
0 Add four rect primitives between the rounded corners*
20,1,$1+$1,$2,$3,$4,$5,0*
20,1,$1+$1,$4,$5,$6,$7,0*
20,1,$1+$1,$6,$7,$8,$9,0*
20,1,$1+$1,$8,$9,$2,$3,0*%
G04 Aperture macros list end*
%TA.AperFunction,SMDPad,CuDef*%
%ADD10RoundRect,0.135000X0.185000X-0.135000X0.185000X0.135000X-0.185000X0.135000X-0.185000X-0.135000X0*%
%TD*%
%TA.AperFunction,SMDPad,CuDef*%
%ADD11R,1.000000X3.100000*%
%TD*%
%TA.AperFunction,ComponentPad*%
%ADD12O,1.800000X1.000000*%
%TD*%
%TA.AperFunction,ComponentPad*%
%ADD13O,2.100000X1.000000*%
%TD*%
%TA.AperFunction,SMDPad,CuDef*%
%ADD14R,0.550000X1.000000*%
%TD*%
%TA.AperFunction,SMDPad,CuDef*%
%ADD15RoundRect,0.140000X0.140000X0.170000X-0.140000X0.170000X-0.140000X-0.170000X0.140000X-0.170000X0*%
%TD*%
%TA.AperFunction,SMDPad,CuDef*%
%ADD16RoundRect,0.140000X0.170000X-0.140000X0.170000X0.140000X-0.170000X0.140000X-0.170000X-0.140000X0*%
%TD*%
%TA.AperFunction,SMDPad,CuDef*%
%ADD17RoundRect,0.140000X-0.170000X0.140000X-0.170000X-0.140000X0.170000X-0.140000X0.170000X0.140000X0*%
%TD*%
%TA.AperFunction,SMDPad,CuDef*%
%ADD18R,2.300000X0.850000*%
%TD*%
%TA.AperFunction,SMDPad,CuDef*%
%ADD19RoundRect,0.250000X0.250000X0.450000X-0.250000X0.450000X-0.250000X-0.450000X0.250000X-0.450000X0*%
%TD*%
%TA.AperFunction,SMDPad,CuDef*%
%ADD20RoundRect,0.250000X0.350000X0.450000X-0.350000X0.450000X-0.350000X-0.450000X0.350000X-0.450000X0*%
%TD*%
%TA.AperFunction,ViaPad*%
%ADD21C,0.609600*%
%TD*%
%TA.AperFunction,ViaPad*%
%ADD22C,0.400000*%
%TD*%
%TA.AperFunction,ViaPad*%
%ADD23C,0.600000*%
%TD*%
%TA.AperFunction,Conductor*%
%ADD24C,0.177800*%
%TD*%
%TA.AperFunction,Conductor*%
%ADD25C,0.101600*%
%TD*%
%TA.AperFunction,Conductor*%
%ADD26C,0.254000*%
%TD*%
%TA.AperFunction,Conductor*%
%ADD27C,0.200000*%
%TD*%
%TA.AperFunction,Conductor*%
%ADD28C,0.127000*%
%TD*%
G04 APERTURE END LIST*
D10*
%TO.P,R11,2*%
%TO.N,Net-(U1D-PA01{slash}TMR1.CAPT0{slash}URT0.RXD{slash}TRGM0.P01{slash}ACMP.COMP0)*%
X78161760Y-38584800D03*
%TO.P,R11,1*%
%TO.N,/uart_rx*%
X78161760Y-39604800D03*
%TD*%
%TO.P,R10,2*%
%TO.N,Net-(U1D-PA00{slash}TMR1.COMP0{slash}URT0.TXD{slash}TRGM0.P00)*%
X77196560Y-38584800D03*
%TO.P,R10,1*%
%TO.N,/uart_tx*%
X77196560Y-39604800D03*
%TD*%
D11*
%TO.P,J2,2*%
%TO.N,/JTAG_TDI*%
X67030893Y-26182893D03*
%TO.P,J2,4*%
%TO.N,unconnected-(J2-Pad4)*%
X69570893Y-26182893D03*
%TO.P,J2,6*%
%TO.N,/JTAG_TDO*%
X72110893Y-26182893D03*
%TO.P,J2,8*%
%TO.N,/uart_rx*%
X74650893Y-26182893D03*
%TO.P,J2,10*%
%TO.N,/uart_tx*%
X77190893Y-26182893D03*
%TD*%
D12*
%TO.P,J1,S1,SHIELD*%
%TO.N,GND*%
X55410893Y-39988893D03*
D13*
X59590893Y-39988893D03*
D12*
X55410893Y-31348893D03*
D13*
X59590893Y-31348893D03*
%TD*%
D14*
%TO.P,D3,6*%
%TO.N,/JTAG_TDO*%
X77231200Y-31931600D03*
%TO.P,D3,5*%
%TO.N,+3.3V*%
X78181200Y-31931600D03*
%TO.P,D3,4*%
%TO.N,/JTAG_TDI*%
X79131200Y-31931600D03*
%TO.P,D3,3*%
%TO.N,/uart_tx*%
X79131200Y-29231600D03*
%TO.P,D3,2*%
%TO.N,GND*%
X78181200Y-29231600D03*
%TO.P,D3,1*%
%TO.N,/uart_rx*%
X77231200Y-29231600D03*
%TD*%
D15*
%TO.P,C14,2*%
%TO.N,GND*%
X75770800Y-35306000D03*
%TO.P,C14,1*%
%TO.N,+3.3V*%
X76730800Y-35306000D03*
%TD*%
D16*
%TO.P,C5,2*%
%TO.N,GND*%
X75133200Y-29442266D03*
%TO.P,C5,1*%
%TO.N,+3.3V*%
X75133200Y-30402266D03*
%TD*%
%TO.P,C1,2*%
%TO.N,GND*%
X74192932Y-29442266D03*
%TO.P,C1,1*%
%TO.N,/core/Vana*%
X74192932Y-30402266D03*
%TD*%
D14*
%TO.P,D2,6*%
%TO.N,/SWRST{slash}JTAG_TRST*%
X69332800Y-32338000D03*
%TO.P,D2,5*%
%TO.N,+3.3V*%
X70282800Y-32338000D03*
%TO.P,D2,4*%
%TO.N,unconnected-(D2-Pad4)*%
X71232800Y-32338000D03*
%TO.P,D2,3*%
%TO.N,/SWCLK{slash}JTAG_TCK*%
X71232800Y-29638000D03*
%TO.P,D2,2*%
%TO.N,GND*%
X70282800Y-29638000D03*
%TO.P,D2,1*%
%TO.N,/SWDIO{slash}JTAG_TMS*%
X69332800Y-29638000D03*
%TD*%
D16*
%TO.P,C8,2*%
%TO.N,GND*%
X73050400Y-36248400D03*
%TO.P,C8,1*%
%TO.N,+3.3V*%
X73050400Y-37208400D03*
%TD*%
D17*
%TO.P,C18,2*%
%TO.N,GND*%
X76250800Y-39574800D03*
%TO.P,C18,1*%
%TO.N,Net-(U1C-VDD_OTPCAP)*%
X76250800Y-38614800D03*
%TD*%
D16*
%TO.P,C9,2*%
%TO.N,GND*%
X73964800Y-36248400D03*
%TO.P,C9,1*%
%TO.N,+3.3V*%
X73964800Y-37208400D03*
%TD*%
D18*
%TO.P,L2,2,2*%
%TO.N,Net-(U1A-DCDC_LP)*%
X78656475Y-36636690D03*
%TO.P,L2,1,1*%
%TO.N,+3.3V*%
X78656475Y-34686690D03*
%TD*%
D16*
%TO.P,C10,2*%
%TO.N,GND*%
X74879200Y-36248400D03*
%TO.P,C10,1*%
%TO.N,+3.3V*%
X74879200Y-37208400D03*
%TD*%
%TO.P,C6,2*%
%TO.N,GND*%
X73253600Y-29442266D03*
%TO.P,C6,1*%
%TO.N,+3.3V*%
X73253600Y-30402266D03*
%TD*%
D19*
%TO.P,D1,4,VP*%
%TO.N,VBUS*%
X63434000Y-34307600D03*
%TO.P,D1,3,L2*%
%TO.N,/core/USB_D-*%
X61534000Y-34307600D03*
%TO.P,D1,2,L1*%
%TO.N,/core/USB_D+*%
X61534000Y-36507600D03*
D20*
%TO.P,D1,1,VN*%
%TO.N,GND*%
X63254000Y-36507600D03*
%TD*%
D16*
%TO.P,C11,2*%
%TO.N,GND*%
X75793600Y-36248400D03*
%TO.P,C11,1*%
%TO.N,+3.3V*%
X75793600Y-37208400D03*
%TD*%
D17*
%TO.P,C4,2*%
%TO.N,GND*%
X74726800Y-39554800D03*
%TO.P,C4,1*%
%TO.N,+3.3V*%
X74726800Y-38594800D03*
%TD*%
D15*
%TO.P,C13,2*%
%TO.N,GND*%
X75770800Y-34391600D03*
%TO.P,C13,1*%
%TO.N,+3.3V*%
X76730800Y-34391600D03*
%TD*%
D21*
%TO.N,GND*%
X68681600Y-37338000D03*
X64973200Y-32308800D03*
X53848000Y-33324800D03*
X53848000Y-34594800D03*
X53848000Y-35864800D03*
X53848000Y-37134800D03*
X53949600Y-28803600D03*
X53949600Y-27533600D03*
X53949600Y-26263600D03*
X60299600Y-24993600D03*
X59029600Y-24993600D03*
X57759600Y-24993600D03*
X56489600Y-24993600D03*
X55219600Y-24993600D03*
X53949600Y-24993600D03*
X63652400Y-24688800D03*
X64922400Y-24688800D03*
X63703200Y-28295600D03*
X64973200Y-28295600D03*
X66243200Y-28295600D03*
X79654400Y-32816800D03*
X79349600Y-37693600D03*
X79349600Y-38963600D03*
X75184000Y-40284400D03*
X73914000Y-40284400D03*
X72644000Y-40284400D03*
X71120000Y-39674800D03*
X69850000Y-39674800D03*
X68580000Y-39674800D03*
X62230000Y-39674800D03*
X66040000Y-39674800D03*
X64770000Y-39674800D03*
X63500000Y-39674800D03*
D22*
%TO.N,/SWCLK{slash}JTAG_TCK*%
X75946000Y-28803600D03*
%TO.N,/JTAG_TDI*%
X75577421Y-28326872D03*
%TO.N,GND*%
X73050400Y-28194000D03*
X78333600Y-28143200D03*
%TO.N,VBUS*%
X57454800Y-26720800D03*
%TO.N,/core/USB_D-*%
X62128400Y-35080600D03*
%TO.N,/core/USB_D+*%
X62128400Y-35633000D03*
%TO.N,GND*%
X72542400Y-29565600D03*
X75742800Y-29565600D03*
%TO.N,/SWCLK{slash}JTAG_TCK*%
X67919600Y-29362400D03*
%TO.N,/JTAG_TDO*%
X76403200Y-29413200D03*
%TO.N,/JTAG_TDI*%
X79603600Y-30835600D03*
%TO.N,/JTAG_TDO*%
X77266800Y-30988000D03*
%TO.N,/core/SPI_CS*%
X76047600Y-30581600D03*
X69900800Y-34137600D03*
D21*
%TO.N,GND*%
X72971200Y-35734800D03*
X72971200Y-33194800D03*
X75511200Y-33194800D03*
X75511200Y-35734800D03*
X74241200Y-34464800D03*
%TO.N,+3.3V*%
X68732400Y-34137600D03*
D22*
%TO.N,GND*%
X60401200Y-28092400D03*
X60401200Y-26974800D03*
X60401200Y-27533600D03*
%TO.N,Net-(U1D-PA01{slash}TMR1.CAPT0{slash}URT0.RXD{slash}TRGM0.P01{slash}ACMP.COMP0)*%
X77673200Y-37846000D03*
%TO.N,Net-(U1D-PA00{slash}TMR1.COMP0{slash}URT0.TXD{slash}TRGM0.P00)*%
X77114400Y-37338000D03*
%TO.N,Net-(U1C-VDD_OTPCAP)*%
X76250800Y-38614800D03*
%TO.N,/SWRST{slash}JTAG_TRST*%
X67259200Y-29609851D03*
X69392800Y-31343600D03*
%TO.N,/SWDIO{slash}JTAG_TMS*%
X68427600Y-30226000D03*
D21*
%TO.N,+3.3V*%
X69037200Y-35995200D03*
D22*
%TO.N,/core/Vana*%
X74192932Y-30402266D03*
D23*
%TO.N,Net-(U1A-DCDC_LP)*%
X78656475Y-36636690D03*
D22*
%TO.N,/core/BOOT1*%
X70866000Y-38506400D03*
X74015600Y-38579600D03*
%TO.N,GND*%
X71120000Y-31025900D03*
D23*
%TO.N,+3.3V*%
X78844499Y-35145765D03*
D22*
X73253600Y-30402266D03*
X75539600Y-39116000D03*
X72679358Y-38574800D03*
X75133200Y-30402266D03*
%TD*%
D24*
%TO.N,VBUS*%
X61569600Y-29667200D02*
X63434000Y-31531600D01*
X59944000Y-29667200D02*
X61569600Y-29667200D01*
X57454800Y-27178000D02*
X59944000Y-29667200D01*
X57454800Y-26720800D02*
X57454800Y-27178000D01*
X63434000Y-31531600D02*
X63434000Y-34307600D01*
%TO.N,/SWCLK{slash}JTAG_TCK*%
X75885700Y-28863900D02*
X71415300Y-28863900D01*
X71232800Y-29046400D02*
X71232800Y-29638000D01*
X75946000Y-28803600D02*
X75885700Y-28863900D01*
%TO.N,/JTAG_TDI*%
X68245293Y-26182893D02*
X67030893Y-26182893D01*
X68529200Y-27889200D02*
X68529200Y-26466800D01*
X72498149Y-28194000D02*
X68834000Y-28194000D01*
X73476328Y-28326872D02*
X73218700Y-28584500D01*
X75577421Y-28326872D02*
X73476328Y-28326872D01*
X72888649Y-28584500D02*
X72498149Y-28194000D01*
%TO.N,/JTAG_TDO*%
X73172893Y-26182893D02*
X72110893Y-26182893D01*
X73609200Y-27572200D02*
X73609200Y-26619200D01*
X75726193Y-27923393D02*
X73960393Y-27923393D01*
X76403200Y-28600400D02*
X75726193Y-27923393D01*
X76403200Y-29413200D02*
X76403200Y-28600400D01*
D25*
%TO.N,/core/USB_D+*%
X61534000Y-36227400D02*
X61534000Y-36507600D01*
X62128400Y-35633000D02*
X61534000Y-36227400D01*
%TO.N,/core/USB_D-*%
X61534000Y-34486200D02*
X61534000Y-34307600D01*
X62128400Y-35080600D02*
X61534000Y-34486200D01*
D24*
%TO.N,/SWCLK{slash}JTAG_TCK*%
X70479300Y-30616500D02*
X71232800Y-29863000D01*
X67919600Y-29362400D02*
X67919600Y-30276800D01*
X68259300Y-30616500D02*
X70479300Y-30616500D01*
%TO.N,/SWRST{slash}JTAG_TRST*%
X67259200Y-30784800D02*
X67259200Y-29609851D01*
X69392800Y-31343600D02*
X67818000Y-31343600D01*
%TO.N,/JTAG_TDI*%
X79131200Y-31717900D02*
X79131200Y-31931600D01*
X79603600Y-31245500D02*
X79131200Y-31717900D01*
X79603600Y-30835600D02*
X79603600Y-31245500D01*
%TO.N,/JTAG_TDO*%
X77266800Y-31896000D02*
X77231200Y-31931600D01*
X77266800Y-30988000D02*
X77266800Y-31896000D01*
D26*
%TO.N,+3.3V*%
X75382466Y-30153000D02*
X75133200Y-30402266D01*
X76225132Y-30153000D02*
X75382466Y-30153000D01*
X77114400Y-33172400D02*
X76727600Y-32785600D01*
X76727600Y-32785600D02*
X76727600Y-30655468D01*
D24*
%TO.N,/core/SPI_CS*%
X73304400Y-34137600D02*
X69900800Y-34137600D01*
X73710800Y-32918400D02*
X73710800Y-33731200D01*
X76047600Y-30581600D02*
X73710800Y-32918400D01*
D26*
%TO.N,+3.3V*%
X70282800Y-32587200D02*
X70282800Y-32338000D01*
X69037200Y-34442400D02*
X69037200Y-35995200D01*
X68732400Y-34137600D02*
X70282800Y-32587200D01*
X68732400Y-34137600D02*
X69037200Y-34442400D01*
D24*
%TO.N,/SWRST{slash}JTAG_TRST*%
X69392800Y-31343600D02*
X69392800Y-32278000D01*
X69392800Y-32278000D02*
X69332800Y-32338000D01*
%TO.N,/SWDIO{slash}JTAG_TMS*%
X69332800Y-29879600D02*
X69332800Y-29638000D01*
X68986400Y-30226000D02*
X69332800Y-29879600D01*
X68427600Y-30226000D02*
X68986400Y-30226000D01*
D27*
%TO.N,+3.3V*%
X74651600Y-30883866D02*
X75133200Y-30402266D01*
X73735200Y-30883866D02*
X74651600Y-30883866D01*
X73253600Y-30402266D02*
X73735200Y-30883866D01*
D26*
X78181200Y-32867600D02*
X78181200Y-31931600D01*
X76730800Y-34391600D02*
X76730800Y-33556000D01*
X77114400Y-33172400D02*
X77876400Y-33172400D01*
D24*
X74726800Y-37360800D02*
X74879200Y-37208400D01*
D26*
X74726800Y-38594800D02*
X74726800Y-37360800D01*
D27*
X72679358Y-37579442D02*
X72679358Y-37223842D01*
D26*
X72694800Y-37208400D02*
X69466400Y-37208400D01*
X73050400Y-37208400D02*
X72694800Y-37208400D01*
D27*
X72679358Y-37579442D02*
X73050400Y-37208400D01*
X72679358Y-38574800D02*
X72679358Y-37579442D01*
D28*
%TO.N,/uart_rx*%
X77719400Y-29921200D02*
X77231200Y-29433000D01*
X79502000Y-29921200D02*
X77719400Y-29921200D01*
X80162400Y-39273993D02*
X80162400Y-30581600D01*
X78161760Y-39604800D02*
X79831593Y-39604800D01*
X75996800Y-27787600D02*
X75996800Y-26568400D01*
X77231200Y-29022000D02*
X75996800Y-27787600D01*
X75611293Y-26182893D02*
X74650893Y-26182893D01*
X77231200Y-29231600D02*
X77231200Y-29022000D01*
%TO.N,/uart_tx*%
X78303693Y-26182893D02*
X77190893Y-26182893D01*
X79131200Y-29231600D02*
X79131200Y-27010400D01*
X79131200Y-27010400D02*
X78303693Y-26182893D01*
X80391000Y-39368683D02*
X80391000Y-29997400D01*
X80391000Y-29997400D02*
X79625200Y-29231600D01*
X77631660Y-40039900D02*
X79719783Y-40039900D01*
X77196560Y-39604800D02*
X77631660Y-40039900D01*
D24*
%TO.N,/core/BOOT1*%
X73629900Y-38965300D02*
X74015600Y-38579600D01*
X72239300Y-38965300D02*
X73629900Y-38965300D01*
X70866000Y-38506400D02*
X71780400Y-38506400D01*
D28*
%TO.N,Net-(U1D-PA00{slash}TMR1.COMP0{slash}URT0.TXD{slash}TRGM0.P00)*%
X77196560Y-37420160D02*
X77196560Y-38584800D01*
X77114400Y-37338000D02*
X77196560Y-37420160D01*
%TO.N,Net-(U1D-PA01{slash}TMR1.CAPT0{slash}URT0.RXD{slash}TRGM0.P01{slash}ACMP.COMP0)*%
X78161760Y-38080560D02*
X78161760Y-38584800D01*
X77927200Y-37846000D02*
X78161760Y-38080560D01*
X77673200Y-37846000D02*
X77927200Y-37846000D01*
D26*
%TO.N,+3.3V*%
X69037200Y-36779200D02*
X69037200Y-35995200D01*
X75793600Y-37208400D02*
X73050400Y-37208400D01*
X75539600Y-39116000D02*
X75018400Y-38594800D01*
X76408415Y-37208400D02*
X75793600Y-37208400D01*
X78656475Y-34686690D02*
X78361385Y-34391600D01*
X76730800Y-35306000D02*
X76730800Y-36886015D01*
X76730800Y-34391600D02*
X76730800Y-35306000D01*
X78844499Y-35145765D02*
X78844499Y-34874714D01*
X78361385Y-34391600D02*
X76730800Y-34391600D01*
X78844499Y-34874714D02*
X78656475Y-34686690D01*
X76730800Y-36886015D02*
X76408415Y-37208400D01*
X75018400Y-38594800D02*
X74726800Y-38594800D01*
X69466400Y-37208400D02*
X69037200Y-36779200D01*
D24*
%TO.N,/core/BOOT1*%
X71780400Y-38506400D02*
X72239300Y-38965300D01*
D28*
%TO.N,/uart_tx*%
X79625200Y-29231600D02*
X79131200Y-29231600D01*
X79719783Y-40039900D02*
X80391000Y-39368683D01*
%TO.N,/uart_rx*%
X75996800Y-26568400D02*
X75611293Y-26182893D01*
X80162400Y-30581600D02*
X79502000Y-29921200D01*
X79831593Y-39604800D02*
X80162400Y-39273993D01*
X77231200Y-29433000D02*
X77231200Y-29231600D01*
D27*
%TO.N,+3.3V*%
X72679358Y-37223842D02*
X72694800Y-37208400D01*
D26*
X76730800Y-33556000D02*
X77114400Y-33172400D01*
X77876400Y-33172400D02*
X78181200Y-32867600D01*
D24*
%TO.N,/core/SPI_CS*%
X73710800Y-33731200D02*
X73304400Y-34137600D01*
D26*
%TO.N,+3.3V*%
X76727600Y-30655468D02*
X76225132Y-30153000D01*
D24*
%TO.N,/SWRST{slash}JTAG_TRST*%
X67818000Y-31343600D02*
X67259200Y-30784800D01*
%TO.N,/SWCLK{slash}JTAG_TCK*%
X71232800Y-29863000D02*
X71232800Y-29638000D01*
X67919600Y-30276800D02*
X68259300Y-30616500D01*
%TO.N,/JTAG_TDO*%
X73609200Y-26619200D02*
X73172893Y-26182893D01*
X73960393Y-27923393D02*
X73609200Y-27572200D01*
%TO.N,/JTAG_TDI*%
X73218700Y-28584500D02*
X72888649Y-28584500D01*
X68834000Y-28194000D02*
X68529200Y-27889200D01*
X68529200Y-26466800D02*
X68245293Y-26182893D01*
%TO.N,/SWCLK{slash}JTAG_TCK*%
X71415300Y-28863900D02*
X71232800Y-29046400D01*
%TD*%
%TA.AperFunction,Conductor*%
%TO.N,GND*%
G36*
X65397667Y-24246119D02*
G01*
X65410393Y-24276843D01*
X65410393Y-24472461D01*
X65430871Y-24548881D01*
X65430872Y-24548882D01*
X65470433Y-24617404D01*
X65526382Y-24673353D01*
X65594904Y-24712914D01*
X65671324Y-24733392D01*
X65671331Y-24733393D01*
X66334543Y-24733393D01*
X66365267Y-24746119D01*
X66377993Y-24776843D01*
X66377993Y-27747951D01*
X66384899Y-27782668D01*
X66386865Y-27792551D01*
X66386865Y-27792552D01*
X66386867Y-27792556D01*
X66420655Y-27843123D01*
X66420662Y-27843130D01*
X66471231Y-27876919D01*
X66471235Y-27876921D01*
X66515836Y-27885793D01*
X67545949Y-27885792D01*
X67545951Y-27885792D01*
X67555831Y-27883826D01*
X67590551Y-27876921D01*
X67590555Y-27876918D01*
X67590556Y-27876918D01*
X67641123Y-27843130D01*
X67641123Y-27843129D01*
X67641127Y-27843127D01*
X67642480Y-27841103D01*
X67674919Y-27792554D01*
X67674921Y-27792550D01*
X67683793Y-27747952D01*
X67683793Y-26468143D01*
X67696519Y-26437419D01*
X67727243Y-26424693D01*
X68127138Y-26424693D01*
X68157862Y-26437419D01*
X68274674Y-26554231D01*
X68287400Y-26584955D01*
X68287400Y-27841103D01*
X68287400Y-27937297D01*
X68324212Y-28026169D01*
X68697031Y-28398988D01*
X68785903Y-28435800D01*
X68882096Y-28435800D01*
X72379994Y-28435800D01*
X72410718Y-28448526D01*
X72510118Y-28547926D01*
X72522844Y-28578650D01*
X72510118Y-28609374D01*
X72479394Y-28622100D01*
X71463397Y-28622100D01*
X71367203Y-28622100D01*
X71278331Y-28658912D01*
X71278329Y-28658913D01*
X71027810Y-28909432D01*
X71007577Y-28958278D01*
X70984062Y-28981793D01*
X70967437Y-28985100D01*
X70942741Y-28985100D01*
X70903083Y-28992989D01*
X70898142Y-28993972D01*
X70898141Y-28993972D01*
X70898136Y-28993974D01*
X70847569Y-29027762D01*
X70847562Y-29027769D01*
X70813773Y-29078338D01*
X70813771Y-29078342D01*
X70804900Y-29122940D01*
X70804900Y-29930944D01*
X70792174Y-29961668D01*
X70391869Y-30361974D01*
X70361145Y-30374700D01*
X69642717Y-30374700D01*
X69611993Y-30361974D01*
X69599267Y-30331250D01*
X69611993Y-30300526D01*
X69634240Y-30288635D01*
X69638618Y-30287764D01*
X69667458Y-30282028D01*
X69667462Y-30282025D01*
X69667463Y-30282025D01*
X69718030Y-30248237D01*
X69718030Y-30248236D01*
X69718034Y-30248234D01*
X69751828Y-30197658D01*
X69760700Y-30153057D01*
X69760699Y-29122944D01*
X69760699Y-29122943D01*
X69760699Y-29122941D01*
X69757269Y-29105700D01*
X69751828Y-29078342D01*
X69751825Y-29078338D01*
X69751825Y-29078336D01*
X69718037Y-29027769D01*
X69718030Y-29027762D01*
X69667461Y-28993973D01*
X69667457Y-28993971D01*
X69622859Y-28985100D01*
X69042741Y-28985100D01*
X69003083Y-28992989D01*
X68998142Y-28993972D01*
X68998141Y-28993972D01*
X68998136Y-28993974D01*
X68947569Y-29027762D01*
X68947562Y-29027769D01*
X68913773Y-29078338D01*
X68913771Y-29078342D01*
X68904900Y-29122940D01*
X68904900Y-29940750D01*
X68892174Y-29971474D01*
X68861450Y-29984200D01*
X68702874Y-29984200D01*
X68672150Y-29971474D01*
X68637613Y-29936937D01*
X68538015Y-29886189D01*
X68538009Y-29886187D01*
X68427601Y-29868701D01*
X68427599Y-29868701D01*
X68317190Y-29886187D01*
X68317184Y-29886189D01*
X68224576Y-29933376D01*
X68191423Y-29935985D01*
X68166136Y-29914388D01*
X68161400Y-29894662D01*
X68161400Y-29637674D01*
X68174126Y-29606950D01*
X68208661Y-29572415D01*
X68259412Y-29472811D01*
X68276899Y-29362400D01*
X68259412Y-29251989D01*
X68259411Y-29251987D01*
X68259410Y-29251984D01*
X68208662Y-29152386D01*
X68129613Y-29073337D01*
X68030015Y-29022589D01*
X68030009Y-29022587D01*
X67919601Y-29005101D01*
X67919599Y-29005101D01*
X67809190Y-29022587D01*
X67809184Y-29022589D01*
X67709586Y-29073337D01*
X67630537Y-29152386D01*
X67579789Y-29251984D01*
X67579787Y-29251990D01*
X67568602Y-29322611D01*
X67551226Y-29350966D01*
X67518890Y-29358729D01*
X67494963Y-29346538D01*
X67469213Y-29320788D01*
X67369615Y-29270040D01*
X67369609Y-29270038D01*
X67259201Y-29252552D01*
X67259199Y-29252552D01*
X67148790Y-29270038D01*
X67148784Y-29270040D01*
X67049186Y-29320788D01*
X66970137Y-29399837D01*
X66919389Y-29499435D01*
X66919387Y-29499441D01*
X66901901Y-29609850D01*
X66901901Y-29609851D01*
X66919387Y-29720260D01*
X66919389Y-29720266D01*
X66970137Y-29819864D01*
X67004674Y-29854401D01*
X67017400Y-29885125D01*
X67017400Y-30736703D01*
X67017400Y-30832897D01*
X67054212Y-30921769D01*
X67613011Y-31480567D01*
X67613012Y-31480569D01*
X67681031Y-31548588D01*
X67769903Y-31585400D01*
X67769904Y-31585400D01*
X67866097Y-31585400D01*
X69107550Y-31585400D01*
X69138274Y-31598126D01*
X69151000Y-31628850D01*
X69151000Y-31641650D01*
X69138274Y-31672374D01*
X69107551Y-31685100D01*
X69042741Y-31685100D01*
X69003083Y-31692989D01*
X68998142Y-31693972D01*
X68998141Y-31693972D01*
X68998136Y-31693974D01*
X68947569Y-31727762D01*
X68947562Y-31727769D01*
X68913773Y-31778338D01*
X68913771Y-31778342D01*
X68904900Y-31822940D01*
X68904900Y-32853058D01*
X68908331Y-32870303D01*
X68913772Y-32897658D01*
X68913772Y-32897659D01*
X68913774Y-32897663D01*
X68947562Y-32948230D01*
X68947569Y-32948237D01*
X68998138Y-32982026D01*
X68998142Y-32982028D01*
X69042743Y-32990900D01*
X69378363Y-32990899D01*
X69409087Y-33003625D01*
X69421813Y-33034349D01*
X69409087Y-33065073D01*
X68806988Y-33667174D01*
X68776264Y-33679900D01*
X68666593Y-33679900D01*
X68596321Y-33700533D01*
X68540304Y-33716981D01*
X68429589Y-33788134D01*
X68429588Y-33788136D01*
X68343398Y-33887604D01*
X68303134Y-33975772D01*
X68288724Y-34007325D01*
X68269993Y-34137600D01*
X68288724Y-34267875D01*
X68343398Y-34387596D01*
X68429588Y-34487064D01*
X68429589Y-34487065D01*
X68540304Y-34558218D01*
X68540307Y-34558219D01*
X68540309Y-34558220D01*
X68666593Y-34595300D01*
X68713850Y-34595300D01*
X68744574Y-34608026D01*
X68757300Y-34638750D01*
X68757300Y-35607286D01*
X68744574Y-35638010D01*
X68737344Y-35643835D01*
X68736475Y-35644395D01*
X68734387Y-35645736D01*
X68648198Y-35745204D01*
X68603531Y-35843013D01*
X68593524Y-35864925D01*
X68574793Y-35995200D01*
X68593524Y-36125475D01*
X68648198Y-36245196D01*
X68734388Y-36344664D01*
X68737338Y-36346560D01*
X68756306Y-36373874D01*
X68757300Y-36383114D01*
X68757300Y-36816056D01*
X68776374Y-36887236D01*
X68776375Y-36887237D01*
X68813224Y-36951062D01*
X69294538Y-37432377D01*
X69331384Y-37453648D01*
X69331386Y-37453649D01*
X69358363Y-37469225D01*
X69375041Y-37473694D01*
X69429543Y-37488299D01*
X69429550Y-37488300D01*
X72383007Y-37488300D01*
X72413731Y-37501026D01*
X72426457Y-37531750D01*
X72426457Y-37634801D01*
X72426458Y-37634810D01*
X72426458Y-38310626D01*
X72413732Y-38341350D01*
X72390295Y-38364786D01*
X72339547Y-38464384D01*
X72339545Y-38464390D01*
X72322059Y-38574799D01*
X72322059Y-38574802D01*
X72325849Y-38598734D01*
X72318085Y-38631070D01*
X72289730Y-38648445D01*
X72257394Y-38640681D01*
X72252210Y-38636254D01*
X72122356Y-38506400D01*
X71917369Y-38301412D01*
X71828497Y-38264600D01*
X71828495Y-38264600D01*
X71141274Y-38264600D01*
X71110550Y-38251874D01*
X71076013Y-38217337D01*
X70976415Y-38166589D01*
X70976409Y-38166587D01*
X70866001Y-38149101D01*
X70865999Y-38149101D01*
X70755590Y-38166587D01*
X70755584Y-38166589D01*
X70655986Y-38217337D01*
X70576937Y-38296386D01*
X70526189Y-38395984D01*
X70526187Y-38395990D01*
X70508701Y-38506399D01*
X70508701Y-38506400D01*
X70526187Y-38616809D01*
X70526189Y-38616815D01*
X70576937Y-38716413D01*
X70655986Y-38795462D01*
X70755584Y-38846210D01*
X70755587Y-38846211D01*
X70755589Y-38846212D01*
X70770566Y-38848584D01*
X70865999Y-38863699D01*
X70866000Y-38863699D01*
X70866001Y-38863699D01*
X70902803Y-38857870D01*
X70976411Y-38846212D01*
X71076015Y-38795461D01*
X71110550Y-38760926D01*
X71141274Y-38748200D01*
X71662245Y-38748200D01*
X71692969Y-38760926D01*
X71866845Y-38934801D01*
X72034311Y-39102267D01*
X72034312Y-39102269D01*
X72102331Y-39170288D01*
X72191203Y-39207100D01*
X72191204Y-39207100D01*
X72191205Y-39207100D01*
X73677995Y-39207100D01*
X73677997Y-39207100D01*
X73766869Y-39170288D01*
X73987531Y-38949624D01*
X74012513Y-38939276D01*
X74012222Y-38937434D01*
X74015600Y-38936899D01*
X74126011Y-38919412D01*
X74225615Y-38868661D01*
X74229395Y-38864881D01*
X74260117Y-38852152D01*
X74290842Y-38864876D01*
X74299869Y-38878051D01*
X74310971Y-38903195D01*
X74388404Y-38980628D01*
X74388403Y-38980628D01*
X74432634Y-39000157D01*
X74488577Y-39024858D01*
X74488576Y-39024858D01*
X74488579Y-39024859D01*
X74513066Y-39027700D01*
X74513071Y-39027700D01*
X74940529Y-39027700D01*
X74940534Y-39027700D01*
X74965021Y-39024859D01*
X74965023Y-39024858D01*
X74965024Y-39024858D01*
X74998560Y-39010050D01*
X75031806Y-39009281D01*
X75046835Y-39019073D01*
X75179570Y-39151808D01*
X75191761Y-39175734D01*
X75199788Y-39226412D01*
X75250537Y-39326013D01*
X75329586Y-39405062D01*
X75429184Y-39455810D01*
X75429187Y-39455811D01*
X75429189Y-39455812D01*
X75484394Y-39464555D01*
X75539599Y-39473299D01*
X75539600Y-39473299D01*
X75539601Y-39473299D01*
X75576403Y-39467470D01*
X75650011Y-39455812D01*
X75749615Y-39405061D01*
X75828661Y-39326015D01*
X75879412Y-39226411D01*
X75896899Y-39116000D01*
X75888559Y-39063342D01*
X75896322Y-39031006D01*
X75924677Y-39013630D01*
X75949023Y-39016796D01*
X76012577Y-39044858D01*
X76012576Y-39044858D01*
X76012579Y-39044859D01*
X76037066Y-39047700D01*
X76037071Y-39047700D01*
X76464529Y-39047700D01*
X76464534Y-39047700D01*
X76489021Y-39044859D01*
X76589196Y-39000628D01*
X76666628Y-38923196D01*
X76686891Y-38877302D01*
X76710942Y-38854336D01*
X76744188Y-38855104D01*
X76766386Y-38877300D01*
X76769927Y-38885319D01*
X76846040Y-38961432D01*
X76879725Y-38976305D01*
X76944501Y-39004906D01*
X76944500Y-39004906D01*
X76944503Y-39004907D01*
X76968576Y-39007700D01*
X76968581Y-39007700D01*
X77424539Y-39007700D01*
X77424544Y-39007700D01*
X77448617Y-39004907D01*
X77547081Y-38961431D01*
X77623191Y-38885321D01*
X77639412Y-38848584D01*
X77663464Y-38825618D01*
X77696710Y-38826386D01*
X77718908Y-38848584D01*
X77735127Y-38885319D01*
X77811240Y-38961432D01*
X77844925Y-38976305D01*
X77909701Y-39004906D01*
X77909700Y-39004906D01*
X77909703Y-39004907D01*
X77933776Y-39007700D01*
X77933781Y-39007700D01*
X78389739Y-39007700D01*
X78389744Y-39007700D01*
X78413817Y-39004907D01*
X78512281Y-38961431D01*
X78588391Y-38885321D01*
X78631867Y-38786857D01*
X78634660Y-38762784D01*
X78634660Y-38406816D01*
X78631867Y-38382743D01*
X78623060Y-38362796D01*
X78588392Y-38284280D01*
X78512279Y-38208167D01*
X78413817Y-38164693D01*
X78410664Y-38163835D01*
X78411163Y-38161999D01*
X78387520Y-38148796D01*
X78378160Y-38121855D01*
X78378160Y-38037516D01*
X78378160Y-38037515D01*
X78345215Y-37957979D01*
X78284341Y-37897105D01*
X78284339Y-37897104D01*
X78110655Y-37723420D01*
X78110655Y-37723419D01*
X78049781Y-37662545D01*
X77970245Y-37629600D01*
X77970243Y-37629600D01*
X77970241Y-37629599D01*
X77966047Y-37628765D01*
X77966489Y-37626541D01*
X77943150Y-37616874D01*
X77883213Y-37556937D01*
X77783615Y-37506189D01*
X77783609Y-37506187D01*
X77673201Y-37488701D01*
X77673199Y-37488701D01*
X77562790Y-37506187D01*
X77562784Y-37506189D01*
X77495528Y-37540458D01*
X77462375Y-37543067D01*
X77437088Y-37521470D01*
X77434479Y-37488317D01*
X77437084Y-37482024D01*
X77454212Y-37448411D01*
X77471699Y-37338000D01*
X77460111Y-37264835D01*
X77467874Y-37232500D01*
X77496229Y-37215124D01*
X77503013Y-37214589D01*
X79821531Y-37214589D01*
X79821533Y-37214589D01*
X79831413Y-37212623D01*
X79866133Y-37205718D01*
X79878411Y-37197513D01*
X79911025Y-37191026D01*
X79938677Y-37209500D01*
X79946000Y-37233641D01*
X79946000Y-39166360D01*
X79933274Y-39197084D01*
X79754684Y-39375674D01*
X79723960Y-39388400D01*
X78653846Y-39388400D01*
X78623122Y-39375674D01*
X78614098Y-39362500D01*
X78588392Y-39304280D01*
X78512279Y-39228167D01*
X78413817Y-39184693D01*
X78413819Y-39184693D01*
X78406939Y-39183895D01*
X78389744Y-39181900D01*
X77933776Y-39181900D01*
X77916581Y-39183895D01*
X77909701Y-39184693D01*
X77811240Y-39228167D01*
X77735127Y-39304280D01*
X77718908Y-39341015D01*
X77694856Y-39363981D01*
X77661610Y-39363213D01*
X77639412Y-39341015D01*
X77623192Y-39304280D01*
X77547079Y-39228167D01*
X77448617Y-39184693D01*
X77448619Y-39184693D01*
X77441739Y-39183895D01*
X77424544Y-39181900D01*
X76968576Y-39181900D01*
X76951381Y-39183895D01*
X76944501Y-39184693D01*
X76846040Y-39228167D01*
X76769927Y-39304280D01*
X76726453Y-39402741D01*
X76726453Y-39402743D01*
X76723660Y-39426816D01*
X76723660Y-39782784D01*
X76724747Y-39792151D01*
X76726453Y-39806858D01*
X76769927Y-39905319D01*
X76846040Y-39981432D01*
X76895271Y-40003169D01*
X76944501Y-40024906D01*
X76944500Y-40024906D01*
X76944503Y-40024907D01*
X76968576Y-40027700D01*
X77295426Y-40027700D01*
X77326150Y-40040426D01*
X77509079Y-40223355D01*
X77588615Y-40256300D01*
X77588617Y-40256300D01*
X79762826Y-40256300D01*
X79762827Y-40256300D01*
X79762828Y-40256300D01*
X79842364Y-40223355D01*
X79903238Y-40162481D01*
X79903238Y-40162479D01*
X80436220Y-39629497D01*
X80466943Y-39616772D01*
X80497667Y-39629498D01*
X80510393Y-39660222D01*
X80510393Y-39882628D01*
X80510392Y-39882646D01*
X80510392Y-39930758D01*
X80510183Y-39935016D01*
X80497372Y-40065102D01*
X80495710Y-40073457D01*
X80458390Y-40196485D01*
X80455131Y-40204354D01*
X80394523Y-40317745D01*
X80389790Y-40324828D01*
X80308230Y-40424208D01*
X80302208Y-40430230D01*
X80202828Y-40511790D01*
X80195745Y-40516523D01*
X80082354Y-40577131D01*
X80074485Y-40580390D01*
X79951457Y-40617710D01*
X79943102Y-40619372D01*
X79813016Y-40632183D01*
X79808758Y-40632392D01*
X79759805Y-40632392D01*
X79759793Y-40632393D01*
X68582872Y-40632393D01*
X68552148Y-40619667D01*
X68541296Y-40601567D01*
X68481017Y-40403047D01*
X68381496Y-40204641D01*
X68249819Y-40025951D01*
X68249817Y-40025949D01*
X68249815Y-40025946D01*
X68089792Y-39872139D01*
X68089788Y-39872135D01*
X67941492Y-39771664D01*
X67906024Y-39747634D01*
X67776347Y-39688893D01*
X67703835Y-39656046D01*
X67647801Y-39641427D01*
X67489056Y-39600012D01*
X67267893Y-39581154D01*
X67046729Y-39600012D01*
X66831951Y-39656046D01*
X66629761Y-39747634D01*
X66445999Y-39872134D01*
X66445993Y-39872139D01*
X66285970Y-40025946D01*
X66285968Y-40025949D01*
X66154289Y-40204641D01*
X66154288Y-40204644D01*
X66054770Y-40403043D01*
X66054769Y-40403046D01*
X66036695Y-40462570D01*
X65995750Y-40597419D01*
X65994490Y-40601567D01*
X65973386Y-40627268D01*
X65952914Y-40632393D01*
X60994899Y-40632393D01*
X60964175Y-40619667D01*
X60951449Y-40588943D01*
X60958772Y-40564803D01*
X61027082Y-40462570D01*
X61027082Y-40462569D01*
X61102464Y-40280579D01*
X61102466Y-40280571D01*
X61110756Y-40238893D01*
X60307881Y-40238893D01*
X60325098Y-40228953D01*
X60380953Y-40173098D01*
X60420449Y-40104689D01*
X60440893Y-40028389D01*
X60440893Y-39949397D01*
X60420449Y-39873097D01*
X60380953Y-39804688D01*
X60325098Y-39748833D01*
X60307881Y-39738893D01*
X61110756Y-39738893D01*
X61110756Y-39738892D01*
X61102466Y-39697214D01*
X61102464Y-39697206D01*
X61027082Y-39515216D01*
X61027082Y-39515215D01*
X60917645Y-39351433D01*
X60917642Y-39351429D01*
X60778357Y-39212144D01*
X60778352Y-39212140D01*
X60614569Y-39102703D01*
X60432579Y-39027321D01*
X60432573Y-39027319D01*
X60239386Y-38988893D01*
X59840893Y-38988893D01*
X59840893Y-39688893D01*
X59340893Y-39688893D01*
X59340893Y-38988893D01*
X59328305Y-38976305D01*
X59315579Y-38945581D01*
X59328305Y-38914857D01*
X59337305Y-38907952D01*
X59352156Y-38899378D01*
X59431378Y-38820156D01*
X59487396Y-38723130D01*
X59509488Y-38640681D01*
X59516392Y-38614917D01*
X59516393Y-38614910D01*
X59516393Y-38502875D01*
X59516392Y-38502868D01*
X59490654Y-38406816D01*
X59487396Y-38394656D01*
X59431378Y-38297630D01*
X59352156Y-38218408D01*
X59350301Y-38217337D01*
X59255131Y-38162390D01*
X59146917Y-38133393D01*
X59146911Y-38133393D01*
X59034875Y-38133393D01*
X59034868Y-38133393D01*
X58926654Y-38162390D01*
X58829629Y-38218408D01*
X58750408Y-38297629D01*
X58694390Y-38394654D01*
X58665393Y-38502868D01*
X58665393Y-38614917D01*
X58694390Y-38723131D01*
X58742388Y-38806265D01*
X58750408Y-38820156D01*
X58829630Y-38899378D01*
X58873864Y-38924916D01*
X58894108Y-38951299D01*
X58889768Y-38984270D01*
X58863385Y-39004514D01*
X58860616Y-39005160D01*
X58749212Y-39027319D01*
X58749206Y-39027321D01*
X58567216Y-39102703D01*
X58567215Y-39102703D01*
X58403433Y-39212140D01*
X58264140Y-39351433D01*
X58154703Y-39515215D01*
X58154703Y-39515216D01*
X58079321Y-39697206D01*
X58079319Y-39697214D01*
X58071029Y-39738892D01*
X58071030Y-39738893D01*
X58873905Y-39738893D01*
X58856688Y-39748833D01*
X58800833Y-39804688D01*
X58761337Y-39873097D01*
X58740893Y-39949397D01*
X58740893Y-40028389D01*
X58761337Y-40104689D01*
X58800833Y-40173098D01*
X58856688Y-40228953D01*
X58873905Y-40238893D01*
X58071030Y-40238893D01*
X58079319Y-40280571D01*
X58079321Y-40280579D01*
X58154703Y-40462569D01*
X58154703Y-40462570D01*
X58223014Y-40564803D01*
X58229502Y-40597419D01*
X58211027Y-40625070D01*
X58186887Y-40632393D01*
X56664899Y-40632393D01*
X56634175Y-40619667D01*
X56621449Y-40588943D01*
X56628772Y-40564803D01*
X56697082Y-40462570D01*
X56697082Y-40462569D01*
X56772464Y-40280579D01*
X56772466Y-40280571D01*
X56780756Y-40238893D01*
X55977881Y-40238893D01*
X55995098Y-40228953D01*
X56050953Y-40173098D01*
X56090449Y-40104689D01*
X56110893Y-40028389D01*
X56110893Y-39949397D01*
X56090449Y-39873097D01*
X56050953Y-39804688D01*
X55995098Y-39748833D01*
X55977881Y-39738893D01*
X56780756Y-39738893D01*
X56780756Y-39738892D01*
X56772466Y-39697214D01*
X56772464Y-39697206D01*
X56697082Y-39515216D01*
X56697082Y-39515215D01*
X56587645Y-39351433D01*
X56587642Y-39351429D01*
X56448357Y-39212144D01*
X56448352Y-39212140D01*
X56284569Y-39102703D01*
X56102579Y-39027321D01*
X56102573Y-39027319D01*
X55909386Y-38988893D01*
X55660893Y-38988893D01*
X55660893Y-39688893D01*
X55160893Y-39688893D01*
X55160893Y-38988893D01*
X54912400Y-38988893D01*
X54719212Y-39027319D01*
X54719206Y-39027321D01*
X54537216Y-39102703D01*
X54537215Y-39102703D01*
X54373433Y-39212140D01*
X54234140Y-39351433D01*
X54124703Y-39515215D01*
X54124703Y-39515216D01*
X54049321Y-39697206D01*
X54049319Y-39697214D01*
X54041029Y-39738892D01*
X54041030Y-39738893D01*
X54843905Y-39738893D01*
X54826688Y-39748833D01*
X54770833Y-39804688D01*
X54731337Y-39873097D01*
X54710893Y-39949397D01*
X54710893Y-40028389D01*
X54731337Y-40104689D01*
X54770833Y-40173098D01*
X54826688Y-40228953D01*
X54843905Y-40238893D01*
X54041030Y-40238893D01*
X54049319Y-40280571D01*
X54049321Y-40280579D01*
X54124703Y-40462569D01*
X54124703Y-40462570D01*
X54193014Y-40564803D01*
X54199502Y-40597419D01*
X54181027Y-40625070D01*
X54156887Y-40632393D01*
X53813032Y-40632393D01*
X53808773Y-40632184D01*
X53678688Y-40619370D01*
X53670334Y-40617708D01*
X53547303Y-40580386D01*
X53539436Y-40577127D01*
X53477576Y-40544061D01*
X53426054Y-40516522D01*
X53418973Y-40511790D01*
X53319589Y-40430228D01*
X53313565Y-40424205D01*
X53232000Y-40324816D01*
X53227275Y-40317744D01*
X53166666Y-40204350D01*
X53163408Y-40196483D01*
X53126088Y-40073451D01*
X53124428Y-40065108D01*
X53111601Y-39934872D01*
X53111393Y-39930617D01*
X53111394Y-39885301D01*
X53111393Y-39885297D01*
X53111393Y-33825891D01*
X60881100Y-33825891D01*
X60881100Y-34789308D01*
X60896043Y-34883655D01*
X60896043Y-34883656D01*
X60953982Y-34997369D01*
X61044230Y-35087617D01*
X61121026Y-35126746D01*
X61157945Y-35145557D01*
X61252292Y-35160500D01*
X61747106Y-35160500D01*
X61777830Y-35173226D01*
X61786902Y-35188031D01*
X61787035Y-35187964D01*
X61787895Y-35189652D01*
X61788430Y-35190525D01*
X61788588Y-35191012D01*
X61839337Y-35290613D01*
X61874800Y-35326076D01*
X61887526Y-35356800D01*
X61874800Y-35387524D01*
X61839337Y-35422986D01*
X61788589Y-35522584D01*
X61788587Y-35522590D01*
X61773469Y-35618047D01*
X61756093Y-35646402D01*
X61730554Y-35654700D01*
X61252291Y-35654700D01*
X61157944Y-35669643D01*
X61157943Y-35669643D01*
X61044230Y-35727582D01*
X60953982Y-35817830D01*
X60896043Y-35931543D01*
X60896043Y-35931544D01*
X60881100Y-36025891D01*
X60881100Y-36989308D01*
X60896043Y-37083655D01*
X60896043Y-37083656D01*
X60953982Y-37197369D01*
X61044230Y-37287617D01*
X61157943Y-37345556D01*
X61157945Y-37345557D01*
X61252292Y-37360500D01*
X61252293Y-37360500D01*
X61815707Y-37360500D01*
X61815708Y-37360500D01*
X61910055Y-37345557D01*
X62023771Y-37287616D01*
X62114016Y-37197371D01*
X62171957Y-37083655D01*
X62186900Y-36989308D01*
X62186900Y-36025892D01*
X62186766Y-36025045D01*
X62186816Y-36024834D01*
X62186766Y-36024191D01*
X62186975Y-36024174D01*
X62194530Y-35992709D01*
X62222883Y-35975334D01*
X62238811Y-35972812D01*
X62338415Y-35922061D01*
X62417461Y-35843015D01*
X62468212Y-35743411D01*
X62485699Y-35633000D01*
X62468212Y-35522589D01*
X62468211Y-35522587D01*
X62468210Y-35522584D01*
X62417462Y-35422986D01*
X62382000Y-35387524D01*
X62369274Y-35356800D01*
X62382000Y-35326076D01*
X62417461Y-35290615D01*
X62468212Y-35191011D01*
X62485699Y-35080600D01*
X62483668Y-35067779D01*
X62468212Y-34970190D01*
X62468210Y-34970184D01*
X62417462Y-34870586D01*
X62338413Y-34791537D01*
X62238812Y-34740788D01*
X62223552Y-34738371D01*
X62195198Y-34720995D01*
X62186900Y-34695456D01*
X62186900Y-33825893D01*
X62186900Y-33825892D01*
X62171957Y-33731545D01*
X62141586Y-33671938D01*
X62114017Y-33617830D01*
X62023769Y-33527582D01*
X61910056Y-33469643D01*
X61815708Y-33454700D01*
X61252292Y-33454700D01*
X61252291Y-33454700D01*
X61157944Y-33469643D01*
X61157943Y-33469643D01*
X61044230Y-33527582D01*
X60953982Y-33617830D01*
X60896043Y-33731543D01*
X60896043Y-33731544D01*
X60881100Y-33825891D01*
X53111393Y-33825891D01*
X53111393Y-31098892D01*
X54041029Y-31098892D01*
X54041030Y-31098893D01*
X54843905Y-31098893D01*
X54826688Y-31108833D01*
X54770833Y-31164688D01*
X54731337Y-31233097D01*
X54710893Y-31309397D01*
X54710893Y-31388389D01*
X54731337Y-31464689D01*
X54770833Y-31533098D01*
X54826688Y-31588953D01*
X54843905Y-31598893D01*
X54041030Y-31598893D01*
X54049319Y-31640571D01*
X54049321Y-31640579D01*
X54124703Y-31822569D01*
X54124703Y-31822570D01*
X54234140Y-31986352D01*
X54234144Y-31986357D01*
X54373429Y-32125642D01*
X54373433Y-32125645D01*
X54537216Y-32235082D01*
X54719206Y-32310464D01*
X54719212Y-32310466D01*
X54912400Y-32348893D01*
X55160893Y-32348893D01*
X55160893Y-31648893D01*
X55660893Y-31648893D01*
X55660893Y-32348893D01*
X55909386Y-32348893D01*
X56102573Y-32310466D01*
X56102579Y-32310464D01*
X56284569Y-32235082D01*
X56284570Y-32235082D01*
X56448352Y-32125645D01*
X56448357Y-32125642D01*
X56587642Y-31986357D01*
X56587645Y-31986352D01*
X56697082Y-31822570D01*
X56697082Y-31822569D01*
X56772464Y-31640579D01*
X56772466Y-31640571D01*
X56780756Y-31598893D01*
X55977881Y-31598893D01*
X55995098Y-31588953D01*
X56050953Y-31533098D01*
X56090449Y-31464689D01*
X56110893Y-31388389D01*
X56110893Y-31309397D01*
X56090449Y-31233097D01*
X56050953Y-31164688D01*
X55995098Y-31108833D01*
X55977881Y-31098893D01*
X56780756Y-31098893D01*
X56780756Y-31098892D01*
X58071029Y-31098892D01*
X58071030Y-31098893D01*
X58873905Y-31098893D01*
X58856688Y-31108833D01*
X58800833Y-31164688D01*
X58761337Y-31233097D01*
X58740893Y-31309397D01*
X58740893Y-31388389D01*
X58761337Y-31464689D01*
X58800833Y-31533098D01*
X58856688Y-31588953D01*
X58873905Y-31598893D01*
X58071030Y-31598893D01*
X58079319Y-31640571D01*
X58079321Y-31640579D01*
X58154703Y-31822569D01*
X58154703Y-31822570D01*
X58264140Y-31986352D01*
X58264144Y-31986357D01*
X58403429Y-32125642D01*
X58403433Y-32125645D01*
X58567216Y-32235082D01*
X58749206Y-32310464D01*
X58749214Y-32310466D01*
X58860615Y-32332625D01*
X58888266Y-32351100D01*
X58894754Y-32383716D01*
X58876279Y-32411367D01*
X58873864Y-32412869D01*
X58829629Y-32438408D01*
X58750408Y-32517629D01*
X58694390Y-32614654D01*
X58665393Y-32722868D01*
X58665393Y-32834917D01*
X58694390Y-32943131D01*
X58721969Y-32990899D01*
X58750408Y-33040156D01*
X58829630Y-33119378D01*
X58926656Y-33175396D01*
X58964140Y-33185440D01*
X59034868Y-33204392D01*
X59034875Y-33204393D01*
X59146911Y-33204393D01*
X59146917Y-33204392D01*
X59196001Y-33191239D01*
X59255130Y-33175396D01*
X59352156Y-33119378D01*
X59431378Y-33040156D01*
X59487396Y-32943130D01*
X59506910Y-32870303D01*
X59516392Y-32834917D01*
X59516393Y-32834910D01*
X59516393Y-32722875D01*
X59516392Y-32722868D01*
X59490958Y-32627949D01*
X59487396Y-32614656D01*
X59431378Y-32517630D01*
X59352156Y-32438408D01*
X59352155Y-32438407D01*
X59337303Y-32429832D01*
X59317059Y-32403449D01*
X59321401Y-32370478D01*
X59328306Y-32361480D01*
X59340893Y-32348893D01*
X59340893Y-31648893D01*
X59840893Y-31648893D01*
X59840893Y-32348893D01*
X60239386Y-32348893D01*
X60432573Y-32310466D01*
X60432579Y-32310464D01*
X60614569Y-32235082D01*
X60614570Y-32235082D01*
X60778352Y-32125645D01*
X60778357Y-32125642D01*
X60917642Y-31986357D01*
X60917645Y-31986352D01*
X61027082Y-31822570D01*
X61027082Y-31822569D01*
X61102464Y-31640579D01*
X61102466Y-31640571D01*
X61110756Y-31598893D01*
X60307881Y-31598893D01*
X60325098Y-31588953D01*
X60380953Y-31533098D01*
X60420449Y-31464689D01*
X60440893Y-31388389D01*
X60440893Y-31309397D01*
X60420449Y-31233097D01*
X60380953Y-31164688D01*
X60325098Y-31108833D01*
X60307881Y-31098893D01*
X61110756Y-31098893D01*
X61110756Y-31098892D01*
X61102466Y-31057214D01*
X61102464Y-31057206D01*
X61027082Y-30875216D01*
X61027082Y-30875215D01*
X60917645Y-30711433D01*
X60917642Y-30711429D01*
X60778357Y-30572144D01*
X60778352Y-30572140D01*
X60614569Y-30462703D01*
X60432579Y-30387321D01*
X60432573Y-30387319D01*
X60239386Y-30348893D01*
X59840893Y-30348893D01*
X59840893Y-31048893D01*
X59340893Y-31048893D01*
X59340893Y-30348893D01*
X58942400Y-30348893D01*
X58749212Y-30387319D01*
X58749206Y-30387321D01*
X58567216Y-30462703D01*
X58567215Y-30462703D01*
X58403433Y-30572140D01*
X58264140Y-30711433D01*
X58154703Y-30875215D01*
X58154703Y-30875216D01*
X58079321Y-31057206D01*
X58079319Y-31057214D01*
X58071029Y-31098892D01*
X56780756Y-31098892D01*
X56772466Y-31057214D01*
X56772464Y-31057206D01*
X56697082Y-30875216D01*
X56697082Y-30875215D01*
X56587645Y-30711433D01*
X56587642Y-30711429D01*
X56448357Y-30572144D01*
X56448352Y-30572140D01*
X56284569Y-30462703D01*
X56102579Y-30387321D01*
X56102573Y-30387319D01*
X55909386Y-30348893D01*
X55660893Y-30348893D01*
X55660893Y-31048893D01*
X55160893Y-31048893D01*
X55160893Y-30348893D01*
X54912400Y-30348893D01*
X54719212Y-30387319D01*
X54719206Y-30387321D01*
X54537216Y-30462703D01*
X54537215Y-30462703D01*
X54373433Y-30572140D01*
X54234140Y-30711433D01*
X54124703Y-30875215D01*
X54124703Y-30875216D01*
X54049321Y-31057206D01*
X54049319Y-31057214D01*
X54041029Y-31098892D01*
X53111393Y-31098892D01*
X53111393Y-26720799D01*
X57097501Y-26720799D01*
X57097501Y-26720800D01*
X57114987Y-26831209D01*
X57114989Y-26831215D01*
X57165737Y-26930813D01*
X57200274Y-26965350D01*
X57213000Y-26996074D01*
X57213000Y-27129903D01*
X57213000Y-27226097D01*
X57249812Y-27314969D01*
X59807031Y-29872188D01*
X59895903Y-29909000D01*
X59992096Y-29909000D01*
X61451445Y-29909000D01*
X61482169Y-29921726D01*
X63179474Y-31619031D01*
X63192200Y-31649755D01*
X63192200Y-33411394D01*
X63179474Y-33442118D01*
X63153895Y-33453914D01*
X63153978Y-33454433D01*
X63057944Y-33469643D01*
X63057943Y-33469643D01*
X62944230Y-33527582D01*
X62853982Y-33617830D01*
X62796043Y-33731543D01*
X62796043Y-33731544D01*
X62781100Y-33825891D01*
X62781100Y-34789308D01*
X62796043Y-34883655D01*
X62796043Y-34883656D01*
X62853982Y-34997369D01*
X62944230Y-35087617D01*
X63021026Y-35126746D01*
X63057945Y-35145557D01*
X63152292Y-35160500D01*
X63152293Y-35160500D01*
X63715707Y-35160500D01*
X63715708Y-35160500D01*
X63810055Y-35145557D01*
X63923771Y-35087616D01*
X64014016Y-34997371D01*
X64071957Y-34883655D01*
X64086900Y-34789308D01*
X64086900Y-33825892D01*
X64071957Y-33731545D01*
X64041586Y-33671938D01*
X64014017Y-33617830D01*
X63923769Y-33527582D01*
X63810056Y-33469643D01*
X63714022Y-33454433D01*
X63714116Y-33453836D01*
X63686201Y-33439602D01*
X63675800Y-33411394D01*
X63675800Y-31483504D01*
X63675800Y-31483503D01*
X63638988Y-31394631D01*
X63570969Y-31326612D01*
X61706569Y-29462212D01*
X61617697Y-29425400D01*
X61617695Y-29425400D01*
X60062155Y-29425400D01*
X60031431Y-29412674D01*
X57709326Y-27090569D01*
X57696600Y-27059845D01*
X57696600Y-26996074D01*
X57709326Y-26965350D01*
X57743861Y-26930815D01*
X57794612Y-26831211D01*
X57812099Y-26720800D01*
X57811870Y-26719357D01*
X57794612Y-26610390D01*
X57794610Y-26610384D01*
X57743862Y-26510786D01*
X57664813Y-26431737D01*
X57565215Y-26380989D01*
X57565209Y-26380987D01*
X57454801Y-26363501D01*
X57454799Y-26363501D01*
X57344390Y-26380987D01*
X57344384Y-26380989D01*
X57244786Y-26431737D01*
X57165737Y-26510786D01*
X57114989Y-26610384D01*
X57114987Y-26610390D01*
X57097501Y-26720799D01*
X53111393Y-26720799D01*
X53111393Y-24935028D01*
X53111602Y-24930769D01*
X53111616Y-24930630D01*
X53124416Y-24800679D01*
X53126075Y-24792339D01*
X53163401Y-24669293D01*
X53166656Y-24661438D01*
X53227267Y-24548042D01*
X53231988Y-24540975D01*
X53313564Y-24441575D01*
X53319575Y-24435564D01*
X53418975Y-24353988D01*
X53426042Y-24349267D01*
X53539438Y-24288656D01*
X53547293Y-24285401D01*
X53670339Y-24248075D01*
X53678679Y-24246416D01*
X53808773Y-24233601D01*
X53813032Y-24233393D01*
X53858490Y-24233393D01*
X65366943Y-24233393D01*
X65397667Y-24246119D01*
G37*
%TD.AperFunction*%
%TA.AperFunction,Conductor*%
G36*
X75770870Y-29110436D02*
G01*
X75835584Y-29143410D01*
X75835587Y-29143411D01*
X75835589Y-29143412D01*
X75871818Y-29149150D01*
X75945999Y-29160899D01*
X75946000Y-29160899D01*
X75946001Y-29160899D01*
X75999756Y-29152385D01*
X76056411Y-29143412D01*
X76056414Y-29143410D01*
X76059667Y-29142354D01*
X76059928Y-29143157D01*
X76089508Y-29140822D01*
X76114800Y-29162414D01*
X76117418Y-29195566D01*
X76114805Y-29201875D01*
X76063389Y-29302784D01*
X76063387Y-29302790D01*
X76045901Y-29413199D01*
X76045901Y-29413200D01*
X76063387Y-29523609D01*
X76063389Y-29523615D01*
X76114137Y-29623213D01*
X76193186Y-29702262D01*
X76292784Y-29753010D01*
X76292787Y-29753011D01*
X76292789Y-29753012D01*
X76347994Y-29761755D01*
X76403199Y-29770499D01*
X76403200Y-29770499D01*
X76403201Y-29770499D01*
X76440003Y-29764670D01*
X76513611Y-29753012D01*
X76613215Y-29702261D01*
X76692261Y-29623215D01*
X76694065Y-29619676D01*
X76721136Y-29566545D01*
X76746423Y-29544947D01*
X76779575Y-29547556D01*
X76801173Y-29572843D01*
X76803300Y-29586270D01*
X76803300Y-29746658D01*
X76808043Y-29770499D01*
X76812172Y-29791258D01*
X76812172Y-29791259D01*
X76812174Y-29791263D01*
X76845962Y-29841830D01*
X76845969Y-29841837D01*
X76896538Y-29875626D01*
X76896542Y-29875628D01*
X76941143Y-29884500D01*
X77358665Y-29884499D01*
X77389389Y-29897225D01*
X77535944Y-30043780D01*
X77535945Y-30043781D01*
X77596819Y-30104655D01*
X77676355Y-30137600D01*
X77676356Y-30137600D01*
X77762444Y-30137600D01*
X79394367Y-30137600D01*
X79425091Y-30150326D01*
X79686635Y-30411870D01*
X79699361Y-30442594D01*
X79686635Y-30473318D01*
X79655911Y-30486044D01*
X79649114Y-30485509D01*
X79603601Y-30478301D01*
X79603599Y-30478301D01*
X79493190Y-30495787D01*
X79493184Y-30495789D01*
X79393586Y-30546537D01*
X79314537Y-30625586D01*
X79263789Y-30725184D01*
X79263787Y-30725190D01*
X79246301Y-30835599D01*
X79246301Y-30835600D01*
X79263787Y-30946009D01*
X79263789Y-30946015D01*
X79314537Y-31045613D01*
X79349074Y-31080150D01*
X79361800Y-31110874D01*
X79361800Y-31127344D01*
X79349074Y-31158068D01*
X79241168Y-31265974D01*
X79210444Y-31278700D01*
X78841141Y-31278700D01*
X78801483Y-31286589D01*
X78796542Y-31287572D01*
X78796541Y-31287572D01*
X78796536Y-31287574D01*
X78745969Y-31321362D01*
X78745962Y-31321369D01*
X78712173Y-31371938D01*
X78712171Y-31371942D01*
X78703300Y-31416540D01*
X78703300Y-32446658D01*
X78710206Y-32481375D01*
X78712172Y-32491258D01*
X78712172Y-32491259D01*
X78712174Y-32491263D01*
X78745962Y-32541830D01*
X78745969Y-32541837D01*
X78796538Y-32575626D01*
X78796542Y-32575628D01*
X78841143Y-32584500D01*
X79421256Y-32584499D01*
X79421258Y-32584499D01*
X79431138Y-32582533D01*
X79465858Y-32575628D01*
X79465862Y-32575625D01*
X79465863Y-32575625D01*
X79516430Y-32541837D01*
X79516430Y-32541836D01*
X79516434Y-32541834D01*
X79532608Y-32517629D01*
X79550226Y-32491261D01*
X79550228Y-32491257D01*
X79550228Y-32491256D01*
X79559100Y-32446657D01*
X79559099Y-31649954D01*
X79571825Y-31619231D01*
X79657958Y-31533098D01*
X79808588Y-31382469D01*
X79845400Y-31293597D01*
X79845400Y-31197404D01*
X79845400Y-31110874D01*
X79858126Y-31080150D01*
X79871826Y-31066450D01*
X79902550Y-31053724D01*
X79933274Y-31066450D01*
X79946000Y-31097174D01*
X79946000Y-34089738D01*
X79933274Y-34120462D01*
X79902550Y-34133188D01*
X79878411Y-34125866D01*
X79870323Y-34120462D01*
X79866133Y-34117662D01*
X79866132Y-34117661D01*
X79821534Y-34108790D01*
X77491416Y-34108790D01*
X77480991Y-34110865D01*
X77472514Y-34111700D01*
X77170768Y-34111700D01*
X77140044Y-34098974D01*
X77131020Y-34085800D01*
X77116628Y-34053204D01*
X77039196Y-33975772D01*
X77039192Y-33975769D01*
X77036594Y-33974622D01*
X77013632Y-33950567D01*
X77010700Y-33934877D01*
X77010700Y-33689936D01*
X77023426Y-33659212D01*
X77217613Y-33465026D01*
X77248337Y-33452300D01*
X77913250Y-33452300D01*
X77913256Y-33452299D01*
X77962655Y-33439061D01*
X77984437Y-33433225D01*
X78048262Y-33396376D01*
X78405176Y-33039463D01*
X78442025Y-32975638D01*
X78450736Y-32943130D01*
X78461099Y-32904456D01*
X78461100Y-32904449D01*
X78461100Y-32622178D01*
X78473826Y-32591454D01*
X78496074Y-32579563D01*
X78499205Y-32578940D01*
X78515858Y-32575628D01*
X78515861Y-32575625D01*
X78515863Y-32575625D01*
X78566430Y-32541837D01*
X78566430Y-32541836D01*
X78566434Y-32541834D01*
X78582608Y-32517629D01*
X78600226Y-32491261D01*
X78600228Y-32491257D01*
X78600228Y-32491256D01*
X78609100Y-32446657D01*
X78609099Y-31416544D01*
X78609099Y-31416543D01*
X78609099Y-31416541D01*
X78606150Y-31401720D01*
X78600228Y-31371942D01*
X78600225Y-31371938D01*
X78600225Y-31371936D01*
X78566437Y-31321369D01*
X78566430Y-31321362D01*
X78515861Y-31287573D01*
X78515857Y-31287571D01*
X78471259Y-31278700D01*
X77891141Y-31278700D01*
X77851483Y-31286589D01*
X77846542Y-31287572D01*
X77846541Y-31287572D01*
X77846536Y-31287574D01*
X77795969Y-31321362D01*
X77795962Y-31321369D01*
X77762173Y-31371938D01*
X77762171Y-31371942D01*
X77753300Y-31416540D01*
X77753300Y-32446658D01*
X77760206Y-32481375D01*
X77762172Y-32491258D01*
X77762172Y-32491259D01*
X77762174Y-32491263D01*
X77795962Y-32541830D01*
X77795969Y-32541837D01*
X77846538Y-32575626D01*
X77846540Y-32575627D01*
X77846542Y-32575628D01*
X77866326Y-32579563D01*
X77893977Y-32598038D01*
X77901300Y-32622178D01*
X77901300Y-32733663D01*
X77888574Y-32764387D01*
X77773188Y-32879774D01*
X77742464Y-32892500D01*
X77248336Y-32892500D01*
X77217612Y-32879774D01*
X77020226Y-32682388D01*
X77007500Y-32651664D01*
X77007500Y-32627949D01*
X77020226Y-32597225D01*
X77050950Y-32584499D01*
X77521258Y-32584499D01*
X77531138Y-32582533D01*
X77565858Y-32575628D01*
X77565862Y-32575625D01*
X77565863Y-32575625D01*
X77616430Y-32541837D01*
X77616430Y-32541836D01*
X77616434Y-32541834D01*
X77632608Y-32517629D01*
X77650226Y-32491261D01*
X77650228Y-32491257D01*
X77650228Y-32491256D01*
X77659100Y-32446657D01*
X77659099Y-31416544D01*
X77659099Y-31416543D01*
X77659099Y-31416541D01*
X77656150Y-31401720D01*
X77650228Y-31371942D01*
X77650225Y-31371938D01*
X77650225Y-31371936D01*
X77616437Y-31321369D01*
X77616430Y-31321362D01*
X77565861Y-31287573D01*
X77565854Y-31287570D01*
X77562544Y-31286912D01*
X77534895Y-31268434D01*
X77528411Y-31235817D01*
X77540300Y-31213575D01*
X77555861Y-31198015D01*
X77606612Y-31098411D01*
X77624099Y-30988000D01*
X77606612Y-30877589D01*
X77606611Y-30877587D01*
X77606610Y-30877584D01*
X77555862Y-30777986D01*
X77476813Y-30698937D01*
X77377215Y-30648189D01*
X77377209Y-30648187D01*
X77266801Y-30630701D01*
X77266799Y-30630701D01*
X77156390Y-30648187D01*
X77156384Y-30648189D01*
X77070676Y-30691860D01*
X77037523Y-30694469D01*
X77012236Y-30672872D01*
X77007500Y-30653146D01*
X77007500Y-30618618D01*
X77007499Y-30618611D01*
X76988425Y-30547431D01*
X76988424Y-30547430D01*
X76987909Y-30546537D01*
X76951576Y-30483606D01*
X76899462Y-30431492D01*
X76396994Y-29929024D01*
X76333169Y-29892175D01*
X76333168Y-29892174D01*
X76261988Y-29873100D01*
X76261982Y-29873100D01*
X75345616Y-29873100D01*
X75345609Y-29873100D01*
X75289472Y-29888144D01*
X75274426Y-29892175D01*
X75210602Y-29929024D01*
X75182987Y-29956640D01*
X75152263Y-29969366D01*
X74919466Y-29969366D01*
X74901975Y-29971395D01*
X74894977Y-29972207D01*
X74794804Y-30016437D01*
X74717371Y-30093870D01*
X74702814Y-30126840D01*
X74678762Y-30149806D01*
X74645516Y-30149038D01*
X74623318Y-30126840D01*
X74608760Y-30093870D01*
X74531327Y-30016437D01*
X74531328Y-30016437D01*
X74431153Y-29972207D01*
X74431155Y-29972207D01*
X74424156Y-29971395D01*
X74406666Y-29969366D01*
X73979198Y-29969366D01*
X73961707Y-29971395D01*
X73954709Y-29972207D01*
X73854536Y-30016437D01*
X73777104Y-30093869D01*
X73763014Y-30125781D01*
X73738962Y-30148746D01*
X73705715Y-30147978D01*
X73683518Y-30125781D01*
X73674189Y-30104653D01*
X73669428Y-30093870D01*
X73591996Y-30016438D01*
X73591995Y-30016437D01*
X73591996Y-30016437D01*
X73491821Y-29972207D01*
X73491823Y-29972207D01*
X73484824Y-29971395D01*
X73467334Y-29969366D01*
X73039866Y-29969366D01*
X73022375Y-29971395D01*
X73015377Y-29972207D01*
X72915204Y-30016437D01*
X72837771Y-30093870D01*
X72793541Y-30194043D01*
X72793541Y-30194045D01*
X72790700Y-30218532D01*
X72790700Y-30586000D01*
X72791726Y-30594844D01*
X72793541Y-30610488D01*
X72837771Y-30710661D01*
X72915204Y-30788094D01*
X72915203Y-30788094D01*
X72923178Y-30791615D01*
X73015377Y-30832324D01*
X73015376Y-30832324D01*
X73015379Y-30832325D01*
X73039866Y-30835166D01*
X73310848Y-30835166D01*
X73341572Y-30847892D01*
X73518322Y-31024642D01*
X73518325Y-31024646D01*
X73520800Y-31027121D01*
X73520801Y-31027123D01*
X73591943Y-31098265D01*
X73646393Y-31120818D01*
X73684895Y-31136767D01*
X73790560Y-31136767D01*
X73790568Y-31136766D01*
X74596232Y-31136766D01*
X74596240Y-31136767D01*
X74601295Y-31136767D01*
X74701905Y-31136767D01*
X74740404Y-31120819D01*
X74740406Y-31120818D01*
X74740408Y-31120817D01*
X74794857Y-31098265D01*
X74865999Y-31027123D01*
X74865999Y-31027120D01*
X74870171Y-31022949D01*
X74870173Y-31022945D01*
X75045228Y-30847892D01*
X75075952Y-30835166D01*
X75347178Y-30835166D01*
X75377902Y-30847892D01*
X75390628Y-30878616D01*
X75377902Y-30909340D01*
X73573831Y-32713412D01*
X73505813Y-32781429D01*
X73505812Y-32781430D01*
X73505812Y-32781431D01*
X73483658Y-32834917D01*
X73469000Y-32870304D01*
X73469000Y-33613045D01*
X73456274Y-33643769D01*
X73216969Y-33883074D01*
X73186245Y-33895800D01*
X70176074Y-33895800D01*
X70145350Y-33883074D01*
X70110813Y-33848537D01*
X70011215Y-33797789D01*
X70011209Y-33797787D01*
X69900801Y-33780301D01*
X69900799Y-33780301D01*
X69790390Y-33797787D01*
X69790384Y-33797789D01*
X69690786Y-33848537D01*
X69611737Y-33927586D01*
X69560989Y-34027184D01*
X69560987Y-34027190D01*
X69543501Y-34137599D01*
X69543501Y-34137600D01*
X69560987Y-34248009D01*
X69560989Y-34248015D01*
X69611737Y-34347613D01*
X69690786Y-34426662D01*
X69790384Y-34477410D01*
X69790387Y-34477411D01*
X69790389Y-34477412D01*
X69845594Y-34486155D01*
X69900799Y-34494899D01*
X69900800Y-34494899D01*
X69900801Y-34494899D01*
X69950269Y-34487064D01*
X70011211Y-34477412D01*
X70110815Y-34426661D01*
X70145350Y-34392126D01*
X70176074Y-34379400D01*
X73352495Y-34379400D01*
X73352497Y-34379400D01*
X73441369Y-34342588D01*
X73915788Y-33868169D01*
X73952600Y-33779297D01*
X73952600Y-33683104D01*
X73952600Y-33036554D01*
X73965325Y-33005831D01*
X76019531Y-30951624D01*
X76044513Y-30941276D01*
X76044222Y-30939434D01*
X76047600Y-30938899D01*
X76158011Y-30921412D01*
X76257615Y-30870661D01*
X76336661Y-30791615D01*
X76353811Y-30757954D01*
X76379099Y-30736357D01*
X76412251Y-30738965D01*
X76423250Y-30746956D01*
X76434974Y-30758680D01*
X76447700Y-30789404D01*
X76447700Y-32822456D01*
X76466774Y-32893636D01*
X76466775Y-32893637D01*
X76503624Y-32957462D01*
X76687837Y-33141675D01*
X76700563Y-33172399D01*
X76687837Y-33203123D01*
X76558938Y-33332024D01*
X76506824Y-33384137D01*
X76469975Y-33447962D01*
X76469974Y-33447963D01*
X76450900Y-33519143D01*
X76450900Y-33934877D01*
X76438174Y-33965601D01*
X76425006Y-33974622D01*
X76422407Y-33975769D01*
X76422403Y-33975772D01*
X76344971Y-34053204D01*
X76300741Y-34153377D01*
X76300741Y-34153379D01*
X76297900Y-34177866D01*
X76297900Y-34605334D01*
X76300267Y-34625739D01*
X76300741Y-34629822D01*
X76344971Y-34729995D01*
X76344972Y-34729996D01*
X76422404Y-34807428D01*
X76424998Y-34808573D01*
X76447965Y-34832624D01*
X76450900Y-34848322D01*
X76450900Y-34849277D01*
X76438174Y-34880001D01*
X76425006Y-34889022D01*
X76422407Y-34890169D01*
X76422403Y-34890172D01*
X76344971Y-34967604D01*
X76300741Y-35067777D01*
X76300741Y-35067779D01*
X76297900Y-35092266D01*
X76297900Y-35519734D01*
X76300267Y-35540139D01*
X76300741Y-35544222D01*
X76344971Y-35644395D01*
X76344972Y-35644396D01*
X76422404Y-35721828D01*
X76424998Y-35722973D01*
X76447965Y-35747024D01*
X76450900Y-35762722D01*
X76450900Y-36752079D01*
X76438174Y-36782803D01*
X76305203Y-36915774D01*
X76274479Y-36928500D01*
X76250322Y-36928500D01*
X76219598Y-36915774D01*
X76210573Y-36902598D01*
X76209428Y-36900004D01*
X76131996Y-36822572D01*
X76131995Y-36822571D01*
X76131996Y-36822571D01*
X76031821Y-36778341D01*
X76031823Y-36778341D01*
X76024824Y-36777529D01*
X76007334Y-36775500D01*
X75579866Y-36775500D01*
X75562375Y-36777529D01*
X75555377Y-36778341D01*
X75455204Y-36822571D01*
X75377772Y-36900003D01*
X75376627Y-36902598D01*
X75352576Y-36925565D01*
X75336878Y-36928500D01*
X75335922Y-36928500D01*
X75305198Y-36915774D01*
X75296173Y-36902598D01*
X75295028Y-36900004D01*
X75217596Y-36822572D01*
X75217595Y-36822571D01*
X75217596Y-36822571D01*
X75117421Y-36778341D01*
X75117423Y-36778341D01*
X75110424Y-36777529D01*
X75092934Y-36775500D01*
X74665466Y-36775500D01*
X74647975Y-36777529D01*
X74640977Y-36778341D01*
X74540804Y-36822571D01*
X74463372Y-36900003D01*
X74462227Y-36902598D01*
X74438176Y-36925565D01*
X74422478Y-36928500D01*
X74421522Y-36928500D01*
X74390798Y-36915774D01*
X74381773Y-36902598D01*
X74380628Y-36900004D01*
X74303196Y-36822572D01*
X74303195Y-36822571D01*
X74303196Y-36822571D01*
X74203021Y-36778341D01*
X74203023Y-36778341D01*
X74196024Y-36777529D01*
X74178534Y-36775500D01*
X73751066Y-36775500D01*
X73733575Y-36777529D01*
X73726577Y-36778341D01*
X73626404Y-36822571D01*
X73548972Y-36900003D01*
X73547827Y-36902598D01*
X73523776Y-36925565D01*
X73508078Y-36928500D01*
X73507122Y-36928500D01*
X73476398Y-36915774D01*
X73467373Y-36902598D01*
X73466228Y-36900004D01*
X73388796Y-36822572D01*
X73388795Y-36822571D01*
X73388796Y-36822571D01*
X73288621Y-36778341D01*
X73288623Y-36778341D01*
X73281624Y-36777529D01*
X73264134Y-36775500D01*
X72836666Y-36775500D01*
X72819175Y-36777529D01*
X72812177Y-36778341D01*
X72712004Y-36822571D01*
X72634572Y-36900003D01*
X72633427Y-36902598D01*
X72609376Y-36925565D01*
X72593678Y-36928500D01*
X69600337Y-36928500D01*
X69569613Y-36915774D01*
X69329826Y-36675987D01*
X69317100Y-36645263D01*
X69317100Y-36383114D01*
X69329826Y-36352390D01*
X69337057Y-36346562D01*
X69340012Y-36344664D01*
X69426202Y-36245196D01*
X69480876Y-36125475D01*
X69499607Y-35995200D01*
X69480876Y-35864925D01*
X69426202Y-35745204D01*
X69340012Y-35645736D01*
X69337057Y-35643837D01*
X69318093Y-35616520D01*
X69317100Y-35607286D01*
X69317100Y-34405550D01*
X69317099Y-34405543D01*
X69299506Y-34339888D01*
X69299505Y-34339887D01*
X69298025Y-34334363D01*
X69298025Y-34334362D01*
X69261176Y-34270537D01*
X69201816Y-34211178D01*
X69189091Y-34180455D01*
X69189532Y-34174283D01*
X69194807Y-34137600D01*
X69189533Y-34100926D01*
X69197757Y-34068705D01*
X69201810Y-34064026D01*
X70262212Y-33003625D01*
X70292936Y-32990899D01*
X70572858Y-32990899D01*
X70582738Y-32988933D01*
X70617458Y-32982028D01*
X70617462Y-32982025D01*
X70617463Y-32982025D01*
X70668030Y-32948237D01*
X70668030Y-32948236D01*
X70668034Y-32948234D01*
X70671445Y-32943130D01*
X70701826Y-32897661D01*
X70701828Y-32897657D01*
X70707269Y-32870303D01*
X70710700Y-32853057D01*
X70710699Y-31822944D01*
X70710699Y-31822943D01*
X70710699Y-31822941D01*
X70710699Y-31822940D01*
X70804900Y-31822940D01*
X70804900Y-32853058D01*
X70808331Y-32870303D01*
X70813772Y-32897658D01*
X70813772Y-32897659D01*
X70813774Y-32897663D01*
X70847562Y-32948230D01*
X70847569Y-32948237D01*
X70898138Y-32982026D01*
X70898142Y-32982028D01*
X70942743Y-32990900D01*
X71522856Y-32990899D01*
X71522858Y-32990899D01*
X71532738Y-32988933D01*
X71567458Y-32982028D01*
X71567462Y-32982025D01*
X71567463Y-32982025D01*
X71618030Y-32948237D01*
X71618030Y-32948236D01*
X71618034Y-32948234D01*
X71621445Y-32943130D01*
X71651826Y-32897661D01*
X71651828Y-32897657D01*
X71657269Y-32870303D01*
X71660700Y-32853057D01*
X71660699Y-31822944D01*
X71660699Y-31822943D01*
X71660699Y-31822941D01*
X71657750Y-31808120D01*
X71651828Y-31778342D01*
X71651825Y-31778338D01*
X71651825Y-31778336D01*
X71618037Y-31727769D01*
X71618030Y-31727762D01*
X71567461Y-31693973D01*
X71567457Y-31693971D01*
X71522859Y-31685100D01*
X70942741Y-31685100D01*
X70903083Y-31692989D01*
X70898142Y-31693972D01*
X70898141Y-31693972D01*
X70898136Y-31693974D01*
X70847569Y-31727762D01*
X70847562Y-31727769D01*
X70813773Y-31778338D01*
X70813771Y-31778342D01*
X70804900Y-31822940D01*
X70710699Y-31822940D01*
X70707750Y-31808120D01*
X70701828Y-31778342D01*
X70701825Y-31778338D01*
X70701825Y-31778336D01*
X70668037Y-31727769D01*
X70668030Y-31727762D01*
X70617461Y-31693973D01*
X70617457Y-31693971D01*
X70572859Y-31685100D01*
X69992741Y-31685100D01*
X69953083Y-31692989D01*
X69948142Y-31693972D01*
X69948141Y-31693972D01*
X69948136Y-31693974D01*
X69897569Y-31727762D01*
X69897562Y-31727769D01*
X69863773Y-31778338D01*
X69863771Y-31778342D01*
X69854900Y-31822940D01*
X69854900Y-32601263D01*
X69842174Y-32631987D01*
X69834873Y-32639288D01*
X69804149Y-32652014D01*
X69773425Y-32639288D01*
X69760699Y-32608564D01*
X69760699Y-31822941D01*
X69757750Y-31808120D01*
X69751828Y-31778342D01*
X69751825Y-31778338D01*
X69751825Y-31778336D01*
X69718037Y-31727769D01*
X69718032Y-31727764D01*
X69667459Y-31693972D01*
X69663506Y-31692335D01*
X69664152Y-31690774D01*
X69641915Y-31675905D01*
X69634600Y-31651777D01*
X69634600Y-31618874D01*
X69647326Y-31588150D01*
X69650076Y-31585400D01*
X69681861Y-31553615D01*
X69698778Y-31520413D01*
X69732610Y-31454015D01*
X69732610Y-31454014D01*
X69732612Y-31454011D01*
X69750099Y-31343600D01*
X69747408Y-31326612D01*
X69738194Y-31268434D01*
X69732612Y-31233189D01*
X69732611Y-31233187D01*
X69732610Y-31233184D01*
X69681862Y-31133586D01*
X69602813Y-31054537D01*
X69503215Y-31003789D01*
X69503209Y-31003787D01*
X69392801Y-30986301D01*
X69392799Y-30986301D01*
X69282390Y-31003787D01*
X69282384Y-31003789D01*
X69182786Y-31054537D01*
X69148250Y-31089074D01*
X69117526Y-31101800D01*
X67936154Y-31101800D01*
X67905430Y-31089074D01*
X67513726Y-30697369D01*
X67501000Y-30666645D01*
X67501000Y-29885125D01*
X67513726Y-29854401D01*
X67526297Y-29841830D01*
X67548261Y-29819866D01*
X67590104Y-29737745D01*
X67595636Y-29726888D01*
X67620923Y-29705291D01*
X67654076Y-29707900D01*
X67675673Y-29733187D01*
X67677800Y-29746614D01*
X67677800Y-30228703D01*
X67677800Y-30324897D01*
X67714612Y-30413769D01*
X68122331Y-30821488D01*
X68211203Y-30858300D01*
X68211205Y-30858300D01*
X70527395Y-30858300D01*
X70527397Y-30858300D01*
X70616269Y-30821488D01*
X71134131Y-30303624D01*
X71164855Y-30290899D01*
X71522858Y-30290899D01*
X71534239Y-30288635D01*
X71567458Y-30282028D01*
X71567462Y-30282025D01*
X71567463Y-30282025D01*
X71618030Y-30248237D01*
X71618030Y-30248236D01*
X71618034Y-30248234D01*
X71651828Y-30197658D01*
X71660700Y-30153057D01*
X71660699Y-29149149D01*
X71673425Y-29118426D01*
X71704149Y-29105700D01*
X75751144Y-29105700D01*
X75770870Y-29110436D01*
G37*
%TD.AperFunction*%
%TA.AperFunction,Conductor*%
G36*
X76525267Y-24746119D02*
G01*
X76537993Y-24776843D01*
X76537993Y-27747951D01*
X76544899Y-27782668D01*
X76546865Y-27792551D01*
X76546865Y-27792552D01*
X76546867Y-27792556D01*
X76580655Y-27843123D01*
X76580662Y-27843130D01*
X76631231Y-27876919D01*
X76631235Y-27876921D01*
X76675836Y-27885793D01*
X77705949Y-27885792D01*
X77705951Y-27885792D01*
X77715831Y-27883826D01*
X77750551Y-27876921D01*
X77750555Y-27876918D01*
X77750556Y-27876918D01*
X77801123Y-27843130D01*
X77801123Y-27843129D01*
X77801127Y-27843127D01*
X77802480Y-27841103D01*
X77834919Y-27792554D01*
X77834921Y-27792550D01*
X77843793Y-27747952D01*
X77843793Y-26442743D01*
X77856519Y-26412019D01*
X77887243Y-26399293D01*
X78196060Y-26399293D01*
X78226784Y-26412019D01*
X78902074Y-27087309D01*
X78914800Y-27118033D01*
X78914800Y-28535250D01*
X78902074Y-28565974D01*
X78871351Y-28578700D01*
X78841141Y-28578700D01*
X78801483Y-28586589D01*
X78796542Y-28587572D01*
X78796541Y-28587572D01*
X78796536Y-28587574D01*
X78745969Y-28621362D01*
X78745962Y-28621369D01*
X78712173Y-28671938D01*
X78712171Y-28671942D01*
X78703300Y-28716540D01*
X78703300Y-28716541D01*
X78703300Y-28716543D01*
X78703300Y-29203186D01*
X78703301Y-29661350D01*
X78690575Y-29692074D01*
X78659851Y-29704800D01*
X77827034Y-29704800D01*
X77796310Y-29692074D01*
X77671825Y-29567589D01*
X77659099Y-29536865D01*
X77659099Y-28716541D01*
X77656150Y-28701720D01*
X77650228Y-28671942D01*
X77650225Y-28671938D01*
X77650225Y-28671936D01*
X77616437Y-28621369D01*
X77616430Y-28621362D01*
X77565861Y-28587573D01*
X77565857Y-28587571D01*
X77521259Y-28578700D01*
X77521257Y-28578700D01*
X77111934Y-28578700D01*
X77081210Y-28565974D01*
X76225926Y-27710690D01*
X76213200Y-27679966D01*
X76213200Y-26525356D01*
X76207165Y-26510786D01*
X76180255Y-26445819D01*
X76119381Y-26384945D01*
X76119380Y-26384944D01*
X75794748Y-26060313D01*
X75794748Y-26060312D01*
X75733874Y-25999438D01*
X75654338Y-25966493D01*
X75654336Y-25966493D01*
X75347242Y-25966493D01*
X75316518Y-25953767D01*
X75303792Y-25923043D01*
X75303792Y-24776843D01*
X75316518Y-24746119D01*
X75347242Y-24733393D01*
X76494543Y-24733393D01*
X76525267Y-24746119D01*
G37*
%TD.AperFunction*%
%TA.AperFunction,Conductor*%
G36*
X73085462Y-26437419D02*
G01*
X73354674Y-26706631D01*
X73367400Y-26737355D01*
X73367400Y-27524103D01*
X73367400Y-27620297D01*
X73404212Y-27709169D01*
X73404213Y-27709170D01*
X73705941Y-28010898D01*
X73718667Y-28041622D01*
X73705941Y-28072346D01*
X73675217Y-28085072D01*
X73524425Y-28085072D01*
X73428231Y-28085072D01*
X73339359Y-28121884D01*
X73339357Y-28121885D01*
X73131269Y-28329974D01*
X73100545Y-28342700D01*
X73006804Y-28342700D01*
X72976080Y-28329974D01*
X72635118Y-27989012D01*
X72587732Y-27969384D01*
X72564218Y-27945870D01*
X72564217Y-27912615D01*
X72587732Y-27889100D01*
X72604359Y-27885792D01*
X72625949Y-27885792D01*
X72625951Y-27885792D01*
X72635831Y-27883826D01*
X72670551Y-27876921D01*
X72670555Y-27876918D01*
X72670556Y-27876918D01*
X72721123Y-27843130D01*
X72721123Y-27843129D01*
X72721127Y-27843127D01*
X72722480Y-27841103D01*
X72754919Y-27792554D01*
X72754921Y-27792550D01*
X72763793Y-27747952D01*
X72763793Y-26468143D01*
X72776519Y-26437419D01*
X72807243Y-26424693D01*
X73054738Y-26424693D01*
X73085462Y-26437419D01*
G37*
%TD.AperFunction*%
%TD*%
M02*
