%TF.GenerationSoftware,KiCad,Pcbnew,8.0.3*%
%TF.CreationDate,2024-06-28T03:43:35+08:00*%
%TF.ProjectId,hpm_dap,68706d5f-6461-4702-9e6b-696361645f70,rev?*%
%TF.SameCoordinates,Original*%
%TF.FileFunction,Copper,L1,Top*%
%TF.FilePolarity,Positive*%
%FSLAX46Y46*%
G04 Gerber Fmt 4.6, Leading zero omitted, Abs format (unit mm)*
G04 Created by KiCad (PCBNEW 8.0.3) date 2024-06-28 03:43:35*
%MOMM*%
%LPD*%
G01*
G04 APERTURE LIST*
G04 Aperture macros list*
%AMRoundRect*
0 Rectangle with rounded corners*
0 $1 Rounding radius*
0 $2 $3 $4 $5 $6 $7 $8 $9 X,Y pos of 4 corners*
0 Add a 4 corners polygon primitive as box body*
4,1,4,$2,$3,$4,$5,$6,$7,$8,$9,$2,$3,0*
0 Add four circle primitives for the rounded corners*
1,1,$1+$1,$2,$3*
1,1,$1+$1,$4,$5*
1,1,$1+$1,$6,$7*
1,1,$1+$1,$8,$9*
0 Add four rect primitives between the rounded corners*
20,1,$1+$1,$2,$3,$4,$5,0*
20,1,$1+$1,$4,$5,$6,$7,0*
20,1,$1+$1,$6,$7,$8,$9,0*
20,1,$1+$1,$8,$9,$2,$3,0*%
G04 Aperture macros list end*
%TA.AperFunction,SMDPad,CuDef*%
%ADD10RoundRect,0.140000X-0.170000X0.140000X-0.170000X-0.140000X0.170000X-0.140000X0.170000X0.140000X0*%
%TD*%
%TA.AperFunction,SMDPad,CuDef*%
%ADD11R,4.200000X4.200000*%
%TD*%
%TA.AperFunction,SMDPad,CuDef*%
%ADD12RoundRect,0.050000X0.375000X-0.050000X0.375000X0.050000X-0.375000X0.050000X-0.375000X-0.050000X0*%
%TD*%
%TA.AperFunction,SMDPad,CuDef*%
%ADD13RoundRect,0.050000X0.050000X-0.375000X0.050000X0.375000X-0.050000X0.375000X-0.050000X-0.375000X0*%
%TD*%
%TA.AperFunction,SMDPad,CuDef*%
%ADD14RoundRect,0.140000X0.140000X0.170000X-0.140000X0.170000X-0.140000X-0.170000X0.140000X-0.170000X0*%
%TD*%
%TA.AperFunction,SMDPad,CuDef*%
%ADD15RoundRect,0.135000X-0.185000X0.135000X-0.185000X-0.135000X0.185000X-0.135000X0.185000X0.135000X0*%
%TD*%
%TA.AperFunction,SMDPad,CuDef*%
%ADD16RoundRect,0.140000X0.170000X-0.140000X0.170000X0.140000X-0.170000X0.140000X-0.170000X-0.140000X0*%
%TD*%
%TA.AperFunction,SMDPad,CuDef*%
%ADD17RoundRect,0.135000X-0.135000X-0.185000X0.135000X-0.185000X0.135000X0.185000X-0.135000X0.185000X0*%
%TD*%
%TA.AperFunction,SMDPad,CuDef*%
%ADD18RoundRect,0.162500X0.162500X0.687500X-0.162500X0.687500X-0.162500X-0.687500X0.162500X-0.687500X0*%
%TD*%
%TA.AperFunction,SMDPad,CuDef*%
%ADD19RoundRect,0.125000X0.125000X0.725000X-0.125000X0.725000X-0.125000X-0.725000X0.125000X-0.725000X0*%
%TD*%
%TA.AperFunction,SMDPad,CuDef*%
%ADD20RoundRect,0.218750X0.256250X-0.218750X0.256250X0.218750X-0.256250X0.218750X-0.256250X-0.218750X0*%
%TD*%
%TA.AperFunction,SMDPad,CuDef*%
%ADD21RoundRect,0.200000X-0.800000X0.200000X-0.800000X-0.200000X0.800000X-0.200000X0.800000X0.200000X0*%
%TD*%
%TA.AperFunction,SMDPad,CuDef*%
%ADD22RoundRect,0.140000X-0.140000X-0.170000X0.140000X-0.170000X0.140000X0.170000X-0.140000X0.170000X0*%
%TD*%
%TA.AperFunction,SMDPad,CuDef*%
%ADD23R,0.320000X0.500000*%
%TD*%
%TA.AperFunction,SMDPad,CuDef*%
%ADD24R,1.000000X3.100000*%
%TD*%
%TA.AperFunction,HeatsinkPad*%
%ADD25R,1.100000X1.900000*%
%TD*%
%TA.AperFunction,SMDPad,CuDef*%
%ADD26RoundRect,0.125000X-0.187500X-0.125000X0.187500X-0.125000X0.187500X0.125000X-0.187500X0.125000X0*%
%TD*%
%TA.AperFunction,SMDPad,CuDef*%
%ADD27RoundRect,0.147500X-0.172500X0.147500X-0.172500X-0.147500X0.172500X-0.147500X0.172500X0.147500X0*%
%TD*%
%TA.AperFunction,ComponentPad*%
%ADD28O,1.800000X1.000000*%
%TD*%
%TA.AperFunction,ComponentPad*%
%ADD29O,2.100000X1.000000*%
%TD*%
%TA.AperFunction,SMDPad,CuDef*%
%ADD30RoundRect,0.150000X-0.425000X0.150000X-0.425000X-0.150000X0.425000X-0.150000X0.425000X0.150000X0*%
%TD*%
%TA.AperFunction,SMDPad,CuDef*%
%ADD31RoundRect,0.075000X-0.500000X0.075000X-0.500000X-0.075000X0.500000X-0.075000X0.500000X0.075000X0*%
%TD*%
%TA.AperFunction,SMDPad,CuDef*%
%ADD32RoundRect,0.135000X0.185000X-0.135000X0.185000X0.135000X-0.185000X0.135000X-0.185000X-0.135000X0*%
%TD*%
%TA.AperFunction,SMDPad,CuDef*%
%ADD33RoundRect,0.218750X-0.218750X-0.256250X0.218750X-0.256250X0.218750X0.256250X-0.218750X0.256250X0*%
%TD*%
%TA.AperFunction,ViaPad*%
%ADD34C,0.609600*%
%TD*%
%TA.AperFunction,ViaPad*%
%ADD35C,0.400000*%
%TD*%
%TA.AperFunction,ViaPad*%
%ADD36C,0.600000*%
%TD*%
%TA.AperFunction,Conductor*%
%ADD37C,0.177800*%
%TD*%
%TA.AperFunction,Conductor*%
%ADD38C,0.101600*%
%TD*%
%TA.AperFunction,Conductor*%
%ADD39C,0.254000*%
%TD*%
%TA.AperFunction,Conductor*%
%ADD40C,0.200000*%
%TD*%
%TA.AperFunction,Conductor*%
%ADD41C,0.127000*%
%TD*%
G04 APERTURE END LIST*
D10*
%TO.P,C23,2*%
%TO.N,+3.3V*%
X73253600Y-30402266D03*
%TO.P,C23,1*%
%TO.N,GND*%
X73253600Y-29442266D03*
%TD*%
D11*
%TO.P,U1,49,VSS*%
%TO.N,GND*%
X74241200Y-34464800D03*
D12*
%TO.P,U1,48,PA05/TMR1.COMP2/URT1.DE/URT1.RTS/SPI0.SCLK/TRGM0.P05/JTAG.TDI*%
%TO.N,/core/LED*%
X71291200Y-36664800D03*
%TO.P,U1,47,PA06/TMR0.CAPT0/URT1.RXD/I2C1.SDA/SPI0.MISO/TRGM0.P06/JTAG.TCK*%
%TO.N,unconnected-(U1D-PA06{slash}TMR0.CAPT0{slash}URT1.RXD{slash}I2C1.SDA{slash}SPI0.MISO{slash}TRGM0.P06{slash}JTAG.TCK-Pad47)*%
X71291200Y-36264800D03*
%TO.P,U1,46,PA07/TMR0.COMP0/URT1.TXD/I2C1.SCL/SPI0.MOSI/TRGM0.P07/JTAG.TMS*%
%TO.N,unconnected-(U1D-PA07{slash}TMR0.COMP0{slash}URT1.TXD{slash}I2C1.SCL{slash}SPI0.MOSI{slash}TRGM0.P07{slash}JTAG.TMS-Pad46)*%
X71291200Y-35864800D03*
%TO.P,U1,45,VDD_SOC*%
%TO.N,+3.3V*%
X71291200Y-35464800D03*
%TO.P,U1,44,PA24/I2C2.SCL/SPI1.CS2/XPI0.CA_CS1/TRGM0.P00*%
%TO.N,/core/USB_D+*%
X71291200Y-35064800D03*
%TO.P,U1,43,PA25/I2C2.SDA/SPI1.CS1/XPI0.CA_DQS/TRGM0.P01*%
%TO.N,/core/USB_D-*%
X71291200Y-34664800D03*
%TO.P,U1,42,PA26/SPI1.CS0/XPI0.CA_D3/TRGM0.P02*%
%TO.N,/core/SPI_CS*%
X71291200Y-34264800D03*
%TO.P,U1,41,PA27/SPI1.SCLK/XPI0.CA_SCLK/TRGM0.P03*%
%TO.N,Net-(RN1-R2.1)*%
X71291200Y-33864800D03*
%TO.P,U1,40,PA28/I2C3.SDA/SPI1.MISO/XPI0.CA_D0/TRGM0.P04*%
%TO.N,unconnected-(U1D-PA28{slash}I2C3.SDA{slash}SPI1.MISO{slash}XPI0.CA_D0{slash}TRGM0.P04-Pad40)*%
X71291200Y-33464800D03*
%TO.P,U1,39,PA29/I2C3.SCL/SPI1.MOSI/XPI0.CA_D2/TRGM0.P05/USB0.OC*%
%TO.N,Net-(RN1-R3.1)*%
X71291200Y-33064800D03*
%TO.P,U1,38,PA30/SPI1.DAT2/XPI0.CA_D1/TRGM0.P06/USB0.PWR*%
%TO.N,unconnected-(U1D-PA30{slash}SPI1.DAT2{slash}XPI0.CA_D1{slash}TRGM0.P06{slash}USB0.PWR-Pad38)*%
X71291200Y-32664800D03*
%TO.P,U1,37,PA31/SPI1.DAT3/XPI0.CA_CS0/TRGM0.P07/USB0.ID*%
%TO.N,Net-(RN1-R4.1)*%
X71291200Y-32264800D03*
D13*
%TO.P,U1,36,XTALO*%
%TO.N,/core/XTALO*%
X72041200Y-31514800D03*
%TO.P,U1,35,XTALI*%
%TO.N,/core/XTALI*%
X72441200Y-31514800D03*
%TO.P,U1,34,VIO_B00*%
%TO.N,+3.3V*%
X72841200Y-31514800D03*
%TO.P,U1,33,VDD_SOC*%
X73241200Y-31514800D03*
%TO.P,U1,32,VANA*%
%TO.N,/core/Vana*%
X73641200Y-31514800D03*
%TO.P,U1,31,VREFH*%
X74041200Y-31514800D03*
%TO.P,U1,30,VREFL*%
%TO.N,GND*%
X74441200Y-31514800D03*
%TO.P,U1,29,VIO_B01*%
%TO.N,+3.3V*%
X74841200Y-31514800D03*
%TO.P,U1,28,VDD_SOC*%
X75241200Y-31514800D03*
%TO.P,U1,27,PB08/TMR0.COMP1/URT2.TXD/I2C2.SCL/SPI2.CS2/ACMP.COMP0/USB0.ID/ADC0.IN11/CMP0.INN6/CMP1.INN6*%
%TO.N,unconnected-(U1D-PB08{slash}TMR0.COMP1{slash}URT2.TXD{slash}I2C2.SCL{slash}SPI2.CS2{slash}ACMP.COMP0{slash}USB0.ID{slash}ADC0.IN11{slash}CMP0.INN6{slash}CMP1.INN6-Pad27)*%
X75641200Y-31514800D03*
%TO.P,U1,26,PB09/TMR0.CAPT1/URT2.RXD/I2C2.SDA/SPI2.CS1/ACMP.COMP1/USB0.OC/ADC0.IN1/CMP0.INP6/CMP1.INP6*%
%TO.N,unconnected-(U1D-PB09{slash}TMR0.CAPT1{slash}URT2.RXD{slash}I2C2.SDA{slash}SPI2.CS1{slash}ACMP.COMP1{slash}USB0.OC{slash}ADC0.IN1{slash}CMP0.INP6{slash}CMP1.INP6-Pad26)*%
X76041200Y-31514800D03*
%TO.P,U1,25,PB10/TMR0.COMP2/URT2.DE/URT2.RTS/SPI2.CS0/ACMP.COMP0/USB0.PWR/ADC0.IN2/CMP0.INP4/CMP1.INP4*%
%TO.N,/core/SPI_CS*%
X76441200Y-31514800D03*
D12*
%TO.P,U1,24,PB11/URT2.CTS/SPI2.SCLK/ACMP.COMP1/ADC0.IN3/CMP0.INN4/CMP1.INN4*%
%TO.N,Net-(RN2-R2.1)*%
X77191200Y-32264800D03*
%TO.P,U1,23,PB12/URT3.CTS/I2C3.SDA/SPI2.MISO/TRGM0.P00/ADC0.IN4/CMP0.INN2/CMP1.INN2*%
%TO.N,Net-(RN2-R3.1)*%
X77191200Y-32664800D03*
%TO.P,U1,22,PB13/TMR1.COMP3/URT3.DE/URT3.RTS/I2C3.SCL/SPI2.MOSI/TRGM0.P01/ADC0.IN5/CMP0.INP2/CMP1.INP2*%
%TO.N,Net-(RN2-R4.1)*%
X77191200Y-33064800D03*
%TO.P,U1,21,PB14/URT3.RXD/SPI2.DAT2/TRGM0.P02/ADC0.IN6/CMP0.INN1/CMP1.INN1*%
%TO.N,unconnected-(U1D-PB14{slash}URT3.RXD{slash}SPI2.DAT2{slash}TRGM0.P02{slash}ADC0.IN6{slash}CMP0.INN1{slash}CMP1.INN1-Pad21)*%
X77191200Y-33464800D03*
%TO.P,U1,20,PB15/TMR0.COMP3/URT3.TXD/SPI2.DAT3/TRGM0.P03/ADC0.IN7/CMP0.INP1/CMP1.INP1*%
%TO.N,unconnected-(U1D-PB15{slash}TMR0.COMP3{slash}URT3.TXD{slash}SPI2.DAT3{slash}TRGM0.P03{slash}ADC0.IN7{slash}CMP0.INP1{slash}CMP1.INP1-Pad20)*%
X77191200Y-33864800D03*
%TO.P,U1,19,PY00/URT0.TXD/USB0.ID/PMIC_PY00/PURT.TXD/PTMR.COMP0/SOC.GPIO_Y00*%
%TO.N,unconnected-(U1C-PY00{slash}URT0.TXD{slash}USB0.ID{slash}PMIC_PY00{slash}PURT.TXD{slash}PTMR.COMP0{slash}SOC.GPIO_Y00-Pad19)*%
X77191200Y-34264800D03*
%TO.P,U1,18,PY01/URT0.RXD/WDG0.RST/USB0.OC/PMIC_PY01/PURT.RXD/PTMR.COMP1/SOC.GPIO_Y01*%
%TO.N,unconnected-(U1C-PY01{slash}URT0.RXD{slash}WDG0.RST{slash}USB0.OC{slash}PMIC_PY01{slash}PURT.RXD{slash}PTMR.COMP1{slash}SOC.GPIO_Y01-Pad18)*%
X77191200Y-34664800D03*
%TO.P,U1,17,VDD_PMCCAP*%
%TO.N,Net-(U1C-VDD_PMCCAP)*%
X77191200Y-35064800D03*
%TO.P,U1,16,VPMC*%
%TO.N,+3.3V*%
X77191200Y-35464800D03*
%TO.P,U1,15,DCDC_LP*%
%TO.N,Net-(U1A-DCDC_LP)*%
X77191200Y-35864800D03*
%TO.P,U1,14,WAKEUP*%
%TO.N,unconnected-(U1B-WAKEUP-Pad14)*%
X77191200Y-36264800D03*
%TO.P,U1,13,RESETN*%
%TO.N,Net-(U1B-RESETN)*%
X77191200Y-36664800D03*
D13*
%TO.P,U1,12,PA00/TMR1.COMP0/URT0.TXD/TRGM0.P00*%
%TO.N,Net-(U1D-PA00{slash}TMR1.COMP0{slash}URT0.TXD{slash}TRGM0.P00)*%
X76441200Y-37414800D03*
%TO.P,U1,11,PA01/TMR1.CAPT0/URT0.RXD/TRGM0.P01/ACMP.COMP0*%
%TO.N,Net-(U1D-PA01{slash}TMR1.CAPT0{slash}URT0.RXD{slash}TRGM0.P01{slash}ACMP.COMP0)*%
X76041200Y-37414800D03*
%TO.P,U1,10,VDD_OTPCAP*%
%TO.N,Net-(U1C-VDD_OTPCAP)*%
X75641200Y-37414800D03*
%TO.P,U1,9,VDD_SOC*%
%TO.N,+3.3V*%
X75241200Y-37414800D03*
%TO.P,U1,8,PA02/TMR1.COMP1/URT0.DE/URT0.RTS/I2C0.SCL/ACMP.COMP0/TRGM0.P02/ACMP.COMP1*%
%TO.N,/core/BOOT0*%
X74841200Y-37414800D03*
%TO.P,U1,7,PA03/TMR1.CAPT1/URT0.CTS/I2C0.SDA/SPI3.CS3/ACMP.COMP1/TRGM0.P03/ADC0.DBG*%
%TO.N,/core/BOOT1*%
X74441200Y-37414800D03*
%TO.P,U1,6,VIO_B00*%
%TO.N,+3.3V*%
X74041200Y-37414800D03*
%TO.P,U1,5,VDD_SOC*%
X73641200Y-37414800D03*
%TO.P,U1,4,PA10/TMR0.COMP2/URT2.DE/URT2.RTS/SPI3.CS0/ACMP.COMP0*%
%TO.N,unconnected-(U1D-PA10{slash}TMR0.COMP2{slash}URT2.DE{slash}URT2.RTS{slash}SPI3.CS0{slash}ACMP.COMP0-Pad4)*%
X73241200Y-37414800D03*
%TO.P,U1,3,PA09/TMR0.CAPT1/URT2.RXD/I2C2.SDA/SPI3.CS1*%
%TO.N,unconnected-(U1D-PA09{slash}TMR0.CAPT1{slash}URT2.RXD{slash}I2C2.SDA{slash}SPI3.CS1-Pad3)*%
X72841200Y-37414800D03*
%TO.P,U1,2,PA08/TMR0.COMP1/URT2.TXD/I2C2.SCL/SPI3.CS2/JTAG.TRST*%
%TO.N,unconnected-(U1D-PA08{slash}TMR0.COMP1{slash}URT2.TXD{slash}I2C2.SCL{slash}SPI3.CS2{slash}JTAG.TRST-Pad2)*%
X72441200Y-37414800D03*
%TO.P,U1,1,PA04/URT1.CTS/SPI0.CS0/TRGM0.P04/JTAG.TDO*%
%TO.N,unconnected-(U1D-PA04{slash}URT1.CTS{slash}SPI0.CS0{slash}TRGM0.P04{slash}JTAG.TDO-Pad1)*%
X72041200Y-37414800D03*
%TD*%
D10*
%TO.P,C19,2*%
%TO.N,GND*%
X58232142Y-27153015D03*
%TO.P,C19,1*%
%TO.N,VBUS*%
X58232142Y-26193015D03*
%TD*%
D14*
%TO.P,C15,2*%
%TO.N,Net-(U1C-VDD_PMCCAP)*%
X78564800Y-33417200D03*
%TO.P,C15,1*%
%TO.N,GND*%
X79524800Y-33417200D03*
%TD*%
D15*
%TO.P,R9,2*%
%TO.N,Net-(D4-A)*%
X67868800Y-37015200D03*
%TO.P,R9,1*%
%TO.N,+3.3V*%
X67868800Y-35995200D03*
%TD*%
D16*
%TO.P,C24,2*%
%TO.N,+3.3V*%
X73304400Y-38574800D03*
%TO.P,C24,1*%
%TO.N,GND*%
X73304400Y-39534800D03*
%TD*%
D17*
%TO.P,R8,2*%
%TO.N,/core/LED*%
X68836000Y-38150800D03*
%TO.P,R8,1*%
%TO.N,Net-(D5-A)*%
X67816000Y-38150800D03*
%TD*%
D18*
%TO.P,X1,3,3*%
%TO.N,/core/XTALO*%
X69412000Y-29791200D03*
D19*
%TO.P,X1,2,2*%
%TO.N,GND*%
X70612000Y-29791200D03*
D18*
%TO.P,X1,1,1*%
%TO.N,/core/XTALI*%
X71812000Y-29791200D03*
%TD*%
D20*
%TO.P,F1,2*%
%TO.N,VBUS*%
X56337200Y-26746100D03*
%TO.P,F1,1*%
%TO.N,Net-(F1-Pad1)*%
X56337200Y-28321100D03*
%TD*%
D21*
%TO.P,SW1,2,2*%
%TO.N,/core/BOOT1*%
X65176400Y-34866000D03*
%TO.P,SW1,1,1*%
%TO.N,Net-(R5-Pad2)*%
X65176400Y-30666000D03*
%TD*%
D22*
%TO.P,C20,2*%
%TO.N,GND*%
X62629700Y-25262582D03*
%TO.P,C20,1*%
%TO.N,Net-(U2-SS{slash}TR)*%
X61669700Y-25262582D03*
%TD*%
D15*
%TO.P,R1,1*%
%TO.N,Net-(U1B-RESETN)*%
X77216000Y-38584800D03*
%TO.P,R1,2*%
%TO.N,+3.3V*%
X77216000Y-39604800D03*
%TD*%
%TO.P,R3,2*%
%TO.N,Net-(U2-FB)*%
X62589700Y-27229600D03*
%TO.P,R3,1*%
%TO.N,GND*%
X62589700Y-26209600D03*
%TD*%
D23*
%TO.P,RN2,8,R1.2*%
%TO.N,unconnected-(RN2-R1.2-Pad8)*%
X77431200Y-29327600D03*
%TO.P,RN2,7,R2.2*%
%TO.N,/SWCLK{slash}JTAG_TCK*%
X77931200Y-29327600D03*
%TO.P,RN2,6,R3.2*%
%TO.N,/JTAG_TDO*%
X78431200Y-29327600D03*
%TO.P,RN2,5,R4.2*%
%TO.N,/JTAG_TDI*%
X78931200Y-29327600D03*
%TO.P,RN2,4,R4.1*%
%TO.N,Net-(RN2-R4.1)*%
X78931200Y-30327600D03*
%TO.P,RN2,3,R3.1*%
%TO.N,Net-(RN2-R3.1)*%
X78431200Y-30327600D03*
%TO.P,RN2,2,R2.1*%
%TO.N,Net-(RN2-R2.1)*%
X77931200Y-30327600D03*
%TO.P,RN2,1,R1.1*%
%TO.N,unconnected-(RN2-R1.1-Pad1)*%
X77431200Y-30327600D03*
%TD*%
D24*
%TO.P,J2,1*%
%TO.N,/SWRST{slash}JTAG_TRST*%
X67030893Y-26182893D03*
%TO.P,J2,3*%
%TO.N,/SWCLK{slash}JTAG_TCK*%
X69570893Y-26182893D03*
%TO.P,J2,5*%
%TO.N,/SWDIO{slash}JTAG_TMS*%
X72110893Y-26182893D03*
%TO.P,J2,7*%
%TO.N,GND*%
X74650893Y-26182893D03*
%TO.P,J2,9*%
%TO.N,/TVCC*%
X77190893Y-26182893D03*
%TD*%
D10*
%TO.P,C3,2*%
%TO.N,GND*%
X72034400Y-39534800D03*
%TO.P,C3,1*%
%TO.N,+3.3V*%
X72034400Y-38574800D03*
%TD*%
D25*
%TO.P,U2,9,GND*%
%TO.N,GND*%
X60401200Y-27533600D03*
D26*
%TO.P,U2,8,SS/TR*%
%TO.N,Net-(U2-SS{slash}TR)*%
X61463700Y-26558600D03*
%TO.P,U2,7,PG*%
%TO.N,unconnected-(U2-PG-Pad7)*%
X61463700Y-27208600D03*
%TO.P,U2,6,FB*%
%TO.N,Net-(U2-FB)*%
X61463700Y-27858600D03*
%TO.P,U2,5,VOUT*%
%TO.N,+3.3V*%
X61463700Y-28508600D03*
%TO.P,U2,4,VOUT*%
X59338700Y-28508600D03*
%TO.P,U2,3,GND*%
%TO.N,GND*%
X59338700Y-27858600D03*
%TO.P,U2,2,VIN*%
%TO.N,VBUS*%
X59338700Y-27208600D03*
%TO.P,U2,1,EN*%
X59338700Y-26558600D03*
%TD*%
D10*
%TO.P,C12,1*%
%TO.N,Net-(U1B-RESETN)*%
X78148880Y-38614800D03*
%TO.P,C12,2*%
%TO.N,GND*%
X78148880Y-39574800D03*
%TD*%
D15*
%TO.P,R5,2*%
%TO.N,Net-(R5-Pad2)*%
X62585600Y-30888400D03*
%TO.P,R5,1*%
%TO.N,+3.3V*%
X62585600Y-29868400D03*
%TD*%
D27*
%TO.P,L1,2,2*%
%TO.N,/core/Vana*%
X74192932Y-30407266D03*
%TO.P,L1,1,1*%
%TO.N,+3.3V*%
X74192932Y-29437266D03*
%TD*%
D14*
%TO.P,C16,2*%
%TO.N,Net-(U1C-VDD_PMCCAP)*%
X78564800Y-34340800D03*
%TO.P,C16,1*%
%TO.N,GND*%
X79524800Y-34340800D03*
%TD*%
D17*
%TO.P,R7,2*%
%TO.N,GND*%
X62943200Y-37418893D03*
%TO.P,R7,1*%
%TO.N,Net-(J1-CC2)*%
X61923200Y-37418893D03*
%TD*%
D28*
%TO.P,J1,S1,SHIELD*%
%TO.N,GND*%
X55410893Y-39988893D03*
D29*
X59590893Y-39988893D03*
D28*
X55410893Y-31348893D03*
D29*
X59590893Y-31348893D03*
D30*
%TO.P,J1,B12,GND*%
X60165893Y-32468893D03*
%TO.P,J1,B9,VBUS*%
%TO.N,Net-(F1-Pad1)*%
X60165893Y-33268893D03*
D31*
%TO.P,J1,B8,SBU2*%
%TO.N,unconnected-(J1-SBU2-PadB8)*%
X60165893Y-33918893D03*
%TO.P,J1,B7,D-*%
%TO.N,/core/USB_D-*%
X60165893Y-34918893D03*
%TO.P,J1,B6,D+*%
%TO.N,/core/USB_D+*%
X60165893Y-36418893D03*
%TO.P,J1,B5,CC2*%
%TO.N,Net-(J1-CC2)*%
X60165893Y-37418893D03*
D30*
%TO.P,J1,B4,VBUS*%
%TO.N,Net-(F1-Pad1)*%
X60165893Y-38068893D03*
%TO.P,J1,B1,GND*%
%TO.N,GND*%
X60165893Y-38868893D03*
%TO.P,J1,A12,GND*%
X60165893Y-38868893D03*
%TO.P,J1,A9,VBUS*%
%TO.N,Net-(F1-Pad1)*%
X60165893Y-38068893D03*
D31*
%TO.P,J1,A8,SBU1*%
%TO.N,unconnected-(J1-SBU1-PadA8)*%
X60165893Y-36918893D03*
%TO.P,J1,A7,D-*%
%TO.N,/core/USB_D-*%
X60165893Y-35918893D03*
%TO.P,J1,A6,D+*%
%TO.N,/core/USB_D+*%
X60165893Y-35418893D03*
%TO.P,J1,A5,CC1*%
%TO.N,Net-(J1-CC1)*%
X60165893Y-34418893D03*
D30*
%TO.P,J1,A4,VBUS*%
%TO.N,Net-(F1-Pad1)*%
X60165893Y-33268893D03*
%TO.P,J1,A1,GND*%
%TO.N,GND*%
X60165893Y-32468893D03*
%TD*%
D17*
%TO.P,R6,2*%
%TO.N,GND*%
X62943200Y-33172400D03*
%TO.P,R6,1*%
%TO.N,Net-(J1-CC1)*%
X61923200Y-33172400D03*
%TD*%
D10*
%TO.P,C7,2*%
%TO.N,GND*%
X70104000Y-36985200D03*
%TO.P,C7,1*%
%TO.N,+3.3V*%
X70104000Y-36025200D03*
%TD*%
D32*
%TO.P,R4,2*%
%TO.N,/core/BOOT0*%
X74726800Y-38584800D03*
%TO.P,R4,1*%
%TO.N,GND*%
X74726800Y-39604800D03*
%TD*%
D15*
%TO.P,R2,2*%
%TO.N,+3.3V*%
X62589700Y-29009600D03*
%TO.P,R2,1*%
%TO.N,Net-(U2-FB)*%
X62589700Y-27989600D03*
%TD*%
D23*
%TO.P,RN1,8,R1.2*%
%TO.N,unconnected-(RN1-R1.2-Pad8)*%
X67423600Y-31351600D03*
%TO.P,RN1,7,R2.2*%
%TO.N,/SWCLK{slash}JTAG_TCK*%
X67923600Y-31351600D03*
%TO.P,RN1,6,R3.2*%
%TO.N,/SWDIO{slash}JTAG_TMS*%
X68423600Y-31351600D03*
%TO.P,RN1,5,R4.2*%
%TO.N,/SWRST{slash}JTAG_TRST*%
X68923600Y-31351600D03*
%TO.P,RN1,4,R4.1*%
%TO.N,Net-(RN1-R4.1)*%
X68923600Y-32351600D03*
%TO.P,RN1,3,R3.1*%
%TO.N,Net-(RN1-R3.1)*%
X68423600Y-32351600D03*
%TO.P,RN1,2,R2.1*%
%TO.N,Net-(RN1-R2.1)*%
X67923600Y-32351600D03*
%TO.P,RN1,1,R1.1*%
%TO.N,unconnected-(RN1-R1.1-Pad1)*%
X67423600Y-32351600D03*
%TD*%
D10*
%TO.P,C17,2*%
%TO.N,GND*%
X76250800Y-39574800D03*
%TO.P,C17,1*%
%TO.N,Net-(U1C-VDD_OTPCAP)*%
X76250800Y-38614800D03*
%TD*%
D33*
%TO.P,D5,2,A*%
%TO.N,Net-(D5-A)*%
X66192400Y-37896800D03*
%TO.P,D5,1,K*%
%TO.N,GND*%
X64617400Y-37896800D03*
%TD*%
D10*
%TO.P,C22,2*%
%TO.N,+3.3V*%
X75133200Y-30402266D03*
%TO.P,C22,1*%
%TO.N,GND*%
X75133200Y-29442266D03*
%TD*%
D16*
%TO.P,C21,2*%
%TO.N,GND*%
X58232142Y-28016317D03*
%TO.P,C21,1*%
%TO.N,+3.3V*%
X58232142Y-28976317D03*
%TD*%
D33*
%TO.P,D4,2,A*%
%TO.N,Net-(D4-A)*%
X66192400Y-36308400D03*
%TO.P,D4,1,K*%
%TO.N,GND*%
X64617400Y-36308400D03*
%TD*%
D34*
%TO.N,GND*%
X68681600Y-37338000D03*
X64973200Y-32308800D03*
X53848000Y-33324800D03*
X53848000Y-34594800D03*
X53848000Y-35864800D03*
X53848000Y-37134800D03*
X53949600Y-28803600D03*
X53949600Y-27533600D03*
X53949600Y-26263600D03*
X60299600Y-24993600D03*
X59029600Y-24993600D03*
X57759600Y-24993600D03*
X56489600Y-24993600D03*
X55219600Y-24993600D03*
X53949600Y-24993600D03*
X63652400Y-24688800D03*
X64922400Y-24688800D03*
X63703200Y-28295600D03*
X64973200Y-28295600D03*
X66243200Y-28295600D03*
X79654400Y-32816800D03*
X79349600Y-37693600D03*
X79349600Y-38963600D03*
X75184000Y-40284400D03*
X73914000Y-40284400D03*
X72644000Y-40284400D03*
X71120000Y-39674800D03*
X69850000Y-39674800D03*
X68580000Y-39674800D03*
X62230000Y-39674800D03*
X66040000Y-39674800D03*
X64770000Y-39674800D03*
X63500000Y-39674800D03*
D35*
%TO.N,/SWCLK{slash}JTAG_TCK*%
X75946000Y-28803600D03*
%TO.N,/JTAG_TDI*%
X75577421Y-28326872D03*
%TO.N,GND*%
X73050400Y-28194000D03*
X78333600Y-28143200D03*
%TO.N,VBUS*%
X57454800Y-26720800D03*
%TO.N,/core/USB_D-*%
X62128400Y-35080600D03*
%TO.N,/core/USB_D+*%
X62128400Y-35633000D03*
%TO.N,GND*%
X72542400Y-29565600D03*
X75742800Y-29565600D03*
%TO.N,/SWCLK{slash}JTAG_TCK*%
X67919600Y-29362400D03*
%TO.N,/JTAG_TDO*%
X76403200Y-29413200D03*
%TO.N,/JTAG_TDI*%
X79603600Y-30835600D03*
%TO.N,/JTAG_TDO*%
X77266800Y-30988000D03*
%TO.N,/core/SPI_CS*%
X76047600Y-30581600D03*
X69900800Y-34137600D03*
D34*
%TO.N,GND*%
X72971200Y-35734800D03*
X72971200Y-33194800D03*
X75511200Y-33194800D03*
X75511200Y-35734800D03*
X74241200Y-34464800D03*
%TO.N,+3.3V*%
X68732400Y-34137600D03*
D35*
%TO.N,GND*%
X60401200Y-28092400D03*
X60401200Y-26974800D03*
X60401200Y-27533600D03*
%TO.N,Net-(U1D-PA01{slash}TMR1.CAPT0{slash}URT0.RXD{slash}TRGM0.P01{slash}ACMP.COMP0)*%
X77673200Y-37846000D03*
%TO.N,Net-(U1D-PA00{slash}TMR1.COMP0{slash}URT0.TXD{slash}TRGM0.P00)*%
X77114400Y-37338000D03*
%TO.N,Net-(U1C-VDD_OTPCAP)*%
X76250800Y-38614800D03*
%TO.N,/SWRST{slash}JTAG_TRST*%
X67259200Y-29609851D03*
X69392800Y-31343600D03*
%TO.N,/SWDIO{slash}JTAG_TMS*%
X68427600Y-30226000D03*
D34*
%TO.N,+3.3V*%
X69037200Y-35995200D03*
D35*
%TO.N,/core/Vana*%
X74192932Y-30402266D03*
D36*
%TO.N,Net-(U1A-DCDC_LP)*%
X78656475Y-36636690D03*
D35*
%TO.N,/core/BOOT1*%
X70866000Y-38506400D03*
X74015600Y-38579600D03*
%TO.N,GND*%
X71120000Y-31025900D03*
D36*
%TO.N,+3.3V*%
X78844499Y-35145765D03*
D35*
X73253600Y-30402266D03*
X75539600Y-39116000D03*
X72679358Y-38574800D03*
X75133200Y-30402266D03*
%TD*%
D37*
%TO.N,Net-(D4-A)*%
X67342800Y-37015200D02*
X67868800Y-37015200D01*
X67157600Y-36830000D02*
X67342800Y-37015200D01*
X67157600Y-36474400D02*
X67157600Y-36830000D01*
X66991600Y-36308400D02*
X67157600Y-36474400D01*
X66192400Y-36308400D02*
X66991600Y-36308400D01*
%TO.N,/JTAG_TDI*%
X78931200Y-28893200D02*
X78931200Y-29327600D01*
X78230131Y-28803600D02*
X78841600Y-28803600D01*
X76218851Y-28524200D02*
X77950731Y-28524200D01*
X75577421Y-28326872D02*
X76021523Y-28326872D01*
%TO.N,/SWDIO{slash}JTAG_TMS*%
X68427600Y-28651200D02*
X68427600Y-30226000D01*
X71323200Y-28041600D02*
X69037200Y-28041600D01*
X72110893Y-27253907D02*
X71323200Y-28041600D01*
X72110893Y-26182893D02*
X72110893Y-27253907D01*
%TO.N,/SWCLK{slash}JTAG_TCK*%
X77835000Y-28803600D02*
X75946000Y-28803600D01*
X77931200Y-29327600D02*
X77931200Y-28899800D01*
%TO.N,Net-(J1-CC2)*%
X60165893Y-37418893D02*
X61923200Y-37418893D01*
%TO.N,Net-(J1-CC1)*%
X61491507Y-34418893D02*
X60165893Y-34418893D01*
X61923200Y-33172400D02*
X61923200Y-33987200D01*
D38*
%TO.N,/core/USB_D+*%
X60934436Y-36083257D02*
X60598800Y-36418893D01*
X60934436Y-35418893D02*
X60934436Y-36083257D01*
X60598800Y-36418893D02*
X60165893Y-36418893D01*
%TO.N,/core/USB_D-*%
X59591693Y-35918893D02*
X60165893Y-35918893D01*
X59438493Y-35071294D02*
X59438493Y-35765693D01*
X60165893Y-34918893D02*
X59590894Y-34918893D01*
%TO.N,/core/USB_D+*%
X61231235Y-35122094D02*
X60934436Y-35418893D01*
X60934436Y-35418893D02*
X60165893Y-35418893D01*
X62128400Y-35633000D02*
X61617494Y-35122094D01*
%TO.N,/core/USB_D-*%
X61701662Y-34918893D02*
X60165893Y-34918893D01*
X62128400Y-35080600D02*
X61863369Y-35080600D01*
X62302999Y-35255199D02*
X62128400Y-35080600D01*
X63965914Y-33629600D02*
X62340315Y-35255199D01*
X67571286Y-34763200D02*
X66437686Y-33629600D01*
X70555299Y-34763200D02*
X67571286Y-34763200D01*
%TO.N,/core/USB_D+*%
X64050086Y-33832800D02*
X62424485Y-35458401D01*
X66353514Y-33832800D02*
X64050086Y-33832800D01*
X67487114Y-34966400D02*
X66353514Y-33832800D01*
X70555299Y-34966400D02*
X67487114Y-34966400D01*
%TO.N,/core/USB_D-*%
X66437686Y-33629600D02*
X63965914Y-33629600D01*
%TO.N,/core/USB_D+*%
X62302999Y-35458401D02*
X62128400Y-35633000D01*
X71291200Y-35064800D02*
X70653699Y-35064800D01*
%TO.N,/core/USB_D-*%
X71291200Y-34664800D02*
X70653699Y-34664800D01*
D37*
%TO.N,/JTAG_TDO*%
X76606400Y-29413200D02*
X77089000Y-29895800D01*
X76403200Y-29413200D02*
X76606400Y-29413200D01*
X78431200Y-29618600D02*
X78431200Y-29327600D01*
%TO.N,/JTAG_TDI*%
X79603600Y-30000000D02*
X79603600Y-30835600D01*
X78931200Y-29327600D02*
X79603600Y-30000000D01*
%TO.N,/JTAG_TDO*%
X77012800Y-30734000D02*
X77266800Y-30988000D01*
X78367000Y-29819600D02*
X77165200Y-29819600D01*
X77012800Y-29972000D02*
X77012800Y-30734000D01*
X78431200Y-29327600D02*
X78431200Y-29755400D01*
%TO.N,Net-(RN2-R2.1)*%
X77931200Y-31136400D02*
X77931200Y-30327600D01*
X77191200Y-31876400D02*
X77931200Y-31136400D01*
X77191200Y-32264800D02*
X77191200Y-31876400D01*
%TO.N,Net-(RN2-R3.1)*%
X78431200Y-32213952D02*
X78431200Y-30327600D01*
X77836020Y-32664800D02*
X78189268Y-32311552D01*
X77191200Y-32664800D02*
X77836020Y-32664800D01*
X78189268Y-32311552D02*
X78333600Y-32311552D01*
%TO.N,Net-(RN2-R4.1)*%
X78931200Y-32219200D02*
X78931200Y-30327600D01*
X77831152Y-33064800D02*
X78305000Y-32590952D01*
X77191200Y-33064800D02*
X77831152Y-33064800D01*
X78559448Y-32590952D02*
X78931200Y-32219200D01*
%TO.N,/core/SPI_CS*%
X76441200Y-30975200D02*
X76441200Y-31514800D01*
X76047600Y-30581600D02*
X76441200Y-30975200D01*
X70028000Y-34264800D02*
X69900800Y-34137600D01*
X71291200Y-34264800D02*
X70028000Y-34264800D01*
D39*
%TO.N,+3.3V*%
X66294000Y-29768800D02*
X62685200Y-29768800D01*
X66700400Y-32715200D02*
X66700400Y-30175200D01*
X68122800Y-34137600D02*
X66700400Y-32715200D01*
X62685200Y-29768800D02*
X62585600Y-29868400D01*
X68732400Y-34137600D02*
X68122800Y-34137600D01*
D37*
%TO.N,/SWRST{slash}JTAG_TRST*%
X69392800Y-31343600D02*
X69384800Y-31351600D01*
X69384800Y-31351600D02*
X68923600Y-31351600D01*
D39*
%TO.N,Net-(R5-Pad2)*%
X64954000Y-30888400D02*
X65176400Y-30666000D01*
X62585600Y-30888400D02*
X64954000Y-30888400D01*
D37*
%TO.N,+3.3V*%
X76696500Y-39085300D02*
X77216000Y-39604800D01*
X75570300Y-39085300D02*
X76696500Y-39085300D01*
X75539600Y-39116000D02*
X75570300Y-39085300D01*
D39*
%TO.N,Net-(U2-FB)*%
X62589700Y-27229600D02*
X62589700Y-27989600D01*
X61463700Y-27858600D02*
X62458700Y-27858600D01*
%TO.N,Net-(U2-SS{slash}TR)*%
X61669700Y-25909500D02*
X61669700Y-25262582D01*
X61463700Y-26558600D02*
X61463700Y-26115500D01*
%TO.N,Net-(F1-Pad1)*%
X60103893Y-33330893D02*
X57206893Y-33330893D01*
X60165893Y-33268893D02*
X60103893Y-33330893D01*
X57200800Y-33324800D02*
X57200800Y-30022800D01*
X57200800Y-37134800D02*
X57200800Y-33324800D01*
X57200800Y-30022800D02*
X56337200Y-29159200D01*
X56337200Y-29159200D02*
X56337200Y-28321100D01*
X58072893Y-38006893D02*
X57200800Y-37134800D01*
X60103893Y-38006893D02*
X58072893Y-38006893D01*
X60165893Y-38068893D02*
X60103893Y-38006893D01*
D40*
%TO.N,+3.3V*%
X73304400Y-38574800D02*
X72034400Y-38574800D01*
D41*
%TO.N,Net-(U1D-PA01{slash}TMR1.CAPT0{slash}URT0.RXD{slash}TRGM0.P01{slash}ACMP.COMP0)*%
X76041200Y-37920462D02*
X76041200Y-37414800D01*
X77673200Y-37846000D02*
X76947884Y-37846000D01*
X76665184Y-38128700D02*
X76249438Y-38128700D01*
%TO.N,Net-(U1D-PA00{slash}TMR1.COMP0{slash}URT0.TXD{slash}TRGM0.P00)*%
X77037600Y-37414800D02*
X77114400Y-37338000D01*
X76441200Y-37414800D02*
X77037600Y-37414800D01*
D37*
%TO.N,Net-(U1B-RESETN)*%
X78148880Y-36899280D02*
X78148880Y-38614800D01*
X77191200Y-36664800D02*
X77914400Y-36664800D01*
X77216000Y-38584800D02*
X78118880Y-38584800D01*
%TO.N,Net-(U1C-VDD_OTPCAP)*%
X76250800Y-38614800D02*
X75902000Y-38614800D01*
X75641200Y-38041682D02*
X75641200Y-37414800D01*
X75713500Y-38426300D02*
X75713500Y-38113982D01*
%TO.N,/SWRST{slash}JTAG_TRST*%
X67030893Y-27914893D02*
X67030893Y-26182893D01*
X67259200Y-29609851D02*
X67259200Y-28143200D01*
%TO.N,/SWCLK{slash}JTAG_TCK*%
X67923600Y-28698000D02*
X67923600Y-31351600D01*
X69570893Y-26182893D02*
X68660707Y-26182893D01*
X68529200Y-26314400D02*
X68529200Y-28092400D01*
%TO.N,/SWDIO{slash}JTAG_TMS*%
X68427600Y-30429200D02*
X68427600Y-30226000D01*
X68423600Y-31351600D02*
X68423600Y-30433200D01*
%TO.N,+3.3V*%
X69037200Y-35995200D02*
X70074000Y-35995200D01*
D40*
%TO.N,/core/Vana*%
X73763099Y-30837099D02*
X74192932Y-30407266D01*
X73641200Y-31514800D02*
X73641200Y-30958998D01*
X73788499Y-30811699D02*
X73966499Y-30811699D01*
X74041200Y-30886400D02*
X74041200Y-30558998D01*
X74041200Y-31514800D02*
X74041200Y-30886400D01*
X73641200Y-30958998D02*
X73763099Y-30837099D01*
D37*
%TO.N,Net-(U1C-VDD_PMCCAP)*%
X78564800Y-34340800D02*
X78564800Y-33417200D01*
X77840800Y-35064800D02*
X78564800Y-34340800D01*
X77191200Y-35064800D02*
X77840800Y-35064800D01*
D40*
%TO.N,Net-(U1A-DCDC_LP)*%
X78656475Y-36136875D02*
X78656475Y-36636690D01*
X77191200Y-35864800D02*
X78384400Y-35864800D01*
D37*
%TO.N,/core/BOOT0*%
X74841200Y-38470400D02*
X74726800Y-38584800D01*
X74841200Y-37414800D02*
X74841200Y-38470400D01*
D41*
%TO.N,Net-(RN1-R4.1)*%
X69553200Y-32351600D02*
X68923600Y-32351600D01*
X71291200Y-32264800D02*
X69640000Y-32264800D01*
%TO.N,Net-(RN1-R3.1)*%
X68423600Y-32788600D02*
X68423600Y-32351600D01*
X71291200Y-33064800D02*
X68699800Y-33064800D01*
%TO.N,Net-(RN1-R2.1)*%
X71291200Y-33864800D02*
X70491600Y-33864800D01*
X67923600Y-32788600D02*
X67923600Y-32351600D01*
X69920200Y-33293400D02*
X68428400Y-33293400D01*
X70491600Y-33864800D02*
X69920200Y-33293400D01*
X68428400Y-33293400D02*
X67923600Y-32788600D01*
D37*
%TO.N,/core/BOOT1*%
X74441200Y-37950800D02*
X74441200Y-37414800D01*
X65430400Y-38333788D02*
X65430400Y-35170800D01*
X74015600Y-38376400D02*
X74441200Y-37950800D01*
X65430400Y-35170800D02*
X65074800Y-34815200D01*
X70866000Y-38506400D02*
X70612000Y-38760400D01*
X74015600Y-38579600D02*
X74015600Y-38376400D01*
X70612000Y-38760400D02*
X65857012Y-38760400D01*
%TO.N,/core/XTALO*%
X69412000Y-30641199D02*
X70285601Y-31514800D01*
X69412000Y-29791200D02*
X69412000Y-30641199D01*
X70285601Y-31514800D02*
X72041200Y-31514800D01*
%TO.N,/core/XTALI*%
X72441200Y-30937600D02*
X72441200Y-31514800D01*
X71812000Y-30308400D02*
X72441200Y-30937600D01*
X71812000Y-29791200D02*
X71812000Y-30308400D01*
%TO.N,GND*%
X71120000Y-31025900D02*
X70853100Y-31025900D01*
X70853100Y-31025900D02*
X70612000Y-30784800D01*
X70612000Y-30784800D02*
X70612000Y-29791200D01*
D40*
%TO.N,+3.3V*%
X74192932Y-29439068D02*
X74192932Y-29437266D01*
D37*
X67868800Y-35995200D02*
X69037200Y-35995200D01*
D40*
X77191200Y-35464800D02*
X78525464Y-35464800D01*
X75241200Y-31514800D02*
X75241200Y-30510266D01*
X73641200Y-37414800D02*
X73641200Y-38238000D01*
X72935333Y-30720533D02*
X73253600Y-30402266D01*
X74841200Y-30694266D02*
X75133200Y-30402266D01*
X74041200Y-36947610D02*
X74041200Y-37414800D01*
X73241200Y-31514800D02*
X73241200Y-30784800D01*
X72986133Y-30669733D02*
X73126133Y-30669733D01*
X73126133Y-30669733D02*
X73241200Y-30784800D01*
D37*
X75335700Y-38912100D02*
X75335700Y-38270472D01*
D40*
X73241200Y-30414666D02*
X73253600Y-30402266D01*
X78525464Y-35464800D02*
X78844499Y-35145765D01*
X73253600Y-30402266D02*
X73253600Y-30378400D01*
D37*
X70664400Y-35464800D02*
X71291200Y-35464800D01*
D40*
X74841200Y-31514800D02*
X74841200Y-30694266D01*
X73710800Y-36864800D02*
X73958390Y-36864800D01*
X75241200Y-30510266D02*
X75133200Y-30402266D01*
X73253600Y-30378400D02*
X74192932Y-29439068D01*
X74192932Y-29438132D02*
X75133200Y-30378400D01*
X73241200Y-30784800D02*
X73241200Y-30414666D01*
D37*
X75241200Y-38175972D02*
X75241200Y-37414800D01*
D40*
X73641200Y-37414800D02*
X73641200Y-36934400D01*
X72841200Y-30814666D02*
X72935333Y-30720533D01*
D37*
X70104000Y-36025200D02*
X70664400Y-35464800D01*
X75539600Y-39116000D02*
X75335700Y-38912100D01*
D40*
X75133200Y-30378400D02*
X75133200Y-30402266D01*
X72841200Y-31514800D02*
X72841200Y-30814666D01*
D37*
%TO.N,Net-(U1D-PA01{slash}TMR1.CAPT0{slash}URT0.RXD{slash}TRGM0.P01{slash}ACMP.COMP0)*%
X76041200Y-37414800D02*
X76041200Y-37534800D01*
X76041200Y-37534800D02*
X76047600Y-37541200D01*
%TO.N,Net-(D5-A)*%
X67208400Y-38150800D02*
X67816000Y-38150800D01*
X66192400Y-37896800D02*
X66954400Y-37896800D01*
%TO.N,/core/LED*%
X71291200Y-37217600D02*
X71291200Y-36664800D01*
X70358000Y-38150800D02*
X71291200Y-37217600D01*
X68836000Y-38150800D02*
X70358000Y-38150800D01*
D40*
%TO.N,GND*%
X74441200Y-34264800D02*
X74441200Y-31514800D01*
X74241200Y-34464800D02*
X74441200Y-34264800D01*
D37*
%TO.N,Net-(D5-A)*%
X66954400Y-37896800D02*
X67208400Y-38150800D01*
%TO.N,+3.3V*%
X70074000Y-35995200D02*
X70104000Y-36025200D01*
D40*
X73958390Y-36864800D02*
X74041200Y-36947610D01*
D37*
X75335700Y-38270472D02*
X75241200Y-38175972D01*
D40*
X73641200Y-36934400D02*
X73710800Y-36864800D01*
X72935333Y-30720533D02*
X72986133Y-30669733D01*
X73641200Y-38238000D02*
X73304400Y-38574800D01*
X74192932Y-29437266D02*
X74192932Y-29438132D01*
D37*
%TO.N,/core/BOOT1*%
X65857012Y-38760400D02*
X65430400Y-38333788D01*
D41*
%TO.N,Net-(RN1-R3.1)*%
X68699800Y-33064800D02*
X68423600Y-32788600D01*
%TO.N,Net-(RN1-R4.1)*%
X69640000Y-32264800D02*
X69553200Y-32351600D01*
D40*
%TO.N,Net-(U1A-DCDC_LP)*%
X78384400Y-35864800D02*
X78656475Y-36136875D01*
%TO.N,/core/Vana*%
X73966499Y-30811699D02*
X74041200Y-30886400D01*
X73763099Y-30837099D02*
X73788499Y-30811699D01*
X74041200Y-30558998D02*
X74192932Y-30407266D01*
D37*
%TO.N,/SWDIO{slash}JTAG_TMS*%
X68423600Y-30433200D02*
X68427600Y-30429200D01*
%TO.N,/SWCLK{slash}JTAG_TCK*%
X68529200Y-28092400D02*
X67923600Y-28698000D01*
X68660707Y-26182893D02*
X68529200Y-26314400D01*
%TO.N,/SWRST{slash}JTAG_TRST*%
X67259200Y-28143200D02*
X67030893Y-27914893D01*
%TO.N,Net-(U1C-VDD_OTPCAP)*%
X75713500Y-38113982D02*
X75641200Y-38041682D01*
X75902000Y-38614800D02*
X75713500Y-38426300D01*
%TO.N,Net-(U1B-RESETN)*%
X78118880Y-38584800D02*
X78148880Y-38614800D01*
X77914400Y-36664800D02*
X78148880Y-36899280D01*
D41*
%TO.N,Net-(U1D-PA01{slash}TMR1.CAPT0{slash}URT0.RXD{slash}TRGM0.P01{slash}ACMP.COMP0)*%
X76249438Y-38128700D02*
X76041200Y-37920462D01*
X76947884Y-37846000D02*
X76665184Y-38128700D01*
D39*
%TO.N,Net-(F1-Pad1)*%
X57206893Y-33330893D02*
X57200800Y-33324800D01*
%TO.N,Net-(U2-SS{slash}TR)*%
X61463700Y-26115500D02*
X61669700Y-25909500D01*
%TO.N,Net-(U2-FB)*%
X62458700Y-27858600D02*
X62589700Y-27989600D01*
%TO.N,+3.3V*%
X66700400Y-30175200D02*
X66294000Y-29768800D01*
D37*
%TO.N,Net-(RN2-R4.1)*%
X78305000Y-32590952D02*
X78559448Y-32590952D01*
%TO.N,Net-(RN2-R3.1)*%
X78333600Y-32311552D02*
X78431200Y-32213952D01*
%TO.N,/JTAG_TDO*%
X78431200Y-29755400D02*
X78367000Y-29819600D01*
X77165200Y-29819600D02*
X77089000Y-29895800D01*
X77089000Y-29895800D02*
X77012800Y-29972000D01*
D38*
%TO.N,/core/USB_D+*%
X70653699Y-35064800D02*
X70555299Y-34966400D01*
X62424485Y-35458401D02*
X62302999Y-35458401D01*
%TO.N,/core/USB_D-*%
X70653699Y-34664800D02*
X70555299Y-34763200D01*
X62340315Y-35255199D02*
X62302999Y-35255199D01*
X61863369Y-35080600D02*
X61701662Y-34918893D01*
%TO.N,/core/USB_D+*%
X61617494Y-35122094D02*
X61231235Y-35122094D01*
%TO.N,/core/USB_D-*%
X59590894Y-34918893D02*
X59438493Y-35071294D01*
X59438493Y-35765693D02*
X59591693Y-35918893D01*
D37*
%TO.N,Net-(J1-CC1)*%
X61923200Y-33987200D02*
X61491507Y-34418893D01*
%TO.N,/SWCLK{slash}JTAG_TCK*%
X77931200Y-28899800D02*
X77835000Y-28803600D01*
%TO.N,/SWDIO{slash}JTAG_TMS*%
X69037200Y-28041600D02*
X68427600Y-28651200D01*
%TO.N,/JTAG_TDI*%
X76021523Y-28326872D02*
X76218851Y-28524200D01*
X77950731Y-28524200D02*
X78230131Y-28803600D01*
X78841600Y-28803600D02*
X78931200Y-28893200D01*
%TD*%
%TA.AperFunction,Conductor*%
%TO.N,VBUS*%
G36*
X59268341Y-25925741D02*
G01*
X59638474Y-26295874D01*
X59651200Y-26326598D01*
X59651200Y-26411652D01*
X59643877Y-26435791D01*
X59611467Y-26484295D01*
X59611465Y-26484299D01*
X59596700Y-26558530D01*
X59596700Y-27310650D01*
X59583974Y-27341374D01*
X59553250Y-27354100D01*
X59115191Y-27354100D01*
X59115179Y-27354101D01*
X59041419Y-27364847D01*
X58927634Y-27420472D01*
X58902232Y-27445874D01*
X58871508Y-27458600D01*
X58826206Y-27458600D01*
X58795482Y-27445874D01*
X58782756Y-27415150D01*
X58783291Y-27408353D01*
X58796642Y-27324060D01*
X58796641Y-26981971D01*
X58782010Y-26889588D01*
X58782009Y-26889586D01*
X58782008Y-26889583D01*
X58725278Y-26778245D01*
X58636911Y-26689878D01*
X58525570Y-26633147D01*
X58479378Y-26625831D01*
X58433187Y-26618515D01*
X58433186Y-26618515D01*
X58031099Y-26618515D01*
X58031097Y-26618516D01*
X57938716Y-26633146D01*
X57938710Y-26633148D01*
X57827372Y-26689878D01*
X57739005Y-26778245D01*
X57682274Y-26889586D01*
X57682274Y-26889587D01*
X57667642Y-26981969D01*
X57667642Y-27324057D01*
X57667643Y-27324059D01*
X57680993Y-27408353D01*
X57673230Y-27440690D01*
X57644875Y-27458065D01*
X57638078Y-27458600D01*
X56155198Y-27458600D01*
X56124474Y-27445874D01*
X55874926Y-27196326D01*
X55862200Y-27165602D01*
X55862200Y-26326598D01*
X55874926Y-26295874D01*
X56245059Y-25925741D01*
X56275783Y-25913015D01*
X59237617Y-25913015D01*
X59268341Y-25925741D01*
G37*
%TD.AperFunction*%
%TD*%
%TA.AperFunction,Conductor*%
%TO.N,+3.3V*%
G36*
X58902232Y-28271326D02*
G01*
X58927632Y-28296726D01*
X59041418Y-28352352D01*
X59041421Y-28352352D01*
X59041423Y-28352353D01*
X59069153Y-28356393D01*
X59115187Y-28363100D01*
X59553250Y-28363099D01*
X59583974Y-28375825D01*
X59596700Y-28406549D01*
X59596700Y-28508669D01*
X59611465Y-28582898D01*
X59611467Y-28582903D01*
X59667714Y-28667082D01*
X59667716Y-28667084D01*
X59751899Y-28723334D01*
X59826133Y-28738100D01*
X60976266Y-28738099D01*
X60976269Y-28738099D01*
X61013383Y-28730716D01*
X61050501Y-28723334D01*
X61134684Y-28667084D01*
X61190934Y-28582901D01*
X61205700Y-28508667D01*
X61205699Y-28406548D01*
X61218425Y-28375826D01*
X61249146Y-28363099D01*
X61687212Y-28363099D01*
X61687217Y-28363098D01*
X61687220Y-28363098D01*
X61721698Y-28358075D01*
X61760982Y-28352352D01*
X61874768Y-28296726D01*
X61900168Y-28271326D01*
X61930892Y-28258600D01*
X62009205Y-28258600D01*
X62039929Y-28271326D01*
X62047919Y-28282325D01*
X62085657Y-28356393D01*
X62172905Y-28443641D01*
X62243189Y-28479452D01*
X62282838Y-28499654D01*
X62374047Y-28514100D01*
X62666201Y-28514099D01*
X62696925Y-28526825D01*
X62896974Y-28726874D01*
X62909700Y-28757598D01*
X62909700Y-30094950D01*
X62896974Y-30125674D01*
X62866250Y-30138400D01*
X58822223Y-30138400D01*
X58791499Y-30125674D01*
X57934868Y-29269043D01*
X57922142Y-29238319D01*
X57922142Y-28714314D01*
X57934867Y-28683591D01*
X58054917Y-28563541D01*
X58085637Y-28550816D01*
X58433186Y-28550816D01*
X58525569Y-28536185D01*
X58636913Y-28479452D01*
X58725277Y-28391088D01*
X58773357Y-28296727D01*
X58780696Y-28282324D01*
X58805983Y-28260727D01*
X58819410Y-28258600D01*
X58871508Y-28258600D01*
X58902232Y-28271326D01*
G37*
%TD.AperFunction*%
%TD*%
%TA.AperFunction,Conductor*%
%TO.N,GND*%
G36*
X65397667Y-24246119D02*
G01*
X65410393Y-24276843D01*
X65410393Y-24472461D01*
X65430871Y-24548881D01*
X65430872Y-24548882D01*
X65470433Y-24617404D01*
X65526382Y-24673353D01*
X65594904Y-24712914D01*
X65671324Y-24733392D01*
X65671331Y-24733393D01*
X66334543Y-24733393D01*
X66365267Y-24746119D01*
X66377993Y-24776843D01*
X66377993Y-27747951D01*
X66384899Y-27782668D01*
X66386865Y-27792551D01*
X66386865Y-27792552D01*
X66386867Y-27792556D01*
X66420655Y-27843123D01*
X66420662Y-27843130D01*
X66471231Y-27876919D01*
X66471235Y-27876921D01*
X66515836Y-27885793D01*
X66745643Y-27885792D01*
X66776367Y-27898518D01*
X66789093Y-27929242D01*
X66789093Y-27962990D01*
X66825905Y-28051862D01*
X66825906Y-28051863D01*
X67004674Y-28230631D01*
X67017400Y-28261355D01*
X67017400Y-29334577D01*
X67004674Y-29365301D01*
X66970137Y-29399837D01*
X66919389Y-29499435D01*
X66919387Y-29499441D01*
X66901901Y-29609850D01*
X66901901Y-29609851D01*
X66919387Y-29720260D01*
X66919389Y-29720266D01*
X66970137Y-29819864D01*
X67049186Y-29898913D01*
X67148784Y-29949661D01*
X67148787Y-29949662D01*
X67148789Y-29949663D01*
X67175194Y-29953845D01*
X67259199Y-29967150D01*
X67259200Y-29967150D01*
X67259201Y-29967150D01*
X67308347Y-29959366D01*
X67369611Y-29949663D01*
X67469215Y-29898912D01*
X67548261Y-29819866D01*
X67556601Y-29803497D01*
X67599636Y-29719038D01*
X67624923Y-29697441D01*
X67658076Y-29700050D01*
X67679673Y-29725337D01*
X67681800Y-29738764D01*
X67681800Y-30912294D01*
X67669074Y-30943018D01*
X67638350Y-30955744D01*
X67629873Y-30954909D01*
X67598659Y-30948700D01*
X67248541Y-30948700D01*
X67208883Y-30956589D01*
X67203942Y-30957572D01*
X67203941Y-30957572D01*
X67203936Y-30957574D01*
X67153369Y-30991362D01*
X67153362Y-30991369D01*
X67119573Y-31041938D01*
X67119571Y-31041942D01*
X67110700Y-31086540D01*
X67110700Y-31616658D01*
X67115459Y-31640579D01*
X67119572Y-31661258D01*
X67119572Y-31661259D01*
X67119574Y-31661263D01*
X67153362Y-31711830D01*
X67153369Y-31711837D01*
X67203938Y-31745626D01*
X67203942Y-31745628D01*
X67248543Y-31754500D01*
X67598656Y-31754499D01*
X67598658Y-31754499D01*
X67608538Y-31752533D01*
X67643258Y-31745628D01*
X67649460Y-31741483D01*
X67682074Y-31734994D01*
X67697737Y-31741481D01*
X67703942Y-31745628D01*
X67748543Y-31754500D01*
X68098656Y-31754499D01*
X68098658Y-31754499D01*
X68108538Y-31752533D01*
X68143258Y-31745628D01*
X68149460Y-31741483D01*
X68182074Y-31734994D01*
X68197737Y-31741481D01*
X68203942Y-31745628D01*
X68248543Y-31754500D01*
X68598656Y-31754499D01*
X68598658Y-31754499D01*
X68608538Y-31752533D01*
X68643258Y-31745628D01*
X68649460Y-31741483D01*
X68682074Y-31734994D01*
X68697737Y-31741481D01*
X68703942Y-31745628D01*
X68748543Y-31754500D01*
X69098656Y-31754499D01*
X69098658Y-31754499D01*
X69108538Y-31752533D01*
X69143258Y-31745628D01*
X69143262Y-31745625D01*
X69143263Y-31745625D01*
X69193830Y-31711837D01*
X69193830Y-31711836D01*
X69193834Y-31711834D01*
X69209042Y-31689072D01*
X69236691Y-31670597D01*
X69264894Y-31674497D01*
X69282385Y-31683410D01*
X69282389Y-31683412D01*
X69392799Y-31700899D01*
X69392800Y-31700899D01*
X69392801Y-31700899D01*
X69429603Y-31695070D01*
X69503211Y-31683412D01*
X69546691Y-31661258D01*
X69602813Y-31632662D01*
X69602812Y-31632662D01*
X69602815Y-31632661D01*
X69681861Y-31553615D01*
X69732612Y-31454011D01*
X69739814Y-31408535D01*
X69757189Y-31380181D01*
X69789526Y-31372418D01*
X69813453Y-31384609D01*
X70080613Y-31651769D01*
X70148632Y-31719788D01*
X70237504Y-31756600D01*
X71744850Y-31756600D01*
X71775574Y-31769326D01*
X71788300Y-31800050D01*
X71788300Y-31909784D01*
X71797805Y-31957573D01*
X71800907Y-31973165D01*
X71798618Y-31973620D01*
X71798595Y-31998732D01*
X71775059Y-32022226D01*
X71750019Y-32022226D01*
X71749565Y-32024507D01*
X71745368Y-32023672D01*
X71728698Y-32020356D01*
X71686186Y-32011900D01*
X71686184Y-32011900D01*
X70896216Y-32011900D01*
X70896214Y-32011900D01*
X70837032Y-32023672D01*
X70837031Y-32023672D01*
X70810984Y-32041077D01*
X70786844Y-32048400D01*
X69596954Y-32048400D01*
X69564010Y-32062045D01*
X69517420Y-32081343D01*
X69476290Y-32122474D01*
X69445566Y-32135200D01*
X69279949Y-32135200D01*
X69249225Y-32122474D01*
X69236499Y-32091750D01*
X69236499Y-32086541D01*
X69232914Y-32068520D01*
X69227628Y-32041942D01*
X69227625Y-32041938D01*
X69227625Y-32041936D01*
X69193837Y-31991369D01*
X69193830Y-31991362D01*
X69143261Y-31957573D01*
X69143257Y-31957571D01*
X69098659Y-31948700D01*
X68748541Y-31948700D01*
X68708883Y-31956589D01*
X68703942Y-31957572D01*
X68703941Y-31957572D01*
X68703937Y-31957574D01*
X68697737Y-31961717D01*
X68665120Y-31968202D01*
X68649463Y-31961717D01*
X68643260Y-31957573D01*
X68643257Y-31957571D01*
X68598659Y-31948700D01*
X68248541Y-31948700D01*
X68208883Y-31956589D01*
X68203942Y-31957572D01*
X68203941Y-31957572D01*
X68203937Y-31957574D01*
X68197737Y-31961717D01*
X68165120Y-31968202D01*
X68149463Y-31961717D01*
X68143260Y-31957573D01*
X68143257Y-31957571D01*
X68098659Y-31948700D01*
X67748541Y-31948700D01*
X67708883Y-31956589D01*
X67703942Y-31957572D01*
X67703941Y-31957572D01*
X67703937Y-31957574D01*
X67697737Y-31961717D01*
X67665120Y-31968202D01*
X67649463Y-31961717D01*
X67643260Y-31957573D01*
X67643257Y-31957571D01*
X67598659Y-31948700D01*
X67248541Y-31948700D01*
X67208883Y-31956589D01*
X67203942Y-31957572D01*
X67203941Y-31957572D01*
X67203936Y-31957574D01*
X67153369Y-31991362D01*
X67153362Y-31991369D01*
X67119573Y-32041938D01*
X67119571Y-32041942D01*
X67110700Y-32086540D01*
X67110700Y-32616660D01*
X67110701Y-32616661D01*
X67110816Y-32617239D01*
X67110777Y-32617434D01*
X67110910Y-32618785D01*
X67110500Y-32618825D01*
X67104328Y-32649855D01*
X67076676Y-32668329D01*
X67044060Y-32661841D01*
X67037477Y-32656438D01*
X66993026Y-32611987D01*
X66980300Y-32581263D01*
X66980300Y-30138350D01*
X66980299Y-30138343D01*
X66962429Y-30071656D01*
X66962428Y-30071653D01*
X66961225Y-30067163D01*
X66961225Y-30067162D01*
X66924376Y-30003337D01*
X66465862Y-29544824D01*
X66402037Y-29507975D01*
X66402036Y-29507974D01*
X66330856Y-29488900D01*
X66330850Y-29488900D01*
X63212650Y-29488900D01*
X63181926Y-29476174D01*
X63169200Y-29445450D01*
X63169200Y-28757594D01*
X63149449Y-28658299D01*
X63149448Y-28658295D01*
X63149448Y-28658294D01*
X63136722Y-28627570D01*
X63136721Y-28627568D01*
X63080468Y-28543380D01*
X62952492Y-28415404D01*
X62939767Y-28384682D01*
X62952492Y-28353959D01*
X63016331Y-28290121D01*
X63059807Y-28191657D01*
X63062600Y-28167584D01*
X63062600Y-27811616D01*
X63059807Y-27787543D01*
X63016331Y-27689079D01*
X63016330Y-27689077D01*
X62967576Y-27640324D01*
X62954849Y-27609600D01*
X62967575Y-27578877D01*
X63016330Y-27530122D01*
X63016331Y-27530121D01*
X63059807Y-27431657D01*
X63062600Y-27407584D01*
X63062600Y-27051616D01*
X63059807Y-27027543D01*
X63037743Y-26977572D01*
X63016332Y-26929080D01*
X62940219Y-26852967D01*
X62841757Y-26809493D01*
X62841759Y-26809493D01*
X62834879Y-26808695D01*
X62817684Y-26806700D01*
X62361716Y-26806700D01*
X62344521Y-26808695D01*
X62337641Y-26809493D01*
X62239180Y-26852967D01*
X62163067Y-26929080D01*
X62119593Y-27027541D01*
X62119593Y-27027543D01*
X62116800Y-27051616D01*
X62116800Y-27407584D01*
X62117075Y-27409952D01*
X62119593Y-27431658D01*
X62157584Y-27517700D01*
X62158352Y-27550946D01*
X62135386Y-27574998D01*
X62117836Y-27578700D01*
X61907308Y-27578700D01*
X61876584Y-27565974D01*
X61874934Y-27564324D01*
X61862208Y-27533600D01*
X61874934Y-27502876D01*
X61876551Y-27501259D01*
X61884438Y-27493372D01*
X61926405Y-27398328D01*
X61929100Y-27375097D01*
X61929099Y-27042104D01*
X61926405Y-27018872D01*
X61884438Y-26923828D01*
X61874934Y-26914324D01*
X61862208Y-26883600D01*
X61874934Y-26852876D01*
X61884438Y-26843372D01*
X61926405Y-26748328D01*
X61929100Y-26725097D01*
X61929099Y-26392104D01*
X61926405Y-26368872D01*
X61884438Y-26273828D01*
X61823547Y-26212937D01*
X61810821Y-26182213D01*
X61823546Y-26151491D01*
X61893676Y-26081362D01*
X61930525Y-26017537D01*
X61936361Y-25995755D01*
X61949599Y-25946356D01*
X61949600Y-25946349D01*
X61949600Y-25719304D01*
X61962326Y-25688580D01*
X61975500Y-25679555D01*
X61978096Y-25678410D01*
X62055528Y-25600978D01*
X62099759Y-25500803D01*
X62102600Y-25476316D01*
X62102600Y-25048848D01*
X62099759Y-25024361D01*
X62055528Y-24924186D01*
X61978096Y-24846754D01*
X61978095Y-24846753D01*
X61978096Y-24846753D01*
X61877921Y-24802523D01*
X61877923Y-24802523D01*
X61870924Y-24801711D01*
X61853434Y-24799682D01*
X61485966Y-24799682D01*
X61468475Y-24801711D01*
X61461477Y-24802523D01*
X61361304Y-24846753D01*
X61283871Y-24924186D01*
X61239641Y-25024359D01*
X61239641Y-25024361D01*
X61236800Y-25048848D01*
X61236800Y-25476316D01*
X61239167Y-25496721D01*
X61239641Y-25500804D01*
X61283871Y-25600977D01*
X61283872Y-25600978D01*
X61361304Y-25678410D01*
X61363898Y-25679555D01*
X61386865Y-25703606D01*
X61389800Y-25719304D01*
X61389800Y-25775564D01*
X61377074Y-25806288D01*
X61239724Y-25943637D01*
X61202875Y-26007462D01*
X61202874Y-26007463D01*
X61183800Y-26078643D01*
X61183800Y-26142301D01*
X61171074Y-26173025D01*
X61157902Y-26182048D01*
X61116428Y-26200361D01*
X61042963Y-26273826D01*
X61000995Y-26368872D01*
X60998300Y-26392107D01*
X60998300Y-26725091D01*
X60998301Y-26725096D01*
X61000995Y-26748328D01*
X61042962Y-26843372D01*
X61042963Y-26843373D01*
X61052466Y-26852876D01*
X61065192Y-26883600D01*
X61052466Y-26914324D01*
X61042963Y-26923826D01*
X61042962Y-26923827D01*
X61042962Y-26923828D01*
X61008272Y-27002391D01*
X61000995Y-27018872D01*
X60998300Y-27042107D01*
X60998300Y-27375091D01*
X61000412Y-27393301D01*
X61000995Y-27398328D01*
X61042962Y-27493372D01*
X61042963Y-27493373D01*
X61052466Y-27502876D01*
X61065192Y-27533600D01*
X61052466Y-27564324D01*
X61042963Y-27573826D01*
X61042962Y-27573827D01*
X61042962Y-27573828D01*
X61000995Y-27668872D01*
X60998555Y-27689912D01*
X60998300Y-27692107D01*
X60998300Y-28025091D01*
X60999775Y-28037809D01*
X61000995Y-28048328D01*
X61039740Y-28136076D01*
X61043476Y-28144535D01*
X61044244Y-28177782D01*
X61037152Y-28188665D01*
X61037310Y-28188771D01*
X60983021Y-28270019D01*
X60978680Y-28276516D01*
X60974624Y-28286308D01*
X60966544Y-28305813D01*
X60966135Y-28306709D01*
X60965949Y-28307251D01*
X60946199Y-28406547D01*
X60946199Y-28435149D01*
X60933473Y-28465873D01*
X60902749Y-28478599D01*
X59899650Y-28478599D01*
X59868926Y-28465873D01*
X59856200Y-28435149D01*
X59856200Y-28406545D01*
X59836449Y-28307250D01*
X59836448Y-28307246D01*
X59836448Y-28307245D01*
X59823722Y-28276521D01*
X59823720Y-28276517D01*
X59767467Y-28192329D01*
X59683278Y-28136077D01*
X59652554Y-28123351D01*
X59652552Y-28123350D01*
X59652548Y-28123349D01*
X59606744Y-28114239D01*
X59597668Y-28111371D01*
X59590930Y-28108395D01*
X59567680Y-28105698D01*
X59566441Y-28105627D01*
X59566446Y-28105538D01*
X59559615Y-28104865D01*
X59553249Y-28103599D01*
X59137138Y-28103599D01*
X59130868Y-28103144D01*
X59125670Y-28102386D01*
X59112857Y-28098426D01*
X59073475Y-28079174D01*
X59068419Y-28076267D01*
X59031895Y-28051863D01*
X59001536Y-28031578D01*
X58970812Y-28018852D01*
X58970810Y-28018851D01*
X58970806Y-28018850D01*
X58871511Y-27999100D01*
X58871508Y-27999100D01*
X58819410Y-27999100D01*
X58819398Y-27999100D01*
X58778821Y-28002295D01*
X58778805Y-28002296D01*
X58769463Y-28003776D01*
X58765381Y-28004423D01*
X58765378Y-28004423D01*
X58765376Y-28004424D01*
X58765374Y-28004424D01*
X58725794Y-28013927D01*
X58637453Y-28063399D01*
X58612168Y-28084995D01*
X58612166Y-28084997D01*
X58549480Y-28164511D01*
X58549480Y-28164512D01*
X58543735Y-28175784D01*
X58543693Y-28175869D01*
X58515843Y-28230525D01*
X58507853Y-28241522D01*
X58487346Y-28262029D01*
X58476348Y-28270019D01*
X58450512Y-28283183D01*
X58437585Y-28287384D01*
X58426193Y-28289188D01*
X58416137Y-28290781D01*
X58409343Y-28291316D01*
X58085632Y-28291316D01*
X57986335Y-28311067D01*
X57986329Y-28311069D01*
X57955609Y-28323794D01*
X57871425Y-28380045D01*
X57871420Y-28380049D01*
X57753071Y-28498398D01*
X57752287Y-28499099D01*
X57751363Y-28500106D01*
X57695119Y-28584287D01*
X57682393Y-28615011D01*
X57682391Y-28615019D01*
X57662642Y-28714310D01*
X57662642Y-29238322D01*
X57682392Y-29337617D01*
X57682393Y-29337621D01*
X57682394Y-29337623D01*
X57695120Y-29368347D01*
X57695121Y-29368349D01*
X57751374Y-29452537D01*
X58180087Y-29881250D01*
X58607038Y-30308201D01*
X58607848Y-30309063D01*
X58608004Y-30309167D01*
X58608005Y-30309168D01*
X58608006Y-30309170D01*
X58666655Y-30348357D01*
X58685130Y-30376005D01*
X58678643Y-30408622D01*
X58659143Y-30424626D01*
X58567214Y-30462704D01*
X58403433Y-30572140D01*
X58264140Y-30711433D01*
X58154703Y-30875215D01*
X58154703Y-30875216D01*
X58079321Y-31057206D01*
X58079319Y-31057214D01*
X58071029Y-31098892D01*
X58071030Y-31098893D01*
X58873905Y-31098893D01*
X58856688Y-31108833D01*
X58800833Y-31164688D01*
X58761337Y-31233097D01*
X58740893Y-31309397D01*
X58740893Y-31388389D01*
X58761337Y-31464689D01*
X58800833Y-31533098D01*
X58856688Y-31588953D01*
X58873905Y-31598893D01*
X58071030Y-31598893D01*
X58079319Y-31640571D01*
X58079321Y-31640579D01*
X58154703Y-31822569D01*
X58154703Y-31822570D01*
X58264140Y-31986352D01*
X58264144Y-31986357D01*
X58403429Y-32125642D01*
X58403433Y-32125645D01*
X58567216Y-32235082D01*
X58749206Y-32310464D01*
X58749214Y-32310466D01*
X58860615Y-32332625D01*
X58888266Y-32351100D01*
X58894754Y-32383716D01*
X58876279Y-32411367D01*
X58873864Y-32412869D01*
X58829629Y-32438408D01*
X58750408Y-32517629D01*
X58694390Y-32614654D01*
X58665393Y-32722868D01*
X58665393Y-32834917D01*
X58694390Y-32943131D01*
X58719036Y-32985818D01*
X58723377Y-33018788D01*
X58703132Y-33045172D01*
X58681407Y-33050993D01*
X57524150Y-33050993D01*
X57493426Y-33038267D01*
X57480700Y-33007543D01*
X57480700Y-29985950D01*
X57480699Y-29985943D01*
X57461625Y-29914763D01*
X57461624Y-29914762D01*
X57460015Y-29911974D01*
X57424776Y-29850938D01*
X57372662Y-29798824D01*
X56629826Y-29055988D01*
X56617100Y-29025264D01*
X56617100Y-28950771D01*
X56629826Y-28920047D01*
X56654286Y-28907775D01*
X56700962Y-28900975D01*
X56812393Y-28846499D01*
X56900099Y-28758793D01*
X56954575Y-28647362D01*
X56965100Y-28575122D01*
X56965100Y-28067078D01*
X56964564Y-28063401D01*
X56955971Y-28004423D01*
X56954575Y-27994838D01*
X56900099Y-27883407D01*
X56812393Y-27795701D01*
X56809847Y-27793155D01*
X56811014Y-27791987D01*
X56796480Y-27768703D01*
X56803974Y-27736303D01*
X56832184Y-27718693D01*
X56839337Y-27718100D01*
X57638065Y-27718100D01*
X57638078Y-27718100D01*
X57658441Y-27717300D01*
X57665238Y-27716765D01*
X57685463Y-27714371D01*
X57780458Y-27679328D01*
X57808813Y-27661953D01*
X57808821Y-27661948D01*
X57883172Y-27593218D01*
X57925561Y-27501266D01*
X57933324Y-27468929D01*
X57937299Y-27367761D01*
X57927677Y-27307006D01*
X57927142Y-27300209D01*
X57927142Y-27005808D01*
X57927677Y-26999013D01*
X57931072Y-26977572D01*
X57935271Y-26964646D01*
X57948437Y-26938805D01*
X57956423Y-26927813D01*
X57976939Y-26907297D01*
X57987931Y-26899311D01*
X58013772Y-26886145D01*
X58026696Y-26881946D01*
X58036665Y-26880368D01*
X58048149Y-26878550D01*
X58054943Y-26878015D01*
X58409345Y-26878015D01*
X58416141Y-26878549D01*
X58437586Y-26881946D01*
X58450514Y-26886147D01*
X58476346Y-26899309D01*
X58487344Y-26907299D01*
X58507854Y-26927809D01*
X58515844Y-26938807D01*
X58529007Y-26964640D01*
X58533208Y-26977567D01*
X58536605Y-26999013D01*
X58536606Y-26999016D01*
X58537141Y-27005815D01*
X58537141Y-27300216D01*
X58536606Y-27307013D01*
X58526986Y-27367750D01*
X58524590Y-27387993D01*
X58524056Y-27394774D01*
X58523256Y-27415151D01*
X58543006Y-27514448D01*
X58543007Y-27514452D01*
X58545890Y-27521413D01*
X58555734Y-27545178D01*
X58555736Y-27545182D01*
X58579749Y-27581120D01*
X58611987Y-27629368D01*
X58611988Y-27629368D01*
X58611989Y-27629370D01*
X58696178Y-27685622D01*
X58726902Y-27698348D01*
X58726906Y-27698348D01*
X58726907Y-27698349D01*
X58826203Y-27718100D01*
X58826206Y-27718100D01*
X58871511Y-27718100D01*
X58946498Y-27703184D01*
X58970812Y-27698348D01*
X59001536Y-27685622D01*
X59001538Y-27685621D01*
X59068433Y-27640921D01*
X59073461Y-27638030D01*
X59112857Y-27618771D01*
X59125680Y-27614810D01*
X59130882Y-27614053D01*
X59137139Y-27613600D01*
X59553250Y-27613600D01*
X59559615Y-27612333D01*
X59566444Y-27611661D01*
X59566439Y-27611572D01*
X59567683Y-27611499D01*
X59567696Y-27611499D01*
X59590928Y-27608805D01*
X59597677Y-27605823D01*
X59606735Y-27602960D01*
X59652554Y-27593848D01*
X59683278Y-27581122D01*
X59683282Y-27581120D01*
X59767470Y-27524867D01*
X59823722Y-27440678D01*
X59836448Y-27409954D01*
X59843382Y-27375091D01*
X59856200Y-27310653D01*
X59856200Y-26596999D01*
X59860372Y-26578421D01*
X59863837Y-26571093D01*
X59892202Y-26511125D01*
X59899525Y-26486986D01*
X59910700Y-26411652D01*
X59910700Y-26326598D01*
X59910700Y-26326594D01*
X59890949Y-26227299D01*
X59890948Y-26227295D01*
X59885001Y-26212937D01*
X59878222Y-26196570D01*
X59878221Y-26196568D01*
X59821968Y-26112380D01*
X59452801Y-25743213D01*
X59451991Y-25742350D01*
X59451834Y-25742245D01*
X59367645Y-25685993D01*
X59349336Y-25678409D01*
X59336919Y-25673266D01*
X59336915Y-25673265D01*
X59237620Y-25653515D01*
X59237617Y-25653515D01*
X56275783Y-25653515D01*
X56275780Y-25653515D01*
X56176484Y-25673265D01*
X56176480Y-25673266D01*
X56164062Y-25678410D01*
X56145755Y-25685993D01*
X56145753Y-25685994D01*
X56145752Y-25685994D01*
X56145750Y-25685995D01*
X56061568Y-25742245D01*
X56061563Y-25742249D01*
X55692398Y-26111413D01*
X55691537Y-26112220D01*
X55635177Y-26196571D01*
X55622451Y-26227295D01*
X55622450Y-26227299D01*
X55602700Y-26326594D01*
X55602700Y-27165605D01*
X55622450Y-27264900D01*
X55622451Y-27264904D01*
X55622452Y-27264906D01*
X55635178Y-27295630D01*
X55635179Y-27295631D01*
X55635179Y-27295632D01*
X55635180Y-27295634D01*
X55645214Y-27310650D01*
X55691432Y-27379820D01*
X55826060Y-27514448D01*
X55940013Y-27628401D01*
X55940823Y-27629264D01*
X55940980Y-27629369D01*
X55940981Y-27629370D01*
X55990208Y-27662262D01*
X56008684Y-27689912D01*
X56002197Y-27722528D01*
X55976501Y-27739697D01*
X55976665Y-27740227D01*
X55974885Y-27740776D01*
X55974546Y-27741004D01*
X55973654Y-27741157D01*
X55973439Y-27741223D01*
X55862009Y-27795699D01*
X55774299Y-27883409D01*
X55719824Y-27994839D01*
X55709300Y-28067069D01*
X55709300Y-28575130D01*
X55719824Y-28647360D01*
X55774299Y-28758790D01*
X55774301Y-28758793D01*
X55862007Y-28846499D01*
X55973438Y-28900975D01*
X56020113Y-28907775D01*
X56048682Y-28924797D01*
X56057300Y-28950771D01*
X56057300Y-29196056D01*
X56076374Y-29267236D01*
X56076375Y-29267237D01*
X56113224Y-29331062D01*
X56908174Y-30126012D01*
X56920900Y-30156736D01*
X56920900Y-37171656D01*
X56939974Y-37242836D01*
X56939975Y-37242837D01*
X56976824Y-37306662D01*
X57848917Y-38178755D01*
X57901031Y-38230869D01*
X57964856Y-38267718D01*
X58036036Y-38286792D01*
X58036043Y-38286793D01*
X58681407Y-38286793D01*
X58712131Y-38299519D01*
X58724857Y-38330243D01*
X58719036Y-38351968D01*
X58694390Y-38394654D01*
X58665393Y-38502868D01*
X58665393Y-38614917D01*
X58694390Y-38723131D01*
X58746796Y-38813900D01*
X58750408Y-38820156D01*
X58829630Y-38899378D01*
X58873864Y-38924916D01*
X58894108Y-38951299D01*
X58889768Y-38984270D01*
X58863385Y-39004514D01*
X58860616Y-39005160D01*
X58749212Y-39027319D01*
X58749206Y-39027321D01*
X58567216Y-39102703D01*
X58567215Y-39102703D01*
X58403433Y-39212140D01*
X58264140Y-39351433D01*
X58154703Y-39515215D01*
X58154703Y-39515216D01*
X58079321Y-39697206D01*
X58079319Y-39697214D01*
X58071029Y-39738892D01*
X58071030Y-39738893D01*
X58873905Y-39738893D01*
X58856688Y-39748833D01*
X58800833Y-39804688D01*
X58761337Y-39873097D01*
X58740893Y-39949397D01*
X58740893Y-40028389D01*
X58761337Y-40104689D01*
X58800833Y-40173098D01*
X58856688Y-40228953D01*
X58873905Y-40238893D01*
X58071030Y-40238893D01*
X58079319Y-40280571D01*
X58079321Y-40280579D01*
X58154703Y-40462569D01*
X58154703Y-40462570D01*
X58223014Y-40564803D01*
X58229502Y-40597419D01*
X58211027Y-40625070D01*
X58186887Y-40632393D01*
X56664899Y-40632393D01*
X56634175Y-40619667D01*
X56621449Y-40588943D01*
X56628772Y-40564803D01*
X56697082Y-40462570D01*
X56697082Y-40462569D01*
X56772464Y-40280579D01*
X56772466Y-40280571D01*
X56780756Y-40238893D01*
X55977881Y-40238893D01*
X55995098Y-40228953D01*
X56050953Y-40173098D01*
X56090449Y-40104689D01*
X56110893Y-40028389D01*
X56110893Y-39949397D01*
X56090449Y-39873097D01*
X56050953Y-39804688D01*
X55995098Y-39748833D01*
X55977881Y-39738893D01*
X56780756Y-39738893D01*
X56780756Y-39738892D01*
X56772466Y-39697214D01*
X56772464Y-39697206D01*
X56697082Y-39515216D01*
X56697082Y-39515215D01*
X56587645Y-39351433D01*
X56587642Y-39351429D01*
X56448357Y-39212144D01*
X56448352Y-39212140D01*
X56284569Y-39102703D01*
X56102579Y-39027321D01*
X56102573Y-39027319D01*
X55909386Y-38988893D01*
X55660893Y-38988893D01*
X55660893Y-39688893D01*
X55160893Y-39688893D01*
X55160893Y-38988893D01*
X54912400Y-38988893D01*
X54719212Y-39027319D01*
X54719206Y-39027321D01*
X54537216Y-39102703D01*
X54537215Y-39102703D01*
X54373433Y-39212140D01*
X54234140Y-39351433D01*
X54124703Y-39515215D01*
X54124703Y-39515216D01*
X54049321Y-39697206D01*
X54049319Y-39697214D01*
X54041029Y-39738892D01*
X54041030Y-39738893D01*
X54843905Y-39738893D01*
X54826688Y-39748833D01*
X54770833Y-39804688D01*
X54731337Y-39873097D01*
X54710893Y-39949397D01*
X54710893Y-40028389D01*
X54731337Y-40104689D01*
X54770833Y-40173098D01*
X54826688Y-40228953D01*
X54843905Y-40238893D01*
X54041030Y-40238893D01*
X54049319Y-40280571D01*
X54049321Y-40280579D01*
X54124703Y-40462569D01*
X54124703Y-40462570D01*
X54193014Y-40564803D01*
X54199502Y-40597419D01*
X54181027Y-40625070D01*
X54156887Y-40632393D01*
X53813032Y-40632393D01*
X53808773Y-40632184D01*
X53678688Y-40619370D01*
X53670334Y-40617708D01*
X53547303Y-40580386D01*
X53539436Y-40577127D01*
X53477576Y-40544061D01*
X53426054Y-40516522D01*
X53418973Y-40511790D01*
X53319589Y-40430228D01*
X53313565Y-40424205D01*
X53232000Y-40324816D01*
X53227275Y-40317744D01*
X53166666Y-40204350D01*
X53163408Y-40196483D01*
X53126088Y-40073451D01*
X53124428Y-40065108D01*
X53111601Y-39934872D01*
X53111393Y-39930617D01*
X53111394Y-39885301D01*
X53111393Y-39885297D01*
X53111393Y-31098892D01*
X54041029Y-31098892D01*
X54041030Y-31098893D01*
X54843905Y-31098893D01*
X54826688Y-31108833D01*
X54770833Y-31164688D01*
X54731337Y-31233097D01*
X54710893Y-31309397D01*
X54710893Y-31388389D01*
X54731337Y-31464689D01*
X54770833Y-31533098D01*
X54826688Y-31588953D01*
X54843905Y-31598893D01*
X54041030Y-31598893D01*
X54049319Y-31640571D01*
X54049321Y-31640579D01*
X54124703Y-31822569D01*
X54124703Y-31822570D01*
X54234140Y-31986352D01*
X54234144Y-31986357D01*
X54373429Y-32125642D01*
X54373433Y-32125645D01*
X54537216Y-32235082D01*
X54719206Y-32310464D01*
X54719212Y-32310466D01*
X54912400Y-32348893D01*
X55160893Y-32348893D01*
X55160893Y-31648893D01*
X55660893Y-31648893D01*
X55660893Y-32348893D01*
X55909386Y-32348893D01*
X56102573Y-32310466D01*
X56102579Y-32310464D01*
X56284569Y-32235082D01*
X56284570Y-32235082D01*
X56448352Y-32125645D01*
X56448357Y-32125642D01*
X56587642Y-31986357D01*
X56587645Y-31986352D01*
X56697082Y-31822570D01*
X56697082Y-31822569D01*
X56772464Y-31640579D01*
X56772466Y-31640571D01*
X56780756Y-31598893D01*
X55977881Y-31598893D01*
X55995098Y-31588953D01*
X56050953Y-31533098D01*
X56090449Y-31464689D01*
X56110893Y-31388389D01*
X56110893Y-31309397D01*
X56090449Y-31233097D01*
X56050953Y-31164688D01*
X55995098Y-31108833D01*
X55977881Y-31098893D01*
X56780756Y-31098893D01*
X56780756Y-31098892D01*
X56772466Y-31057214D01*
X56772464Y-31057206D01*
X56697082Y-30875216D01*
X56697082Y-30875215D01*
X56587645Y-30711433D01*
X56587642Y-30711429D01*
X56448357Y-30572144D01*
X56448352Y-30572140D01*
X56284569Y-30462703D01*
X56102579Y-30387321D01*
X56102573Y-30387319D01*
X55909386Y-30348893D01*
X55660893Y-30348893D01*
X55660893Y-31048893D01*
X55160893Y-31048893D01*
X55160893Y-30348893D01*
X54912400Y-30348893D01*
X54719212Y-30387319D01*
X54719206Y-30387321D01*
X54537216Y-30462703D01*
X54537215Y-30462703D01*
X54373433Y-30572140D01*
X54234140Y-30711433D01*
X54124703Y-30875215D01*
X54124703Y-30875216D01*
X54049321Y-31057206D01*
X54049319Y-31057214D01*
X54041029Y-31098892D01*
X53111393Y-31098892D01*
X53111393Y-24935028D01*
X53111602Y-24930769D01*
X53112250Y-24924186D01*
X53124416Y-24800679D01*
X53126075Y-24792339D01*
X53163401Y-24669293D01*
X53166656Y-24661438D01*
X53227267Y-24548042D01*
X53231988Y-24540975D01*
X53313564Y-24441575D01*
X53319575Y-24435564D01*
X53418975Y-24353988D01*
X53426042Y-24349267D01*
X53539438Y-24288656D01*
X53547293Y-24285401D01*
X53670339Y-24248075D01*
X53678679Y-24246416D01*
X53808773Y-24233601D01*
X53813032Y-24233393D01*
X53858490Y-24233393D01*
X65366943Y-24233393D01*
X65397667Y-24246119D01*
G37*
%TD.AperFunction*%
%TA.AperFunction,Conductor*%
G36*
X79763301Y-24233394D02*
G01*
X79808757Y-24233393D01*
X79813016Y-24233602D01*
X79835088Y-24235775D01*
X79943108Y-24246414D01*
X79951453Y-24248074D01*
X80074490Y-24285395D01*
X80082355Y-24288653D01*
X80195753Y-24349264D01*
X80202829Y-24353993D01*
X80302217Y-24435558D01*
X80308240Y-24441581D01*
X80389801Y-24540963D01*
X80394533Y-24548045D01*
X80455139Y-24661429D01*
X80458399Y-24669298D01*
X80495722Y-24792331D01*
X80497384Y-24800685D01*
X80510184Y-24930630D01*
X80510393Y-24934889D01*
X80510393Y-39882628D01*
X80510392Y-39882646D01*
X80510392Y-39930758D01*
X80510183Y-39935016D01*
X80497372Y-40065102D01*
X80495710Y-40073457D01*
X80458390Y-40196485D01*
X80455131Y-40204354D01*
X80394523Y-40317745D01*
X80389790Y-40324828D01*
X80308230Y-40424208D01*
X80302208Y-40430230D01*
X80202828Y-40511790D01*
X80195745Y-40516523D01*
X80082354Y-40577131D01*
X80074485Y-40580390D01*
X79951457Y-40617710D01*
X79943102Y-40619372D01*
X79813016Y-40632183D01*
X79808758Y-40632392D01*
X79759805Y-40632392D01*
X79759793Y-40632393D01*
X68582872Y-40632393D01*
X68552148Y-40619667D01*
X68541296Y-40601567D01*
X68481017Y-40403047D01*
X68381496Y-40204641D01*
X68249819Y-40025951D01*
X68249817Y-40025949D01*
X68249815Y-40025946D01*
X68089792Y-39872139D01*
X68089788Y-39872135D01*
X67957898Y-39782779D01*
X67906024Y-39747634D01*
X67776347Y-39688893D01*
X67703835Y-39656046D01*
X67647801Y-39641427D01*
X67489056Y-39600012D01*
X67267893Y-39581154D01*
X67046729Y-39600012D01*
X66831951Y-39656046D01*
X66629761Y-39747634D01*
X66445999Y-39872134D01*
X66445993Y-39872139D01*
X66285970Y-40025946D01*
X66285968Y-40025949D01*
X66154289Y-40204641D01*
X66154288Y-40204644D01*
X66054770Y-40403043D01*
X66054769Y-40403046D01*
X66036695Y-40462570D01*
X65995750Y-40597419D01*
X65994490Y-40601567D01*
X65973386Y-40627268D01*
X65952914Y-40632393D01*
X60994899Y-40632393D01*
X60964175Y-40619667D01*
X60951449Y-40588943D01*
X60958772Y-40564803D01*
X61027082Y-40462570D01*
X61027082Y-40462569D01*
X61102464Y-40280579D01*
X61102466Y-40280571D01*
X61110756Y-40238893D01*
X60307881Y-40238893D01*
X60325098Y-40228953D01*
X60380953Y-40173098D01*
X60420449Y-40104689D01*
X60440893Y-40028389D01*
X60440893Y-39949397D01*
X60420449Y-39873097D01*
X60380953Y-39804688D01*
X60325098Y-39748833D01*
X60307881Y-39738893D01*
X61110756Y-39738893D01*
X61110756Y-39738892D01*
X61102466Y-39697214D01*
X61102464Y-39697206D01*
X61027082Y-39515216D01*
X61027082Y-39515215D01*
X60917645Y-39351433D01*
X60917642Y-39351429D01*
X60778357Y-39212144D01*
X60778352Y-39212140D01*
X60614569Y-39102703D01*
X60432579Y-39027321D01*
X60432573Y-39027319D01*
X60239386Y-38988893D01*
X59840893Y-38988893D01*
X59840893Y-39688893D01*
X59340893Y-39688893D01*
X59340893Y-38988893D01*
X59328305Y-38976305D01*
X59315579Y-38945581D01*
X59328305Y-38914857D01*
X59337305Y-38907952D01*
X59352156Y-38899378D01*
X59431378Y-38820156D01*
X59487396Y-38723130D01*
X59503239Y-38664001D01*
X59516392Y-38614917D01*
X59516393Y-38614910D01*
X59516393Y-38517560D01*
X59529119Y-38486836D01*
X59559843Y-38474110D01*
X59577386Y-38477810D01*
X59670343Y-38518855D01*
X59695667Y-38521793D01*
X59695672Y-38521793D01*
X60636114Y-38521793D01*
X60636119Y-38521793D01*
X60661443Y-38518855D01*
X60765038Y-38473113D01*
X60845113Y-38393038D01*
X60890855Y-38289443D01*
X60893793Y-38264119D01*
X60893793Y-37873667D01*
X60890855Y-37848343D01*
X60845113Y-37744748D01*
X60835232Y-37734867D01*
X60822506Y-37704143D01*
X60835232Y-37673419D01*
X60865956Y-37660693D01*
X61470252Y-37660693D01*
X61500976Y-37673419D01*
X61510000Y-37686593D01*
X61546567Y-37769412D01*
X61622680Y-37845525D01*
X61671911Y-37867262D01*
X61721141Y-37888999D01*
X61721140Y-37888999D01*
X61721143Y-37889000D01*
X61745216Y-37891793D01*
X61745221Y-37891793D01*
X62101179Y-37891793D01*
X62101184Y-37891793D01*
X62125257Y-37889000D01*
X62223721Y-37845524D01*
X62299831Y-37769414D01*
X62343307Y-37670950D01*
X62346100Y-37646877D01*
X62346100Y-37190909D01*
X62343307Y-37166836D01*
X62309200Y-37089590D01*
X62299832Y-37068373D01*
X62223719Y-36992260D01*
X62125257Y-36948786D01*
X62125259Y-36948786D01*
X62118379Y-36947988D01*
X62101184Y-36945993D01*
X61745216Y-36945993D01*
X61728021Y-36947988D01*
X61721141Y-36948786D01*
X61622680Y-36992260D01*
X61546567Y-37068373D01*
X61510000Y-37151193D01*
X61485948Y-37174159D01*
X61470252Y-37177093D01*
X60898865Y-37177093D01*
X60868141Y-37164367D01*
X60855415Y-37133643D01*
X60862737Y-37109504D01*
X60869458Y-37099445D01*
X60880570Y-37082815D01*
X60893793Y-37016340D01*
X60893792Y-36821447D01*
X60893792Y-36821446D01*
X60893792Y-36821444D01*
X60888326Y-36793967D01*
X60880570Y-36754971D01*
X60839183Y-36693031D01*
X60832697Y-36660416D01*
X60839184Y-36644754D01*
X60880570Y-36582815D01*
X60893793Y-36516340D01*
X60893792Y-36429971D01*
X60906518Y-36399249D01*
X61049821Y-36255946D01*
X61049823Y-36255946D01*
X61107125Y-36198644D01*
X61118397Y-36171431D01*
X61138137Y-36123776D01*
X61138137Y-36042738D01*
X61138137Y-36039242D01*
X61138136Y-36039228D01*
X61138136Y-35521266D01*
X61150862Y-35490542D01*
X61302885Y-35338520D01*
X61333609Y-35325794D01*
X61515121Y-35325794D01*
X61545844Y-35338519D01*
X61764911Y-35557587D01*
X61777637Y-35588310D01*
X61777102Y-35595106D01*
X61771101Y-35632998D01*
X61771101Y-35633000D01*
X61788587Y-35743409D01*
X61788589Y-35743415D01*
X61839337Y-35843013D01*
X61918386Y-35922062D01*
X62017984Y-35972810D01*
X62017987Y-35972811D01*
X62017989Y-35972812D01*
X62073194Y-35981555D01*
X62128399Y-35990299D01*
X62128400Y-35990299D01*
X62128401Y-35990299D01*
X62165203Y-35984470D01*
X62238811Y-35972812D01*
X62338415Y-35922061D01*
X62417461Y-35843015D01*
X62468212Y-35743411D01*
X62478412Y-35679002D01*
X62495787Y-35650650D01*
X62504697Y-35645659D01*
X62539872Y-35631090D01*
X62597174Y-35573788D01*
X62597174Y-35573786D01*
X64121735Y-34049226D01*
X64152459Y-34036500D01*
X66251141Y-34036500D01*
X66281864Y-34049225D01*
X67314424Y-35081786D01*
X67314425Y-35081787D01*
X67371727Y-35139089D01*
X67446595Y-35170100D01*
X70452926Y-35170100D01*
X70483648Y-35182825D01*
X70513309Y-35212486D01*
X70526035Y-35243209D01*
X70513309Y-35273933D01*
X70207669Y-35579574D01*
X70176945Y-35592300D01*
X69890266Y-35592300D01*
X69872775Y-35594329D01*
X69865777Y-35595141D01*
X69765604Y-35639371D01*
X69688171Y-35716804D01*
X69683449Y-35727500D01*
X69659397Y-35750466D01*
X69643701Y-35753400D01*
X69453146Y-35753400D01*
X69422422Y-35740674D01*
X69420319Y-35738415D01*
X69340012Y-35645736D01*
X69340010Y-35645735D01*
X69340010Y-35645734D01*
X69229295Y-35574581D01*
X69186355Y-35561973D01*
X69103007Y-35537500D01*
X68971393Y-35537500D01*
X68902986Y-35557586D01*
X68845104Y-35574581D01*
X68734389Y-35645734D01*
X68734388Y-35645736D01*
X68654089Y-35738404D01*
X68624354Y-35753289D01*
X68621254Y-35753400D01*
X68349671Y-35753400D01*
X68318947Y-35740674D01*
X68309923Y-35727501D01*
X68309851Y-35727338D01*
X68295431Y-35694679D01*
X68219321Y-35618569D01*
X68219319Y-35618567D01*
X68120857Y-35575093D01*
X68120859Y-35575093D01*
X68113979Y-35574295D01*
X68096784Y-35572300D01*
X67640816Y-35572300D01*
X67623621Y-35574295D01*
X67616741Y-35575093D01*
X67518280Y-35618567D01*
X67442167Y-35694680D01*
X67398693Y-35793141D01*
X67398693Y-35793143D01*
X67395900Y-35817216D01*
X67395900Y-36173184D01*
X67396386Y-36177370D01*
X67398693Y-36197258D01*
X67442167Y-36295719D01*
X67518280Y-36371832D01*
X67567511Y-36393569D01*
X67616741Y-36415306D01*
X67616740Y-36415306D01*
X67616743Y-36415307D01*
X67640816Y-36418100D01*
X67640821Y-36418100D01*
X68096779Y-36418100D01*
X68096784Y-36418100D01*
X68120857Y-36415307D01*
X68219321Y-36371831D01*
X68295431Y-36295721D01*
X68309923Y-36262898D01*
X68333975Y-36239934D01*
X68349671Y-36237000D01*
X68621254Y-36237000D01*
X68651978Y-36249726D01*
X68654080Y-36251984D01*
X68734388Y-36344664D01*
X68734389Y-36344665D01*
X68845104Y-36415818D01*
X68845107Y-36415819D01*
X68845109Y-36415820D01*
X68971393Y-36452900D01*
X68971395Y-36452900D01*
X69103005Y-36452900D01*
X69103007Y-36452900D01*
X69229291Y-36415820D01*
X69229293Y-36415818D01*
X69229295Y-36415818D01*
X69340010Y-36344665D01*
X69340009Y-36344665D01*
X69340012Y-36344664D01*
X69420310Y-36251995D01*
X69450046Y-36237111D01*
X69453146Y-36237000D01*
X69617209Y-36237000D01*
X69647933Y-36249726D01*
X69656957Y-36262900D01*
X69688171Y-36333595D01*
X69765604Y-36411028D01*
X69765603Y-36411028D01*
X69792718Y-36423000D01*
X69865777Y-36455258D01*
X69865776Y-36455258D01*
X69865779Y-36455259D01*
X69890266Y-36458100D01*
X69890271Y-36458100D01*
X70317729Y-36458100D01*
X70317734Y-36458100D01*
X70342221Y-36455259D01*
X70442396Y-36411028D01*
X70519828Y-36333596D01*
X70564059Y-36233421D01*
X70566900Y-36208934D01*
X70566900Y-35922254D01*
X70579625Y-35891531D01*
X70639126Y-35832029D01*
X70669850Y-35819304D01*
X70700574Y-35832030D01*
X70713300Y-35862754D01*
X70713300Y-35934786D01*
X70715260Y-35944638D01*
X70725072Y-35993968D01*
X70740374Y-36016869D01*
X70756271Y-36040661D01*
X70762758Y-36073277D01*
X70756271Y-36088939D01*
X70725072Y-36135632D01*
X70713300Y-36194813D01*
X70713300Y-36334786D01*
X70715265Y-36344663D01*
X70725072Y-36393968D01*
X70739672Y-36415818D01*
X70756271Y-36440661D01*
X70762758Y-36473277D01*
X70756271Y-36488939D01*
X70725072Y-36535632D01*
X70713300Y-36594813D01*
X70713300Y-36734786D01*
X70717315Y-36754969D01*
X70724042Y-36788792D01*
X70725072Y-36793967D01*
X70725073Y-36793971D01*
X70769913Y-36861079D01*
X70769920Y-36861086D01*
X70837028Y-36905926D01*
X70837029Y-36905926D01*
X70837032Y-36905928D01*
X70879371Y-36914349D01*
X70896214Y-36917700D01*
X70896216Y-36917700D01*
X71005950Y-36917700D01*
X71036674Y-36930426D01*
X71049400Y-36961150D01*
X71049400Y-37099445D01*
X71036674Y-37130169D01*
X70270569Y-37896274D01*
X70239845Y-37909000D01*
X69288948Y-37909000D01*
X69258224Y-37896274D01*
X69249200Y-37883100D01*
X69212632Y-37800280D01*
X69136519Y-37724167D01*
X69038057Y-37680693D01*
X69038059Y-37680693D01*
X69031179Y-37679895D01*
X69013984Y-37677900D01*
X68658016Y-37677900D01*
X68640821Y-37679895D01*
X68633941Y-37680693D01*
X68535480Y-37724167D01*
X68459367Y-37800280D01*
X68415893Y-37898741D01*
X68415893Y-37898743D01*
X68413100Y-37922816D01*
X68413100Y-38378784D01*
X68414672Y-38392331D01*
X68415893Y-38402858D01*
X68440064Y-38457600D01*
X68440832Y-38490846D01*
X68417866Y-38514898D01*
X68400316Y-38518600D01*
X68251684Y-38518600D01*
X68220960Y-38505874D01*
X68208234Y-38475150D01*
X68211936Y-38457600D01*
X68223650Y-38431070D01*
X68236107Y-38402857D01*
X68238900Y-38378784D01*
X68238900Y-37922816D01*
X68236107Y-37898743D01*
X68222960Y-37868967D01*
X68192632Y-37800280D01*
X68116519Y-37724167D01*
X68018057Y-37680693D01*
X68018059Y-37680693D01*
X68011179Y-37679895D01*
X67993984Y-37677900D01*
X67638016Y-37677900D01*
X67620821Y-37679895D01*
X67613941Y-37680693D01*
X67515480Y-37724167D01*
X67439367Y-37800280D01*
X67402800Y-37883100D01*
X67378748Y-37906066D01*
X67363052Y-37909000D01*
X67326555Y-37909000D01*
X67295831Y-37896274D01*
X67091370Y-37691813D01*
X67091369Y-37691812D01*
X67002497Y-37655000D01*
X67002495Y-37655000D01*
X66826250Y-37655000D01*
X66795526Y-37642274D01*
X66782800Y-37611550D01*
X66782800Y-37605281D01*
X66782799Y-37605269D01*
X66772275Y-37533039D01*
X66770260Y-37528918D01*
X66717799Y-37421607D01*
X66630093Y-37333901D01*
X66630090Y-37333899D01*
X66518660Y-37279424D01*
X66446430Y-37268900D01*
X66446422Y-37268900D01*
X65938378Y-37268900D01*
X65938369Y-37268900D01*
X65866139Y-37279424D01*
X65754709Y-37333899D01*
X65746374Y-37342234D01*
X65715650Y-37354960D01*
X65684926Y-37342234D01*
X65672200Y-37311510D01*
X65672200Y-36893690D01*
X65684926Y-36862966D01*
X65715650Y-36850240D01*
X65746374Y-36862966D01*
X65754707Y-36871299D01*
X65866138Y-36925775D01*
X65889169Y-36929130D01*
X65938369Y-36936299D01*
X65938373Y-36936299D01*
X65938378Y-36936300D01*
X65938382Y-36936300D01*
X66446418Y-36936300D01*
X66446422Y-36936300D01*
X66446427Y-36936299D01*
X66446430Y-36936299D01*
X66472599Y-36932486D01*
X66518662Y-36925775D01*
X66630093Y-36871299D01*
X66717799Y-36783593D01*
X66772275Y-36672162D01*
X66782800Y-36599922D01*
X66782800Y-36593650D01*
X66795526Y-36562926D01*
X66826250Y-36550200D01*
X66872350Y-36550200D01*
X66903074Y-36562926D01*
X66915800Y-36593650D01*
X66915800Y-36781903D01*
X66915800Y-36878097D01*
X66952612Y-36966969D01*
X67205831Y-37220188D01*
X67294703Y-37257000D01*
X67387929Y-37257000D01*
X67418653Y-37269726D01*
X67427675Y-37282897D01*
X67442169Y-37315721D01*
X67442170Y-37315722D01*
X67518280Y-37391832D01*
X67567511Y-37413569D01*
X67616741Y-37435306D01*
X67616740Y-37435306D01*
X67616743Y-37435307D01*
X67640816Y-37438100D01*
X67640821Y-37438100D01*
X68096779Y-37438100D01*
X68096784Y-37438100D01*
X68120857Y-37435307D01*
X68219321Y-37391831D01*
X68295431Y-37315721D01*
X68338907Y-37217257D01*
X68341700Y-37193184D01*
X68341700Y-36837216D01*
X68338907Y-36813143D01*
X68328155Y-36788792D01*
X68295432Y-36714680D01*
X68219319Y-36638567D01*
X68120857Y-36595093D01*
X68120859Y-36595093D01*
X68113979Y-36594295D01*
X68096784Y-36592300D01*
X67640816Y-36592300D01*
X67623621Y-36594295D01*
X67616741Y-36595093D01*
X67518280Y-36638567D01*
X67473574Y-36683274D01*
X67442850Y-36696000D01*
X67412126Y-36683274D01*
X67399400Y-36652550D01*
X67399400Y-36426304D01*
X67399400Y-36426303D01*
X67362588Y-36337431D01*
X67294569Y-36269412D01*
X67128569Y-36103412D01*
X67039697Y-36066600D01*
X67039695Y-36066600D01*
X66826250Y-36066600D01*
X66795526Y-36053874D01*
X66782800Y-36023150D01*
X66782800Y-36016878D01*
X66782799Y-36016869D01*
X66772275Y-35944639D01*
X66769216Y-35938382D01*
X66717799Y-35833207D01*
X66630093Y-35745501D01*
X66630090Y-35745499D01*
X66518660Y-35691024D01*
X66446430Y-35680500D01*
X66446422Y-35680500D01*
X65938378Y-35680500D01*
X65938369Y-35680500D01*
X65866139Y-35691024D01*
X65754709Y-35745499D01*
X65746374Y-35753834D01*
X65715650Y-35766560D01*
X65684926Y-35753834D01*
X65672200Y-35723110D01*
X65672200Y-35462350D01*
X65684926Y-35431626D01*
X65715650Y-35418900D01*
X66009892Y-35418900D01*
X66009894Y-35418900D01*
X66009898Y-35418899D01*
X66009902Y-35418899D01*
X66078482Y-35408907D01*
X66078482Y-35408906D01*
X66078488Y-35408906D01*
X66184298Y-35357179D01*
X66267579Y-35273898D01*
X66319306Y-35168088D01*
X66320747Y-35158200D01*
X66329299Y-35099502D01*
X66329300Y-35099491D01*
X66329300Y-34632508D01*
X66329299Y-34632497D01*
X66319307Y-34563917D01*
X66319306Y-34563915D01*
X66319306Y-34563912D01*
X66267579Y-34458102D01*
X66184298Y-34374821D01*
X66184295Y-34374819D01*
X66128643Y-34347613D01*
X66078488Y-34323094D01*
X66078486Y-34323093D01*
X66078482Y-34323092D01*
X66009902Y-34313100D01*
X66009894Y-34313100D01*
X64342906Y-34313100D01*
X64342897Y-34313100D01*
X64274317Y-34323092D01*
X64274312Y-34323094D01*
X64168504Y-34374819D01*
X64085219Y-34458104D01*
X64033494Y-34563912D01*
X64033492Y-34563917D01*
X64023500Y-34632497D01*
X64023500Y-35099502D01*
X64033492Y-35168082D01*
X64033493Y-35168086D01*
X64033494Y-35168088D01*
X64046146Y-35193968D01*
X64085219Y-35273895D01*
X64085221Y-35273898D01*
X64168502Y-35357179D01*
X64274312Y-35408906D01*
X64274315Y-35408906D01*
X64274317Y-35408907D01*
X64342897Y-35418899D01*
X64342902Y-35418899D01*
X64342906Y-35418900D01*
X65145150Y-35418900D01*
X65175874Y-35431626D01*
X65188600Y-35462350D01*
X65188600Y-38285691D01*
X65188600Y-38381885D01*
X65225412Y-38470757D01*
X65720043Y-38965388D01*
X65808915Y-39002200D01*
X65808917Y-39002200D01*
X70660095Y-39002200D01*
X70660097Y-39002200D01*
X70748969Y-38965388D01*
X70837931Y-38876424D01*
X70862913Y-38866076D01*
X70862622Y-38864234D01*
X70866000Y-38863699D01*
X70976411Y-38846212D01*
X71076015Y-38795461D01*
X71155061Y-38716415D01*
X71205812Y-38616811D01*
X71223299Y-38506400D01*
X71220200Y-38486836D01*
X71211368Y-38431070D01*
X71205812Y-38395989D01*
X71205811Y-38395987D01*
X71205810Y-38395984D01*
X71155062Y-38296386D01*
X71076013Y-38217337D01*
X70976415Y-38166589D01*
X70976409Y-38166587D01*
X70866001Y-38149101D01*
X70865999Y-38149101D01*
X70802807Y-38159109D01*
X70770470Y-38151346D01*
X70753095Y-38122991D01*
X70760858Y-38090654D01*
X70765280Y-38085476D01*
X71496188Y-37354569D01*
X71533000Y-37265697D01*
X71533000Y-37169503D01*
X71533000Y-36961150D01*
X71545726Y-36930426D01*
X71576450Y-36917700D01*
X71686186Y-36917700D01*
X71728698Y-36909243D01*
X71745368Y-36905928D01*
X71745368Y-36905927D01*
X71749565Y-36905093D01*
X71750023Y-36907397D01*
X71775052Y-36907370D01*
X71798592Y-36930860D01*
X71798627Y-36955981D01*
X71800907Y-36956435D01*
X71788300Y-37019813D01*
X71788300Y-37809786D01*
X71800072Y-37868967D01*
X71800073Y-37868971D01*
X71844913Y-37936079D01*
X71844920Y-37936086D01*
X71912028Y-37980926D01*
X71912029Y-37980926D01*
X71912032Y-37980928D01*
X71954371Y-37989349D01*
X71971214Y-37992700D01*
X71971216Y-37992700D01*
X72111186Y-37992700D01*
X72125930Y-37989766D01*
X72170368Y-37980928D01*
X72217060Y-37949728D01*
X72249676Y-37943241D01*
X72265338Y-37949728D01*
X72312032Y-37980928D01*
X72351576Y-37988793D01*
X72371214Y-37992700D01*
X72371216Y-37992700D01*
X72511186Y-37992700D01*
X72525930Y-37989766D01*
X72570368Y-37980928D01*
X72617060Y-37949728D01*
X72649676Y-37943241D01*
X72665338Y-37949728D01*
X72712032Y-37980928D01*
X72751576Y-37988793D01*
X72771214Y-37992700D01*
X72771216Y-37992700D01*
X72911186Y-37992700D01*
X72925930Y-37989766D01*
X72970368Y-37980928D01*
X73017060Y-37949728D01*
X73049676Y-37943241D01*
X73065338Y-37949728D01*
X73112032Y-37980928D01*
X73151576Y-37988793D01*
X73171214Y-37992700D01*
X73171216Y-37992700D01*
X73311185Y-37992700D01*
X73315441Y-37991853D01*
X73336374Y-37987689D01*
X73368988Y-37994176D01*
X73387465Y-38021826D01*
X73388300Y-38030304D01*
X73388300Y-38098450D01*
X73375574Y-38129174D01*
X73344850Y-38141900D01*
X73090666Y-38141900D01*
X73073175Y-38143929D01*
X73066177Y-38144741D01*
X72966004Y-38188971D01*
X72898356Y-38256620D01*
X72867632Y-38269346D01*
X72847906Y-38264610D01*
X72789773Y-38234989D01*
X72789767Y-38234987D01*
X72679359Y-38217501D01*
X72679357Y-38217501D01*
X72568948Y-38234987D01*
X72568942Y-38234989D01*
X72497616Y-38271332D01*
X72464463Y-38273941D01*
X72447166Y-38263342D01*
X72372795Y-38188971D01*
X72372796Y-38188971D01*
X72272621Y-38144741D01*
X72272623Y-38144741D01*
X72265624Y-38143929D01*
X72248134Y-38141900D01*
X71820666Y-38141900D01*
X71803175Y-38143929D01*
X71796177Y-38144741D01*
X71696004Y-38188971D01*
X71618571Y-38266404D01*
X71574341Y-38366577D01*
X71574341Y-38366579D01*
X71571500Y-38391066D01*
X71571500Y-38758534D01*
X71572216Y-38764703D01*
X71574341Y-38783022D01*
X71618571Y-38883195D01*
X71696004Y-38960628D01*
X71696003Y-38960628D01*
X71722312Y-38972244D01*
X71796177Y-39004858D01*
X71796176Y-39004858D01*
X71796179Y-39004859D01*
X71820666Y-39007700D01*
X71820671Y-39007700D01*
X72248129Y-39007700D01*
X72248134Y-39007700D01*
X72272621Y-39004859D01*
X72372796Y-38960628D01*
X72447167Y-38886256D01*
X72477890Y-38873531D01*
X72497616Y-38878267D01*
X72568942Y-38914610D01*
X72568945Y-38914611D01*
X72568947Y-38914612D01*
X72599241Y-38919410D01*
X72679357Y-38932099D01*
X72679358Y-38932099D01*
X72679359Y-38932099D01*
X72694454Y-38929707D01*
X72789769Y-38914612D01*
X72847906Y-38884988D01*
X72881058Y-38882379D01*
X72898353Y-38892977D01*
X72966004Y-38960628D01*
X72966003Y-38960628D01*
X72992312Y-38972244D01*
X73066177Y-39004858D01*
X73066176Y-39004858D01*
X73066179Y-39004859D01*
X73090666Y-39007700D01*
X73090671Y-39007700D01*
X73518129Y-39007700D01*
X73518134Y-39007700D01*
X73542621Y-39004859D01*
X73642796Y-38960628D01*
X73720228Y-38883196D01*
X73721608Y-38880070D01*
X73725204Y-38871927D01*
X73749255Y-38848960D01*
X73782501Y-38849728D01*
X73795676Y-38858752D01*
X73805586Y-38868662D01*
X73905184Y-38919410D01*
X73905187Y-38919411D01*
X73905189Y-38919412D01*
X73929081Y-38923196D01*
X74015599Y-38936899D01*
X74015600Y-38936899D01*
X74015601Y-38936899D01*
X74052403Y-38931070D01*
X74126011Y-38919412D01*
X74225615Y-38868661D01*
X74227375Y-38866901D01*
X74258097Y-38854171D01*
X74288822Y-38866894D01*
X74297849Y-38880070D01*
X74300166Y-38885317D01*
X74300167Y-38885319D01*
X74376280Y-38961432D01*
X74409965Y-38976305D01*
X74474741Y-39004906D01*
X74474740Y-39004906D01*
X74474743Y-39004907D01*
X74498816Y-39007700D01*
X74498821Y-39007700D01*
X74954779Y-39007700D01*
X74954784Y-39007700D01*
X74978857Y-39004907D01*
X75051092Y-38973011D01*
X75084338Y-38972244D01*
X75108390Y-38995209D01*
X75108784Y-38996132D01*
X75130711Y-39049068D01*
X75169575Y-39087932D01*
X75179923Y-39112914D01*
X75181766Y-39112623D01*
X75199787Y-39226409D01*
X75199789Y-39226415D01*
X75250537Y-39326013D01*
X75329586Y-39405062D01*
X75429184Y-39455810D01*
X75429187Y-39455811D01*
X75429189Y-39455812D01*
X75462773Y-39461131D01*
X75539599Y-39473299D01*
X75539600Y-39473299D01*
X75539601Y-39473299D01*
X75576403Y-39467470D01*
X75650011Y-39455812D01*
X75749615Y-39405061D01*
X75814850Y-39339826D01*
X75845574Y-39327100D01*
X76578345Y-39327100D01*
X76609069Y-39339826D01*
X76730374Y-39461131D01*
X76743100Y-39491855D01*
X76743100Y-39782784D01*
X76745427Y-39802844D01*
X76745893Y-39806858D01*
X76789367Y-39905319D01*
X76865480Y-39981432D01*
X76914711Y-40003169D01*
X76963941Y-40024906D01*
X76963940Y-40024906D01*
X76963943Y-40024907D01*
X76988016Y-40027700D01*
X76988021Y-40027700D01*
X77443979Y-40027700D01*
X77443984Y-40027700D01*
X77468057Y-40024907D01*
X77566521Y-39981431D01*
X77642631Y-39905321D01*
X77686107Y-39806857D01*
X77688900Y-39782784D01*
X77688900Y-39426816D01*
X77686107Y-39402743D01*
X77678580Y-39385696D01*
X77642632Y-39304280D01*
X77566519Y-39228167D01*
X77468057Y-39184693D01*
X77468059Y-39184693D01*
X77461179Y-39183895D01*
X77443984Y-39181900D01*
X77443979Y-39181900D01*
X77153055Y-39181900D01*
X77122331Y-39169174D01*
X77035031Y-39081874D01*
X77022305Y-39051150D01*
X77035031Y-39020426D01*
X77065755Y-39007700D01*
X77443979Y-39007700D01*
X77443984Y-39007700D01*
X77468057Y-39004907D01*
X77566521Y-38961431D01*
X77642631Y-38885321D01*
X77642632Y-38885316D01*
X77643354Y-38884265D01*
X77644310Y-38883641D01*
X77645478Y-38882474D01*
X77645724Y-38882720D01*
X77671213Y-38866105D01*
X77703753Y-38872964D01*
X77718952Y-38891263D01*
X77733052Y-38923196D01*
X77810484Y-39000628D01*
X77810483Y-39000628D01*
X77854714Y-39020157D01*
X77910657Y-39044858D01*
X77910656Y-39044858D01*
X77910659Y-39044859D01*
X77935146Y-39047700D01*
X77935151Y-39047700D01*
X78362609Y-39047700D01*
X78362614Y-39047700D01*
X78387101Y-39044859D01*
X78487276Y-39000628D01*
X78564708Y-38923196D01*
X78608939Y-38823021D01*
X78611780Y-38798534D01*
X78611780Y-38431066D01*
X78608939Y-38406579D01*
X78564708Y-38306404D01*
X78487276Y-38228972D01*
X78416579Y-38197756D01*
X78393614Y-38173704D01*
X78390680Y-38158008D01*
X78390680Y-37083809D01*
X78403406Y-37053085D01*
X78434130Y-37040359D01*
X78457621Y-37047257D01*
X78466395Y-37052896D01*
X78466396Y-37052896D01*
X78466399Y-37052898D01*
X78591358Y-37089590D01*
X78591360Y-37089590D01*
X78721590Y-37089590D01*
X78721592Y-37089590D01*
X78846551Y-37052898D01*
X78956111Y-36982489D01*
X79041396Y-36884064D01*
X79095498Y-36765599D01*
X79114032Y-36636690D01*
X79095498Y-36507781D01*
X79041396Y-36389316D01*
X78956111Y-36290891D01*
X78956109Y-36290890D01*
X78956109Y-36290889D01*
X78929334Y-36273682D01*
X78910368Y-36246365D01*
X78909375Y-36237130D01*
X78909375Y-36192243D01*
X78909376Y-36192234D01*
X78909376Y-36086571D01*
X78909375Y-36086568D01*
X78880508Y-36016878D01*
X78870874Y-35993618D01*
X78799732Y-35922476D01*
X78799730Y-35922475D01*
X78797258Y-35920003D01*
X78797251Y-35919997D01*
X78635316Y-35758062D01*
X78622590Y-35727338D01*
X78635316Y-35696614D01*
X78649413Y-35687195D01*
X78668721Y-35679199D01*
X78737864Y-35610055D01*
X78768586Y-35597329D01*
X78776278Y-35598435D01*
X78776309Y-35598223D01*
X78779382Y-35598665D01*
X78909614Y-35598665D01*
X78909616Y-35598665D01*
X79034575Y-35561973D01*
X79144135Y-35491564D01*
X79229420Y-35393139D01*
X79283522Y-35274674D01*
X79302056Y-35145765D01*
X79283522Y-35016856D01*
X79229420Y-34898391D01*
X79147203Y-34803507D01*
X79144136Y-34799967D01*
X79144135Y-34799966D01*
X79034575Y-34729557D01*
X78988080Y-34715904D01*
X78962188Y-34695038D01*
X78958633Y-34661973D01*
X78960566Y-34656686D01*
X78994859Y-34579021D01*
X78997700Y-34554534D01*
X78997700Y-34127066D01*
X78994859Y-34102579D01*
X78950628Y-34002404D01*
X78873196Y-33924972D01*
X78873194Y-33924970D01*
X78873192Y-33924969D01*
X78859099Y-33918746D01*
X78836134Y-33894694D01*
X78836903Y-33861448D01*
X78859100Y-33839251D01*
X78873196Y-33833028D01*
X78950628Y-33755596D01*
X78994859Y-33655421D01*
X78997700Y-33630934D01*
X78997700Y-33203466D01*
X78994859Y-33178979D01*
X78950628Y-33078804D01*
X78873196Y-33001372D01*
X78873195Y-33001371D01*
X78873196Y-33001371D01*
X78773021Y-32957141D01*
X78773023Y-32957141D01*
X78766024Y-32956329D01*
X78748534Y-32954300D01*
X78388507Y-32954300D01*
X78357783Y-32941574D01*
X78345057Y-32910850D01*
X78357783Y-32880126D01*
X78392431Y-32845478D01*
X78423155Y-32832752D01*
X78607543Y-32832752D01*
X78607545Y-32832752D01*
X78696417Y-32795940D01*
X79136188Y-32356169D01*
X79173000Y-32267296D01*
X79173000Y-32171103D01*
X79173000Y-30924881D01*
X79185726Y-30894157D01*
X79216450Y-30881431D01*
X79247174Y-30894157D01*
X79259365Y-30918084D01*
X79263787Y-30946009D01*
X79263789Y-30946015D01*
X79314537Y-31045613D01*
X79393586Y-31124662D01*
X79493184Y-31175410D01*
X79493187Y-31175411D01*
X79493189Y-31175412D01*
X79548394Y-31184155D01*
X79603599Y-31192899D01*
X79603600Y-31192899D01*
X79603601Y-31192899D01*
X79656649Y-31184497D01*
X79714011Y-31175412D01*
X79813615Y-31124661D01*
X79892661Y-31045615D01*
X79932656Y-30967120D01*
X79943410Y-30946015D01*
X79943410Y-30946014D01*
X79943412Y-30946011D01*
X79960899Y-30835600D01*
X79957109Y-30811673D01*
X79945924Y-30741048D01*
X79943412Y-30725189D01*
X79943411Y-30725187D01*
X79943410Y-30725184D01*
X79892662Y-30625586D01*
X79858126Y-30591050D01*
X79845400Y-30560326D01*
X79845400Y-29951904D01*
X79842210Y-29944202D01*
X79808588Y-29863031D01*
X79740569Y-29795012D01*
X79256825Y-29311268D01*
X79244099Y-29280544D01*
X79244099Y-29062541D01*
X79240264Y-29043262D01*
X79235228Y-29017942D01*
X79235225Y-29017938D01*
X79235225Y-29017936D01*
X79201436Y-28967368D01*
X79201434Y-28967367D01*
X79201434Y-28967366D01*
X79192307Y-28961267D01*
X79173834Y-28933616D01*
X79173000Y-28925142D01*
X79173000Y-28845104D01*
X79173000Y-28845103D01*
X79136188Y-28756231D01*
X79068169Y-28688212D01*
X79068168Y-28688211D01*
X78978569Y-28598612D01*
X78889697Y-28561800D01*
X78889695Y-28561800D01*
X78348286Y-28561800D01*
X78317562Y-28549074D01*
X78087701Y-28319213D01*
X78087700Y-28319212D01*
X77998828Y-28282400D01*
X77998826Y-28282400D01*
X76337006Y-28282400D01*
X76306282Y-28269674D01*
X76158493Y-28121885D01*
X76158492Y-28121884D01*
X76069620Y-28085072D01*
X76069618Y-28085072D01*
X75852695Y-28085072D01*
X75821971Y-28072346D01*
X75787434Y-28037809D01*
X75687836Y-27987061D01*
X75687830Y-27987059D01*
X75577422Y-27969573D01*
X75577420Y-27969573D01*
X75467011Y-27987059D01*
X75467005Y-27987061D01*
X75367407Y-28037809D01*
X75288358Y-28116858D01*
X75237610Y-28216456D01*
X75237608Y-28216462D01*
X75220122Y-28326871D01*
X75220122Y-28326872D01*
X75237608Y-28437281D01*
X75237610Y-28437287D01*
X75288358Y-28536885D01*
X75367407Y-28615934D01*
X75467005Y-28666682D01*
X75467008Y-28666683D01*
X75467010Y-28666684D01*
X75563962Y-28682039D01*
X75592317Y-28699415D01*
X75600080Y-28731751D01*
X75588701Y-28803598D01*
X75588701Y-28803600D01*
X75606187Y-28914009D01*
X75606189Y-28914015D01*
X75656937Y-29013613D01*
X75735986Y-29092662D01*
X75835584Y-29143410D01*
X75835587Y-29143411D01*
X75835589Y-29143412D01*
X75890794Y-29152155D01*
X75945999Y-29160899D01*
X75946000Y-29160899D01*
X75946001Y-29160899D01*
X75999756Y-29152385D01*
X76056411Y-29143412D01*
X76056414Y-29143410D01*
X76059667Y-29142354D01*
X76059928Y-29143157D01*
X76089508Y-29140822D01*
X76114800Y-29162414D01*
X76117418Y-29195566D01*
X76114805Y-29201875D01*
X76063389Y-29302784D01*
X76063387Y-29302790D01*
X76045901Y-29413199D01*
X76045901Y-29413200D01*
X76063387Y-29523609D01*
X76063389Y-29523615D01*
X76114137Y-29623213D01*
X76193186Y-29702262D01*
X76292784Y-29753010D01*
X76292787Y-29753011D01*
X76292789Y-29753012D01*
X76347994Y-29761755D01*
X76403199Y-29770499D01*
X76403200Y-29770499D01*
X76403201Y-29770499D01*
X76425892Y-29766905D01*
X76513611Y-29753012D01*
X76545531Y-29736746D01*
X76578681Y-29734137D01*
X76595980Y-29744737D01*
X76758274Y-29907031D01*
X76771000Y-29937755D01*
X76771000Y-30685903D01*
X76771000Y-30782097D01*
X76807812Y-30870969D01*
X76807813Y-30870970D01*
X76896775Y-30959932D01*
X76907123Y-30984914D01*
X76908966Y-30984623D01*
X76926987Y-31098409D01*
X76926989Y-31098415D01*
X76977737Y-31198013D01*
X77056786Y-31277062D01*
X77156384Y-31327810D01*
X77156387Y-31327811D01*
X77156389Y-31327812D01*
X77211594Y-31336555D01*
X77266799Y-31345299D01*
X77266800Y-31345299D01*
X77269627Y-31344851D01*
X77301963Y-31352610D01*
X77319342Y-31380963D01*
X77311583Y-31413300D01*
X77307152Y-31418489D01*
X77054231Y-31671412D01*
X76986213Y-31739429D01*
X76986212Y-31739430D01*
X76986212Y-31739431D01*
X76979101Y-31756600D01*
X76949400Y-31828304D01*
X76949400Y-31968450D01*
X76936674Y-31999174D01*
X76905950Y-32011900D01*
X76796214Y-32011900D01*
X76753701Y-32020356D01*
X76737032Y-32023672D01*
X76737031Y-32023672D01*
X76732835Y-32024507D01*
X76732381Y-32022225D01*
X76707234Y-32022182D01*
X76683760Y-31998626D01*
X76683795Y-31973622D01*
X76681493Y-31973165D01*
X76684595Y-31957573D01*
X76694100Y-31909784D01*
X76694100Y-31119816D01*
X76694100Y-31119813D01*
X76683835Y-31068208D01*
X76683000Y-31059731D01*
X76683000Y-30927104D01*
X76683000Y-30927103D01*
X76646188Y-30838231D01*
X76578169Y-30770212D01*
X76417625Y-30609668D01*
X76407277Y-30584686D01*
X76405434Y-30584978D01*
X76393839Y-30511767D01*
X76387412Y-30471189D01*
X76387411Y-30471187D01*
X76387410Y-30471184D01*
X76336662Y-30371586D01*
X76257613Y-30292537D01*
X76158015Y-30241789D01*
X76158009Y-30241787D01*
X76047601Y-30224301D01*
X76047599Y-30224301D01*
X75937190Y-30241787D01*
X75937184Y-30241789D01*
X75837586Y-30292537D01*
X75758537Y-30371586D01*
X75707789Y-30471184D01*
X75707787Y-30471190D01*
X75690301Y-30581599D01*
X75690301Y-30581600D01*
X75707787Y-30692009D01*
X75707789Y-30692015D01*
X75758537Y-30791613D01*
X75837586Y-30870662D01*
X75880010Y-30892278D01*
X75901607Y-30917565D01*
X75898998Y-30950718D01*
X75884423Y-30967120D01*
X75865339Y-30979871D01*
X75832723Y-30986358D01*
X75817061Y-30979871D01*
X75797977Y-30967120D01*
X75770368Y-30948672D01*
X75750640Y-30944748D01*
X75711186Y-30936900D01*
X75711184Y-30936900D01*
X75571216Y-30936900D01*
X75571214Y-30936900D01*
X75546027Y-30941910D01*
X75513411Y-30935422D01*
X75494935Y-30907772D01*
X75494100Y-30899295D01*
X75494100Y-30783588D01*
X75506826Y-30752864D01*
X75527078Y-30732612D01*
X75549028Y-30710662D01*
X75593259Y-30610487D01*
X75596100Y-30586000D01*
X75596100Y-30218532D01*
X75593259Y-30194045D01*
X75549028Y-30093870D01*
X75471596Y-30016438D01*
X75471595Y-30016437D01*
X75471596Y-30016437D01*
X75371421Y-29972207D01*
X75371423Y-29972207D01*
X75364424Y-29971395D01*
X75346934Y-29969366D01*
X75346929Y-29969366D01*
X75099818Y-29969366D01*
X75069094Y-29956640D01*
X74678558Y-29566104D01*
X74665832Y-29535380D01*
X74665832Y-29244920D01*
X74665832Y-29244916D01*
X74662918Y-29219798D01*
X74617554Y-29117059D01*
X74538139Y-29037644D01*
X74435400Y-28992280D01*
X74410282Y-28989366D01*
X73975582Y-28989366D01*
X73954650Y-28991794D01*
X73950463Y-28992280D01*
X73847723Y-29037645D01*
X73768311Y-29117057D01*
X73728062Y-29208212D01*
X73722946Y-29219798D01*
X73720798Y-29238319D01*
X73720032Y-29244920D01*
X73720032Y-29536316D01*
X73707306Y-29567040D01*
X73317706Y-29956640D01*
X73286982Y-29969366D01*
X73039866Y-29969366D01*
X73022375Y-29971395D01*
X73015377Y-29972207D01*
X72915204Y-30016437D01*
X72837771Y-30093870D01*
X72793541Y-30194043D01*
X72790700Y-30218536D01*
X72790700Y-30489512D01*
X72777976Y-30520233D01*
X72772167Y-30526043D01*
X72771734Y-30526476D01*
X72771732Y-30526479D01*
X72697946Y-30600265D01*
X72697943Y-30600267D01*
X72676361Y-30621849D01*
X72626800Y-30671409D01*
X72619515Y-30688997D01*
X72595999Y-30712511D01*
X72562744Y-30712510D01*
X72548649Y-30703092D01*
X72302626Y-30457069D01*
X72289900Y-30426345D01*
X72289900Y-29066739D01*
X72289899Y-29066738D01*
X72283853Y-29020809D01*
X72282516Y-29017942D01*
X72236848Y-28920004D01*
X72158195Y-28841351D01*
X72057395Y-28794348D01*
X72057391Y-28794347D01*
X72042080Y-28792331D01*
X72011462Y-28788300D01*
X72011460Y-28788300D01*
X71612540Y-28788300D01*
X71612537Y-28788300D01*
X71566609Y-28794347D01*
X71566604Y-28794348D01*
X71465804Y-28841351D01*
X71387151Y-28920004D01*
X71340148Y-29020804D01*
X71340147Y-29020809D01*
X71334552Y-29063310D01*
X71334100Y-29066740D01*
X71334100Y-30515660D01*
X71339980Y-30560326D01*
X71340147Y-30561590D01*
X71340148Y-30561595D01*
X71387151Y-30662395D01*
X71465804Y-30741048D01*
X71566604Y-30788051D01*
X71566605Y-30788051D01*
X71566609Y-30788053D01*
X71612538Y-30794099D01*
X71612539Y-30794100D01*
X71612540Y-30794100D01*
X71937745Y-30794100D01*
X71968469Y-30806826D01*
X72024369Y-30862726D01*
X72037095Y-30893450D01*
X72024369Y-30924174D01*
X71993645Y-30936900D01*
X71971214Y-30936900D01*
X71912032Y-30948672D01*
X71912028Y-30948673D01*
X71844920Y-30993513D01*
X71844913Y-30993520D01*
X71800073Y-31060628D01*
X71800072Y-31060632D01*
X71788300Y-31119813D01*
X71788300Y-31229550D01*
X71775574Y-31260274D01*
X71744850Y-31273000D01*
X70403756Y-31273000D01*
X70373032Y-31260274D01*
X69836725Y-30723967D01*
X69823999Y-30693243D01*
X69835301Y-30665955D01*
X69834667Y-30665511D01*
X69836671Y-30662648D01*
X69836725Y-30662519D01*
X69836847Y-30662397D01*
X69883853Y-30561591D01*
X69889900Y-30515660D01*
X69889900Y-29066740D01*
X69883853Y-29020809D01*
X69882516Y-29017942D01*
X69836848Y-28920004D01*
X69758195Y-28841351D01*
X69657395Y-28794348D01*
X69657391Y-28794347D01*
X69642080Y-28792331D01*
X69611462Y-28788300D01*
X69611460Y-28788300D01*
X69212540Y-28788300D01*
X69212537Y-28788300D01*
X69166609Y-28794347D01*
X69166604Y-28794348D01*
X69065804Y-28841351D01*
X68987151Y-28920004D01*
X68940148Y-29020804D01*
X68940147Y-29020809D01*
X68934552Y-29063310D01*
X68934100Y-29066740D01*
X68934100Y-30515660D01*
X68939980Y-30560326D01*
X68940147Y-30561590D01*
X68940148Y-30561595D01*
X68987151Y-30662395D01*
X69065804Y-30741048D01*
X69166604Y-30788051D01*
X69166606Y-30788051D01*
X69166609Y-30788053D01*
X69193650Y-30791613D01*
X69209897Y-30793752D01*
X69234950Y-30806106D01*
X69351790Y-30922946D01*
X69364516Y-30953670D01*
X69351790Y-30984394D01*
X69327864Y-30996585D01*
X69282389Y-31003788D01*
X69282386Y-31003789D01*
X69256919Y-31016765D01*
X69223766Y-31019373D01*
X69201067Y-31002190D01*
X69193835Y-30991367D01*
X69193830Y-30991362D01*
X69143261Y-30957573D01*
X69143257Y-30957571D01*
X69098659Y-30948700D01*
X68748539Y-30948700D01*
X68748539Y-30948701D01*
X68717325Y-30954909D01*
X68684709Y-30948421D01*
X68666235Y-30920769D01*
X68665400Y-30912294D01*
X68665400Y-30505274D01*
X68678126Y-30474550D01*
X68695607Y-30457069D01*
X68716661Y-30436015D01*
X68753397Y-30363917D01*
X68767410Y-30336415D01*
X68767410Y-30336414D01*
X68767412Y-30336411D01*
X68784899Y-30226000D01*
X68767412Y-30115589D01*
X68767411Y-30115587D01*
X68767410Y-30115584D01*
X68716662Y-30015986D01*
X68682126Y-29981450D01*
X68669400Y-29950726D01*
X68669400Y-28769354D01*
X68682126Y-28738630D01*
X69124630Y-28296126D01*
X69155354Y-28283400D01*
X71371295Y-28283400D01*
X71371297Y-28283400D01*
X71460169Y-28246588D01*
X71808238Y-27898517D01*
X71838962Y-27885792D01*
X72625951Y-27885792D01*
X72637940Y-27883407D01*
X72670551Y-27876921D01*
X72670555Y-27876918D01*
X72670556Y-27876918D01*
X72721123Y-27843130D01*
X72721123Y-27843129D01*
X72721127Y-27843127D01*
X72727069Y-27834235D01*
X72754919Y-27792554D01*
X72754921Y-27792550D01*
X72755917Y-27787543D01*
X72763793Y-27747950D01*
X72763792Y-24776842D01*
X72776518Y-24746119D01*
X72807242Y-24733393D01*
X76494543Y-24733393D01*
X76525267Y-24746119D01*
X76537993Y-24776843D01*
X76537993Y-27747951D01*
X76544899Y-27782668D01*
X76546865Y-27792551D01*
X76546865Y-27792552D01*
X76546867Y-27792556D01*
X76580655Y-27843123D01*
X76580662Y-27843130D01*
X76631231Y-27876919D01*
X76631235Y-27876921D01*
X76675836Y-27885793D01*
X77705949Y-27885792D01*
X77705951Y-27885792D01*
X77717940Y-27883407D01*
X77750551Y-27876921D01*
X77750555Y-27876918D01*
X77750556Y-27876918D01*
X77801123Y-27843130D01*
X77801123Y-27843129D01*
X77801127Y-27843127D01*
X77807069Y-27834235D01*
X77834919Y-27792554D01*
X77834921Y-27792550D01*
X77835917Y-27787543D01*
X77843793Y-27747950D01*
X77843792Y-24776842D01*
X77856518Y-24746119D01*
X77887242Y-24733393D01*
X78550455Y-24733393D01*
X78550461Y-24733392D01*
X78603496Y-24719180D01*
X78626882Y-24712914D01*
X78695404Y-24673353D01*
X78751353Y-24617404D01*
X78790914Y-24548882D01*
X78797180Y-24525496D01*
X78811392Y-24472461D01*
X78811393Y-24472454D01*
X78811393Y-24276843D01*
X78824119Y-24246119D01*
X78854843Y-24233393D01*
X79763298Y-24233393D01*
X79763301Y-24233394D01*
G37*
%TD.AperFunction*%
%TA.AperFunction,Conductor*%
G36*
X74584598Y-30833870D02*
G01*
X74588300Y-30851421D01*
X74588300Y-31119816D01*
X74588300Y-31909784D01*
X74597805Y-31957573D01*
X74600072Y-31968967D01*
X74600073Y-31968971D01*
X74644913Y-32036079D01*
X74644920Y-32036086D01*
X74712028Y-32080926D01*
X74712029Y-32080926D01*
X74712032Y-32080928D01*
X74754371Y-32089349D01*
X74771214Y-32092700D01*
X74771216Y-32092700D01*
X74911186Y-32092700D01*
X74925930Y-32089766D01*
X74970368Y-32080928D01*
X75017060Y-32049728D01*
X75049676Y-32043241D01*
X75065338Y-32049728D01*
X75112032Y-32080928D01*
X75151576Y-32088793D01*
X75171214Y-32092700D01*
X75171216Y-32092700D01*
X75311186Y-32092700D01*
X75325930Y-32089766D01*
X75370368Y-32080928D01*
X75417060Y-32049728D01*
X75449676Y-32043241D01*
X75465338Y-32049728D01*
X75512032Y-32080928D01*
X75551576Y-32088793D01*
X75571214Y-32092700D01*
X75571216Y-32092700D01*
X75711186Y-32092700D01*
X75725930Y-32089766D01*
X75770368Y-32080928D01*
X75817060Y-32049728D01*
X75849676Y-32043241D01*
X75865338Y-32049728D01*
X75912032Y-32080928D01*
X75951576Y-32088793D01*
X75971214Y-32092700D01*
X75971216Y-32092700D01*
X76111186Y-32092700D01*
X76125930Y-32089766D01*
X76170368Y-32080928D01*
X76217060Y-32049728D01*
X76249676Y-32043241D01*
X76265338Y-32049728D01*
X76312032Y-32080928D01*
X76351576Y-32088793D01*
X76371214Y-32092700D01*
X76371216Y-32092700D01*
X76511186Y-32092700D01*
X76553698Y-32084243D01*
X76570368Y-32080928D01*
X76570368Y-32080927D01*
X76574565Y-32080093D01*
X76575023Y-32082397D01*
X76600052Y-32082370D01*
X76623592Y-32105860D01*
X76623627Y-32130981D01*
X76625907Y-32131435D01*
X76613300Y-32194813D01*
X76613300Y-32334786D01*
X76618610Y-32361480D01*
X76625072Y-32393968D01*
X76640309Y-32416772D01*
X76656271Y-32440661D01*
X76662758Y-32473277D01*
X76656271Y-32488939D01*
X76625072Y-32535632D01*
X76613300Y-32594813D01*
X76613300Y-32734786D01*
X76619542Y-32766164D01*
X76625072Y-32793968D01*
X76643722Y-32821879D01*
X76656271Y-32840661D01*
X76662758Y-32873277D01*
X76656271Y-32888939D01*
X76625072Y-32935632D01*
X76613300Y-32994813D01*
X76613300Y-32994816D01*
X76613300Y-33134784D01*
X76625072Y-33193968D01*
X76644627Y-33223235D01*
X76656271Y-33240661D01*
X76662758Y-33273277D01*
X76656271Y-33288939D01*
X76625072Y-33335632D01*
X76613300Y-33394813D01*
X76613300Y-33394816D01*
X76613300Y-33534784D01*
X76625072Y-33593968D01*
X76628456Y-33599032D01*
X76656271Y-33640661D01*
X76662758Y-33673277D01*
X76656271Y-33688939D01*
X76625072Y-33735632D01*
X76613300Y-33794813D01*
X76613300Y-33794816D01*
X76613300Y-33934784D01*
X76625072Y-33993968D01*
X76630709Y-34002404D01*
X76656271Y-34040661D01*
X76662758Y-34073277D01*
X76656271Y-34088939D01*
X76625072Y-34135632D01*
X76613300Y-34194813D01*
X76613300Y-34334786D01*
X76615852Y-34347615D01*
X76625072Y-34393968D01*
X76630741Y-34402452D01*
X76656271Y-34440661D01*
X76662758Y-34473277D01*
X76656271Y-34488939D01*
X76625072Y-34535632D01*
X76613300Y-34594813D01*
X76613300Y-34734786D01*
X76617315Y-34754971D01*
X76625072Y-34793968D01*
X76631446Y-34803507D01*
X76656271Y-34840661D01*
X76662758Y-34873277D01*
X76656271Y-34888939D01*
X76625072Y-34935632D01*
X76613300Y-34994813D01*
X76613300Y-35134786D01*
X76621148Y-35174240D01*
X76625072Y-35193968D01*
X76637054Y-35211900D01*
X76656271Y-35240661D01*
X76662758Y-35273277D01*
X76656271Y-35288939D01*
X76625072Y-35335632D01*
X76613300Y-35394813D01*
X76613300Y-35394816D01*
X76613300Y-35534784D01*
X76625072Y-35593968D01*
X76634486Y-35608057D01*
X76656271Y-35640661D01*
X76662758Y-35673277D01*
X76656271Y-35688939D01*
X76625072Y-35735632D01*
X76613300Y-35794813D01*
X76613300Y-35934786D01*
X76615260Y-35944638D01*
X76625072Y-35993968D01*
X76640374Y-36016869D01*
X76656271Y-36040661D01*
X76662758Y-36073277D01*
X76656271Y-36088939D01*
X76625072Y-36135632D01*
X76613300Y-36194813D01*
X76613300Y-36334786D01*
X76615265Y-36344663D01*
X76625072Y-36393968D01*
X76639672Y-36415818D01*
X76656271Y-36440661D01*
X76662758Y-36473277D01*
X76656271Y-36488939D01*
X76625072Y-36535632D01*
X76613300Y-36594813D01*
X76613300Y-36734786D01*
X76617315Y-36754969D01*
X76624042Y-36788792D01*
X76625907Y-36798165D01*
X76623618Y-36798620D01*
X76623595Y-36823732D01*
X76600059Y-36847226D01*
X76575019Y-36847226D01*
X76574565Y-36849507D01*
X76570368Y-36848672D01*
X76537951Y-36842224D01*
X76511186Y-36836900D01*
X76511184Y-36836900D01*
X76371216Y-36836900D01*
X76371214Y-36836900D01*
X76312032Y-36848672D01*
X76265339Y-36879871D01*
X76232723Y-36886358D01*
X76217061Y-36879871D01*
X76191760Y-36862966D01*
X76170368Y-36848672D01*
X76137951Y-36842224D01*
X76111186Y-36836900D01*
X76111184Y-36836900D01*
X75971216Y-36836900D01*
X75971214Y-36836900D01*
X75912032Y-36848672D01*
X75865339Y-36879871D01*
X75832723Y-36886358D01*
X75817061Y-36879871D01*
X75791760Y-36862966D01*
X75770368Y-36848672D01*
X75737951Y-36842224D01*
X75711186Y-36836900D01*
X75711184Y-36836900D01*
X75571216Y-36836900D01*
X75571214Y-36836900D01*
X75512032Y-36848672D01*
X75465339Y-36879871D01*
X75432723Y-36886358D01*
X75417061Y-36879871D01*
X75391760Y-36862966D01*
X75370368Y-36848672D01*
X75337951Y-36842224D01*
X75311186Y-36836900D01*
X75311184Y-36836900D01*
X75171216Y-36836900D01*
X75171214Y-36836900D01*
X75112032Y-36848672D01*
X75065339Y-36879871D01*
X75032723Y-36886358D01*
X75017061Y-36879871D01*
X74991760Y-36862966D01*
X74970368Y-36848672D01*
X74937951Y-36842224D01*
X74911186Y-36836900D01*
X74911184Y-36836900D01*
X74771216Y-36836900D01*
X74771214Y-36836900D01*
X74712032Y-36848672D01*
X74665339Y-36879871D01*
X74632723Y-36886358D01*
X74617061Y-36879871D01*
X74591760Y-36862966D01*
X74570368Y-36848672D01*
X74537951Y-36842224D01*
X74511186Y-36836900D01*
X74511184Y-36836900D01*
X74371216Y-36836900D01*
X74371213Y-36836900D01*
X74311827Y-36848712D01*
X74279211Y-36842224D01*
X74263208Y-36822724D01*
X74262678Y-36821444D01*
X74255599Y-36804353D01*
X74184457Y-36733211D01*
X74184455Y-36733210D01*
X74181983Y-36730738D01*
X74181976Y-36730732D01*
X74176369Y-36725125D01*
X74176361Y-36725115D01*
X74101647Y-36650401D01*
X74040351Y-36625012D01*
X74040351Y-36625011D01*
X74040349Y-36625011D01*
X74008696Y-36611899D01*
X74008695Y-36611899D01*
X73908085Y-36611899D01*
X73903030Y-36611899D01*
X73903022Y-36611900D01*
X73766168Y-36611900D01*
X73766160Y-36611899D01*
X73761105Y-36611899D01*
X73660495Y-36611899D01*
X73660493Y-36611899D01*
X73628840Y-36625011D01*
X73628839Y-36625012D01*
X73567542Y-36650401D01*
X73426800Y-36791143D01*
X73414134Y-36821720D01*
X73390618Y-36845234D01*
X73365516Y-36847706D01*
X73311188Y-36836900D01*
X73311184Y-36836900D01*
X73171216Y-36836900D01*
X73171214Y-36836900D01*
X73112032Y-36848672D01*
X73065339Y-36879871D01*
X73032723Y-36886358D01*
X73017061Y-36879871D01*
X72991760Y-36862966D01*
X72970368Y-36848672D01*
X72937951Y-36842224D01*
X72911186Y-36836900D01*
X72911184Y-36836900D01*
X72771216Y-36836900D01*
X72771214Y-36836900D01*
X72712032Y-36848672D01*
X72665339Y-36879871D01*
X72632723Y-36886358D01*
X72617061Y-36879871D01*
X72591760Y-36862966D01*
X72570368Y-36848672D01*
X72537951Y-36842224D01*
X72511186Y-36836900D01*
X72511184Y-36836900D01*
X72371216Y-36836900D01*
X72371214Y-36836900D01*
X72312032Y-36848672D01*
X72265339Y-36879871D01*
X72232723Y-36886358D01*
X72217061Y-36879871D01*
X72191760Y-36862966D01*
X72170368Y-36848672D01*
X72137951Y-36842224D01*
X72111186Y-36836900D01*
X72111184Y-36836900D01*
X71971216Y-36836900D01*
X71971214Y-36836900D01*
X71944449Y-36842224D01*
X71912032Y-36848672D01*
X71912031Y-36848672D01*
X71907835Y-36849507D01*
X71907381Y-36847225D01*
X71882234Y-36847182D01*
X71858760Y-36823626D01*
X71858795Y-36798622D01*
X71856493Y-36798165D01*
X71858358Y-36788792D01*
X71865085Y-36754969D01*
X71869100Y-36734786D01*
X71869100Y-36594813D01*
X71862563Y-36561953D01*
X71857328Y-36535632D01*
X71826128Y-36488939D01*
X71819641Y-36456324D01*
X71826129Y-36440660D01*
X71857328Y-36393968D01*
X71867135Y-36344663D01*
X71869100Y-36334786D01*
X71869100Y-36194813D01*
X71863944Y-36168893D01*
X71857328Y-36135632D01*
X71826128Y-36088939D01*
X71819641Y-36056324D01*
X71826129Y-36040660D01*
X71857328Y-35993968D01*
X71867140Y-35944638D01*
X71869100Y-35934786D01*
X71869100Y-35794813D01*
X71860840Y-35753289D01*
X71857328Y-35735632D01*
X71826128Y-35688939D01*
X71819641Y-35656324D01*
X71826129Y-35640660D01*
X71826990Y-35639372D01*
X71857328Y-35593968D01*
X71869100Y-35534784D01*
X71869100Y-35394816D01*
X71869100Y-35394813D01*
X71861614Y-35357180D01*
X71857328Y-35335632D01*
X71826128Y-35288939D01*
X71819641Y-35256324D01*
X71826129Y-35240660D01*
X71828248Y-35237489D01*
X71857328Y-35193968D01*
X71869100Y-35134784D01*
X71869100Y-34994816D01*
X71869100Y-34994813D01*
X71864700Y-34972696D01*
X71857328Y-34935632D01*
X71826128Y-34888939D01*
X71819641Y-34856324D01*
X71826129Y-34840660D01*
X71837929Y-34823000D01*
X71857328Y-34793968D01*
X71869100Y-34734784D01*
X71869100Y-34594816D01*
X71869100Y-34594813D01*
X71862075Y-34559500D01*
X71857328Y-34535632D01*
X71826128Y-34488939D01*
X71819641Y-34456324D01*
X71826129Y-34440660D01*
X71841604Y-34417500D01*
X71857328Y-34393968D01*
X71869100Y-34334784D01*
X71869100Y-34194816D01*
X71869100Y-34194813D01*
X71863944Y-34168893D01*
X71857328Y-34135632D01*
X71826128Y-34088939D01*
X71819641Y-34056324D01*
X71826129Y-34040660D01*
X71828909Y-34036500D01*
X71857328Y-33993968D01*
X71869100Y-33934784D01*
X71869100Y-33794816D01*
X71869100Y-33794813D01*
X71864700Y-33772696D01*
X71857328Y-33735632D01*
X71826128Y-33688939D01*
X71819641Y-33656324D01*
X71826129Y-33640660D01*
X71828192Y-33637573D01*
X71857328Y-33593968D01*
X71869100Y-33534784D01*
X71869100Y-33394816D01*
X71869100Y-33394813D01*
X71861882Y-33358527D01*
X71857328Y-33335632D01*
X71826128Y-33288939D01*
X71819641Y-33256324D01*
X71826129Y-33240660D01*
X71857328Y-33193968D01*
X71869100Y-33134784D01*
X71869100Y-32994816D01*
X71869100Y-32994813D01*
X71861041Y-32954300D01*
X71857328Y-32935632D01*
X71826128Y-32888939D01*
X71819641Y-32856324D01*
X71826129Y-32840660D01*
X71828056Y-32837776D01*
X71857328Y-32793968D01*
X71866915Y-32745769D01*
X71869100Y-32734786D01*
X71869100Y-32594813D01*
X71863766Y-32568000D01*
X71857328Y-32535632D01*
X71826128Y-32488939D01*
X71819641Y-32456324D01*
X71826129Y-32440660D01*
X71827634Y-32438408D01*
X71857328Y-32393968D01*
X71869100Y-32334784D01*
X71869100Y-32194816D01*
X71869100Y-32194813D01*
X71856493Y-32131435D01*
X71858790Y-32130977D01*
X71858784Y-32105914D01*
X71882293Y-32082393D01*
X71907378Y-32082386D01*
X71907835Y-32080093D01*
X71912031Y-32080927D01*
X71912032Y-32080928D01*
X71928701Y-32084243D01*
X71971214Y-32092700D01*
X71971216Y-32092700D01*
X72111186Y-32092700D01*
X72125930Y-32089766D01*
X72170368Y-32080928D01*
X72217060Y-32049728D01*
X72249676Y-32043241D01*
X72265338Y-32049728D01*
X72312032Y-32080928D01*
X72351576Y-32088793D01*
X72371214Y-32092700D01*
X72371216Y-32092700D01*
X72511186Y-32092700D01*
X72525930Y-32089766D01*
X72570368Y-32080928D01*
X72617060Y-32049728D01*
X72649676Y-32043241D01*
X72665338Y-32049728D01*
X72712032Y-32080928D01*
X72751576Y-32088793D01*
X72771214Y-32092700D01*
X72771216Y-32092700D01*
X72911186Y-32092700D01*
X72925930Y-32089766D01*
X72970368Y-32080928D01*
X73017060Y-32049728D01*
X73049676Y-32043241D01*
X73065338Y-32049728D01*
X73112032Y-32080928D01*
X73151576Y-32088793D01*
X73171214Y-32092700D01*
X73171216Y-32092700D01*
X73311186Y-32092700D01*
X73325930Y-32089766D01*
X73370368Y-32080928D01*
X73417060Y-32049728D01*
X73449676Y-32043241D01*
X73465338Y-32049728D01*
X73512032Y-32080928D01*
X73551576Y-32088793D01*
X73571214Y-32092700D01*
X73571216Y-32092700D01*
X73711186Y-32092700D01*
X73725930Y-32089766D01*
X73770368Y-32080928D01*
X73817060Y-32049728D01*
X73849676Y-32043241D01*
X73865338Y-32049728D01*
X73912032Y-32080928D01*
X73951576Y-32088793D01*
X73971214Y-32092700D01*
X73971216Y-32092700D01*
X74111186Y-32092700D01*
X74125930Y-32089766D01*
X74170368Y-32080928D01*
X74206140Y-32057026D01*
X74237479Y-32036086D01*
X74237479Y-32036085D01*
X74237483Y-32036083D01*
X74244019Y-32026302D01*
X74282326Y-31968971D01*
X74282326Y-31968970D01*
X74282328Y-31968968D01*
X74294100Y-31909784D01*
X74294100Y-31119816D01*
X74294100Y-30941768D01*
X74294101Y-30941759D01*
X74294101Y-30898616D01*
X74306827Y-30867892D01*
X74337551Y-30855166D01*
X74410277Y-30855166D01*
X74410282Y-30855166D01*
X74435400Y-30852252D01*
X74527302Y-30811672D01*
X74560545Y-30810905D01*
X74584598Y-30833870D01*
G37*
%TD.AperFunction*%
%TA.AperFunction,Conductor*%
G36*
X66337033Y-30207671D02*
G01*
X66407774Y-30278412D01*
X66420500Y-30309136D01*
X66420500Y-32752056D01*
X66439574Y-32823236D01*
X66439575Y-32823237D01*
X66476424Y-32887062D01*
X67950937Y-34361576D01*
X68014762Y-34398425D01*
X68029802Y-34402454D01*
X68029804Y-34402455D01*
X68029805Y-34402455D01*
X68071937Y-34413745D01*
X68085950Y-34417500D01*
X68349467Y-34417500D01*
X68380191Y-34430226D01*
X68382304Y-34432496D01*
X68430049Y-34487596D01*
X68440551Y-34519149D01*
X68425666Y-34548887D01*
X68397212Y-34559500D01*
X67673660Y-34559500D01*
X67642936Y-34546774D01*
X66610375Y-33514214D01*
X66610375Y-33514213D01*
X66553073Y-33456911D01*
X66478205Y-33425900D01*
X63925395Y-33425900D01*
X63887961Y-33441405D01*
X63850526Y-33456911D01*
X63793224Y-33514214D01*
X62457880Y-34849557D01*
X62427156Y-34862283D01*
X62396433Y-34849557D01*
X62338415Y-34791539D01*
X62338414Y-34791538D01*
X62338413Y-34791537D01*
X62238815Y-34740789D01*
X62238809Y-34740787D01*
X62128401Y-34723301D01*
X62128399Y-34723301D01*
X62017990Y-34740787D01*
X62017984Y-34740789D01*
X61918382Y-34791539D01*
X61915969Y-34793293D01*
X61883632Y-34801055D01*
X61859708Y-34788863D01*
X61817050Y-34746205D01*
X61817049Y-34746204D01*
X61742181Y-34715193D01*
X61742180Y-34715193D01*
X61626467Y-34715193D01*
X61595743Y-34702467D01*
X61583017Y-34671743D01*
X61595743Y-34641019D01*
X61609838Y-34631600D01*
X61628476Y-34623881D01*
X62128188Y-34124169D01*
X62165000Y-34035297D01*
X62165000Y-33939103D01*
X62165000Y-33653270D01*
X62177726Y-33622546D01*
X62190901Y-33613522D01*
X62223719Y-33599032D01*
X62223719Y-33599031D01*
X62223721Y-33599031D01*
X62299831Y-33522921D01*
X62300006Y-33522526D01*
X62320172Y-33476853D01*
X62343307Y-33424457D01*
X62346100Y-33400384D01*
X62346100Y-32944416D01*
X62343307Y-32920343D01*
X62325550Y-32880126D01*
X62299832Y-32821880D01*
X62223719Y-32745767D01*
X62125257Y-32702293D01*
X62125259Y-32702293D01*
X62118379Y-32701495D01*
X62101184Y-32699500D01*
X61745216Y-32699500D01*
X61728021Y-32701495D01*
X61721141Y-32702293D01*
X61622680Y-32745767D01*
X61546567Y-32821880D01*
X61503093Y-32920341D01*
X61503093Y-32920343D01*
X61500300Y-32944416D01*
X61500300Y-33400384D01*
X61502110Y-33415981D01*
X61503093Y-33424458D01*
X61546567Y-33522919D01*
X61622680Y-33599032D01*
X61655499Y-33613522D01*
X61678466Y-33637573D01*
X61681400Y-33653270D01*
X61681400Y-33869045D01*
X61668674Y-33899769D01*
X61404076Y-34164367D01*
X61373352Y-34177093D01*
X60898865Y-34177093D01*
X60868141Y-34164367D01*
X60855415Y-34133643D01*
X60862737Y-34109504D01*
X60867364Y-34102579D01*
X60880570Y-34082815D01*
X60893793Y-34016340D01*
X60893792Y-33821447D01*
X60893792Y-33821446D01*
X60893792Y-33821444D01*
X60888495Y-33794816D01*
X60880570Y-33754971D01*
X60830200Y-33679586D01*
X60827174Y-33676560D01*
X60828133Y-33675600D01*
X60812803Y-33652657D01*
X60819290Y-33620040D01*
X60824693Y-33613457D01*
X60845113Y-33593038D01*
X60890855Y-33489443D01*
X60893793Y-33464119D01*
X60893793Y-33073667D01*
X60890855Y-33048343D01*
X60845113Y-32944748D01*
X60765038Y-32864673D01*
X60661443Y-32818931D01*
X60636119Y-32815993D01*
X59695667Y-32815993D01*
X59674563Y-32818441D01*
X59670342Y-32818931D01*
X59647335Y-32829090D01*
X59577392Y-32859973D01*
X59544147Y-32860741D01*
X59520095Y-32837776D01*
X59516393Y-32820225D01*
X59516393Y-32722875D01*
X59516392Y-32722868D01*
X59487933Y-32616660D01*
X59487396Y-32614656D01*
X59431378Y-32517630D01*
X59352156Y-32438408D01*
X59352155Y-32438407D01*
X59337303Y-32429832D01*
X59317059Y-32403449D01*
X59321401Y-32370478D01*
X59328306Y-32361480D01*
X59340893Y-32348893D01*
X59340893Y-31648893D01*
X59840893Y-31648893D01*
X59840893Y-32348893D01*
X60239386Y-32348893D01*
X60432573Y-32310466D01*
X60432579Y-32310464D01*
X60614569Y-32235082D01*
X60614570Y-32235082D01*
X60778352Y-32125645D01*
X60778357Y-32125642D01*
X60917642Y-31986357D01*
X60917645Y-31986352D01*
X61027082Y-31822570D01*
X61027082Y-31822569D01*
X61102464Y-31640579D01*
X61102466Y-31640571D01*
X61110756Y-31598893D01*
X60307881Y-31598893D01*
X60325098Y-31588953D01*
X60380953Y-31533098D01*
X60420449Y-31464689D01*
X60440893Y-31388389D01*
X60440893Y-31309397D01*
X60420449Y-31233097D01*
X60380953Y-31164688D01*
X60325098Y-31108833D01*
X60307881Y-31098893D01*
X61110756Y-31098893D01*
X61110756Y-31098892D01*
X61102466Y-31057214D01*
X61102464Y-31057206D01*
X61027082Y-30875216D01*
X61027082Y-30875215D01*
X60917645Y-30711433D01*
X60917642Y-30711429D01*
X60778357Y-30572144D01*
X60778352Y-30572140D01*
X60636680Y-30477477D01*
X60618205Y-30449827D01*
X60624693Y-30417210D01*
X60652343Y-30398735D01*
X60660820Y-30397900D01*
X62286992Y-30397900D01*
X62317716Y-30410626D01*
X62330442Y-30441350D01*
X62317716Y-30472074D01*
X62304542Y-30481098D01*
X62235080Y-30511767D01*
X62158967Y-30587880D01*
X62115493Y-30686341D01*
X62115493Y-30686343D01*
X62112700Y-30710416D01*
X62112700Y-31066384D01*
X62113572Y-31073898D01*
X62115493Y-31090458D01*
X62158967Y-31188919D01*
X62235080Y-31265032D01*
X62284311Y-31286769D01*
X62333541Y-31308506D01*
X62333540Y-31308506D01*
X62333543Y-31308507D01*
X62357616Y-31311300D01*
X62357621Y-31311300D01*
X62813579Y-31311300D01*
X62813584Y-31311300D01*
X62837657Y-31308507D01*
X62936121Y-31265031D01*
X63012231Y-31188921D01*
X63012231Y-31188919D01*
X63012233Y-31188918D01*
X63013414Y-31187195D01*
X63014972Y-31186179D01*
X63015078Y-31186074D01*
X63015100Y-31186096D01*
X63041276Y-31169040D01*
X63049260Y-31168300D01*
X64181199Y-31168300D01*
X64200282Y-31172715D01*
X64274312Y-31208906D01*
X64296179Y-31212092D01*
X64342897Y-31218899D01*
X64342902Y-31218899D01*
X64342906Y-31218900D01*
X64342908Y-31218900D01*
X66009892Y-31218900D01*
X66009894Y-31218900D01*
X66009898Y-31218899D01*
X66009902Y-31218899D01*
X66078482Y-31208907D01*
X66078482Y-31208906D01*
X66078488Y-31208906D01*
X66184298Y-31157179D01*
X66267579Y-31073898D01*
X66319306Y-30968088D01*
X66320838Y-30957571D01*
X66329299Y-30899502D01*
X66329300Y-30899491D01*
X66329300Y-30432508D01*
X66329299Y-30432497D01*
X66319307Y-30363917D01*
X66319306Y-30363915D01*
X66319306Y-30363912D01*
X66267579Y-30258102D01*
X66267274Y-30257478D01*
X66265213Y-30224287D01*
X66287226Y-30199360D01*
X66320417Y-30197299D01*
X66337033Y-30207671D01*
G37*
%TD.AperFunction*%
%TD*%
M02*
