%TF.GenerationSoftware,KiCad,Pcbnew,8.0.2*%
%TF.CreationDate,2024-07-01T18:09:29+08:00*%
%TF.ProjectId,hpm_dap,68706d5f-6461-4702-9e6b-696361645f70,rev?*%
%TF.SameCoordinates,PX3f32af6PY270961d*%
%TF.FileFunction,Paste,Bot*%
%TF.FilePolarity,Positive*%
%FSLAX46Y46*%
G04 Gerber Fmt 4.6, Leading zero omitted, Abs format (unit mm)*
G04 Created by KiCad (PCBNEW 8.0.2) date 2024-07-01 18:09:29*
%MOMM*%
%LPD*%
G01*
G04 APERTURE LIST*
G04 Aperture macros list*
%AMRoundRect*
0 Rectangle with rounded corners*
0 $1 Rounding radius*
0 $2 $3 $4 $5 $6 $7 $8 $9 X,Y pos of 4 corners*
0 Add a 4 corners polygon primitive as box body*
4,1,4,$2,$3,$4,$5,$6,$7,$8,$9,$2,$3,0*
0 Add four circle primitives for the rounded corners*
1,1,$1+$1,$2,$3*
1,1,$1+$1,$4,$5*
1,1,$1+$1,$6,$7*
1,1,$1+$1,$8,$9*
0 Add four rect primitives between the rounded corners*
20,1,$1+$1,$2,$3,$4,$5,0*
20,1,$1+$1,$4,$5,$6,$7,0*
20,1,$1+$1,$6,$7,$8,$9,0*
20,1,$1+$1,$8,$9,$2,$3,0*%
G04 Aperture macros list end*
%ADD10RoundRect,0.140000X-0.170000X0.140000X-0.170000X-0.140000X0.170000X-0.140000X0.170000X0.140000X0*%
%ADD11R,0.550000X1.000000*%
%ADD12RoundRect,0.135000X0.185000X-0.135000X0.185000X0.135000X-0.185000X0.135000X-0.185000X-0.135000X0*%
%ADD13RoundRect,0.140000X0.140000X0.170000X-0.140000X0.170000X-0.140000X-0.170000X0.140000X-0.170000X0*%
%ADD14RoundRect,0.140000X0.170000X-0.140000X0.170000X0.140000X-0.170000X0.140000X-0.170000X-0.140000X0*%
%ADD15R,2.300000X0.850000*%
%ADD16RoundRect,0.250000X0.350000X0.450000X-0.350000X0.450000X-0.350000X-0.450000X0.350000X-0.450000X0*%
%ADD17RoundRect,0.250000X0.250000X0.450000X-0.250000X0.450000X-0.250000X-0.450000X0.250000X-0.450000X0*%
G04 APERTURE END LIST*
D10*
%TO.C,C23*%
X8865306Y11490627D03*
X8865306Y10530627D03*
%TD*%
D11*
%TO.C,D3*%
X10963306Y11701293D03*
X11913306Y11701293D03*
X12863306Y11701293D03*
X12863306Y9001293D03*
X11913306Y9001293D03*
X10963306Y9001293D03*
%TD*%
D12*
%TO.C,R10*%
X10928666Y1328093D03*
X10928666Y2348093D03*
%TD*%
D13*
%TO.C,C14*%
X10462906Y5626893D03*
X9502906Y5626893D03*
%TD*%
D14*
%TO.C,C1*%
X7925038Y10530627D03*
X7925038Y11490627D03*
%TD*%
D11*
%TO.C,D2*%
X3064906Y11294893D03*
X4014906Y11294893D03*
X4964906Y11294893D03*
X4964906Y8594893D03*
X4014906Y8594893D03*
X3064906Y8594893D03*
%TD*%
D14*
%TO.C,C8*%
X6782506Y3724493D03*
X6782506Y4684493D03*
%TD*%
D10*
%TO.C,C18*%
X9982906Y2318093D03*
X9982906Y1358093D03*
%TD*%
D14*
%TO.C,C9*%
X7696906Y3724493D03*
X7696906Y4684493D03*
%TD*%
D15*
%TO.C,L2*%
X12388581Y4296203D03*
X12388581Y6246203D03*
%TD*%
D14*
%TO.C,C10*%
X8611306Y3724493D03*
X8611306Y4684493D03*
%TD*%
%TO.C,C6*%
X6985706Y10530627D03*
X6985706Y11490627D03*
%TD*%
D16*
%TO.C,D1*%
X-3013894Y4425293D03*
D17*
X-4733894Y4425293D03*
X-4733894Y6625293D03*
X-2833894Y6625293D03*
%TD*%
D14*
%TO.C,C11*%
X9525706Y3724493D03*
X9525706Y4684493D03*
%TD*%
D12*
%TO.C,R11*%
X11893866Y1328093D03*
X11893866Y2348093D03*
%TD*%
D10*
%TO.C,C4*%
X8458906Y2338093D03*
X8458906Y1378093D03*
%TD*%
D13*
%TO.C,C13*%
X10462906Y6541293D03*
X9502906Y6541293D03*
%TD*%
M02*
