%TF.GenerationSoftware,KiCad,Pcbnew,8.0.3*%
%TF.CreationDate,2024-07-01T02:25:18+08:00*%
%TF.ProjectId,hpm_dap,68706d5f-6461-4702-9e6b-696361645f70,rev?*%
%TF.SameCoordinates,PX3f32af6PY270961d*%
%TF.FileFunction,Copper,L2,Bot*%
%TF.FilePolarity,Positive*%
%FSLAX46Y46*%
G04 Gerber Fmt 4.6, Leading zero omitted, Abs format (unit mm)*
G04 Created by KiCad (PCBNEW 8.0.3) date 2024-07-01 02:25:18*
%MOMM*%
%LPD*%
G01*
G04 APERTURE LIST*
G04 Aperture macros list*
%AMRoundRect*
0 Rectangle with rounded corners*
0 $1 Rounding radius*
0 $2 $3 $4 $5 $6 $7 $8 $9 X,Y pos of 4 corners*
0 Add a 4 corners polygon primitive as box body*
4,1,4,$2,$3,$4,$5,$6,$7,$8,$9,$2,$3,0*
0 Add four circle primitives for the rounded corners*
1,1,$1+$1,$2,$3*
1,1,$1+$1,$4,$5*
1,1,$1+$1,$6,$7*
1,1,$1+$1,$8,$9*
0 Add four rect primitives between the rounded corners*
20,1,$1+$1,$2,$3,$4,$5,0*
20,1,$1+$1,$4,$5,$6,$7,0*
20,1,$1+$1,$6,$7,$8,$9,0*
20,1,$1+$1,$8,$9,$2,$3,0*%
G04 Aperture macros list end*
%TA.AperFunction,SMDPad,CuDef*%
%ADD10R,1.000000X3.100000*%
%TD*%
%TA.AperFunction,ComponentPad*%
%ADD11O,1.800000X1.000000*%
%TD*%
%TA.AperFunction,ComponentPad*%
%ADD12O,2.100000X1.000000*%
%TD*%
%TA.AperFunction,SMDPad,CuDef*%
%ADD13R,0.550000X1.000000*%
%TD*%
%TA.AperFunction,SMDPad,CuDef*%
%ADD14RoundRect,0.135000X0.185000X-0.135000X0.185000X0.135000X-0.185000X0.135000X-0.185000X-0.135000X0*%
%TD*%
%TA.AperFunction,SMDPad,CuDef*%
%ADD15RoundRect,0.140000X0.140000X0.170000X-0.140000X0.170000X-0.140000X-0.170000X0.140000X-0.170000X0*%
%TD*%
%TA.AperFunction,SMDPad,CuDef*%
%ADD16RoundRect,0.140000X0.170000X-0.140000X0.170000X0.140000X-0.170000X0.140000X-0.170000X-0.140000X0*%
%TD*%
%TA.AperFunction,SMDPad,CuDef*%
%ADD17RoundRect,0.140000X-0.170000X0.140000X-0.170000X-0.140000X0.170000X-0.140000X0.170000X0.140000X0*%
%TD*%
%TA.AperFunction,SMDPad,CuDef*%
%ADD18R,2.300000X0.850000*%
%TD*%
%TA.AperFunction,SMDPad,CuDef*%
%ADD19RoundRect,0.250000X0.250000X0.450000X-0.250000X0.450000X-0.250000X-0.450000X0.250000X-0.450000X0*%
%TD*%
%TA.AperFunction,SMDPad,CuDef*%
%ADD20RoundRect,0.250000X0.350000X0.450000X-0.350000X0.450000X-0.350000X-0.450000X0.350000X-0.450000X0*%
%TD*%
%TA.AperFunction,ViaPad*%
%ADD21C,0.400000*%
%TD*%
%TA.AperFunction,ViaPad*%
%ADD22C,0.600000*%
%TD*%
%TA.AperFunction,ViaPad*%
%ADD23C,0.609600*%
%TD*%
%TA.AperFunction,Conductor*%
%ADD24C,0.101600*%
%TD*%
%TA.AperFunction,Conductor*%
%ADD25C,0.177800*%
%TD*%
%TA.AperFunction,Conductor*%
%ADD26C,0.254000*%
%TD*%
%TA.AperFunction,Conductor*%
%ADD27C,0.200000*%
%TD*%
%TA.AperFunction,Conductor*%
%ADD28C,0.127000*%
%TD*%
G04 APERTURE END LIST*
D10*
%TO.P,J2,10*%
%TO.N,/uart_tx*%
X10922999Y14750000D03*
%TO.P,J2,8*%
%TO.N,/uart_rx*%
X8382999Y14750000D03*
%TO.P,J2,6*%
%TO.N,/JTAG_TDO*%
X5842999Y14750000D03*
%TO.P,J2,4*%
%TO.N,unconnected-(J2-Pad4)*%
X3302999Y14750000D03*
%TO.P,J2,2*%
%TO.N,/JTAG_TDI*%
X762999Y14750000D03*
%TD*%
D11*
%TO.P,J1,S1,SHIELD*%
%TO.N,GND*%
X-10857001Y944000D03*
D12*
X-6677001Y944000D03*
D11*
X-10857001Y9584000D03*
D12*
X-6677001Y9584000D03*
%TD*%
D13*
%TO.P,D3,6*%
%TO.N,/JTAG_TDO*%
X10963306Y9001293D03*
%TO.P,D3,5*%
%TO.N,+3.3V*%
X11913306Y9001293D03*
%TO.P,D3,4*%
%TO.N,/JTAG_TDI*%
X12863306Y9001293D03*
%TO.P,D3,3*%
%TO.N,/uart_tx*%
X12863306Y11701293D03*
%TO.P,D3,2*%
%TO.N,GND*%
X11913306Y11701293D03*
%TO.P,D3,1*%
%TO.N,/uart_rx*%
X10963306Y11701293D03*
%TD*%
D14*
%TO.P,R10,2*%
%TO.N,Net-(U1D-PA00{slash}TMR1.COMP0{slash}URT0.TXD{slash}TRGM0.P00)*%
X10928666Y2348093D03*
%TO.P,R10,1*%
%TO.N,/uart_tx*%
X10928666Y1328093D03*
%TD*%
D15*
%TO.P,C14,2*%
%TO.N,GND*%
X9502906Y5626893D03*
%TO.P,C14,1*%
%TO.N,+3.3V*%
X10462906Y5626893D03*
%TD*%
D16*
%TO.P,C5,2*%
%TO.N,GND*%
X8865306Y11490627D03*
%TO.P,C5,1*%
%TO.N,+3.3V*%
X8865306Y10530627D03*
%TD*%
%TO.P,C1,2*%
%TO.N,GND*%
X7925038Y11490627D03*
%TO.P,C1,1*%
%TO.N,/core/Vana*%
X7925038Y10530627D03*
%TD*%
D13*
%TO.P,D2,6*%
%TO.N,/SWRST{slash}JTAG_TRST*%
X3064906Y8594893D03*
%TO.P,D2,5*%
%TO.N,+3.3V*%
X4014906Y8594893D03*
%TO.P,D2,4*%
%TO.N,unconnected-(D2-Pad4)*%
X4964906Y8594893D03*
%TO.P,D2,3*%
%TO.N,/SWCLK{slash}JTAG_TCK*%
X4964906Y11294893D03*
%TO.P,D2,2*%
%TO.N,GND*%
X4014906Y11294893D03*
%TO.P,D2,1*%
%TO.N,/SWDIO{slash}JTAG_TMS*%
X3064906Y11294893D03*
%TD*%
D16*
%TO.P,C8,2*%
%TO.N,GND*%
X6782506Y4684493D03*
%TO.P,C8,1*%
%TO.N,+3.3V*%
X6782506Y3724493D03*
%TD*%
D17*
%TO.P,C18,2*%
%TO.N,GND*%
X9982906Y1358093D03*
%TO.P,C18,1*%
%TO.N,Net-(U1C-VDD_OTPCAP)*%
X9982906Y2318093D03*
%TD*%
D16*
%TO.P,C9,2*%
%TO.N,GND*%
X7696906Y4684493D03*
%TO.P,C9,1*%
%TO.N,+3.3V*%
X7696906Y3724493D03*
%TD*%
D18*
%TO.P,L2,2,2*%
%TO.N,Net-(U1A-DCDC_LP)*%
X12388581Y4296203D03*
%TO.P,L2,1,1*%
%TO.N,+3.3V*%
X12388581Y6246203D03*
%TD*%
D16*
%TO.P,C10,2*%
%TO.N,GND*%
X8611306Y4684493D03*
%TO.P,C10,1*%
%TO.N,+3.3V*%
X8611306Y3724493D03*
%TD*%
%TO.P,C6,2*%
%TO.N,GND*%
X6985706Y11490627D03*
%TO.P,C6,1*%
%TO.N,+3.3V*%
X6985706Y10530627D03*
%TD*%
D19*
%TO.P,D1,4,VP*%
%TO.N,VBUS*%
X-2833894Y6625293D03*
%TO.P,D1,3,L2*%
%TO.N,/core/USB_D-*%
X-4733894Y6625293D03*
%TO.P,D1,2,L1*%
%TO.N,/core/USB_D+*%
X-4733894Y4425293D03*
D20*
%TO.P,D1,1,VN*%
%TO.N,GND*%
X-3013894Y4425293D03*
%TD*%
D16*
%TO.P,C11,2*%
%TO.N,GND*%
X9525706Y4684493D03*
%TO.P,C11,1*%
%TO.N,+3.3V*%
X9525706Y3724493D03*
%TD*%
D14*
%TO.P,R11,2*%
%TO.N,Net-(U1D-PA01{slash}TMR1.CAPT0{slash}URT0.RXD{slash}TRGM0.P01{slash}ACMP.COMP0)*%
X11893866Y2348093D03*
%TO.P,R11,1*%
%TO.N,/uart_rx*%
X11893866Y1328093D03*
%TD*%
D17*
%TO.P,C4,2*%
%TO.N,GND*%
X8458906Y1378093D03*
%TO.P,C4,1*%
%TO.N,+3.3V*%
X8458906Y2338093D03*
%TD*%
D15*
%TO.P,C13,2*%
%TO.N,GND*%
X9502906Y6541293D03*
%TO.P,C13,1*%
%TO.N,+3.3V*%
X10462906Y6541293D03*
%TD*%
D21*
%TO.N,/core/Vana*%
X7925038Y10530627D03*
%TO.N,Net-(U1C-VDD_OTPCAP)*%
X9982906Y2318093D03*
%TO.N,/core/USB_D-*%
X-4139494Y5852293D03*
%TO.N,/core/USB_D+*%
X-4139494Y5299893D03*
D22*
%TO.N,Net-(U1A-DCDC_LP)*%
X12388581Y4296203D03*
D21*
%TO.N,/core/SPI_CS*%
X9779706Y10351293D03*
X3632906Y6795293D03*
%TO.N,/core/BOOT1*%
X4598106Y2426493D03*
X7747706Y2353293D03*
D23*
%TO.N,GND*%
X4852106Y1258093D03*
X-1497894Y1258093D03*
X2312106Y1258093D03*
X6703306Y7738093D03*
D21*
X12065706Y12789693D03*
D23*
X-2615494Y16244093D03*
X13081706Y1969293D03*
D21*
X-5866694Y13958093D03*
X-5866694Y12840493D03*
D23*
X-12318294Y15939293D03*
X-1294694Y12637293D03*
X2413706Y3594893D03*
X-5968294Y15939293D03*
X-12419894Y3798093D03*
X-12419894Y7608093D03*
X-9778294Y15939293D03*
X7646106Y648493D03*
X7973306Y6468093D03*
D21*
X4852106Y9906993D03*
D23*
X-12318294Y13399293D03*
X13386506Y8116093D03*
X6703306Y5198093D03*
X-1294694Y8624093D03*
X-227894Y1258093D03*
X13081706Y3239293D03*
X-12419894Y6338093D03*
D21*
X-5866694Y13399293D03*
D23*
X-8508294Y15939293D03*
X-24694Y12637293D03*
X-12318294Y14669293D03*
D21*
X9474906Y11367293D03*
D23*
X-12318294Y12129293D03*
X-2564694Y12637293D03*
X-4037894Y1258093D03*
X-7238294Y15939293D03*
X6376106Y648493D03*
X3582106Y1258093D03*
X8916106Y648493D03*
D21*
X6274506Y11367293D03*
D23*
X9243306Y7738093D03*
D21*
X6782506Y12738893D03*
D23*
X-11048294Y15939293D03*
X-12419894Y5068093D03*
X-1345494Y16244093D03*
X-2767894Y1258093D03*
X9243306Y5198093D03*
D22*
%TO.N,+3.3V*%
X12576605Y5787128D03*
D21*
X6985706Y10530627D03*
X9271706Y1816893D03*
D23*
X2769306Y4937693D03*
D21*
X6411464Y2358093D03*
D23*
X2464506Y6795293D03*
D21*
X8865306Y10530627D03*
%TO.N,/SWDIO{slash}JTAG_TMS*%
X2159706Y10706893D03*
%TO.N,/SWCLK{slash}JTAG_TCK*%
X1651706Y11570493D03*
X9678106Y12129293D03*
%TO.N,/SWRST{slash}JTAG_TRST*%
X3124906Y9589293D03*
X991306Y11323042D03*
%TO.N,/JTAG_TDO*%
X10135306Y11519693D03*
X10998906Y9944893D03*
%TO.N,/JTAG_TDI*%
X13335706Y10097293D03*
X9309527Y12606021D03*
%TO.N,VBUS*%
X-8813094Y14212093D03*
%TO.N,Net-(U1D-PA00{slash}TMR1.COMP0{slash}URT0.TXD{slash}TRGM0.P00)*%
X10846506Y3594893D03*
%TO.N,Net-(U1D-PA01{slash}TMR1.CAPT0{slash}URT0.RXD{slash}TRGM0.P01{slash}ACMP.COMP0)*%
X11405306Y3086893D03*
%TD*%
D24*
%TO.N,/core/USB_D-*%
X-4139494Y5852293D02*
X-4733894Y6446693D01*
X-4733894Y6446693D02*
X-4733894Y6625293D01*
%TO.N,/core/USB_D+*%
X-4733894Y4705493D02*
X-4733894Y4425293D01*
X-4139494Y5299893D02*
X-4733894Y4705493D01*
D25*
%TO.N,/core/SPI_CS*%
X7036506Y6795293D02*
X3632906Y6795293D01*
X7442906Y7201693D02*
X7036506Y6795293D01*
X9779706Y10351293D02*
X7442906Y8014493D01*
X7442906Y8014493D02*
X7442906Y7201693D01*
%TO.N,/core/BOOT1*%
X5971406Y1967593D02*
X7362006Y1967593D01*
X5512506Y2426493D02*
X5971406Y1967593D01*
X7362006Y1967593D02*
X7747706Y2353293D01*
X4598106Y2426493D02*
X5512506Y2426493D01*
D26*
%TO.N,+3.3V*%
X8458906Y2338093D02*
X8458906Y3572093D01*
X9525706Y3724493D02*
X6782506Y3724493D01*
X9271706Y1816893D02*
X8750506Y2338093D01*
X9114572Y10779893D02*
X8865306Y10530627D01*
X10846506Y7760493D02*
X10459706Y8147293D01*
X2769306Y4153693D02*
X2769306Y4937693D01*
D27*
X6985706Y10530627D02*
X7467306Y10049027D01*
D26*
X10459706Y8147293D02*
X10459706Y10277425D01*
X6426906Y3724493D02*
X3198506Y3724493D01*
X10140521Y3724493D02*
X9525706Y3724493D01*
D27*
X8383706Y10049027D02*
X8865306Y10530627D01*
D26*
X9957238Y10779893D02*
X9114572Y10779893D01*
X10462906Y6541293D02*
X10462906Y7376893D01*
X10459706Y10277425D02*
X9957238Y10779893D01*
X6782506Y3724493D02*
X6426906Y3724493D01*
X2769306Y6490493D02*
X2769306Y4937693D01*
X4014906Y8345693D02*
X4014906Y8594893D01*
X12388581Y6246203D02*
X12093491Y6541293D01*
X2464506Y6795293D02*
X4014906Y8345693D01*
X10462906Y5626893D02*
X10462906Y4046878D01*
D25*
X8458906Y3572093D02*
X8611306Y3724493D01*
D26*
X8750506Y2338093D02*
X8458906Y2338093D01*
X10846506Y7760493D02*
X11608506Y7760493D01*
X11608506Y7760493D02*
X11913306Y8065293D01*
D27*
X7467306Y10049027D02*
X8383706Y10049027D01*
X6411464Y2358093D02*
X6411464Y3353451D01*
D26*
X10462906Y4046878D02*
X10140521Y3724493D01*
X10462906Y6541293D02*
X10462906Y5626893D01*
X3198506Y3724493D02*
X2769306Y4153693D01*
X12576605Y6058179D02*
X12388581Y6246203D01*
D27*
X6411464Y3709051D02*
X6426906Y3724493D01*
X6411464Y3353451D02*
X6411464Y3709051D01*
D26*
X2464506Y6795293D02*
X2769306Y6490493D01*
D27*
X6411464Y3353451D02*
X6782506Y3724493D01*
D26*
X10462906Y7376893D02*
X10846506Y7760493D01*
X12576605Y5787128D02*
X12576605Y6058179D01*
X12093491Y6541293D02*
X10462906Y6541293D01*
X11913306Y8065293D02*
X11913306Y9001293D01*
D25*
%TO.N,/SWDIO{slash}JTAG_TMS*%
X3064906Y11053293D02*
X3064906Y11294893D01*
X2718506Y10706893D02*
X3064906Y11053293D01*
X2159706Y10706893D02*
X2718506Y10706893D01*
D28*
%TO.N,/uart_rx*%
X13234106Y11011693D02*
X11451506Y11011693D01*
X13894506Y1658900D02*
X13894506Y10351293D01*
X10963306Y11701293D02*
X10963306Y11910893D01*
X9343399Y14750000D02*
X8382999Y14750000D01*
X11893866Y1328093D02*
X13563699Y1328093D01*
X13563699Y1328093D02*
X13894506Y1658900D01*
X13894506Y10351293D02*
X13234106Y11011693D01*
X9728906Y13145293D02*
X9728906Y14364493D01*
X9728906Y14364493D02*
X9343399Y14750000D01*
X10963306Y11910893D02*
X9728906Y13145293D01*
X11451506Y11011693D02*
X10963306Y11499893D01*
X10963306Y11499893D02*
X10963306Y11701293D01*
%TO.N,/uart_tx*%
X10928666Y1328093D02*
X11363766Y892993D01*
X12035799Y14750000D02*
X10922999Y14750000D01*
X12863306Y13922493D02*
X12035799Y14750000D01*
X13451889Y892993D02*
X14123106Y1564210D01*
X14123106Y10935493D02*
X13357306Y11701293D01*
X14123106Y1564210D02*
X14123106Y10935493D01*
X13357306Y11701293D02*
X12863306Y11701293D01*
X11363766Y892993D02*
X13451889Y892993D01*
X12863306Y11701293D02*
X12863306Y13922493D01*
D25*
%TO.N,/SWCLK{slash}JTAG_TCK*%
X1991406Y10316393D02*
X4211406Y10316393D01*
X9617806Y12068993D02*
X5147406Y12068993D01*
X4211406Y10316393D02*
X4964906Y11069893D01*
X5147406Y12068993D02*
X4964906Y11886493D01*
X1651706Y11570493D02*
X1651706Y10656093D01*
X1651706Y10656093D02*
X1991406Y10316393D01*
X9678106Y12129293D02*
X9617806Y12068993D01*
X4964906Y11886493D02*
X4964906Y11294893D01*
X4964906Y11069893D02*
X4964906Y11294893D01*
%TO.N,/SWRST{slash}JTAG_TRST*%
X3124906Y9589293D02*
X1550106Y9589293D01*
X1550106Y9589293D02*
X991306Y10148093D01*
X991306Y10148093D02*
X991306Y11323042D01*
X3124906Y8654893D02*
X3064906Y8594893D01*
X3124906Y9589293D02*
X3124906Y8654893D01*
%TO.N,/JTAG_TDO*%
X7341306Y13360693D02*
X7341306Y14313693D01*
X10135306Y12332493D02*
X9458299Y13009500D01*
X10135306Y11519693D02*
X10135306Y12332493D01*
X10998906Y9944893D02*
X10998906Y9036893D01*
X9458299Y13009500D02*
X7692499Y13009500D01*
X6904999Y14750000D02*
X5842999Y14750000D01*
X10998906Y9036893D02*
X10963306Y9001293D01*
X7341306Y14313693D02*
X6904999Y14750000D01*
X7692499Y13009500D02*
X7341306Y13360693D01*
%TO.N,/JTAG_TDI*%
X6620755Y12348393D02*
X6230255Y12738893D01*
X2566106Y12738893D02*
X2261306Y13043693D01*
X12863306Y9214993D02*
X12863306Y9001293D01*
X1977399Y14750000D02*
X762999Y14750000D01*
X7208434Y12606021D02*
X6950806Y12348393D01*
X9309527Y12606021D02*
X7208434Y12606021D01*
X6230255Y12738893D02*
X2566106Y12738893D01*
X13335706Y9687393D02*
X12863306Y9214993D01*
X6950806Y12348393D02*
X6620755Y12348393D01*
X2261306Y14466093D02*
X1977399Y14750000D01*
X13335706Y10097293D02*
X13335706Y9687393D01*
X2261306Y13043693D02*
X2261306Y14466093D01*
%TO.N,VBUS*%
X-2833894Y9401293D02*
X-2833894Y6625293D01*
X-4698294Y11265693D02*
X-2833894Y9401293D01*
X-8813094Y14212093D02*
X-8813094Y13754893D01*
X-6323894Y11265693D02*
X-4698294Y11265693D01*
X-8813094Y13754893D02*
X-6323894Y11265693D01*
D28*
%TO.N,Net-(U1D-PA00{slash}TMR1.COMP0{slash}URT0.TXD{slash}TRGM0.P00)*%
X10846506Y3594893D02*
X10928666Y3512733D01*
X10928666Y3512733D02*
X10928666Y2348093D01*
%TO.N,Net-(U1D-PA01{slash}TMR1.CAPT0{slash}URT0.RXD{slash}TRGM0.P01{slash}ACMP.COMP0)*%
X11405306Y3086893D02*
X11659306Y3086893D01*
X11893866Y2852333D02*
X11893866Y2348093D01*
X11659306Y3086893D02*
X11893866Y2852333D01*
%TD*%
%TA.AperFunction,Conductor*%
%TO.N,GND*%
G36*
X-870227Y16686774D02*
G01*
X-857501Y16656050D01*
X-857501Y16460432D01*
X-837023Y16384012D01*
X-837022Y16384011D01*
X-797461Y16315489D01*
X-741512Y16259540D01*
X-672990Y16219979D01*
X-596570Y16199501D01*
X-596563Y16199500D01*
X-517439Y16199500D01*
X66649Y16199500D01*
X97373Y16186774D01*
X110099Y16156050D01*
X110099Y13184942D01*
X117005Y13150225D01*
X118971Y13140342D01*
X118971Y13140341D01*
X118973Y13140337D01*
X152761Y13089770D01*
X152768Y13089763D01*
X203337Y13055974D01*
X203341Y13055972D01*
X247942Y13047100D01*
X1278055Y13047101D01*
X1278057Y13047101D01*
X1287937Y13049067D01*
X1322657Y13055972D01*
X1322661Y13055975D01*
X1322662Y13055975D01*
X1373229Y13089763D01*
X1373229Y13089764D01*
X1373233Y13089766D01*
X1374586Y13091790D01*
X1407025Y13140339D01*
X1407027Y13140343D01*
X1415899Y13184941D01*
X1415899Y14464750D01*
X1428625Y14495474D01*
X1459349Y14508200D01*
X1859244Y14508200D01*
X1889968Y14495474D01*
X2006780Y14378662D01*
X2019506Y14347938D01*
X2019506Y13091790D01*
X2019506Y12995596D01*
X2056318Y12906724D01*
X2361118Y12601924D01*
X2429137Y12533905D01*
X2518009Y12497093D01*
X6112100Y12497093D01*
X6142824Y12484367D01*
X6242224Y12384967D01*
X6254950Y12354243D01*
X6242224Y12323519D01*
X6211500Y12310793D01*
X5195503Y12310793D01*
X5099309Y12310793D01*
X5010437Y12273981D01*
X5010435Y12273980D01*
X4759916Y12023461D01*
X4739683Y11974615D01*
X4716168Y11951100D01*
X4699543Y11947793D01*
X4674847Y11947793D01*
X4635189Y11939904D01*
X4630248Y11938921D01*
X4630247Y11938921D01*
X4630242Y11938919D01*
X4579675Y11905131D01*
X4579668Y11905124D01*
X4545879Y11854555D01*
X4545877Y11854551D01*
X4537006Y11809953D01*
X4537006Y11001949D01*
X4524280Y10971225D01*
X4123975Y10570919D01*
X4093251Y10558193D01*
X3374823Y10558193D01*
X3344099Y10570919D01*
X3331373Y10601643D01*
X3344099Y10632367D01*
X3366346Y10644258D01*
X3370724Y10645129D01*
X3399564Y10650865D01*
X3399568Y10650868D01*
X3399569Y10650868D01*
X3450136Y10684656D01*
X3450136Y10684657D01*
X3450140Y10684659D01*
X3483934Y10735235D01*
X3492806Y10779836D01*
X3492805Y11809949D01*
X3492805Y11809950D01*
X3492805Y11809952D01*
X3489375Y11827193D01*
X3483934Y11854551D01*
X3483931Y11854555D01*
X3483931Y11854557D01*
X3450143Y11905124D01*
X3450136Y11905131D01*
X3399567Y11938920D01*
X3399563Y11938922D01*
X3354965Y11947793D01*
X2774847Y11947793D01*
X2735189Y11939904D01*
X2730248Y11938921D01*
X2730247Y11938921D01*
X2730242Y11938919D01*
X2679675Y11905131D01*
X2679668Y11905124D01*
X2645879Y11854555D01*
X2645877Y11854551D01*
X2637006Y11809953D01*
X2637006Y10992143D01*
X2624280Y10961419D01*
X2593556Y10948693D01*
X2434980Y10948693D01*
X2404256Y10961419D01*
X2369719Y10995956D01*
X2270121Y11046704D01*
X2270115Y11046706D01*
X2159707Y11064192D01*
X2159705Y11064192D01*
X2049296Y11046706D01*
X2049290Y11046704D01*
X1956682Y10999517D01*
X1923529Y10996908D01*
X1898242Y11018505D01*
X1893506Y11038231D01*
X1893506Y11295219D01*
X1906232Y11325943D01*
X1940767Y11360478D01*
X1991518Y11460082D01*
X2009005Y11570493D01*
X1991518Y11680904D01*
X1991517Y11680906D01*
X1991516Y11680909D01*
X1940768Y11780507D01*
X1861719Y11859556D01*
X1762121Y11910304D01*
X1762115Y11910306D01*
X1651707Y11927792D01*
X1651705Y11927792D01*
X1541296Y11910306D01*
X1541290Y11910304D01*
X1441692Y11859556D01*
X1362643Y11780507D01*
X1311895Y11680909D01*
X1311893Y11680903D01*
X1300708Y11610282D01*
X1283332Y11581927D01*
X1250996Y11574164D01*
X1227069Y11586355D01*
X1201319Y11612105D01*
X1101721Y11662853D01*
X1101715Y11662855D01*
X991307Y11680341D01*
X991305Y11680341D01*
X880896Y11662855D01*
X880890Y11662853D01*
X781292Y11612105D01*
X702243Y11533056D01*
X651495Y11433458D01*
X651493Y11433452D01*
X634007Y11323043D01*
X634007Y11323042D01*
X651493Y11212633D01*
X651495Y11212627D01*
X702243Y11113029D01*
X736780Y11078492D01*
X749506Y11047768D01*
X749506Y10196190D01*
X749506Y10099996D01*
X786318Y10011124D01*
X1345117Y9452326D01*
X1345118Y9452324D01*
X1413137Y9384305D01*
X1502009Y9347493D01*
X1502010Y9347493D01*
X1598203Y9347493D01*
X2839656Y9347493D01*
X2870380Y9334767D01*
X2883106Y9304043D01*
X2883106Y9291243D01*
X2870380Y9260519D01*
X2839657Y9247793D01*
X2774847Y9247793D01*
X2735189Y9239904D01*
X2730248Y9238921D01*
X2730247Y9238921D01*
X2730242Y9238919D01*
X2679675Y9205131D01*
X2679668Y9205124D01*
X2645879Y9154555D01*
X2645877Y9154551D01*
X2637006Y9109953D01*
X2637006Y8079835D01*
X2640437Y8062590D01*
X2645878Y8035235D01*
X2645878Y8035234D01*
X2645880Y8035230D01*
X2679668Y7984663D01*
X2679675Y7984656D01*
X2730244Y7950867D01*
X2730248Y7950865D01*
X2774849Y7941993D01*
X3110469Y7941994D01*
X3141193Y7929268D01*
X3153919Y7898544D01*
X3141193Y7867820D01*
X2539094Y7265719D01*
X2508370Y7252993D01*
X2398699Y7252993D01*
X2328427Y7232360D01*
X2272410Y7215912D01*
X2161695Y7144759D01*
X2161694Y7144757D01*
X2075504Y7045289D01*
X2035240Y6957121D01*
X2020830Y6925568D01*
X2002099Y6795293D01*
X2020830Y6665018D01*
X2075504Y6545297D01*
X2161694Y6445829D01*
X2161695Y6445828D01*
X2272410Y6374675D01*
X2272413Y6374674D01*
X2272415Y6374673D01*
X2398699Y6337593D01*
X2445956Y6337593D01*
X2476680Y6324867D01*
X2489406Y6294143D01*
X2489406Y5325607D01*
X2476680Y5294883D01*
X2469450Y5289058D01*
X2468581Y5288498D01*
X2466493Y5287157D01*
X2380304Y5187689D01*
X2335637Y5089880D01*
X2325630Y5067968D01*
X2306899Y4937693D01*
X2325630Y4807418D01*
X2380304Y4687697D01*
X2466494Y4588229D01*
X2469444Y4586333D01*
X2488412Y4559019D01*
X2489406Y4549779D01*
X2489406Y4116837D01*
X2508480Y4045657D01*
X2508481Y4045656D01*
X2545330Y3981831D01*
X3026644Y3500516D01*
X3063490Y3479245D01*
X3063492Y3479244D01*
X3090469Y3463668D01*
X3107147Y3459199D01*
X3161649Y3444594D01*
X3161656Y3444593D01*
X6115113Y3444593D01*
X6145837Y3431867D01*
X6158563Y3401143D01*
X6158563Y3298092D01*
X6158564Y3298083D01*
X6158564Y2622267D01*
X6145838Y2591543D01*
X6122401Y2568107D01*
X6071653Y2468509D01*
X6071651Y2468503D01*
X6054165Y2358094D01*
X6054165Y2358091D01*
X6057955Y2334159D01*
X6050191Y2301823D01*
X6021836Y2284448D01*
X5989500Y2292212D01*
X5984316Y2296639D01*
X5854462Y2426493D01*
X5649475Y2631481D01*
X5560603Y2668293D01*
X5560601Y2668293D01*
X4873380Y2668293D01*
X4842656Y2681019D01*
X4808119Y2715556D01*
X4708521Y2766304D01*
X4708515Y2766306D01*
X4598107Y2783792D01*
X4598105Y2783792D01*
X4487696Y2766306D01*
X4487690Y2766304D01*
X4388092Y2715556D01*
X4309043Y2636507D01*
X4258295Y2536909D01*
X4258293Y2536903D01*
X4240807Y2426494D01*
X4240807Y2426493D01*
X4258293Y2316084D01*
X4258295Y2316078D01*
X4309043Y2216480D01*
X4388092Y2137431D01*
X4487690Y2086683D01*
X4487693Y2086682D01*
X4487695Y2086681D01*
X4502672Y2084309D01*
X4598105Y2069194D01*
X4598106Y2069194D01*
X4598107Y2069194D01*
X4634909Y2075023D01*
X4708517Y2086681D01*
X4808121Y2137432D01*
X4842656Y2171967D01*
X4873380Y2184693D01*
X5394351Y2184693D01*
X5425075Y2171967D01*
X5598951Y1998092D01*
X5766417Y1830626D01*
X5766418Y1830624D01*
X5834437Y1762605D01*
X5923309Y1725793D01*
X5923310Y1725793D01*
X5923311Y1725793D01*
X7410101Y1725793D01*
X7410103Y1725793D01*
X7498975Y1762605D01*
X7719637Y1983269D01*
X7744619Y1993617D01*
X7744328Y1995459D01*
X7747706Y1995994D01*
X7858117Y2013481D01*
X7957721Y2064232D01*
X7961501Y2068012D01*
X7992223Y2080741D01*
X8022948Y2068017D01*
X8031975Y2054842D01*
X8043077Y2029698D01*
X8120510Y1952265D01*
X8120509Y1952265D01*
X8164740Y1932736D01*
X8220683Y1908035D01*
X8220682Y1908035D01*
X8220685Y1908034D01*
X8245172Y1905193D01*
X8245177Y1905193D01*
X8672635Y1905193D01*
X8672640Y1905193D01*
X8697127Y1908034D01*
X8697129Y1908035D01*
X8697130Y1908035D01*
X8730666Y1922843D01*
X8763912Y1923612D01*
X8778941Y1913820D01*
X8911676Y1781085D01*
X8923867Y1757159D01*
X8931894Y1706481D01*
X8982643Y1606880D01*
X9061692Y1527831D01*
X9161290Y1477083D01*
X9161293Y1477082D01*
X9161295Y1477081D01*
X9216500Y1468338D01*
X9271705Y1459594D01*
X9271706Y1459594D01*
X9271707Y1459594D01*
X9308509Y1465423D01*
X9382117Y1477081D01*
X9481721Y1527832D01*
X9560767Y1606878D01*
X9611518Y1706482D01*
X9629005Y1816893D01*
X9620665Y1869551D01*
X9628428Y1901887D01*
X9656783Y1919263D01*
X9681129Y1916097D01*
X9744683Y1888035D01*
X9744682Y1888035D01*
X9744685Y1888034D01*
X9769172Y1885193D01*
X9769177Y1885193D01*
X10196635Y1885193D01*
X10196640Y1885193D01*
X10221127Y1888034D01*
X10321302Y1932265D01*
X10398734Y2009697D01*
X10418997Y2055591D01*
X10443048Y2078557D01*
X10476294Y2077789D01*
X10498492Y2055593D01*
X10502033Y2047574D01*
X10578146Y1971461D01*
X10611831Y1956588D01*
X10676607Y1927987D01*
X10676606Y1927987D01*
X10676609Y1927986D01*
X10700682Y1925193D01*
X10700687Y1925193D01*
X11156645Y1925193D01*
X11156650Y1925193D01*
X11180723Y1927986D01*
X11279187Y1971462D01*
X11355297Y2047572D01*
X11371518Y2084309D01*
X11395570Y2107275D01*
X11428816Y2106507D01*
X11451014Y2084309D01*
X11467233Y2047574D01*
X11543346Y1971461D01*
X11577031Y1956588D01*
X11641807Y1927987D01*
X11641806Y1927987D01*
X11641809Y1927986D01*
X11665882Y1925193D01*
X11665887Y1925193D01*
X12121845Y1925193D01*
X12121850Y1925193D01*
X12145923Y1927986D01*
X12244387Y1971462D01*
X12320497Y2047572D01*
X12363973Y2146036D01*
X12366766Y2170109D01*
X12366766Y2526077D01*
X12363973Y2550150D01*
X12355166Y2570097D01*
X12320498Y2648613D01*
X12244385Y2724726D01*
X12145923Y2768200D01*
X12142770Y2769058D01*
X12143269Y2770894D01*
X12119626Y2784097D01*
X12110266Y2811038D01*
X12110266Y2895377D01*
X12110266Y2895378D01*
X12077321Y2974914D01*
X12016447Y3035788D01*
X12016445Y3035789D01*
X11842761Y3209473D01*
X11842761Y3209474D01*
X11781887Y3270348D01*
X11702351Y3303293D01*
X11702349Y3303293D01*
X11702347Y3303294D01*
X11698153Y3304128D01*
X11698595Y3306352D01*
X11675256Y3316019D01*
X11615319Y3375956D01*
X11515721Y3426704D01*
X11515715Y3426706D01*
X11405307Y3444192D01*
X11405305Y3444192D01*
X11294896Y3426706D01*
X11294890Y3426704D01*
X11227634Y3392435D01*
X11194481Y3389826D01*
X11169194Y3411423D01*
X11166585Y3444576D01*
X11169190Y3450869D01*
X11186318Y3484482D01*
X11203805Y3594893D01*
X11192217Y3668058D01*
X11199980Y3700393D01*
X11228335Y3717769D01*
X11235119Y3718304D01*
X13553637Y3718304D01*
X13553639Y3718304D01*
X13563519Y3720270D01*
X13598239Y3727175D01*
X13610517Y3735380D01*
X13643131Y3741867D01*
X13670783Y3723393D01*
X13678106Y3699252D01*
X13678106Y1766533D01*
X13665380Y1735809D01*
X13486790Y1557219D01*
X13456066Y1544493D01*
X12385952Y1544493D01*
X12355228Y1557219D01*
X12346204Y1570393D01*
X12320498Y1628613D01*
X12244385Y1704726D01*
X12145923Y1748200D01*
X12145925Y1748200D01*
X12139045Y1748998D01*
X12121850Y1750993D01*
X11665882Y1750993D01*
X11648687Y1748998D01*
X11641807Y1748200D01*
X11543346Y1704726D01*
X11467233Y1628613D01*
X11451014Y1591878D01*
X11426962Y1568912D01*
X11393716Y1569680D01*
X11371518Y1591878D01*
X11355298Y1628613D01*
X11279185Y1704726D01*
X11180723Y1748200D01*
X11180725Y1748200D01*
X11173845Y1748998D01*
X11156650Y1750993D01*
X10700682Y1750993D01*
X10683487Y1748998D01*
X10676607Y1748200D01*
X10578146Y1704726D01*
X10502033Y1628613D01*
X10458559Y1530152D01*
X10458559Y1530150D01*
X10455766Y1506077D01*
X10455766Y1150109D01*
X10456853Y1140742D01*
X10458559Y1126035D01*
X10502033Y1027574D01*
X10578146Y951461D01*
X10627377Y929724D01*
X10676607Y907987D01*
X10676606Y907987D01*
X10676609Y907986D01*
X10700682Y905193D01*
X11027532Y905193D01*
X11058256Y892467D01*
X11180310Y770413D01*
X11180311Y770412D01*
X11241185Y709538D01*
X11320721Y676593D01*
X11320723Y676593D01*
X13494932Y676593D01*
X13494933Y676593D01*
X13494934Y676593D01*
X13574470Y709538D01*
X13635344Y770412D01*
X13635344Y770414D01*
X14168326Y1303396D01*
X14199049Y1316121D01*
X14229773Y1303395D01*
X14242499Y1272671D01*
X14242499Y1050265D01*
X14242498Y1050247D01*
X14242498Y1002135D01*
X14242289Y997877D01*
X14229478Y867791D01*
X14227816Y859436D01*
X14190496Y736408D01*
X14187237Y728539D01*
X14126629Y615148D01*
X14121896Y608065D01*
X14040336Y508685D01*
X14034314Y502663D01*
X13934934Y421103D01*
X13927851Y416370D01*
X13814460Y355762D01*
X13806591Y352503D01*
X13683563Y315183D01*
X13675208Y313521D01*
X13545122Y300710D01*
X13540864Y300501D01*
X13491911Y300501D01*
X13491899Y300500D01*
X2314978Y300500D01*
X2284254Y313226D01*
X2273402Y331326D01*
X2213123Y529846D01*
X2113602Y728252D01*
X1981925Y906942D01*
X1981923Y906944D01*
X1981921Y906947D01*
X1821898Y1060754D01*
X1821894Y1060758D01*
X1673598Y1161229D01*
X1638130Y1185259D01*
X1508453Y1244000D01*
X1435941Y1276847D01*
X1379907Y1291466D01*
X1221162Y1332881D01*
X999999Y1351739D01*
X778835Y1332881D01*
X564057Y1276847D01*
X361867Y1185259D01*
X178105Y1060759D01*
X178099Y1060754D01*
X18076Y906947D01*
X18074Y906944D01*
X-113605Y728252D01*
X-113606Y728249D01*
X-213124Y529850D01*
X-213125Y529847D01*
X-231199Y470323D01*
X-272144Y335474D01*
X-273404Y331326D01*
X-294508Y305625D01*
X-314980Y300500D01*
X-5272995Y300500D01*
X-5303719Y313226D01*
X-5316445Y343950D01*
X-5309122Y368090D01*
X-5240812Y470323D01*
X-5240812Y470324D01*
X-5165430Y652314D01*
X-5165428Y652322D01*
X-5157138Y694000D01*
X-5960013Y694000D01*
X-5942796Y703940D01*
X-5886941Y759795D01*
X-5847445Y828204D01*
X-5827001Y904504D01*
X-5827001Y983496D01*
X-5847445Y1059796D01*
X-5886941Y1128205D01*
X-5942796Y1184060D01*
X-5960013Y1194000D01*
X-5157138Y1194000D01*
X-5157138Y1194001D01*
X-5165428Y1235679D01*
X-5165430Y1235687D01*
X-5240812Y1417677D01*
X-5240812Y1417678D01*
X-5350249Y1581460D01*
X-5350252Y1581464D01*
X-5489537Y1720749D01*
X-5489542Y1720753D01*
X-5653325Y1830190D01*
X-5835315Y1905572D01*
X-5835321Y1905574D01*
X-6028508Y1944000D01*
X-6427001Y1944000D01*
X-6427001Y1244000D01*
X-6927001Y1244000D01*
X-6927001Y1944000D01*
X-6939589Y1956588D01*
X-6952315Y1987312D01*
X-6939589Y2018036D01*
X-6930589Y2024941D01*
X-6915738Y2033515D01*
X-6836516Y2112737D01*
X-6780498Y2209763D01*
X-6758406Y2292212D01*
X-6751502Y2317976D01*
X-6751501Y2317983D01*
X-6751501Y2430018D01*
X-6751502Y2430025D01*
X-6777240Y2526077D01*
X-6780498Y2538237D01*
X-6836516Y2635263D01*
X-6915738Y2714485D01*
X-6917593Y2715556D01*
X-7012763Y2770503D01*
X-7120977Y2799500D01*
X-7120983Y2799500D01*
X-7233019Y2799500D01*
X-7233026Y2799500D01*
X-7341240Y2770503D01*
X-7438265Y2714485D01*
X-7517486Y2635264D01*
X-7573504Y2538239D01*
X-7602501Y2430025D01*
X-7602501Y2317976D01*
X-7573504Y2209762D01*
X-7525506Y2126628D01*
X-7517486Y2112737D01*
X-7438264Y2033515D01*
X-7394030Y2007977D01*
X-7373786Y1981594D01*
X-7378126Y1948623D01*
X-7404509Y1928379D01*
X-7407278Y1927733D01*
X-7518682Y1905574D01*
X-7518688Y1905572D01*
X-7700678Y1830190D01*
X-7700679Y1830190D01*
X-7864461Y1720753D01*
X-8003754Y1581460D01*
X-8113191Y1417678D01*
X-8113191Y1417677D01*
X-8188573Y1235687D01*
X-8188575Y1235679D01*
X-8196865Y1194001D01*
X-8196864Y1194000D01*
X-7393989Y1194000D01*
X-7411206Y1184060D01*
X-7467061Y1128205D01*
X-7506557Y1059796D01*
X-7527001Y983496D01*
X-7527001Y904504D01*
X-7506557Y828204D01*
X-7467061Y759795D01*
X-7411206Y703940D01*
X-7393989Y694000D01*
X-8196864Y694000D01*
X-8188575Y652322D01*
X-8188573Y652314D01*
X-8113191Y470324D01*
X-8113191Y470323D01*
X-8044880Y368090D01*
X-8038392Y335474D01*
X-8056867Y307823D01*
X-8081007Y300500D01*
X-9602995Y300500D01*
X-9633719Y313226D01*
X-9646445Y343950D01*
X-9639122Y368090D01*
X-9570812Y470323D01*
X-9570812Y470324D01*
X-9495430Y652314D01*
X-9495428Y652322D01*
X-9487138Y694000D01*
X-10290013Y694000D01*
X-10272796Y703940D01*
X-10216941Y759795D01*
X-10177445Y828204D01*
X-10157001Y904504D01*
X-10157001Y983496D01*
X-10177445Y1059796D01*
X-10216941Y1128205D01*
X-10272796Y1184060D01*
X-10290013Y1194000D01*
X-9487138Y1194000D01*
X-9487138Y1194001D01*
X-9495428Y1235679D01*
X-9495430Y1235687D01*
X-9570812Y1417677D01*
X-9570812Y1417678D01*
X-9680249Y1581460D01*
X-9680252Y1581464D01*
X-9819537Y1720749D01*
X-9819542Y1720753D01*
X-9983325Y1830190D01*
X-10165315Y1905572D01*
X-10165321Y1905574D01*
X-10358508Y1944000D01*
X-10607001Y1944000D01*
X-10607001Y1244000D01*
X-11107001Y1244000D01*
X-11107001Y1944000D01*
X-11355494Y1944000D01*
X-11548682Y1905574D01*
X-11548688Y1905572D01*
X-11730678Y1830190D01*
X-11730679Y1830190D01*
X-11894461Y1720753D01*
X-12033754Y1581460D01*
X-12143191Y1417678D01*
X-12143191Y1417677D01*
X-12218573Y1235687D01*
X-12218575Y1235679D01*
X-12226865Y1194001D01*
X-12226864Y1194000D01*
X-11423989Y1194000D01*
X-11441206Y1184060D01*
X-11497061Y1128205D01*
X-11536557Y1059796D01*
X-11557001Y983496D01*
X-11557001Y904504D01*
X-11536557Y828204D01*
X-11497061Y759795D01*
X-11441206Y703940D01*
X-11423989Y694000D01*
X-12226864Y694000D01*
X-12218575Y652322D01*
X-12218573Y652314D01*
X-12143191Y470324D01*
X-12143191Y470323D01*
X-12074880Y368090D01*
X-12068392Y335474D01*
X-12086867Y307823D01*
X-12111007Y300500D01*
X-12454862Y300500D01*
X-12459121Y300709D01*
X-12589206Y313523D01*
X-12597560Y315185D01*
X-12720591Y352507D01*
X-12728458Y355766D01*
X-12790318Y388832D01*
X-12841840Y416371D01*
X-12848921Y421103D01*
X-12948305Y502665D01*
X-12954329Y508688D01*
X-13035894Y608077D01*
X-13040619Y615149D01*
X-13101228Y728543D01*
X-13104486Y736410D01*
X-13141806Y859442D01*
X-13143466Y867785D01*
X-13156293Y998021D01*
X-13156501Y1002276D01*
X-13156501Y1005591D01*
X-13156500Y1047592D01*
X-13156501Y1047596D01*
X-13156501Y7107002D01*
X-5386794Y7107002D01*
X-5386794Y6143585D01*
X-5371851Y6049238D01*
X-5371851Y6049237D01*
X-5313912Y5935524D01*
X-5223664Y5845276D01*
X-5146868Y5806147D01*
X-5109949Y5787336D01*
X-5015602Y5772393D01*
X-4520788Y5772393D01*
X-4490064Y5759667D01*
X-4480992Y5744862D01*
X-4480859Y5744929D01*
X-4479999Y5743241D01*
X-4479464Y5742368D01*
X-4479306Y5741881D01*
X-4428557Y5642280D01*
X-4393094Y5606817D01*
X-4380368Y5576093D01*
X-4393094Y5545369D01*
X-4428557Y5509907D01*
X-4479305Y5410309D01*
X-4479307Y5410303D01*
X-4494425Y5314846D01*
X-4511801Y5286491D01*
X-4537340Y5278193D01*
X-5015603Y5278193D01*
X-5109950Y5263250D01*
X-5109951Y5263250D01*
X-5223664Y5205311D01*
X-5313912Y5115063D01*
X-5371851Y5001350D01*
X-5371851Y5001349D01*
X-5386794Y4907002D01*
X-5386794Y3943585D01*
X-5371851Y3849238D01*
X-5371851Y3849237D01*
X-5313912Y3735524D01*
X-5223664Y3645276D01*
X-5109951Y3587337D01*
X-5109949Y3587336D01*
X-5015602Y3572393D01*
X-5015601Y3572393D01*
X-4452187Y3572393D01*
X-4452186Y3572393D01*
X-4357839Y3587336D01*
X-4244123Y3645277D01*
X-4153878Y3735522D01*
X-4095937Y3849238D01*
X-4080994Y3943585D01*
X-4080994Y4907001D01*
X-4081128Y4907848D01*
X-4081078Y4908059D01*
X-4081128Y4908702D01*
X-4080919Y4908719D01*
X-4073364Y4940184D01*
X-4045011Y4957559D01*
X-4029083Y4960081D01*
X-3929479Y5010832D01*
X-3850433Y5089878D01*
X-3799682Y5189482D01*
X-3782195Y5299893D01*
X-3799682Y5410304D01*
X-3799683Y5410306D01*
X-3799684Y5410309D01*
X-3850432Y5509907D01*
X-3885894Y5545369D01*
X-3898620Y5576093D01*
X-3885894Y5606817D01*
X-3850433Y5642278D01*
X-3799682Y5741882D01*
X-3782195Y5852293D01*
X-3784226Y5865114D01*
X-3799682Y5962703D01*
X-3799684Y5962709D01*
X-3850432Y6062307D01*
X-3929481Y6141356D01*
X-4029082Y6192105D01*
X-4044342Y6194522D01*
X-4072696Y6211898D01*
X-4080994Y6237437D01*
X-4080994Y7107000D01*
X-4080994Y7107001D01*
X-4095937Y7201348D01*
X-4126308Y7260955D01*
X-4153877Y7315063D01*
X-4244125Y7405311D01*
X-4357838Y7463250D01*
X-4452186Y7478193D01*
X-5015602Y7478193D01*
X-5015603Y7478193D01*
X-5109950Y7463250D01*
X-5109951Y7463250D01*
X-5223664Y7405311D01*
X-5313912Y7315063D01*
X-5371851Y7201350D01*
X-5371851Y7201349D01*
X-5386794Y7107002D01*
X-13156501Y7107002D01*
X-13156501Y9834001D01*
X-12226865Y9834001D01*
X-12226864Y9834000D01*
X-11423989Y9834000D01*
X-11441206Y9824060D01*
X-11497061Y9768205D01*
X-11536557Y9699796D01*
X-11557001Y9623496D01*
X-11557001Y9544504D01*
X-11536557Y9468204D01*
X-11497061Y9399795D01*
X-11441206Y9343940D01*
X-11423989Y9334000D01*
X-12226864Y9334000D01*
X-12218575Y9292322D01*
X-12218573Y9292314D01*
X-12143191Y9110324D01*
X-12143191Y9110323D01*
X-12033754Y8946541D01*
X-12033750Y8946536D01*
X-11894465Y8807251D01*
X-11894461Y8807248D01*
X-11730678Y8697811D01*
X-11548688Y8622429D01*
X-11548682Y8622427D01*
X-11355494Y8584000D01*
X-11107001Y8584000D01*
X-11107001Y9284000D01*
X-10607001Y9284000D01*
X-10607001Y8584000D01*
X-10358508Y8584000D01*
X-10165321Y8622427D01*
X-10165315Y8622429D01*
X-9983325Y8697811D01*
X-9983324Y8697811D01*
X-9819542Y8807248D01*
X-9819537Y8807251D01*
X-9680252Y8946536D01*
X-9680249Y8946541D01*
X-9570812Y9110323D01*
X-9570812Y9110324D01*
X-9495430Y9292314D01*
X-9495428Y9292322D01*
X-9487138Y9334000D01*
X-10290013Y9334000D01*
X-10272796Y9343940D01*
X-10216941Y9399795D01*
X-10177445Y9468204D01*
X-10157001Y9544504D01*
X-10157001Y9623496D01*
X-10177445Y9699796D01*
X-10216941Y9768205D01*
X-10272796Y9824060D01*
X-10290013Y9834000D01*
X-9487138Y9834000D01*
X-9487138Y9834001D01*
X-8196865Y9834001D01*
X-8196864Y9834000D01*
X-7393989Y9834000D01*
X-7411206Y9824060D01*
X-7467061Y9768205D01*
X-7506557Y9699796D01*
X-7527001Y9623496D01*
X-7527001Y9544504D01*
X-7506557Y9468204D01*
X-7467061Y9399795D01*
X-7411206Y9343940D01*
X-7393989Y9334000D01*
X-8196864Y9334000D01*
X-8188575Y9292322D01*
X-8188573Y9292314D01*
X-8113191Y9110324D01*
X-8113191Y9110323D01*
X-8003754Y8946541D01*
X-8003750Y8946536D01*
X-7864465Y8807251D01*
X-7864461Y8807248D01*
X-7700678Y8697811D01*
X-7518688Y8622429D01*
X-7518680Y8622427D01*
X-7407279Y8600268D01*
X-7379628Y8581793D01*
X-7373140Y8549177D01*
X-7391615Y8521526D01*
X-7394030Y8520024D01*
X-7438265Y8494485D01*
X-7517486Y8415264D01*
X-7573504Y8318239D01*
X-7602501Y8210025D01*
X-7602501Y8097976D01*
X-7573504Y7989762D01*
X-7545925Y7941994D01*
X-7517486Y7892737D01*
X-7438264Y7813515D01*
X-7341238Y7757497D01*
X-7303754Y7747453D01*
X-7233026Y7728501D01*
X-7233019Y7728500D01*
X-7120983Y7728500D01*
X-7120977Y7728501D01*
X-7071893Y7741654D01*
X-7012764Y7757497D01*
X-6915738Y7813515D01*
X-6836516Y7892737D01*
X-6780498Y7989763D01*
X-6760984Y8062590D01*
X-6751502Y8097976D01*
X-6751501Y8097983D01*
X-6751501Y8210018D01*
X-6751502Y8210025D01*
X-6776936Y8304944D01*
X-6780498Y8318237D01*
X-6836516Y8415263D01*
X-6915738Y8494485D01*
X-6915739Y8494486D01*
X-6930591Y8503061D01*
X-6950835Y8529444D01*
X-6946493Y8562415D01*
X-6939588Y8571413D01*
X-6927001Y8584000D01*
X-6927001Y9284000D01*
X-6427001Y9284000D01*
X-6427001Y8584000D01*
X-6028508Y8584000D01*
X-5835321Y8622427D01*
X-5835315Y8622429D01*
X-5653325Y8697811D01*
X-5653324Y8697811D01*
X-5489542Y8807248D01*
X-5489537Y8807251D01*
X-5350252Y8946536D01*
X-5350249Y8946541D01*
X-5240812Y9110323D01*
X-5240812Y9110324D01*
X-5165430Y9292314D01*
X-5165428Y9292322D01*
X-5157138Y9334000D01*
X-5960013Y9334000D01*
X-5942796Y9343940D01*
X-5886941Y9399795D01*
X-5847445Y9468204D01*
X-5827001Y9544504D01*
X-5827001Y9623496D01*
X-5847445Y9699796D01*
X-5886941Y9768205D01*
X-5942796Y9824060D01*
X-5960013Y9834000D01*
X-5157138Y9834000D01*
X-5157138Y9834001D01*
X-5165428Y9875679D01*
X-5165430Y9875687D01*
X-5240812Y10057677D01*
X-5240812Y10057678D01*
X-5350249Y10221460D01*
X-5350252Y10221464D01*
X-5489537Y10360749D01*
X-5489542Y10360753D01*
X-5653325Y10470190D01*
X-5835315Y10545572D01*
X-5835321Y10545574D01*
X-6028508Y10584000D01*
X-6427001Y10584000D01*
X-6427001Y9884000D01*
X-6927001Y9884000D01*
X-6927001Y10584000D01*
X-7325494Y10584000D01*
X-7518682Y10545574D01*
X-7518688Y10545572D01*
X-7700678Y10470190D01*
X-7700679Y10470190D01*
X-7864461Y10360753D01*
X-8003754Y10221460D01*
X-8113191Y10057678D01*
X-8113191Y10057677D01*
X-8188573Y9875687D01*
X-8188575Y9875679D01*
X-8196865Y9834001D01*
X-9487138Y9834001D01*
X-9495428Y9875679D01*
X-9495430Y9875687D01*
X-9570812Y10057677D01*
X-9570812Y10057678D01*
X-9680249Y10221460D01*
X-9680252Y10221464D01*
X-9819537Y10360749D01*
X-9819542Y10360753D01*
X-9983325Y10470190D01*
X-10165315Y10545572D01*
X-10165321Y10545574D01*
X-10358508Y10584000D01*
X-10607001Y10584000D01*
X-10607001Y9884000D01*
X-11107001Y9884000D01*
X-11107001Y10584000D01*
X-11355494Y10584000D01*
X-11548682Y10545574D01*
X-11548688Y10545572D01*
X-11730678Y10470190D01*
X-11730679Y10470190D01*
X-11894461Y10360753D01*
X-12033754Y10221460D01*
X-12143191Y10057678D01*
X-12143191Y10057677D01*
X-12218573Y9875687D01*
X-12218575Y9875679D01*
X-12226865Y9834001D01*
X-13156501Y9834001D01*
X-13156501Y14212094D01*
X-9170393Y14212094D01*
X-9170393Y14212093D01*
X-9152907Y14101684D01*
X-9152905Y14101678D01*
X-9102157Y14002080D01*
X-9067620Y13967543D01*
X-9054894Y13936819D01*
X-9054894Y13802990D01*
X-9054894Y13706796D01*
X-9018082Y13617924D01*
X-6460863Y11060705D01*
X-6371991Y11023893D01*
X-6275798Y11023893D01*
X-4816449Y11023893D01*
X-4785725Y11011167D01*
X-3088420Y9313862D01*
X-3075694Y9283138D01*
X-3075694Y7521499D01*
X-3088420Y7490775D01*
X-3113999Y7478979D01*
X-3113916Y7478460D01*
X-3209950Y7463250D01*
X-3209951Y7463250D01*
X-3323664Y7405311D01*
X-3413912Y7315063D01*
X-3471851Y7201350D01*
X-3471851Y7201349D01*
X-3486794Y7107002D01*
X-3486794Y6143585D01*
X-3471851Y6049238D01*
X-3471851Y6049237D01*
X-3413912Y5935524D01*
X-3323664Y5845276D01*
X-3246868Y5806147D01*
X-3209949Y5787336D01*
X-3115602Y5772393D01*
X-3115601Y5772393D01*
X-2552187Y5772393D01*
X-2552186Y5772393D01*
X-2457839Y5787336D01*
X-2344123Y5845277D01*
X-2253878Y5935522D01*
X-2195937Y6049238D01*
X-2180994Y6143585D01*
X-2180994Y7107001D01*
X-2195937Y7201348D01*
X-2226308Y7260955D01*
X-2253877Y7315063D01*
X-2344125Y7405311D01*
X-2457838Y7463250D01*
X-2553872Y7478460D01*
X-2553778Y7479057D01*
X-2581693Y7493291D01*
X-2592094Y7521499D01*
X-2592094Y9449389D01*
X-2592094Y9449390D01*
X-2628906Y9538262D01*
X-2696925Y9606281D01*
X-4561325Y11470681D01*
X-4650197Y11507493D01*
X-4650199Y11507493D01*
X-6205739Y11507493D01*
X-6236463Y11520219D01*
X-8558568Y13842324D01*
X-8571294Y13873048D01*
X-8571294Y13936819D01*
X-8558568Y13967543D01*
X-8524033Y14002078D01*
X-8473282Y14101682D01*
X-8455795Y14212093D01*
X-8456024Y14213536D01*
X-8473282Y14322503D01*
X-8473284Y14322509D01*
X-8524032Y14422107D01*
X-8603081Y14501156D01*
X-8702679Y14551904D01*
X-8702685Y14551906D01*
X-8813093Y14569392D01*
X-8813095Y14569392D01*
X-8923504Y14551906D01*
X-8923510Y14551904D01*
X-9023108Y14501156D01*
X-9102157Y14422107D01*
X-9152905Y14322509D01*
X-9152907Y14322503D01*
X-9170393Y14212094D01*
X-13156501Y14212094D01*
X-13156501Y15997865D01*
X-13156292Y16002124D01*
X-13156278Y16002263D01*
X-13143478Y16132214D01*
X-13141819Y16140554D01*
X-13104493Y16263600D01*
X-13101238Y16271455D01*
X-13040627Y16384851D01*
X-13035906Y16391918D01*
X-12954330Y16491318D01*
X-12948319Y16497329D01*
X-12848919Y16578905D01*
X-12841852Y16583626D01*
X-12728456Y16644237D01*
X-12720601Y16647492D01*
X-12597555Y16684818D01*
X-12589215Y16686477D01*
X-12459121Y16699292D01*
X-12454862Y16699500D01*
X-12409404Y16699500D01*
X-900951Y16699500D01*
X-870227Y16686774D01*
G37*
%TD.AperFunction*%
%TA.AperFunction,Conductor*%
G36*
X9502976Y11822457D02*
G01*
X9567690Y11789483D01*
X9567693Y11789482D01*
X9567695Y11789481D01*
X9603924Y11783743D01*
X9678105Y11771994D01*
X9678106Y11771994D01*
X9678107Y11771994D01*
X9731862Y11780508D01*
X9788517Y11789481D01*
X9788520Y11789483D01*
X9791773Y11790539D01*
X9792034Y11789736D01*
X9821614Y11792071D01*
X9846906Y11770479D01*
X9849524Y11737327D01*
X9846911Y11731018D01*
X9795495Y11630109D01*
X9795493Y11630103D01*
X9778007Y11519694D01*
X9778007Y11519693D01*
X9795493Y11409284D01*
X9795495Y11409278D01*
X9846243Y11309680D01*
X9925292Y11230631D01*
X10024890Y11179883D01*
X10024893Y11179882D01*
X10024895Y11179881D01*
X10080100Y11171138D01*
X10135305Y11162394D01*
X10135306Y11162394D01*
X10135307Y11162394D01*
X10172109Y11168223D01*
X10245717Y11179881D01*
X10345321Y11230632D01*
X10424367Y11309678D01*
X10426171Y11313217D01*
X10453242Y11366348D01*
X10478529Y11387946D01*
X10511681Y11385337D01*
X10533279Y11360050D01*
X10535406Y11346623D01*
X10535406Y11186235D01*
X10540149Y11162394D01*
X10544278Y11141635D01*
X10544278Y11141634D01*
X10544280Y11141630D01*
X10578068Y11091063D01*
X10578075Y11091056D01*
X10628644Y11057267D01*
X10628648Y11057265D01*
X10673249Y11048393D01*
X11090771Y11048394D01*
X11121495Y11035668D01*
X11268050Y10889113D01*
X11268051Y10889112D01*
X11328925Y10828238D01*
X11408461Y10795293D01*
X11408462Y10795293D01*
X11494550Y10795293D01*
X13126473Y10795293D01*
X13157197Y10782567D01*
X13418741Y10521023D01*
X13431467Y10490299D01*
X13418741Y10459575D01*
X13388017Y10446849D01*
X13381220Y10447384D01*
X13335707Y10454592D01*
X13335705Y10454592D01*
X13225296Y10437106D01*
X13225290Y10437104D01*
X13125692Y10386356D01*
X13046643Y10307307D01*
X12995895Y10207709D01*
X12995893Y10207703D01*
X12978407Y10097294D01*
X12978407Y10097293D01*
X12995893Y9986884D01*
X12995895Y9986878D01*
X13046643Y9887280D01*
X13081180Y9852743D01*
X13093906Y9822019D01*
X13093906Y9805549D01*
X13081180Y9774825D01*
X12973274Y9666919D01*
X12942550Y9654193D01*
X12573247Y9654193D01*
X12533589Y9646304D01*
X12528648Y9645321D01*
X12528647Y9645321D01*
X12528642Y9645319D01*
X12478075Y9611531D01*
X12478068Y9611524D01*
X12444279Y9560955D01*
X12444277Y9560951D01*
X12435406Y9516353D01*
X12435406Y8486235D01*
X12442312Y8451518D01*
X12444278Y8441635D01*
X12444278Y8441634D01*
X12444280Y8441630D01*
X12478068Y8391063D01*
X12478075Y8391056D01*
X12528644Y8357267D01*
X12528648Y8357265D01*
X12573249Y8348393D01*
X13153362Y8348394D01*
X13153364Y8348394D01*
X13163244Y8350360D01*
X13197964Y8357265D01*
X13197968Y8357268D01*
X13197969Y8357268D01*
X13248536Y8391056D01*
X13248536Y8391057D01*
X13248540Y8391059D01*
X13264714Y8415264D01*
X13282332Y8441632D01*
X13282334Y8441636D01*
X13282334Y8441637D01*
X13291206Y8486236D01*
X13291205Y9282939D01*
X13303931Y9313662D01*
X13390064Y9399795D01*
X13540694Y9550424D01*
X13577506Y9639296D01*
X13577506Y9735489D01*
X13577506Y9822019D01*
X13590232Y9852743D01*
X13603932Y9866443D01*
X13634656Y9879169D01*
X13665380Y9866443D01*
X13678106Y9835719D01*
X13678106Y6843155D01*
X13665380Y6812431D01*
X13634656Y6799705D01*
X13610517Y6807027D01*
X13602429Y6812431D01*
X13598239Y6815231D01*
X13598238Y6815232D01*
X13553640Y6824103D01*
X11223522Y6824103D01*
X11213097Y6822028D01*
X11204620Y6821193D01*
X10902874Y6821193D01*
X10872150Y6833919D01*
X10863126Y6847093D01*
X10848734Y6879689D01*
X10771302Y6957121D01*
X10771298Y6957124D01*
X10768700Y6958271D01*
X10745738Y6982326D01*
X10742806Y6998016D01*
X10742806Y7242957D01*
X10755532Y7273681D01*
X10949719Y7467867D01*
X10980443Y7480593D01*
X11645356Y7480593D01*
X11645362Y7480594D01*
X11694761Y7493832D01*
X11716543Y7499668D01*
X11780368Y7536517D01*
X12137282Y7893430D01*
X12174131Y7957255D01*
X12182842Y7989763D01*
X12193205Y8028437D01*
X12193206Y8028444D01*
X12193206Y8310715D01*
X12205932Y8341439D01*
X12228180Y8353330D01*
X12231311Y8353953D01*
X12247964Y8357265D01*
X12247967Y8357268D01*
X12247969Y8357268D01*
X12298536Y8391056D01*
X12298536Y8391057D01*
X12298540Y8391059D01*
X12314714Y8415264D01*
X12332332Y8441632D01*
X12332334Y8441636D01*
X12332334Y8441637D01*
X12341206Y8486236D01*
X12341205Y9516349D01*
X12341205Y9516350D01*
X12341205Y9516352D01*
X12338256Y9531173D01*
X12332334Y9560951D01*
X12332331Y9560955D01*
X12332331Y9560957D01*
X12298543Y9611524D01*
X12298536Y9611531D01*
X12247967Y9645320D01*
X12247963Y9645322D01*
X12203365Y9654193D01*
X11623247Y9654193D01*
X11583589Y9646304D01*
X11578648Y9645321D01*
X11578647Y9645321D01*
X11578642Y9645319D01*
X11528075Y9611531D01*
X11528068Y9611524D01*
X11494279Y9560955D01*
X11494277Y9560951D01*
X11485406Y9516353D01*
X11485406Y8486235D01*
X11492312Y8451518D01*
X11494278Y8441635D01*
X11494278Y8441634D01*
X11494280Y8441630D01*
X11528068Y8391063D01*
X11528075Y8391056D01*
X11578644Y8357267D01*
X11578646Y8357266D01*
X11578648Y8357265D01*
X11598432Y8353330D01*
X11626083Y8334855D01*
X11633406Y8310715D01*
X11633406Y8199230D01*
X11620680Y8168506D01*
X11505294Y8053119D01*
X11474570Y8040393D01*
X10980442Y8040393D01*
X10949718Y8053119D01*
X10752332Y8250505D01*
X10739606Y8281229D01*
X10739606Y8304944D01*
X10752332Y8335668D01*
X10783056Y8348394D01*
X11253364Y8348394D01*
X11263244Y8350360D01*
X11297964Y8357265D01*
X11297968Y8357268D01*
X11297969Y8357268D01*
X11348536Y8391056D01*
X11348536Y8391057D01*
X11348540Y8391059D01*
X11364714Y8415264D01*
X11382332Y8441632D01*
X11382334Y8441636D01*
X11382334Y8441637D01*
X11391206Y8486236D01*
X11391205Y9516349D01*
X11391205Y9516350D01*
X11391205Y9516352D01*
X11388256Y9531173D01*
X11382334Y9560951D01*
X11382331Y9560955D01*
X11382331Y9560957D01*
X11348543Y9611524D01*
X11348536Y9611531D01*
X11297967Y9645320D01*
X11297960Y9645323D01*
X11294650Y9645981D01*
X11267001Y9664459D01*
X11260517Y9697076D01*
X11272406Y9719318D01*
X11287967Y9734878D01*
X11338718Y9834482D01*
X11356205Y9944893D01*
X11338718Y10055304D01*
X11338717Y10055306D01*
X11338716Y10055309D01*
X11287968Y10154907D01*
X11208919Y10233956D01*
X11109321Y10284704D01*
X11109315Y10284706D01*
X10998907Y10302192D01*
X10998905Y10302192D01*
X10888496Y10284706D01*
X10888490Y10284704D01*
X10802782Y10241033D01*
X10769629Y10238424D01*
X10744342Y10260021D01*
X10739606Y10279747D01*
X10739606Y10314275D01*
X10739605Y10314282D01*
X10720531Y10385462D01*
X10720530Y10385463D01*
X10720015Y10386356D01*
X10683682Y10449287D01*
X10631568Y10501401D01*
X10129100Y11003869D01*
X10065275Y11040718D01*
X10065274Y11040719D01*
X9994094Y11059793D01*
X9994088Y11059793D01*
X9077722Y11059793D01*
X9077715Y11059793D01*
X9021578Y11044749D01*
X9006532Y11040718D01*
X8942708Y11003869D01*
X8915093Y10976253D01*
X8884369Y10963527D01*
X8651572Y10963527D01*
X8634081Y10961498D01*
X8627083Y10960686D01*
X8526910Y10916456D01*
X8449477Y10839023D01*
X8434920Y10806053D01*
X8410868Y10783087D01*
X8377622Y10783855D01*
X8355424Y10806053D01*
X8340866Y10839023D01*
X8263433Y10916456D01*
X8263434Y10916456D01*
X8163259Y10960686D01*
X8163261Y10960686D01*
X8156262Y10961498D01*
X8138772Y10963527D01*
X7711304Y10963527D01*
X7693813Y10961498D01*
X7686815Y10960686D01*
X7586642Y10916456D01*
X7509210Y10839024D01*
X7495120Y10807112D01*
X7471068Y10784147D01*
X7437821Y10784915D01*
X7415624Y10807112D01*
X7406295Y10828240D01*
X7401534Y10839023D01*
X7324102Y10916455D01*
X7324101Y10916456D01*
X7324102Y10916456D01*
X7223927Y10960686D01*
X7223929Y10960686D01*
X7216930Y10961498D01*
X7199440Y10963527D01*
X6771972Y10963527D01*
X6754481Y10961498D01*
X6747483Y10960686D01*
X6647310Y10916456D01*
X6569877Y10839023D01*
X6525647Y10738850D01*
X6525647Y10738848D01*
X6522806Y10714361D01*
X6522806Y10346893D01*
X6523832Y10338049D01*
X6525647Y10322405D01*
X6569877Y10222232D01*
X6647310Y10144799D01*
X6647309Y10144799D01*
X6655284Y10141278D01*
X6747483Y10100569D01*
X6747482Y10100569D01*
X6747485Y10100568D01*
X6771972Y10097727D01*
X7042954Y10097727D01*
X7073678Y10085001D01*
X7250428Y9908251D01*
X7250431Y9908247D01*
X7252906Y9905772D01*
X7252907Y9905770D01*
X7324049Y9834628D01*
X7378499Y9812075D01*
X7417001Y9796126D01*
X7522666Y9796126D01*
X7522674Y9796127D01*
X8328338Y9796127D01*
X8328346Y9796126D01*
X8333401Y9796126D01*
X8434011Y9796126D01*
X8472510Y9812074D01*
X8472512Y9812075D01*
X8472514Y9812076D01*
X8526963Y9834628D01*
X8598105Y9905770D01*
X8598105Y9905773D01*
X8602277Y9909944D01*
X8602279Y9909948D01*
X8777334Y10085001D01*
X8808058Y10097727D01*
X9079284Y10097727D01*
X9110008Y10085001D01*
X9122734Y10054277D01*
X9110008Y10023553D01*
X7305937Y8219481D01*
X7237919Y8151464D01*
X7237918Y8151463D01*
X7237918Y8151462D01*
X7215764Y8097976D01*
X7201106Y8062589D01*
X7201106Y7319848D01*
X7188380Y7289124D01*
X6949075Y7049819D01*
X6918351Y7037093D01*
X3908180Y7037093D01*
X3877456Y7049819D01*
X3842919Y7084356D01*
X3743321Y7135104D01*
X3743315Y7135106D01*
X3632907Y7152592D01*
X3632905Y7152592D01*
X3522496Y7135106D01*
X3522490Y7135104D01*
X3422892Y7084356D01*
X3343843Y7005307D01*
X3293095Y6905709D01*
X3293093Y6905703D01*
X3275607Y6795294D01*
X3275607Y6795293D01*
X3293093Y6684884D01*
X3293095Y6684878D01*
X3343843Y6585280D01*
X3422892Y6506231D01*
X3522490Y6455483D01*
X3522493Y6455482D01*
X3522495Y6455481D01*
X3577700Y6446738D01*
X3632905Y6437994D01*
X3632906Y6437994D01*
X3632907Y6437994D01*
X3682375Y6445829D01*
X3743317Y6455481D01*
X3842921Y6506232D01*
X3877456Y6540767D01*
X3908180Y6553493D01*
X7084601Y6553493D01*
X7084603Y6553493D01*
X7173475Y6590305D01*
X7647894Y7064724D01*
X7684706Y7153596D01*
X7684706Y7249789D01*
X7684706Y7896339D01*
X7697431Y7927062D01*
X9751637Y9981269D01*
X9776619Y9991617D01*
X9776328Y9993459D01*
X9779706Y9993994D01*
X9890117Y10011481D01*
X9989721Y10062232D01*
X10068767Y10141278D01*
X10085917Y10174939D01*
X10111205Y10196536D01*
X10144357Y10193928D01*
X10155356Y10185937D01*
X10167080Y10174213D01*
X10179806Y10143489D01*
X10179806Y8110437D01*
X10198880Y8039257D01*
X10198881Y8039256D01*
X10235730Y7975431D01*
X10419943Y7791218D01*
X10432669Y7760494D01*
X10419943Y7729770D01*
X10291044Y7600869D01*
X10238930Y7548756D01*
X10202081Y7484931D01*
X10202080Y7484930D01*
X10183006Y7413750D01*
X10183006Y6998016D01*
X10170280Y6967292D01*
X10157112Y6958271D01*
X10154513Y6957124D01*
X10154509Y6957121D01*
X10077077Y6879689D01*
X10032847Y6779516D01*
X10032847Y6779514D01*
X10030006Y6755027D01*
X10030006Y6327559D01*
X10032373Y6307154D01*
X10032847Y6303071D01*
X10077077Y6202898D01*
X10077078Y6202897D01*
X10154510Y6125465D01*
X10157104Y6124320D01*
X10180071Y6100269D01*
X10183006Y6084571D01*
X10183006Y6083616D01*
X10170280Y6052892D01*
X10157112Y6043871D01*
X10154513Y6042724D01*
X10154509Y6042721D01*
X10077077Y5965289D01*
X10032847Y5865116D01*
X10032847Y5865114D01*
X10030006Y5840627D01*
X10030006Y5413159D01*
X10032373Y5392754D01*
X10032847Y5388671D01*
X10077077Y5288498D01*
X10077078Y5288497D01*
X10154510Y5211065D01*
X10157104Y5209920D01*
X10180071Y5185869D01*
X10183006Y5170171D01*
X10183006Y4180814D01*
X10170280Y4150090D01*
X10037309Y4017119D01*
X10006585Y4004393D01*
X9982428Y4004393D01*
X9951704Y4017119D01*
X9942679Y4030295D01*
X9941534Y4032889D01*
X9864102Y4110321D01*
X9864101Y4110322D01*
X9864102Y4110322D01*
X9763927Y4154552D01*
X9763929Y4154552D01*
X9756930Y4155364D01*
X9739440Y4157393D01*
X9311972Y4157393D01*
X9294481Y4155364D01*
X9287483Y4154552D01*
X9187310Y4110322D01*
X9109878Y4032890D01*
X9108733Y4030295D01*
X9084682Y4007328D01*
X9068984Y4004393D01*
X9068028Y4004393D01*
X9037304Y4017119D01*
X9028279Y4030295D01*
X9027134Y4032889D01*
X8949702Y4110321D01*
X8949701Y4110322D01*
X8949702Y4110322D01*
X8849527Y4154552D01*
X8849529Y4154552D01*
X8842530Y4155364D01*
X8825040Y4157393D01*
X8397572Y4157393D01*
X8380081Y4155364D01*
X8373083Y4154552D01*
X8272910Y4110322D01*
X8195478Y4032890D01*
X8194333Y4030295D01*
X8170282Y4007328D01*
X8154584Y4004393D01*
X8153628Y4004393D01*
X8122904Y4017119D01*
X8113879Y4030295D01*
X8112734Y4032889D01*
X8035302Y4110321D01*
X8035301Y4110322D01*
X8035302Y4110322D01*
X7935127Y4154552D01*
X7935129Y4154552D01*
X7928130Y4155364D01*
X7910640Y4157393D01*
X7483172Y4157393D01*
X7465681Y4155364D01*
X7458683Y4154552D01*
X7358510Y4110322D01*
X7281078Y4032890D01*
X7279933Y4030295D01*
X7255882Y4007328D01*
X7240184Y4004393D01*
X7239228Y4004393D01*
X7208504Y4017119D01*
X7199479Y4030295D01*
X7198334Y4032889D01*
X7120902Y4110321D01*
X7120901Y4110322D01*
X7120902Y4110322D01*
X7020727Y4154552D01*
X7020729Y4154552D01*
X7013730Y4155364D01*
X6996240Y4157393D01*
X6568772Y4157393D01*
X6551281Y4155364D01*
X6544283Y4154552D01*
X6444110Y4110322D01*
X6366678Y4032890D01*
X6365533Y4030295D01*
X6341482Y4007328D01*
X6325784Y4004393D01*
X3332443Y4004393D01*
X3301719Y4017119D01*
X3061932Y4256906D01*
X3049206Y4287630D01*
X3049206Y4549779D01*
X3061932Y4580503D01*
X3069163Y4586331D01*
X3072118Y4588229D01*
X3158308Y4687697D01*
X3212982Y4807418D01*
X3231713Y4937693D01*
X3212982Y5067968D01*
X3158308Y5187689D01*
X3072118Y5287157D01*
X3069163Y5289056D01*
X3050199Y5316373D01*
X3049206Y5325607D01*
X3049206Y6527343D01*
X3049205Y6527350D01*
X3031612Y6593005D01*
X3031611Y6593006D01*
X3030131Y6598530D01*
X3030131Y6598531D01*
X2993282Y6662356D01*
X2933922Y6721715D01*
X2921197Y6752438D01*
X2921638Y6758610D01*
X2926913Y6795293D01*
X2921639Y6831967D01*
X2929863Y6864188D01*
X2933916Y6868867D01*
X3994318Y7929268D01*
X4025042Y7941994D01*
X4304964Y7941994D01*
X4314844Y7943960D01*
X4349564Y7950865D01*
X4349568Y7950868D01*
X4349569Y7950868D01*
X4400136Y7984656D01*
X4400136Y7984657D01*
X4400140Y7984659D01*
X4403551Y7989763D01*
X4433932Y8035232D01*
X4433934Y8035236D01*
X4439375Y8062590D01*
X4442806Y8079836D01*
X4442805Y9109949D01*
X4442805Y9109950D01*
X4442805Y9109952D01*
X4442805Y9109953D01*
X4537006Y9109953D01*
X4537006Y8079835D01*
X4540437Y8062590D01*
X4545878Y8035235D01*
X4545878Y8035234D01*
X4545880Y8035230D01*
X4579668Y7984663D01*
X4579675Y7984656D01*
X4630244Y7950867D01*
X4630248Y7950865D01*
X4674849Y7941993D01*
X5254962Y7941994D01*
X5254964Y7941994D01*
X5264844Y7943960D01*
X5299564Y7950865D01*
X5299568Y7950868D01*
X5299569Y7950868D01*
X5350136Y7984656D01*
X5350136Y7984657D01*
X5350140Y7984659D01*
X5353551Y7989763D01*
X5383932Y8035232D01*
X5383934Y8035236D01*
X5389375Y8062590D01*
X5392806Y8079836D01*
X5392805Y9109949D01*
X5392805Y9109950D01*
X5392805Y9109952D01*
X5389856Y9124773D01*
X5383934Y9154551D01*
X5383931Y9154555D01*
X5383931Y9154557D01*
X5350143Y9205124D01*
X5350136Y9205131D01*
X5299567Y9238920D01*
X5299563Y9238922D01*
X5254965Y9247793D01*
X4674847Y9247793D01*
X4635189Y9239904D01*
X4630248Y9238921D01*
X4630247Y9238921D01*
X4630242Y9238919D01*
X4579675Y9205131D01*
X4579668Y9205124D01*
X4545879Y9154555D01*
X4545877Y9154551D01*
X4537006Y9109953D01*
X4442805Y9109953D01*
X4439856Y9124773D01*
X4433934Y9154551D01*
X4433931Y9154555D01*
X4433931Y9154557D01*
X4400143Y9205124D01*
X4400136Y9205131D01*
X4349567Y9238920D01*
X4349563Y9238922D01*
X4304965Y9247793D01*
X3724847Y9247793D01*
X3685189Y9239904D01*
X3680248Y9238921D01*
X3680247Y9238921D01*
X3680242Y9238919D01*
X3629675Y9205131D01*
X3629668Y9205124D01*
X3595879Y9154555D01*
X3595877Y9154551D01*
X3587006Y9109953D01*
X3587006Y8331630D01*
X3574280Y8300906D01*
X3566979Y8293605D01*
X3536255Y8280879D01*
X3505531Y8293605D01*
X3492805Y8324329D01*
X3492805Y9109952D01*
X3489856Y9124773D01*
X3483934Y9154551D01*
X3483931Y9154555D01*
X3483931Y9154557D01*
X3450143Y9205124D01*
X3450138Y9205129D01*
X3399565Y9238921D01*
X3395612Y9240558D01*
X3396258Y9242119D01*
X3374021Y9256988D01*
X3366706Y9281116D01*
X3366706Y9314019D01*
X3379432Y9344743D01*
X3382182Y9347493D01*
X3413967Y9379278D01*
X3430884Y9412480D01*
X3464716Y9478878D01*
X3464716Y9478879D01*
X3464718Y9478882D01*
X3482205Y9589293D01*
X3479514Y9606281D01*
X3470300Y9664459D01*
X3464718Y9699704D01*
X3464717Y9699706D01*
X3464716Y9699709D01*
X3413968Y9799307D01*
X3334919Y9878356D01*
X3235321Y9929104D01*
X3235315Y9929106D01*
X3124907Y9946592D01*
X3124905Y9946592D01*
X3014496Y9929106D01*
X3014490Y9929104D01*
X2914892Y9878356D01*
X2880356Y9843819D01*
X2849632Y9831093D01*
X1668260Y9831093D01*
X1637536Y9843819D01*
X1245832Y10235524D01*
X1233106Y10266248D01*
X1233106Y11047768D01*
X1245832Y11078492D01*
X1258403Y11091063D01*
X1280367Y11113027D01*
X1322210Y11195148D01*
X1327742Y11206005D01*
X1353029Y11227602D01*
X1386182Y11224993D01*
X1407779Y11199706D01*
X1409906Y11186279D01*
X1409906Y10704190D01*
X1409906Y10607996D01*
X1446718Y10519124D01*
X1854437Y10111405D01*
X1943309Y10074593D01*
X1943311Y10074593D01*
X4259501Y10074593D01*
X4259503Y10074593D01*
X4348375Y10111405D01*
X4866237Y10629269D01*
X4896961Y10641994D01*
X5254964Y10641994D01*
X5266345Y10644258D01*
X5299564Y10650865D01*
X5299568Y10650868D01*
X5299569Y10650868D01*
X5350136Y10684656D01*
X5350136Y10684657D01*
X5350140Y10684659D01*
X5383934Y10735235D01*
X5392806Y10779836D01*
X5392805Y11783744D01*
X5405531Y11814467D01*
X5436255Y11827193D01*
X9483250Y11827193D01*
X9502976Y11822457D01*
G37*
%TD.AperFunction*%
%TA.AperFunction,Conductor*%
G36*
X10257373Y16186774D02*
G01*
X10270099Y16156050D01*
X10270099Y13184942D01*
X10277005Y13150225D01*
X10278971Y13140342D01*
X10278971Y13140341D01*
X10278973Y13140337D01*
X10312761Y13089770D01*
X10312768Y13089763D01*
X10363337Y13055974D01*
X10363341Y13055972D01*
X10407942Y13047100D01*
X11438055Y13047101D01*
X11438057Y13047101D01*
X11447937Y13049067D01*
X11482657Y13055972D01*
X11482661Y13055975D01*
X11482662Y13055975D01*
X11533229Y13089763D01*
X11533229Y13089764D01*
X11533233Y13089766D01*
X11534586Y13091790D01*
X11567025Y13140339D01*
X11567027Y13140343D01*
X11575899Y13184941D01*
X11575899Y14490150D01*
X11588625Y14520874D01*
X11619349Y14533600D01*
X11928166Y14533600D01*
X11958890Y14520874D01*
X12634180Y13845584D01*
X12646906Y13814860D01*
X12646906Y12397643D01*
X12634180Y12366919D01*
X12603457Y12354193D01*
X12573247Y12354193D01*
X12533589Y12346304D01*
X12528648Y12345321D01*
X12528647Y12345321D01*
X12528642Y12345319D01*
X12478075Y12311531D01*
X12478068Y12311524D01*
X12444279Y12260955D01*
X12444277Y12260951D01*
X12435406Y12216353D01*
X12435406Y12216352D01*
X12435406Y12216350D01*
X12435406Y11729707D01*
X12435407Y11271543D01*
X12422681Y11240819D01*
X12391957Y11228093D01*
X11559140Y11228093D01*
X11528416Y11240819D01*
X11403931Y11365304D01*
X11391205Y11396028D01*
X11391205Y12216352D01*
X11388256Y12231173D01*
X11382334Y12260951D01*
X11382331Y12260955D01*
X11382331Y12260957D01*
X11348543Y12311524D01*
X11348536Y12311531D01*
X11297967Y12345320D01*
X11297963Y12345322D01*
X11253365Y12354193D01*
X11253363Y12354193D01*
X10844040Y12354193D01*
X10813316Y12366919D01*
X9958032Y13222203D01*
X9945306Y13252927D01*
X9945306Y14407537D01*
X9939271Y14422107D01*
X9912361Y14487074D01*
X9851487Y14547948D01*
X9851486Y14547949D01*
X9526854Y14872580D01*
X9526854Y14872581D01*
X9465980Y14933455D01*
X9386444Y14966400D01*
X9386442Y14966400D01*
X9079348Y14966400D01*
X9048624Y14979126D01*
X9035898Y15009850D01*
X9035898Y16156050D01*
X9048624Y16186774D01*
X9079348Y16199500D01*
X10226649Y16199500D01*
X10257373Y16186774D01*
G37*
%TD.AperFunction*%
%TA.AperFunction,Conductor*%
G36*
X6817568Y14495474D02*
G01*
X7086780Y14226262D01*
X7099506Y14195538D01*
X7099506Y13408790D01*
X7099506Y13312596D01*
X7136318Y13223724D01*
X7136319Y13223723D01*
X7438047Y12921995D01*
X7450773Y12891271D01*
X7438047Y12860547D01*
X7407323Y12847821D01*
X7256531Y12847821D01*
X7160337Y12847821D01*
X7071465Y12811009D01*
X7071463Y12811008D01*
X6863375Y12602919D01*
X6832651Y12590193D01*
X6738910Y12590193D01*
X6708186Y12602919D01*
X6367224Y12943881D01*
X6319838Y12963509D01*
X6296324Y12987023D01*
X6296323Y13020278D01*
X6319838Y13043793D01*
X6336465Y13047101D01*
X6358055Y13047101D01*
X6358057Y13047101D01*
X6367937Y13049067D01*
X6402657Y13055972D01*
X6402661Y13055975D01*
X6402662Y13055975D01*
X6453229Y13089763D01*
X6453229Y13089764D01*
X6453233Y13089766D01*
X6454586Y13091790D01*
X6487025Y13140339D01*
X6487027Y13140343D01*
X6495899Y13184941D01*
X6495899Y14464750D01*
X6508625Y14495474D01*
X6539349Y14508200D01*
X6786844Y14508200D01*
X6817568Y14495474D01*
G37*
%TD.AperFunction*%
%TD*%
M02*
