%TF.GenerationSoftware,KiCad,Pcbnew,8.0.3*%
%TF.CreationDate,2024-06-28T03:43:35+08:00*%
%TF.ProjectId,hpm_dap,68706d5f-6461-4702-9e6b-696361645f70,rev?*%
%TF.SameCoordinates,Original*%
%TF.FileFunction,Legend,Bot*%
%TF.FilePolarity,Positive*%
%FSLAX46Y46*%
G04 Gerber Fmt 4.6, Leading zero omitted, Abs format (unit mm)*
G04 Created by KiCad (PCBNEW 8.0.3) date 2024-06-28 03:43:35*
%MOMM*%
%LPD*%
G01*
G04 APERTURE LIST*
%ADD10C,0.150000*%
%ADD11C,0.200000*%
%ADD12C,0.120000*%
%ADD13C,0.100000*%
G04 APERTURE END LIST*
D10*
X65388876Y-25440619D02*
X64817448Y-25440619D01*
X65103162Y-26440619D02*
X65103162Y-25440619D01*
X64579352Y-25440619D02*
X63912686Y-26440619D01*
X63912686Y-25440619D02*
X64579352Y-26440619D01*
X62563113Y-27200219D02*
X62896446Y-26724028D01*
X63134541Y-27200219D02*
X63134541Y-26200219D01*
X63134541Y-26200219D02*
X62753589Y-26200219D01*
X62753589Y-26200219D02*
X62658351Y-26247838D01*
X62658351Y-26247838D02*
X62610732Y-26295457D01*
X62610732Y-26295457D02*
X62563113Y-26390695D01*
X62563113Y-26390695D02*
X62563113Y-26533552D01*
X62563113Y-26533552D02*
X62610732Y-26628790D01*
X62610732Y-26628790D02*
X62658351Y-26676409D01*
X62658351Y-26676409D02*
X62753589Y-26724028D01*
X62753589Y-26724028D02*
X63134541Y-26724028D01*
X62229779Y-26200219D02*
X61563113Y-27200219D01*
X61563113Y-26200219D02*
X62229779Y-27200219D01*
X61475443Y-25440619D02*
X60904015Y-25440619D01*
X61189729Y-26440619D02*
X61189729Y-25440619D01*
X60570681Y-26440619D02*
X60570681Y-25440619D01*
X60570681Y-25440619D02*
X60332586Y-25440619D01*
X60332586Y-25440619D02*
X60189729Y-25488238D01*
X60189729Y-25488238D02*
X60094491Y-25583476D01*
X60094491Y-25583476D02*
X60046872Y-25678714D01*
X60046872Y-25678714D02*
X59999253Y-25869190D01*
X59999253Y-25869190D02*
X59999253Y-26012047D01*
X59999253Y-26012047D02*
X60046872Y-26202523D01*
X60046872Y-26202523D02*
X60094491Y-26297761D01*
X60094491Y-26297761D02*
X60189729Y-26393000D01*
X60189729Y-26393000D02*
X60332586Y-26440619D01*
X60332586Y-26440619D02*
X60570681Y-26440619D01*
X59380205Y-25440619D02*
X59189729Y-25440619D01*
X59189729Y-25440619D02*
X59094491Y-25488238D01*
X59094491Y-25488238D02*
X58999253Y-25583476D01*
X58999253Y-25583476D02*
X58951634Y-25773952D01*
X58951634Y-25773952D02*
X58951634Y-26107285D01*
X58951634Y-26107285D02*
X58999253Y-26297761D01*
X58999253Y-26297761D02*
X59094491Y-26393000D01*
X59094491Y-26393000D02*
X59189729Y-26440619D01*
X59189729Y-26440619D02*
X59380205Y-26440619D01*
X59380205Y-26440619D02*
X59475443Y-26393000D01*
X59475443Y-26393000D02*
X59570681Y-26297761D01*
X59570681Y-26297761D02*
X59618300Y-26107285D01*
X59618300Y-26107285D02*
X59618300Y-25773952D01*
X59618300Y-25773952D02*
X59570681Y-25583476D01*
X59570681Y-25583476D02*
X59475443Y-25488238D01*
X59475443Y-25488238D02*
X59380205Y-25440619D01*
X58721108Y-27200219D02*
X58721108Y-26200219D01*
X58721108Y-26200219D02*
X58149680Y-27200219D01*
X58149680Y-27200219D02*
X58149680Y-26200219D01*
X57102061Y-27104980D02*
X57149680Y-27152600D01*
X57149680Y-27152600D02*
X57292537Y-27200219D01*
X57292537Y-27200219D02*
X57387775Y-27200219D01*
X57387775Y-27200219D02*
X57530632Y-27152600D01*
X57530632Y-27152600D02*
X57625870Y-27057361D01*
X57625870Y-27057361D02*
X57673489Y-26962123D01*
X57673489Y-26962123D02*
X57721108Y-26771647D01*
X57721108Y-26771647D02*
X57721108Y-26628790D01*
X57721108Y-26628790D02*
X57673489Y-26438314D01*
X57673489Y-26438314D02*
X57625870Y-26343076D01*
X57625870Y-26343076D02*
X57530632Y-26247838D01*
X57530632Y-26247838D02*
X57387775Y-26200219D01*
X57387775Y-26200219D02*
X57292537Y-26200219D01*
X57292537Y-26200219D02*
X57149680Y-26247838D01*
X57149680Y-26247838D02*
X57102061Y-26295457D01*
D11*
X56770783Y-25588019D02*
X56199355Y-25588019D01*
X56485069Y-26588019D02*
X56485069Y-25588019D01*
X55866021Y-26588019D02*
X55866021Y-25588019D01*
X55866021Y-25588019D02*
X55627926Y-25588019D01*
X55627926Y-25588019D02*
X55485069Y-25635638D01*
X55485069Y-25635638D02*
X55389831Y-25730876D01*
X55389831Y-25730876D02*
X55342212Y-25826114D01*
X55342212Y-25826114D02*
X55294593Y-26016590D01*
X55294593Y-26016590D02*
X55294593Y-26159447D01*
X55294593Y-26159447D02*
X55342212Y-26349923D01*
X55342212Y-26349923D02*
X55389831Y-26445161D01*
X55389831Y-26445161D02*
X55485069Y-26540400D01*
X55485069Y-26540400D02*
X55627926Y-26588019D01*
X55627926Y-26588019D02*
X55866021Y-26588019D01*
X54866021Y-26588019D02*
X54866021Y-25588019D01*
D12*
%TO.C,R11*%
X77781760Y-38941159D02*
X77781760Y-39248441D01*
X78541760Y-38941159D02*
X78541760Y-39248441D01*
%TO.C,R10*%
X76816560Y-38941159D02*
X76816560Y-39248441D01*
X77576560Y-38941159D02*
X77576560Y-39248441D01*
D13*
%TO.C,D3*%
X79831200Y-31581600D02*
X79481200Y-31581600D01*
X79831200Y-31231600D02*
X79831200Y-31581600D01*
X79831200Y-29581600D02*
X79831200Y-29931600D01*
X79481200Y-29581600D02*
X79831200Y-29581600D01*
X76881200Y-29531600D02*
X76881200Y-28931600D01*
X76531200Y-31581600D02*
X76881200Y-31581600D01*
X76531200Y-31231600D02*
X76531200Y-31581600D01*
X76531200Y-29981600D02*
X76881200Y-29531600D01*
D12*
%TO.C,C14*%
X76142964Y-35666000D02*
X76358636Y-35666000D01*
X76142964Y-34946000D02*
X76358636Y-34946000D01*
%TO.C,C5*%
X75493200Y-29814430D02*
X75493200Y-30030102D01*
X74773200Y-29814430D02*
X74773200Y-30030102D01*
%TO.C,C1*%
X74552932Y-29814430D02*
X74552932Y-30030102D01*
X73832932Y-29814430D02*
X73832932Y-30030102D01*
D13*
%TO.C,D2*%
X71932800Y-31988000D02*
X71582800Y-31988000D01*
X71932800Y-31638000D02*
X71932800Y-31988000D01*
X71932800Y-29988000D02*
X71932800Y-30338000D01*
X71582800Y-29988000D02*
X71932800Y-29988000D01*
X68982800Y-29938000D02*
X68982800Y-29338000D01*
X68632800Y-31988000D02*
X68982800Y-31988000D01*
X68632800Y-31638000D02*
X68632800Y-31988000D01*
X68632800Y-30388000D02*
X68982800Y-29938000D01*
D12*
%TO.C,C8*%
X73410400Y-36620564D02*
X73410400Y-36836236D01*
X72690400Y-36620564D02*
X72690400Y-36836236D01*
%TO.C,C18*%
X76610800Y-39202636D02*
X76610800Y-38986964D01*
X75890800Y-39202636D02*
X75890800Y-38986964D01*
%TO.C,C9*%
X74324800Y-36620564D02*
X74324800Y-36836236D01*
X73604800Y-36620564D02*
X73604800Y-36836236D01*
%TO.C,L2*%
X79756475Y-36011690D02*
X79756475Y-35311690D01*
X77556475Y-36011690D02*
X77556475Y-35311690D01*
%TO.C,C10*%
X75239200Y-36620564D02*
X75239200Y-36836236D01*
X74519200Y-36620564D02*
X74519200Y-36836236D01*
%TO.C,C6*%
X73613600Y-29814430D02*
X73613600Y-30030102D01*
X72893600Y-29814430D02*
X72893600Y-30030102D01*
D11*
%TO.C,D1*%
X64147500Y-37307600D02*
G75*
G02*
X64020500Y-37307600I-63500J0D01*
G01*
X64020500Y-37307600D02*
G75*
G02*
X64147500Y-37307600I63500J0D01*
G01*
D12*
X64284000Y-37007600D02*
X64284000Y-33307600D01*
X64284000Y-33307600D02*
X60684000Y-33307600D01*
X60684000Y-37507600D02*
X63784000Y-37507600D01*
X60684000Y-33307600D02*
X60684000Y-37507600D01*
%TO.C,C11*%
X76153600Y-36620564D02*
X76153600Y-36836236D01*
X75433600Y-36620564D02*
X75433600Y-36836236D01*
%TO.C,C4*%
X75086800Y-39182636D02*
X75086800Y-38966964D01*
X74366800Y-39182636D02*
X74366800Y-38966964D01*
%TO.C,C13*%
X76142964Y-34751600D02*
X76358636Y-34751600D01*
X76142964Y-34031600D02*
X76358636Y-34031600D01*
%TD*%
M02*
