%TF.GenerationSoftware,KiCad,Pcbnew,8.0.3*%
%TF.CreationDate,2024-06-28T03:43:35+08:00*%
%TF.ProjectId,hpm_dap,68706d5f-6461-4702-9e6b-696361645f70,rev?*%
%TF.SameCoordinates,Original*%
%TF.FileFunction,Legend,Top*%
%TF.FilePolarity,Positive*%
%FSLAX46Y46*%
G04 Gerber Fmt 4.6, Leading zero omitted, Abs format (unit mm)*
G04 Created by KiCad (PCBNEW 8.0.3) date 2024-06-28 03:43:35*
%MOMM*%
%LPD*%
G01*
G04 APERTURE LIST*
%ADD10C,0.150000*%
%ADD11C,0.200000*%
%ADD12C,0.120000*%
%ADD13C,0.100000*%
G04 APERTURE END LIST*
D10*
X76146188Y-25841438D02*
X76050950Y-25793819D01*
X76050950Y-25793819D02*
X75908093Y-25793819D01*
X75908093Y-25793819D02*
X75765236Y-25841438D01*
X75765236Y-25841438D02*
X75669998Y-25936676D01*
X75669998Y-25936676D02*
X75622379Y-26031914D01*
X75622379Y-26031914D02*
X75574760Y-26222390D01*
X75574760Y-26222390D02*
X75574760Y-26365247D01*
X75574760Y-26365247D02*
X75622379Y-26555723D01*
X75622379Y-26555723D02*
X75669998Y-26650961D01*
X75669998Y-26650961D02*
X75765236Y-26746200D01*
X75765236Y-26746200D02*
X75908093Y-26793819D01*
X75908093Y-26793819D02*
X76003331Y-26793819D01*
X76003331Y-26793819D02*
X76146188Y-26746200D01*
X76146188Y-26746200D02*
X76193807Y-26698580D01*
X76193807Y-26698580D02*
X76193807Y-26365247D01*
X76193807Y-26365247D02*
X76003331Y-26365247D01*
X73133179Y-26793819D02*
X73133179Y-25793819D01*
X73133179Y-25793819D02*
X73371274Y-25793819D01*
X73371274Y-25793819D02*
X73514131Y-25841438D01*
X73514131Y-25841438D02*
X73609369Y-25936676D01*
X73609369Y-25936676D02*
X73656988Y-26031914D01*
X73656988Y-26031914D02*
X73704607Y-26222390D01*
X73704607Y-26222390D02*
X73704607Y-26365247D01*
X73704607Y-26365247D02*
X73656988Y-26555723D01*
X73656988Y-26555723D02*
X73609369Y-26650961D01*
X73609369Y-26650961D02*
X73514131Y-26746200D01*
X73514131Y-26746200D02*
X73371274Y-26793819D01*
X73371274Y-26793819D02*
X73133179Y-26793819D01*
X71164607Y-26698580D02*
X71116988Y-26746200D01*
X71116988Y-26746200D02*
X70974131Y-26793819D01*
X70974131Y-26793819D02*
X70878893Y-26793819D01*
X70878893Y-26793819D02*
X70736036Y-26746200D01*
X70736036Y-26746200D02*
X70640798Y-26650961D01*
X70640798Y-26650961D02*
X70593179Y-26555723D01*
X70593179Y-26555723D02*
X70545560Y-26365247D01*
X70545560Y-26365247D02*
X70545560Y-26222390D01*
X70545560Y-26222390D02*
X70593179Y-26031914D01*
X70593179Y-26031914D02*
X70640798Y-25936676D01*
X70640798Y-25936676D02*
X70736036Y-25841438D01*
X70736036Y-25841438D02*
X70878893Y-25793819D01*
X70878893Y-25793819D02*
X70974131Y-25793819D01*
X70974131Y-25793819D02*
X71116988Y-25841438D01*
X71116988Y-25841438D02*
X71164607Y-25889057D01*
X78416379Y-26793819D02*
X78416379Y-25793819D01*
X78416379Y-25793819D02*
X78987807Y-26793819D01*
X78987807Y-26793819D02*
X78987807Y-25793819D01*
X80035426Y-26698580D02*
X79987807Y-26746200D01*
X79987807Y-26746200D02*
X79844950Y-26793819D01*
X79844950Y-26793819D02*
X79749712Y-26793819D01*
X79749712Y-26793819D02*
X79606855Y-26746200D01*
X79606855Y-26746200D02*
X79511617Y-26650961D01*
X79511617Y-26650961D02*
X79463998Y-26555723D01*
X79463998Y-26555723D02*
X79416379Y-26365247D01*
X79416379Y-26365247D02*
X79416379Y-26222390D01*
X79416379Y-26222390D02*
X79463998Y-26031914D01*
X79463998Y-26031914D02*
X79511617Y-25936676D01*
X79511617Y-25936676D02*
X79606855Y-25841438D01*
X79606855Y-25841438D02*
X79749712Y-25793819D01*
X79749712Y-25793819D02*
X79844950Y-25793819D01*
X79844950Y-25793819D02*
X79987807Y-25841438D01*
X79987807Y-25841438D02*
X80035426Y-25889057D01*
X68523007Y-26793819D02*
X68189674Y-26317628D01*
X67951579Y-26793819D02*
X67951579Y-25793819D01*
X67951579Y-25793819D02*
X68332531Y-25793819D01*
X68332531Y-25793819D02*
X68427769Y-25841438D01*
X68427769Y-25841438D02*
X68475388Y-25889057D01*
X68475388Y-25889057D02*
X68523007Y-25984295D01*
X68523007Y-25984295D02*
X68523007Y-26127152D01*
X68523007Y-26127152D02*
X68475388Y-26222390D01*
X68475388Y-26222390D02*
X68427769Y-26270009D01*
X68427769Y-26270009D02*
X68332531Y-26317628D01*
X68332531Y-26317628D02*
X67951579Y-26317628D01*
D11*
X63796606Y-29315409D02*
X63939463Y-29363028D01*
X63939463Y-29363028D02*
X63987082Y-29410647D01*
X63987082Y-29410647D02*
X64034701Y-29505885D01*
X64034701Y-29505885D02*
X64034701Y-29648742D01*
X64034701Y-29648742D02*
X63987082Y-29743980D01*
X63987082Y-29743980D02*
X63939463Y-29791600D01*
X63939463Y-29791600D02*
X63844225Y-29839219D01*
X63844225Y-29839219D02*
X63463273Y-29839219D01*
X63463273Y-29839219D02*
X63463273Y-28839219D01*
X63463273Y-28839219D02*
X63796606Y-28839219D01*
X63796606Y-28839219D02*
X63891844Y-28886838D01*
X63891844Y-28886838D02*
X63939463Y-28934457D01*
X63939463Y-28934457D02*
X63987082Y-29029695D01*
X63987082Y-29029695D02*
X63987082Y-29124933D01*
X63987082Y-29124933D02*
X63939463Y-29220171D01*
X63939463Y-29220171D02*
X63891844Y-29267790D01*
X63891844Y-29267790D02*
X63796606Y-29315409D01*
X63796606Y-29315409D02*
X63463273Y-29315409D01*
X64653749Y-28839219D02*
X64844225Y-28839219D01*
X64844225Y-28839219D02*
X64939463Y-28886838D01*
X64939463Y-28886838D02*
X65034701Y-28982076D01*
X65034701Y-28982076D02*
X65082320Y-29172552D01*
X65082320Y-29172552D02*
X65082320Y-29505885D01*
X65082320Y-29505885D02*
X65034701Y-29696361D01*
X65034701Y-29696361D02*
X64939463Y-29791600D01*
X64939463Y-29791600D02*
X64844225Y-29839219D01*
X64844225Y-29839219D02*
X64653749Y-29839219D01*
X64653749Y-29839219D02*
X64558511Y-29791600D01*
X64558511Y-29791600D02*
X64463273Y-29696361D01*
X64463273Y-29696361D02*
X64415654Y-29505885D01*
X64415654Y-29505885D02*
X64415654Y-29172552D01*
X64415654Y-29172552D02*
X64463273Y-28982076D01*
X64463273Y-28982076D02*
X64558511Y-28886838D01*
X64558511Y-28886838D02*
X64653749Y-28839219D01*
X65701368Y-28839219D02*
X65891844Y-28839219D01*
X65891844Y-28839219D02*
X65987082Y-28886838D01*
X65987082Y-28886838D02*
X66082320Y-28982076D01*
X66082320Y-28982076D02*
X66129939Y-29172552D01*
X66129939Y-29172552D02*
X66129939Y-29505885D01*
X66129939Y-29505885D02*
X66082320Y-29696361D01*
X66082320Y-29696361D02*
X65987082Y-29791600D01*
X65987082Y-29791600D02*
X65891844Y-29839219D01*
X65891844Y-29839219D02*
X65701368Y-29839219D01*
X65701368Y-29839219D02*
X65606130Y-29791600D01*
X65606130Y-29791600D02*
X65510892Y-29696361D01*
X65510892Y-29696361D02*
X65463273Y-29505885D01*
X65463273Y-29505885D02*
X65463273Y-29172552D01*
X65463273Y-29172552D02*
X65510892Y-28982076D01*
X65510892Y-28982076D02*
X65606130Y-28886838D01*
X65606130Y-28886838D02*
X65701368Y-28839219D01*
X66415654Y-28839219D02*
X66987082Y-28839219D01*
X66701368Y-29839219D02*
X66701368Y-28839219D01*
D12*
%TO.C,C23*%
X73613600Y-29814430D02*
X73613600Y-30030102D01*
X72893600Y-29814430D02*
X72893600Y-30030102D01*
%TO.C,U1*%
X77351200Y-37574800D02*
X76801200Y-37574800D01*
X77351200Y-37024800D02*
X77351200Y-37574800D01*
X77351200Y-31904800D02*
X77351200Y-31354800D01*
X77351200Y-31354800D02*
X76801200Y-31354800D01*
X71131200Y-37024800D02*
X71131200Y-37574800D01*
X71131200Y-31904800D02*
X71131200Y-31354800D01*
X71131200Y-31354800D02*
X71681200Y-31354800D01*
%TO.C,C19*%
X58592142Y-26565179D02*
X58592142Y-26780851D01*
X57872142Y-26565179D02*
X57872142Y-26780851D01*
%TO.C,C15*%
X79152636Y-33777200D02*
X78936964Y-33777200D01*
X79152636Y-33057200D02*
X78936964Y-33057200D01*
%TO.C,R9*%
X68248800Y-36351559D02*
X68248800Y-36658841D01*
X67488800Y-36351559D02*
X67488800Y-36658841D01*
%TO.C,C24*%
X73664400Y-39162636D02*
X73664400Y-38946964D01*
X72944400Y-39162636D02*
X72944400Y-38946964D01*
%TO.C,R8*%
X68172359Y-38530800D02*
X68479641Y-38530800D01*
X68172359Y-37770800D02*
X68479641Y-37770800D01*
D13*
%TO.C,X1*%
X71387000Y-30441200D02*
X70962000Y-30441200D01*
X71387000Y-29141200D02*
X70962000Y-29141200D01*
X69837000Y-30441200D02*
X70262000Y-30441200D01*
X69837000Y-29141200D02*
X70262000Y-29141200D01*
D12*
%TO.C,F1*%
X57137200Y-29133600D02*
X57137200Y-25933600D01*
X57137200Y-25933600D02*
X55537200Y-25933600D01*
X55537200Y-29133600D02*
X57137200Y-29133600D01*
X55537200Y-25933600D02*
X55537200Y-29133600D01*
%TO.C,SW1*%
X66746400Y-34836000D02*
X66446400Y-34836000D01*
X66746400Y-30696000D02*
X66746400Y-34836000D01*
X66446400Y-30696000D02*
X66746400Y-30696000D01*
X63906400Y-34836000D02*
X63606400Y-34836000D01*
X63606400Y-34836000D02*
X63606400Y-30696000D01*
X63606400Y-30696000D02*
X63906400Y-30696000D01*
%TO.C,C20*%
X62041864Y-25622582D02*
X62257536Y-25622582D01*
X62041864Y-24902582D02*
X62257536Y-24902582D01*
%TO.C,R1*%
X76836000Y-38941159D02*
X76836000Y-39248441D01*
X77596000Y-38941159D02*
X77596000Y-39248441D01*
%TO.C,R3*%
X62969700Y-26565959D02*
X62969700Y-26873241D01*
X62209700Y-26565959D02*
X62209700Y-26873241D01*
%TO.C,RN2*%
X79321200Y-29577600D02*
X79321200Y-30077600D01*
X77041200Y-29577600D02*
X77041200Y-30077600D01*
%TO.C,C3*%
X72394400Y-38946964D02*
X72394400Y-39162636D01*
X71674400Y-38946964D02*
X71674400Y-39162636D01*
%TO.C,U2*%
X59401200Y-25533600D02*
X59121200Y-25533600D01*
X59401200Y-25253600D01*
X59401200Y-25533600D01*
G36*
X59401200Y-25533600D02*
G01*
X59121200Y-25533600D01*
X59401200Y-25253600D01*
X59401200Y-25533600D01*
G37*
X59111200Y-25923600D02*
X61801200Y-25923600D01*
X59001200Y-29143600D02*
X61801200Y-29143600D01*
%TO.C,C12*%
X77788880Y-38986964D02*
X77788880Y-39202636D01*
X78508880Y-38986964D02*
X78508880Y-39202636D01*
%TO.C,R5*%
X62965600Y-30224759D02*
X62965600Y-30532041D01*
X62205600Y-30224759D02*
X62205600Y-30532041D01*
%TO.C,C16*%
X79152636Y-34700800D02*
X78936964Y-34700800D01*
X79152636Y-33980800D02*
X78936964Y-33980800D01*
%TO.C,R7*%
X62279559Y-37798893D02*
X62586841Y-37798893D01*
X62279559Y-37038893D02*
X62586841Y-37038893D01*
%TO.C,J1*%
X56585893Y-40338893D02*
X58285893Y-40338893D01*
X56585893Y-30998893D02*
X58285893Y-30998893D01*
%TO.C,R6*%
X62279559Y-33552400D02*
X62586841Y-33552400D01*
X62279559Y-32792400D02*
X62586841Y-32792400D01*
%TO.C,C7*%
X70464000Y-36397364D02*
X70464000Y-36613036D01*
X69744000Y-36397364D02*
X69744000Y-36613036D01*
%TO.C,R4*%
X75106800Y-39248441D02*
X75106800Y-38941159D01*
X74346800Y-39248441D02*
X74346800Y-38941159D01*
%TO.C,R2*%
X62969700Y-28345959D02*
X62969700Y-28653241D01*
X62209700Y-28345959D02*
X62209700Y-28653241D01*
%TO.C,RN1*%
X69313600Y-31601600D02*
X69313600Y-32101600D01*
X67033600Y-31601600D02*
X67033600Y-32101600D01*
%TO.C,C17*%
X76610800Y-38986964D02*
X76610800Y-39202636D01*
X75890800Y-38986964D02*
X75890800Y-39202636D01*
%TO.C,D5*%
X66204900Y-37161800D02*
X63919900Y-37161800D01*
X63919900Y-38631800D02*
X66204900Y-38631800D01*
X63919900Y-37161800D02*
X63919900Y-38631800D01*
%TO.C,C22*%
X75493200Y-29814430D02*
X75493200Y-30030102D01*
X74773200Y-29814430D02*
X74773200Y-30030102D01*
%TO.C,C21*%
X58592142Y-28604153D02*
X58592142Y-28388481D01*
X57872142Y-28604153D02*
X57872142Y-28388481D01*
%TO.C,D4*%
X66204900Y-35573400D02*
X63919900Y-35573400D01*
X63919900Y-37043400D02*
X66204900Y-37043400D01*
X63919900Y-35573400D02*
X63919900Y-37043400D01*
%TD*%
M02*
