%TF.GenerationSoftware,KiCad,Pcbnew,8.0.3*%
%TF.CreationDate,2024-06-28T03:43:35+08:00*%
%TF.ProjectId,hpm_dap,68706d5f-6461-4702-9e6b-696361645f70,rev?*%
%TF.SameCoordinates,Original*%
%TF.FileFunction,Paste,Bot*%
%TF.FilePolarity,Positive*%
%FSLAX46Y46*%
G04 Gerber Fmt 4.6, Leading zero omitted, Abs format (unit mm)*
G04 Created by KiCad (PCBNEW 8.0.3) date 2024-06-28 03:43:35*
%MOMM*%
%LPD*%
G01*
G04 APERTURE LIST*
G04 Aperture macros list*
%AMRoundRect*
0 Rectangle with rounded corners*
0 $1 Rounding radius*
0 $2 $3 $4 $5 $6 $7 $8 $9 X,Y pos of 4 corners*
0 Add a 4 corners polygon primitive as box body*
4,1,4,$2,$3,$4,$5,$6,$7,$8,$9,$2,$3,0*
0 Add four circle primitives for the rounded corners*
1,1,$1+$1,$2,$3*
1,1,$1+$1,$4,$5*
1,1,$1+$1,$6,$7*
1,1,$1+$1,$8,$9*
0 Add four rect primitives between the rounded corners*
20,1,$1+$1,$2,$3,$4,$5,0*
20,1,$1+$1,$4,$5,$6,$7,0*
20,1,$1+$1,$6,$7,$8,$9,0*
20,1,$1+$1,$8,$9,$2,$3,0*%
G04 Aperture macros list end*
%ADD10RoundRect,0.135000X0.185000X-0.135000X0.185000X0.135000X-0.185000X0.135000X-0.185000X-0.135000X0*%
%ADD11R,1.000000X3.100000*%
%ADD12R,0.550000X1.000000*%
%ADD13RoundRect,0.140000X0.140000X0.170000X-0.140000X0.170000X-0.140000X-0.170000X0.140000X-0.170000X0*%
%ADD14RoundRect,0.140000X0.170000X-0.140000X0.170000X0.140000X-0.170000X0.140000X-0.170000X-0.140000X0*%
%ADD15RoundRect,0.140000X-0.170000X0.140000X-0.170000X-0.140000X0.170000X-0.140000X0.170000X0.140000X0*%
%ADD16R,2.300000X0.850000*%
%ADD17RoundRect,0.250000X0.250000X0.450000X-0.250000X0.450000X-0.250000X-0.450000X0.250000X-0.450000X0*%
%ADD18RoundRect,0.250000X0.350000X0.450000X-0.350000X0.450000X-0.350000X-0.450000X0.350000X-0.450000X0*%
G04 APERTURE END LIST*
D10*
%TO.C,R11*%
X78161760Y-38584800D03*
X78161760Y-39604800D03*
%TD*%
%TO.C,R10*%
X77196560Y-38584800D03*
X77196560Y-39604800D03*
%TD*%
D11*
%TO.C,J2*%
X67030893Y-26182893D03*
X69570893Y-26182893D03*
X72110893Y-26182893D03*
X74650893Y-26182893D03*
X77190893Y-26182893D03*
%TD*%
D12*
%TO.C,D3*%
X77231200Y-31931600D03*
X78181200Y-31931600D03*
X79131200Y-31931600D03*
X79131200Y-29231600D03*
X78181200Y-29231600D03*
X77231200Y-29231600D03*
%TD*%
D13*
%TO.C,C14*%
X75770800Y-35306000D03*
X76730800Y-35306000D03*
%TD*%
D14*
%TO.C,C5*%
X75133200Y-29442266D03*
X75133200Y-30402266D03*
%TD*%
%TO.C,C1*%
X74192932Y-29442266D03*
X74192932Y-30402266D03*
%TD*%
D12*
%TO.C,D2*%
X69332800Y-32338000D03*
X70282800Y-32338000D03*
X71232800Y-32338000D03*
X71232800Y-29638000D03*
X70282800Y-29638000D03*
X69332800Y-29638000D03*
%TD*%
D14*
%TO.C,C8*%
X73050400Y-36248400D03*
X73050400Y-37208400D03*
%TD*%
D15*
%TO.C,C18*%
X76250800Y-39574800D03*
X76250800Y-38614800D03*
%TD*%
D14*
%TO.C,C9*%
X73964800Y-36248400D03*
X73964800Y-37208400D03*
%TD*%
D16*
%TO.C,L2*%
X78656475Y-36636690D03*
X78656475Y-34686690D03*
%TD*%
D14*
%TO.C,C10*%
X74879200Y-36248400D03*
X74879200Y-37208400D03*
%TD*%
%TO.C,C6*%
X73253600Y-29442266D03*
X73253600Y-30402266D03*
%TD*%
D17*
%TO.C,D1*%
X63434000Y-34307600D03*
X61534000Y-34307600D03*
X61534000Y-36507600D03*
D18*
X63254000Y-36507600D03*
%TD*%
D14*
%TO.C,C11*%
X75793600Y-36248400D03*
X75793600Y-37208400D03*
%TD*%
D15*
%TO.C,C4*%
X74726800Y-39554800D03*
X74726800Y-38594800D03*
%TD*%
D13*
%TO.C,C13*%
X75770800Y-34391600D03*
X76730800Y-34391600D03*
%TD*%
M02*
