M48
; DRILL file {KiCad 8.0.3} date 2024-06-28T03:43:59+0800
; FORMAT={-:-/ absolute / metric / decimal}
; #@! TF.CreationDate,2024-06-28T03:43:59+08:00
; #@! TF.GenerationSoftware,Kicad,Pcbnew,8.0.3
; #@! TF.FileFunction,Plated,1,2,PTH
FMAT,2
METRIC
; #@! TA.AperFunction,Plated,PTH,ViaDrill
T1C0.300
; #@! TA.AperFunction,Plated,PTH,ViaDrill
T2C0.305
; #@! TA.AperFunction,Plated,PTH,ComponentDrill
T3C0.600
%
G90
G05
T1
X-8.813Y14.212
X-5.867Y13.958
X-5.867Y13.399
X-5.867Y12.84
X-4.139Y5.852
X-4.139Y5.3
X0.991Y11.323
X1.652Y11.57
X2.16Y10.707
X3.125Y9.589
X3.633Y6.795
X4.598Y2.426
X4.852Y9.907
X6.275Y11.367
X6.411Y2.358
X6.783Y12.739
X6.986Y10.531
X7.748Y2.353
X7.925Y10.531
X8.865Y10.531
X9.272Y1.817
X9.31Y12.606
X9.475Y11.367
X9.678Y12.129
X9.78Y10.351
X9.983Y2.318
X10.135Y11.52
X10.847Y3.595
X10.999Y9.945
X11.405Y3.087
X12.066Y12.79
X12.389Y4.296
X12.577Y5.787
X13.336Y10.097
T2
X-12.42Y7.608
X-12.42Y6.338
X-12.42Y5.068
X-12.42Y3.798
X-12.318Y15.939
X-12.318Y14.669
X-12.318Y13.399
X-12.318Y12.129
X-11.048Y15.939
X-9.778Y15.939
X-8.508Y15.939
X-7.238Y15.939
X-5.968Y15.939
X-4.038Y1.258
X-2.768Y1.258
X-2.615Y16.244
X-2.565Y12.637
X-1.498Y1.258
X-1.345Y16.244
X-1.295Y12.637
X-1.295Y8.624
X-0.228Y1.258
X-0.025Y12.637
X2.312Y1.258
X2.414Y3.595
X2.465Y6.795
X2.769Y4.938
X3.582Y1.258
X4.852Y1.258
X6.376Y0.648
X6.703Y7.738
X6.703Y5.198
X7.646Y0.648
X7.973Y6.468
X8.916Y0.648
X9.243Y7.738
X9.243Y5.198
X13.082Y3.239
X13.082Y1.969
X13.387Y8.116
T3
G00X-10.457Y9.584
M15
G01X-11.257Y9.584
M16
G05
G00X-10.457Y0.944
M15
G01X-11.257Y0.944
M16
G05
G00X-6.127Y9.584
M15
G01X-7.227Y9.584
M16
G05
G00X-6.127Y0.944
M15
G01X-7.227Y0.944
M16
G05
M30
