%TF.GenerationSoftware,KiCad,Pcbnew,8.0.3*%
%TF.CreationDate,2024-06-28T03:43:35+08:00*%
%TF.ProjectId,hpm_dap,68706d5f-6461-4702-9e6b-696361645f70,rev?*%
%TF.SameCoordinates,Original*%
%TF.FileFunction,Soldermask,Bot*%
%TF.FilePolarity,Negative*%
%FSLAX46Y46*%
G04 Gerber Fmt 4.6, Leading zero omitted, Abs format (unit mm)*
G04 Created by KiCad (PCBNEW 8.0.3) date 2024-06-28 03:43:35*
%MOMM*%
%LPD*%
G01*
G04 APERTURE LIST*
G04 Aperture macros list*
%AMRoundRect*
0 Rectangle with rounded corners*
0 $1 Rounding radius*
0 $2 $3 $4 $5 $6 $7 $8 $9 X,Y pos of 4 corners*
0 Add a 4 corners polygon primitive as box body*
4,1,4,$2,$3,$4,$5,$6,$7,$8,$9,$2,$3,0*
0 Add four circle primitives for the rounded corners*
1,1,$1+$1,$2,$3*
1,1,$1+$1,$4,$5*
1,1,$1+$1,$6,$7*
1,1,$1+$1,$8,$9*
0 Add four rect primitives between the rounded corners*
20,1,$1+$1,$2,$3,$4,$5,0*
20,1,$1+$1,$4,$5,$6,$7,0*
20,1,$1+$1,$6,$7,$8,$9,0*
20,1,$1+$1,$8,$9,$2,$3,0*%
G04 Aperture macros list end*
%ADD10RoundRect,0.154000X0.204000X-0.154000X0.204000X0.154000X-0.204000X0.154000X-0.204000X-0.154000X0*%
%ADD11RoundRect,0.038000X-0.500000X-1.550000X0.500000X-1.550000X0.500000X1.550000X-0.500000X1.550000X0*%
%ADD12O,1.876000X1.076000*%
%ADD13O,2.176000X1.076000*%
%ADD14C,0.726000*%
%ADD15RoundRect,0.038000X-0.275000X-0.500000X0.275000X-0.500000X0.275000X0.500000X-0.275000X0.500000X0*%
%ADD16RoundRect,0.159000X0.159000X0.189000X-0.159000X0.189000X-0.159000X-0.189000X0.159000X-0.189000X0*%
%ADD17RoundRect,0.159000X0.189000X-0.159000X0.189000X0.159000X-0.189000X0.159000X-0.189000X-0.159000X0*%
%ADD18RoundRect,0.159000X-0.189000X0.159000X-0.189000X-0.159000X0.189000X-0.159000X0.189000X0.159000X0*%
%ADD19RoundRect,0.038000X-1.150000X0.425000X-1.150000X-0.425000X1.150000X-0.425000X1.150000X0.425000X0*%
%ADD20RoundRect,0.269000X0.269000X0.469000X-0.269000X0.469000X-0.269000X-0.469000X0.269000X-0.469000X0*%
%ADD21RoundRect,0.265833X0.372167X0.472167X-0.372167X0.472167X-0.372167X-0.472167X0.372167X-0.472167X0*%
G04 APERTURE END LIST*
D10*
%TO.C,R11*%
X78161760Y-38584800D03*
X78161760Y-39604800D03*
%TD*%
%TO.C,R10*%
X77196560Y-38584800D03*
X77196560Y-39604800D03*
%TD*%
D11*
%TO.C,J2*%
X67030893Y-26182893D03*
X69570893Y-26182893D03*
X72110893Y-26182893D03*
X74650893Y-26182893D03*
X77190893Y-26182893D03*
%TD*%
D12*
%TO.C,J1*%
X55410893Y-39988893D03*
D13*
X59590893Y-39988893D03*
D12*
X55410893Y-31348893D03*
D13*
X59590893Y-31348893D03*
D14*
X59090893Y-38558893D03*
X59090893Y-32778893D03*
%TD*%
D15*
%TO.C,D3*%
X77231200Y-31931600D03*
X78181200Y-31931600D03*
X79131200Y-31931600D03*
X79131200Y-29231600D03*
X78181200Y-29231600D03*
X77231200Y-29231600D03*
%TD*%
D16*
%TO.C,C14*%
X75770800Y-35306000D03*
X76730800Y-35306000D03*
%TD*%
D17*
%TO.C,C5*%
X75133200Y-29442266D03*
X75133200Y-30402266D03*
%TD*%
%TO.C,C1*%
X74192932Y-29442266D03*
X74192932Y-30402266D03*
%TD*%
D15*
%TO.C,D2*%
X69332800Y-32338000D03*
X70282800Y-32338000D03*
X71232800Y-32338000D03*
X71232800Y-29638000D03*
X70282800Y-29638000D03*
X69332800Y-29638000D03*
%TD*%
D17*
%TO.C,C8*%
X73050400Y-36248400D03*
X73050400Y-37208400D03*
%TD*%
D18*
%TO.C,C18*%
X76250800Y-39574800D03*
X76250800Y-38614800D03*
%TD*%
D17*
%TO.C,C9*%
X73964800Y-36248400D03*
X73964800Y-37208400D03*
%TD*%
D19*
%TO.C,L2*%
X78656475Y-36636690D03*
X78656475Y-34686690D03*
%TD*%
D17*
%TO.C,C10*%
X74879200Y-36248400D03*
X74879200Y-37208400D03*
%TD*%
%TO.C,C6*%
X73253600Y-29442266D03*
X73253600Y-30402266D03*
%TD*%
D20*
%TO.C,D1*%
X63434000Y-34307600D03*
X61534000Y-34307600D03*
X61534000Y-36507600D03*
D21*
X63254000Y-36507600D03*
%TD*%
D17*
%TO.C,C11*%
X75793600Y-36248400D03*
X75793600Y-37208400D03*
%TD*%
D18*
%TO.C,C4*%
X74726800Y-39554800D03*
X74726800Y-38594800D03*
%TD*%
D16*
%TO.C,C13*%
X75770800Y-34391600D03*
X76730800Y-34391600D03*
%TD*%
M02*
