%TF.GenerationSoftware,KiCad,Pcbnew,8.0.3*%
%TF.CreationDate,2024-06-28T03:43:35+08:00*%
%TF.ProjectId,hpm_dap,68706d5f-6461-4702-9e6b-696361645f70,rev?*%
%TF.SameCoordinates,Original*%
%TF.FileFunction,Paste,Top*%
%TF.FilePolarity,Positive*%
%FSLAX46Y46*%
G04 Gerber Fmt 4.6, Leading zero omitted, Abs format (unit mm)*
G04 Created by KiCad (PCBNEW 8.0.3) date 2024-06-28 03:43:35*
%MOMM*%
%LPD*%
G01*
G04 APERTURE LIST*
G04 Aperture macros list*
%AMRoundRect*
0 Rectangle with rounded corners*
0 $1 Rounding radius*
0 $2 $3 $4 $5 $6 $7 $8 $9 X,Y pos of 4 corners*
0 Add a 4 corners polygon primitive as box body*
4,1,4,$2,$3,$4,$5,$6,$7,$8,$9,$2,$3,0*
0 Add four circle primitives for the rounded corners*
1,1,$1+$1,$2,$3*
1,1,$1+$1,$4,$5*
1,1,$1+$1,$6,$7*
1,1,$1+$1,$8,$9*
0 Add four rect primitives between the rounded corners*
20,1,$1+$1,$2,$3,$4,$5,0*
20,1,$1+$1,$4,$5,$6,$7,0*
20,1,$1+$1,$6,$7,$8,$9,0*
20,1,$1+$1,$8,$9,$2,$3,0*%
G04 Aperture macros list end*
%ADD10RoundRect,0.140000X-0.170000X0.140000X-0.170000X-0.140000X0.170000X-0.140000X0.170000X0.140000X0*%
%ADD11RoundRect,0.050000X0.375000X-0.050000X0.375000X0.050000X-0.375000X0.050000X-0.375000X-0.050000X0*%
%ADD12RoundRect,0.050000X0.050000X-0.375000X0.050000X0.375000X-0.050000X0.375000X-0.050000X-0.375000X0*%
%ADD13RoundRect,0.250000X0.315000X-0.315000X0.315000X0.315000X-0.315000X0.315000X-0.315000X-0.315000X0*%
%ADD14RoundRect,0.140000X0.140000X0.170000X-0.140000X0.170000X-0.140000X-0.170000X0.140000X-0.170000X0*%
%ADD15RoundRect,0.135000X-0.185000X0.135000X-0.185000X-0.135000X0.185000X-0.135000X0.185000X0.135000X0*%
%ADD16RoundRect,0.140000X0.170000X-0.140000X0.170000X0.140000X-0.170000X0.140000X-0.170000X-0.140000X0*%
%ADD17RoundRect,0.135000X-0.135000X-0.185000X0.135000X-0.185000X0.135000X0.185000X-0.135000X0.185000X0*%
%ADD18RoundRect,0.162500X0.162500X0.687500X-0.162500X0.687500X-0.162500X-0.687500X0.162500X-0.687500X0*%
%ADD19RoundRect,0.125000X0.125000X0.725000X-0.125000X0.725000X-0.125000X-0.725000X0.125000X-0.725000X0*%
%ADD20RoundRect,0.218750X0.256250X-0.218750X0.256250X0.218750X-0.256250X0.218750X-0.256250X-0.218750X0*%
%ADD21RoundRect,0.200000X-0.800000X0.200000X-0.800000X-0.200000X0.800000X-0.200000X0.800000X0.200000X0*%
%ADD22RoundRect,0.140000X-0.140000X-0.170000X0.140000X-0.170000X0.140000X0.170000X-0.140000X0.170000X0*%
%ADD23R,0.320000X0.500000*%
%ADD24R,1.000000X3.100000*%
%ADD25RoundRect,0.125000X-0.187500X-0.125000X0.187500X-0.125000X0.187500X0.125000X-0.187500X0.125000X0*%
%ADD26RoundRect,0.127500X-0.317500X-0.127500X0.317500X-0.127500X0.317500X0.127500X-0.317500X0.127500X0*%
%ADD27RoundRect,0.147500X-0.172500X0.147500X-0.172500X-0.147500X0.172500X-0.147500X0.172500X0.147500X0*%
%ADD28O,1.800000X1.000000*%
%ADD29O,2.100000X1.000000*%
%ADD30RoundRect,0.150000X-0.425000X0.150000X-0.425000X-0.150000X0.425000X-0.150000X0.425000X0.150000X0*%
%ADD31RoundRect,0.075000X-0.500000X0.075000X-0.500000X-0.075000X0.500000X-0.075000X0.500000X0.075000X0*%
%ADD32RoundRect,0.135000X0.185000X-0.135000X0.185000X0.135000X-0.185000X0.135000X-0.185000X-0.135000X0*%
%ADD33RoundRect,0.218750X-0.218750X-0.256250X0.218750X-0.256250X0.218750X0.256250X-0.218750X0.256250X0*%
G04 APERTURE END LIST*
D10*
%TO.C,C23*%
X73253600Y-30402266D03*
X73253600Y-29442266D03*
%TD*%
D11*
%TO.C,U1*%
X71291200Y-36664800D03*
X71291200Y-36264800D03*
X71291200Y-35864800D03*
X71291200Y-35464800D03*
X71291200Y-35064800D03*
X71291200Y-34664800D03*
X71291200Y-34264800D03*
X71291200Y-33864800D03*
X71291200Y-33464800D03*
X71291200Y-33064800D03*
X71291200Y-32664800D03*
X71291200Y-32264800D03*
D12*
X72041200Y-31514800D03*
X72441200Y-31514800D03*
X72841200Y-31514800D03*
X73241200Y-31514800D03*
X73641200Y-31514800D03*
X74041200Y-31514800D03*
X74441200Y-31514800D03*
X74841200Y-31514800D03*
X75241200Y-31514800D03*
X75641200Y-31514800D03*
X76041200Y-31514800D03*
X76441200Y-31514800D03*
D11*
X77191200Y-32264800D03*
X77191200Y-32664800D03*
X77191200Y-33064800D03*
X77191200Y-33464800D03*
X77191200Y-33864800D03*
X77191200Y-34264800D03*
X77191200Y-34664800D03*
X77191200Y-35064800D03*
X77191200Y-35464800D03*
X77191200Y-35864800D03*
X77191200Y-36264800D03*
X77191200Y-36664800D03*
D12*
X76441200Y-37414800D03*
X76041200Y-37414800D03*
X75641200Y-37414800D03*
X75241200Y-37414800D03*
X74841200Y-37414800D03*
X74441200Y-37414800D03*
X74041200Y-37414800D03*
X73641200Y-37414800D03*
X73241200Y-37414800D03*
X72841200Y-37414800D03*
X72441200Y-37414800D03*
X72041200Y-37414800D03*
D13*
X75641200Y-33064800D03*
X74241200Y-33064800D03*
X72841200Y-33064800D03*
X75641200Y-34464800D03*
X74241200Y-34464800D03*
X72841200Y-34464800D03*
X75641200Y-35864800D03*
X74241200Y-35864800D03*
X72841200Y-35864800D03*
%TD*%
D10*
%TO.C,C19*%
X58232142Y-27153015D03*
X58232142Y-26193015D03*
%TD*%
D14*
%TO.C,C15*%
X78564800Y-33417200D03*
X79524800Y-33417200D03*
%TD*%
D15*
%TO.C,R9*%
X67868800Y-37015200D03*
X67868800Y-35995200D03*
%TD*%
D16*
%TO.C,C24*%
X73304400Y-38574800D03*
X73304400Y-39534800D03*
%TD*%
D17*
%TO.C,R8*%
X68836000Y-38150800D03*
X67816000Y-38150800D03*
%TD*%
D18*
%TO.C,X1*%
X69412000Y-29791200D03*
D19*
X70612000Y-29791200D03*
D18*
X71812000Y-29791200D03*
%TD*%
D20*
%TO.C,F1*%
X56337200Y-26746100D03*
X56337200Y-28321100D03*
%TD*%
D21*
%TO.C,SW1*%
X65176400Y-34866000D03*
X65176400Y-30666000D03*
%TD*%
D22*
%TO.C,C20*%
X62629700Y-25262582D03*
X61669700Y-25262582D03*
%TD*%
D15*
%TO.C,R1*%
X77216000Y-38584800D03*
X77216000Y-39604800D03*
%TD*%
%TO.C,R3*%
X62589700Y-27229600D03*
X62589700Y-26209600D03*
%TD*%
D23*
%TO.C,RN2*%
X77431200Y-29327600D03*
X77931200Y-29327600D03*
X78431200Y-29327600D03*
X78931200Y-29327600D03*
X78931200Y-30327600D03*
X78431200Y-30327600D03*
X77931200Y-30327600D03*
X77431200Y-30327600D03*
%TD*%
D24*
%TO.C,J2*%
X67030893Y-26182893D03*
X69570893Y-26182893D03*
X72110893Y-26182893D03*
X74650893Y-26182893D03*
X77190893Y-26182893D03*
%TD*%
D10*
%TO.C,C3*%
X72034400Y-39534800D03*
X72034400Y-38574800D03*
%TD*%
D25*
%TO.C,U2*%
X61463700Y-26558600D03*
X61463700Y-27208600D03*
X61463700Y-27858600D03*
X61463700Y-28508600D03*
X59338700Y-28508600D03*
X59338700Y-27858600D03*
X59338700Y-27208600D03*
X59338700Y-26558600D03*
D26*
X60401200Y-28163600D03*
X60401200Y-27533600D03*
X60401200Y-26903600D03*
%TD*%
D10*
%TO.C,C12*%
X78148880Y-38614800D03*
X78148880Y-39574800D03*
%TD*%
D15*
%TO.C,R5*%
X62585600Y-30888400D03*
X62585600Y-29868400D03*
%TD*%
D27*
%TO.C,L1*%
X74192932Y-30407266D03*
X74192932Y-29437266D03*
%TD*%
D14*
%TO.C,C16*%
X78564800Y-34340800D03*
X79524800Y-34340800D03*
%TD*%
D17*
%TO.C,R7*%
X62943200Y-37418893D03*
X61923200Y-37418893D03*
%TD*%
D28*
%TO.C,J1*%
X55410893Y-39988893D03*
D29*
X59590893Y-39988893D03*
D28*
X55410893Y-31348893D03*
D29*
X59590893Y-31348893D03*
D30*
X60165893Y-32468893D03*
X60165893Y-33268893D03*
D31*
X60165893Y-33918893D03*
X60165893Y-34918893D03*
X60165893Y-36418893D03*
X60165893Y-37418893D03*
D30*
X60165893Y-38068893D03*
X60165893Y-38868893D03*
X60165893Y-38868893D03*
X60165893Y-38068893D03*
D31*
X60165893Y-36918893D03*
X60165893Y-35918893D03*
X60165893Y-35418893D03*
X60165893Y-34418893D03*
D30*
X60165893Y-33268893D03*
X60165893Y-32468893D03*
%TD*%
D17*
%TO.C,R6*%
X62943200Y-33172400D03*
X61923200Y-33172400D03*
%TD*%
D10*
%TO.C,C7*%
X70104000Y-36985200D03*
X70104000Y-36025200D03*
%TD*%
D32*
%TO.C,R4*%
X74726800Y-38584800D03*
X74726800Y-39604800D03*
%TD*%
D15*
%TO.C,R2*%
X62589700Y-29009600D03*
X62589700Y-27989600D03*
%TD*%
D23*
%TO.C,RN1*%
X67423600Y-31351600D03*
X67923600Y-31351600D03*
X68423600Y-31351600D03*
X68923600Y-31351600D03*
X68923600Y-32351600D03*
X68423600Y-32351600D03*
X67923600Y-32351600D03*
X67423600Y-32351600D03*
%TD*%
D10*
%TO.C,C17*%
X76250800Y-39574800D03*
X76250800Y-38614800D03*
%TD*%
D33*
%TO.C,D5*%
X66192400Y-37896800D03*
X64617400Y-37896800D03*
%TD*%
D10*
%TO.C,C22*%
X75133200Y-30402266D03*
X75133200Y-29442266D03*
%TD*%
D16*
%TO.C,C21*%
X58232142Y-28016317D03*
X58232142Y-28976317D03*
%TD*%
D33*
%TO.C,D4*%
X66192400Y-36308400D03*
X64617400Y-36308400D03*
%TD*%
M02*
