%TF.GenerationSoftware,KiCad,Pcbnew,8.0.3*%
%TF.CreationDate,2024-07-01T02:25:18+08:00*%
%TF.ProjectId,hpm_dap,68706d5f-6461-4702-9e6b-696361645f70,rev?*%
%TF.SameCoordinates,PX3f32af6PY270961d*%
%TF.FileFunction,Paste,Top*%
%TF.FilePolarity,Positive*%
%FSLAX46Y46*%
G04 Gerber Fmt 4.6, Leading zero omitted, Abs format (unit mm)*
G04 Created by KiCad (PCBNEW 8.0.3) date 2024-07-01 02:25:18*
%MOMM*%
%LPD*%
G01*
G04 APERTURE LIST*
G04 Aperture macros list*
%AMRoundRect*
0 Rectangle with rounded corners*
0 $1 Rounding radius*
0 $2 $3 $4 $5 $6 $7 $8 $9 X,Y pos of 4 corners*
0 Add a 4 corners polygon primitive as box body*
4,1,4,$2,$3,$4,$5,$6,$7,$8,$9,$2,$3,0*
0 Add four circle primitives for the rounded corners*
1,1,$1+$1,$2,$3*
1,1,$1+$1,$4,$5*
1,1,$1+$1,$6,$7*
1,1,$1+$1,$8,$9*
0 Add four rect primitives between the rounded corners*
20,1,$1+$1,$2,$3,$4,$5,0*
20,1,$1+$1,$4,$5,$6,$7,0*
20,1,$1+$1,$6,$7,$8,$9,0*
20,1,$1+$1,$8,$9,$2,$3,0*%
G04 Aperture macros list end*
%ADD10RoundRect,0.150000X-0.425000X0.150000X-0.425000X-0.150000X0.425000X-0.150000X0.425000X0.150000X0*%
%ADD11RoundRect,0.075000X-0.500000X0.075000X-0.500000X-0.075000X0.500000X-0.075000X0.500000X0.075000X0*%
%ADD12RoundRect,0.140000X-0.170000X0.140000X-0.170000X-0.140000X0.170000X-0.140000X0.170000X0.140000X0*%
%ADD13RoundRect,0.050000X0.375000X-0.050000X0.375000X0.050000X-0.375000X0.050000X-0.375000X-0.050000X0*%
%ADD14RoundRect,0.050000X0.050000X-0.375000X0.050000X0.375000X-0.050000X0.375000X-0.050000X-0.375000X0*%
%ADD15RoundRect,0.250000X0.315000X-0.315000X0.315000X0.315000X-0.315000X0.315000X-0.315000X-0.315000X0*%
%ADD16RoundRect,0.140000X0.140000X0.170000X-0.140000X0.170000X-0.140000X-0.170000X0.140000X-0.170000X0*%
%ADD17RoundRect,0.135000X-0.185000X0.135000X-0.185000X-0.135000X0.185000X-0.135000X0.185000X0.135000X0*%
%ADD18RoundRect,0.140000X0.170000X-0.140000X0.170000X0.140000X-0.170000X0.140000X-0.170000X-0.140000X0*%
%ADD19RoundRect,0.135000X-0.135000X-0.185000X0.135000X-0.185000X0.135000X0.185000X-0.135000X0.185000X0*%
%ADD20RoundRect,0.162500X0.162500X0.687500X-0.162500X0.687500X-0.162500X-0.687500X0.162500X-0.687500X0*%
%ADD21RoundRect,0.125000X0.125000X0.725000X-0.125000X0.725000X-0.125000X-0.725000X0.125000X-0.725000X0*%
%ADD22RoundRect,0.218750X0.256250X-0.218750X0.256250X0.218750X-0.256250X0.218750X-0.256250X-0.218750X0*%
%ADD23RoundRect,0.200000X-0.800000X0.200000X-0.800000X-0.200000X0.800000X-0.200000X0.800000X0.200000X0*%
%ADD24RoundRect,0.140000X-0.140000X-0.170000X0.140000X-0.170000X0.140000X0.170000X-0.140000X0.170000X0*%
%ADD25R,0.320000X0.500000*%
%ADD26RoundRect,0.125000X-0.187500X-0.125000X0.187500X-0.125000X0.187500X0.125000X-0.187500X0.125000X0*%
%ADD27RoundRect,0.127500X-0.317500X-0.127500X0.317500X-0.127500X0.317500X0.127500X-0.317500X0.127500X0*%
%ADD28RoundRect,0.147500X-0.172500X0.147500X-0.172500X-0.147500X0.172500X-0.147500X0.172500X0.147500X0*%
%ADD29RoundRect,0.135000X0.185000X-0.135000X0.185000X0.135000X-0.185000X0.135000X-0.185000X-0.135000X0*%
%ADD30RoundRect,0.218750X-0.218750X-0.256250X0.218750X-0.256250X0.218750X0.256250X-0.218750X0.256250X0*%
G04 APERTURE END LIST*
D10*
%TO.C,J1*%
X-6102001Y8464000D03*
X-6102001Y7664000D03*
D11*
X-6102001Y7014000D03*
X-6102001Y6014000D03*
X-6102001Y4514000D03*
X-6102001Y3514000D03*
D10*
X-6102001Y2864000D03*
X-6102001Y2064000D03*
X-6102001Y2064000D03*
X-6102001Y2864000D03*
D11*
X-6102001Y4014000D03*
X-6102001Y5014000D03*
X-6102001Y5514000D03*
X-6102001Y6514000D03*
D10*
X-6102001Y7664000D03*
X-6102001Y8464000D03*
%TD*%
D12*
%TO.C,C23*%
X6985706Y10530627D03*
X6985706Y11490627D03*
%TD*%
D13*
%TO.C,U1*%
X5023306Y4268093D03*
X5023306Y4668093D03*
X5023306Y5068093D03*
X5023306Y5468093D03*
X5023306Y5868093D03*
X5023306Y6268093D03*
X5023306Y6668093D03*
X5023306Y7068093D03*
X5023306Y7468093D03*
X5023306Y7868093D03*
X5023306Y8268093D03*
X5023306Y8668093D03*
D14*
X5773306Y9418093D03*
X6173306Y9418093D03*
X6573306Y9418093D03*
X6973306Y9418093D03*
X7373306Y9418093D03*
X7773306Y9418093D03*
X8173306Y9418093D03*
X8573306Y9418093D03*
X8973306Y9418093D03*
X9373306Y9418093D03*
X9773306Y9418093D03*
X10173306Y9418093D03*
D13*
X10923306Y8668093D03*
X10923306Y8268093D03*
X10923306Y7868093D03*
X10923306Y7468093D03*
X10923306Y7068093D03*
X10923306Y6668093D03*
X10923306Y6268093D03*
X10923306Y5868093D03*
X10923306Y5468093D03*
X10923306Y5068093D03*
X10923306Y4668093D03*
X10923306Y4268093D03*
D14*
X10173306Y3518093D03*
X9773306Y3518093D03*
X9373306Y3518093D03*
X8973306Y3518093D03*
X8573306Y3518093D03*
X8173306Y3518093D03*
X7773306Y3518093D03*
X7373306Y3518093D03*
X6973306Y3518093D03*
X6573306Y3518093D03*
X6173306Y3518093D03*
X5773306Y3518093D03*
D15*
X9373306Y7868093D03*
X7973306Y7868093D03*
X6573306Y7868093D03*
X9373306Y6468093D03*
X7973306Y6468093D03*
X6573306Y6468093D03*
X9373306Y5068093D03*
X7973306Y5068093D03*
X6573306Y5068093D03*
%TD*%
D12*
%TO.C,C19*%
X-8035752Y13779878D03*
X-8035752Y14739878D03*
%TD*%
D16*
%TO.C,C15*%
X12296906Y7515693D03*
X13256906Y7515693D03*
%TD*%
D17*
%TO.C,R9*%
X1600906Y3917693D03*
X1600906Y4937693D03*
%TD*%
D18*
%TO.C,C24*%
X7036506Y2358093D03*
X7036506Y1398093D03*
%TD*%
D19*
%TO.C,R8*%
X2568106Y2782093D03*
X1548106Y2782093D03*
%TD*%
D20*
%TO.C,X1*%
X3144106Y11141693D03*
D21*
X4344106Y11141693D03*
D20*
X5544106Y11141693D03*
%TD*%
D22*
%TO.C,F1*%
X-9930694Y14186793D03*
X-9930694Y12611793D03*
%TD*%
D23*
%TO.C,SW1*%
X-1091494Y6066893D03*
X-1091494Y10266893D03*
%TD*%
D24*
%TO.C,C20*%
X-3638194Y15670311D03*
X-4598194Y15670311D03*
%TD*%
D17*
%TO.C,R1*%
X10948106Y1328093D03*
X10948106Y2348093D03*
%TD*%
%TO.C,R3*%
X-3678194Y13703293D03*
X-3678194Y14723293D03*
%TD*%
D25*
%TO.C,RN2*%
X11163306Y11605293D03*
X11663306Y11605293D03*
X12163306Y11605293D03*
X12663306Y11605293D03*
X12663306Y10605293D03*
X12163306Y10605293D03*
X11663306Y10605293D03*
X11163306Y10605293D03*
%TD*%
D12*
%TO.C,C3*%
X5766506Y1398093D03*
X5766506Y2358093D03*
%TD*%
D26*
%TO.C,U2*%
X-4804194Y14374293D03*
X-4804194Y13724293D03*
X-4804194Y13074293D03*
X-4804194Y12424293D03*
X-6929194Y12424293D03*
X-6929194Y13074293D03*
X-6929194Y13724293D03*
X-6929194Y14374293D03*
D27*
X-5866694Y12769293D03*
X-5866694Y13399293D03*
X-5866694Y14029293D03*
%TD*%
D12*
%TO.C,C12*%
X11880986Y1358093D03*
X11880986Y2318093D03*
%TD*%
D17*
%TO.C,R5*%
X-3682294Y10044493D03*
X-3682294Y11064493D03*
%TD*%
D28*
%TO.C,L1*%
X7925038Y10525627D03*
X7925038Y11495627D03*
%TD*%
D16*
%TO.C,C16*%
X12296906Y6592093D03*
X13256906Y6592093D03*
%TD*%
D19*
%TO.C,R7*%
X-3324694Y3514000D03*
X-4344694Y3514000D03*
%TD*%
%TO.C,R6*%
X-3324694Y7760493D03*
X-4344694Y7760493D03*
%TD*%
D12*
%TO.C,C7*%
X3836106Y3947693D03*
X3836106Y4907693D03*
%TD*%
D29*
%TO.C,R4*%
X8458906Y2348093D03*
X8458906Y1328093D03*
%TD*%
D17*
%TO.C,R2*%
X-3678194Y11923293D03*
X-3678194Y12943293D03*
%TD*%
D25*
%TO.C,RN1*%
X1155706Y9581293D03*
X1655706Y9581293D03*
X2155706Y9581293D03*
X2655706Y9581293D03*
X2655706Y8581293D03*
X2155706Y8581293D03*
X1655706Y8581293D03*
X1155706Y8581293D03*
%TD*%
D12*
%TO.C,C17*%
X9982906Y1358093D03*
X9982906Y2318093D03*
%TD*%
D30*
%TO.C,D5*%
X-75494Y3036093D03*
X-1650494Y3036093D03*
%TD*%
D12*
%TO.C,C22*%
X8865306Y10530627D03*
X8865306Y11490627D03*
%TD*%
D18*
%TO.C,C21*%
X-8035752Y12916576D03*
X-8035752Y11956576D03*
%TD*%
D30*
%TO.C,D4*%
X-75494Y4624493D03*
X-1650494Y4624493D03*
%TD*%
M02*
