%TF.GenerationSoftware,KiCad,Pcbnew,8.0.2*%
%TF.CreationDate,2024-07-01T18:09:29+08:00*%
%TF.ProjectId,hpm_dap,68706d5f-6461-4702-9e6b-696361645f70,rev?*%
%TF.SameCoordinates,PX3f32af6PY270961d*%
%TF.FileFunction,Copper,L1,Top*%
%TF.FilePolarity,Positive*%
%FSLAX46Y46*%
G04 Gerber Fmt 4.6, Leading zero omitted, Abs format (unit mm)*
G04 Created by KiCad (PCBNEW 8.0.2) date 2024-07-01 18:09:29*
%MOMM*%
%LPD*%
G01*
G04 APERTURE LIST*
G04 Aperture macros list*
%AMRoundRect*
0 Rectangle with rounded corners*
0 $1 Rounding radius*
0 $2 $3 $4 $5 $6 $7 $8 $9 X,Y pos of 4 corners*
0 Add a 4 corners polygon primitive as box body*
4,1,4,$2,$3,$4,$5,$6,$7,$8,$9,$2,$3,0*
0 Add four circle primitives for the rounded corners*
1,1,$1+$1,$2,$3*
1,1,$1+$1,$4,$5*
1,1,$1+$1,$6,$7*
1,1,$1+$1,$8,$9*
0 Add four rect primitives between the rounded corners*
20,1,$1+$1,$2,$3,$4,$5,0*
20,1,$1+$1,$4,$5,$6,$7,0*
20,1,$1+$1,$6,$7,$8,$9,0*
20,1,$1+$1,$8,$9,$2,$3,0*%
G04 Aperture macros list end*
%TA.AperFunction,SMDPad,CuDef*%
%ADD10RoundRect,0.050000X0.050000X-0.375000X0.050000X0.375000X-0.050000X0.375000X-0.050000X-0.375000X0*%
%TD*%
%TA.AperFunction,SMDPad,CuDef*%
%ADD11RoundRect,0.050000X0.375000X-0.050000X0.375000X0.050000X-0.375000X0.050000X-0.375000X-0.050000X0*%
%TD*%
%TA.AperFunction,SMDPad,CuDef*%
%ADD12R,4.200000X4.200000*%
%TD*%
%TA.AperFunction,SMDPad,CuDef*%
%ADD13RoundRect,0.140000X-0.170000X0.140000X-0.170000X-0.140000X0.170000X-0.140000X0.170000X0.140000X0*%
%TD*%
%TA.AperFunction,SMDPad,CuDef*%
%ADD14RoundRect,0.140000X0.140000X0.170000X-0.140000X0.170000X-0.140000X-0.170000X0.140000X-0.170000X0*%
%TD*%
%TA.AperFunction,SMDPad,CuDef*%
%ADD15RoundRect,0.135000X-0.185000X0.135000X-0.185000X-0.135000X0.185000X-0.135000X0.185000X0.135000X0*%
%TD*%
%TA.AperFunction,SMDPad,CuDef*%
%ADD16RoundRect,0.140000X0.170000X-0.140000X0.170000X0.140000X-0.170000X0.140000X-0.170000X-0.140000X0*%
%TD*%
%TA.AperFunction,SMDPad,CuDef*%
%ADD17RoundRect,0.135000X-0.135000X-0.185000X0.135000X-0.185000X0.135000X0.185000X-0.135000X0.185000X0*%
%TD*%
%TA.AperFunction,SMDPad,CuDef*%
%ADD18RoundRect,0.162500X0.162500X0.687500X-0.162500X0.687500X-0.162500X-0.687500X0.162500X-0.687500X0*%
%TD*%
%TA.AperFunction,SMDPad,CuDef*%
%ADD19RoundRect,0.125000X0.125000X0.725000X-0.125000X0.725000X-0.125000X-0.725000X0.125000X-0.725000X0*%
%TD*%
%TA.AperFunction,SMDPad,CuDef*%
%ADD20RoundRect,0.218750X0.256250X-0.218750X0.256250X0.218750X-0.256250X0.218750X-0.256250X-0.218750X0*%
%TD*%
%TA.AperFunction,SMDPad,CuDef*%
%ADD21RoundRect,0.200000X-0.800000X0.200000X-0.800000X-0.200000X0.800000X-0.200000X0.800000X0.200000X0*%
%TD*%
%TA.AperFunction,SMDPad,CuDef*%
%ADD22RoundRect,0.140000X-0.140000X-0.170000X0.140000X-0.170000X0.140000X0.170000X-0.140000X0.170000X0*%
%TD*%
%TA.AperFunction,SMDPad,CuDef*%
%ADD23R,0.320000X0.500000*%
%TD*%
%TA.AperFunction,SMDPad,CuDef*%
%ADD24R,1.000000X3.100000*%
%TD*%
%TA.AperFunction,SMDPad,CuDef*%
%ADD25RoundRect,0.125000X-0.187500X-0.125000X0.187500X-0.125000X0.187500X0.125000X-0.187500X0.125000X0*%
%TD*%
%TA.AperFunction,HeatsinkPad*%
%ADD26R,1.100000X1.900000*%
%TD*%
%TA.AperFunction,SMDPad,CuDef*%
%ADD27RoundRect,0.147500X-0.172500X0.147500X-0.172500X-0.147500X0.172500X-0.147500X0.172500X0.147500X0*%
%TD*%
%TA.AperFunction,SMDPad,CuDef*%
%ADD28RoundRect,0.150000X-0.425000X0.150000X-0.425000X-0.150000X0.425000X-0.150000X0.425000X0.150000X0*%
%TD*%
%TA.AperFunction,SMDPad,CuDef*%
%ADD29RoundRect,0.075000X-0.500000X0.075000X-0.500000X-0.075000X0.500000X-0.075000X0.500000X0.075000X0*%
%TD*%
%TA.AperFunction,ComponentPad*%
%ADD30O,2.100000X1.000000*%
%TD*%
%TA.AperFunction,ComponentPad*%
%ADD31O,1.800000X1.000000*%
%TD*%
%TA.AperFunction,SMDPad,CuDef*%
%ADD32RoundRect,0.135000X0.185000X-0.135000X0.185000X0.135000X-0.185000X0.135000X-0.185000X-0.135000X0*%
%TD*%
%TA.AperFunction,SMDPad,CuDef*%
%ADD33RoundRect,0.218750X-0.218750X-0.256250X0.218750X-0.256250X0.218750X0.256250X-0.218750X0.256250X0*%
%TD*%
%TA.AperFunction,ViaPad*%
%ADD34C,0.400000*%
%TD*%
%TA.AperFunction,ViaPad*%
%ADD35C,0.609600*%
%TD*%
%TA.AperFunction,Conductor*%
%ADD36C,0.177800*%
%TD*%
%TA.AperFunction,Conductor*%
%ADD37C,0.254000*%
%TD*%
%TA.AperFunction,Conductor*%
%ADD38C,0.127000*%
%TD*%
%TA.AperFunction,Conductor*%
%ADD39C,0.200000*%
%TD*%
%TA.AperFunction,Conductor*%
%ADD40C,0.101600*%
%TD*%
G04 APERTURE END LIST*
D10*
%TO.P,U1,1,PA04/URT1.CTS/SPI0.CS0/TRGM0.P04/JTAG.TDO*%
%TO.N,unconnected-(U1D-PA04{slash}URT1.CTS{slash}SPI0.CS0{slash}TRGM0.P04{slash}JTAG.TDO-Pad1)*%
X5773306Y3518093D03*
%TO.P,U1,2,PA08/TMR0.COMP1/URT2.TXD/I2C2.SCL/SPI3.CS2/JTAG.TRST*%
%TO.N,unconnected-(U1D-PA08{slash}TMR0.COMP1{slash}URT2.TXD{slash}I2C2.SCL{slash}SPI3.CS2{slash}JTAG.TRST-Pad2)*%
X6173306Y3518093D03*
%TO.P,U1,3,PA09/TMR0.CAPT1/URT2.RXD/I2C2.SDA/SPI3.CS1*%
%TO.N,unconnected-(U1D-PA09{slash}TMR0.CAPT1{slash}URT2.RXD{slash}I2C2.SDA{slash}SPI3.CS1-Pad3)*%
X6573306Y3518093D03*
%TO.P,U1,4,PA10/TMR0.COMP2/URT2.DE/URT2.RTS/SPI3.CS0/ACMP.COMP0*%
%TO.N,unconnected-(U1D-PA10{slash}TMR0.COMP2{slash}URT2.DE{slash}URT2.RTS{slash}SPI3.CS0{slash}ACMP.COMP0-Pad4)*%
X6973306Y3518093D03*
%TO.P,U1,5,VDD_SOC*%
%TO.N,Net-(C10-Pad1)*%
X7373306Y3518093D03*
%TO.P,U1,6,VIO_B00*%
%TO.N,+3.3V*%
X7773306Y3518093D03*
%TO.P,U1,7,PA03/TMR1.CAPT1/URT0.CTS/I2C0.SDA/SPI3.CS3/ACMP.COMP1/TRGM0.P03/ADC0.DBG*%
%TO.N,/core/BOOT1*%
X8173306Y3518093D03*
%TO.P,U1,8,PA02/TMR1.COMP1/URT0.DE/URT0.RTS/I2C0.SCL/ACMP.COMP0/TRGM0.P02/ACMP.COMP1*%
%TO.N,/core/BOOT0*%
X8573306Y3518093D03*
%TO.P,U1,9,VDD_SOC*%
%TO.N,Net-(C10-Pad1)*%
X8973306Y3518093D03*
%TO.P,U1,10,VDD_OTPCAP*%
%TO.N,Net-(U1C-VDD_OTPCAP)*%
X9373306Y3518093D03*
%TO.P,U1,11,PA01/TMR1.CAPT0/URT0.RXD/TRGM0.P01/ACMP.COMP0*%
%TO.N,Net-(U1D-PA01{slash}TMR1.CAPT0{slash}URT0.RXD{slash}TRGM0.P01{slash}ACMP.COMP0)*%
X9773306Y3518093D03*
%TO.P,U1,12,PA00/TMR1.COMP0/URT0.TXD/TRGM0.P00*%
%TO.N,Net-(U1D-PA00{slash}TMR1.COMP0{slash}URT0.TXD{slash}TRGM0.P00)*%
X10173306Y3518093D03*
D11*
%TO.P,U1,13,RESETN*%
%TO.N,Net-(U1B-RESETN)*%
X10923306Y4268093D03*
%TO.P,U1,14,WAKEUP*%
%TO.N,unconnected-(U1B-WAKEUP-Pad14)*%
X10923306Y4668093D03*
%TO.P,U1,15,DCDC_LP*%
%TO.N,Net-(U1A-DCDC_LP)*%
X10923306Y5068093D03*
%TO.P,U1,16,VPMC*%
%TO.N,+3.3V*%
X10923306Y5468093D03*
%TO.P,U1,17,VDD_PMCCAP*%
%TO.N,Net-(U1C-VDD_PMCCAP)*%
X10923306Y5868093D03*
%TO.P,U1,18,PY01/URT0.RXD/WDG0.RST/USB0.OC/PMIC_PY01/PURT.RXD/PTMR.COMP1/SOC.GPIO_Y01*%
%TO.N,unconnected-(U1C-PY01{slash}URT0.RXD{slash}WDG0.RST{slash}USB0.OC{slash}PMIC_PY01{slash}PURT.RXD{slash}PTMR.COMP1{slash}SOC.GPIO_Y01-Pad18)*%
X10923306Y6268093D03*
%TO.P,U1,19,PY00/URT0.TXD/USB0.ID/PMIC_PY00/PURT.TXD/PTMR.COMP0/SOC.GPIO_Y00*%
%TO.N,unconnected-(U1C-PY00{slash}URT0.TXD{slash}USB0.ID{slash}PMIC_PY00{slash}PURT.TXD{slash}PTMR.COMP0{slash}SOC.GPIO_Y00-Pad19)*%
X10923306Y6668093D03*
%TO.P,U1,20,PB15/TMR0.COMP3/URT3.TXD/SPI2.DAT3/TRGM0.P03/ADC0.IN7/CMP0.INP1/CMP1.INP1*%
%TO.N,unconnected-(U1D-PB15{slash}TMR0.COMP3{slash}URT3.TXD{slash}SPI2.DAT3{slash}TRGM0.P03{slash}ADC0.IN7{slash}CMP0.INP1{slash}CMP1.INP1-Pad20)*%
X10923306Y7068093D03*
%TO.P,U1,21,PB14/URT3.RXD/SPI2.DAT2/TRGM0.P02/ADC0.IN6/CMP0.INN1/CMP1.INN1*%
%TO.N,unconnected-(U1D-PB14{slash}URT3.RXD{slash}SPI2.DAT2{slash}TRGM0.P02{slash}ADC0.IN6{slash}CMP0.INN1{slash}CMP1.INN1-Pad21)*%
X10923306Y7468093D03*
%TO.P,U1,22,PB13/TMR1.COMP3/URT3.DE/URT3.RTS/I2C3.SCL/SPI2.MOSI/TRGM0.P01/ADC0.IN5/CMP0.INP2/CMP1.INP2*%
%TO.N,Net-(RN2-R4.1)*%
X10923306Y7868093D03*
%TO.P,U1,23,PB12/URT3.CTS/I2C3.SDA/SPI2.MISO/TRGM0.P00/ADC0.IN4/CMP0.INN2/CMP1.INN2*%
%TO.N,Net-(RN2-R3.1)*%
X10923306Y8268093D03*
%TO.P,U1,24,PB11/URT2.CTS/SPI2.SCLK/ACMP.COMP1/ADC0.IN3/CMP0.INN4/CMP1.INN4*%
%TO.N,Net-(RN2-R2.1)*%
X10923306Y8668093D03*
D10*
%TO.P,U1,25,PB10/TMR0.COMP2/URT2.DE/URT2.RTS/SPI2.CS0/ACMP.COMP0/USB0.PWR/ADC0.IN2/CMP0.INP4/CMP1.INP4*%
%TO.N,/core/SPI_CS*%
X10173306Y9418093D03*
%TO.P,U1,26,PB09/TMR0.CAPT1/URT2.RXD/I2C2.SDA/SPI2.CS1/ACMP.COMP1/USB0.OC/ADC0.IN1/CMP0.INP6/CMP1.INP6*%
%TO.N,unconnected-(U1D-PB09{slash}TMR0.CAPT1{slash}URT2.RXD{slash}I2C2.SDA{slash}SPI2.CS1{slash}ACMP.COMP1{slash}USB0.OC{slash}ADC0.IN1{slash}CMP0.INP6{slash}CMP1.INP6-Pad26)*%
X9773306Y9418093D03*
%TO.P,U1,27,PB08/TMR0.COMP1/URT2.TXD/I2C2.SCL/SPI2.CS2/ACMP.COMP0/USB0.ID/ADC0.IN11/CMP0.INN6/CMP1.INN6*%
%TO.N,unconnected-(U1D-PB08{slash}TMR0.COMP1{slash}URT2.TXD{slash}I2C2.SCL{slash}SPI2.CS2{slash}ACMP.COMP0{slash}USB0.ID{slash}ADC0.IN11{slash}CMP0.INN6{slash}CMP1.INN6-Pad27)*%
X9373306Y9418093D03*
%TO.P,U1,28,VDD_SOC*%
%TO.N,Net-(C10-Pad1)*%
X8973306Y9418093D03*
%TO.P,U1,29,VIO_B01*%
%TO.N,+3.3V*%
X8573306Y9418093D03*
%TO.P,U1,30,VREFL*%
%TO.N,GND*%
X8173306Y9418093D03*
%TO.P,U1,31,VREFH*%
%TO.N,/core/Vana*%
X7773306Y9418093D03*
%TO.P,U1,32,VANA*%
X7373306Y9418093D03*
%TO.P,U1,33,VDD_SOC*%
%TO.N,Net-(C10-Pad1)*%
X6973306Y9418093D03*
%TO.P,U1,34,VIO_B00*%
%TO.N,+3.3V*%
X6573306Y9418093D03*
%TO.P,U1,35,XTALI*%
%TO.N,/core/XTALI*%
X6173306Y9418093D03*
%TO.P,U1,36,XTALO*%
%TO.N,/core/XTALO*%
X5773306Y9418093D03*
D11*
%TO.P,U1,37,PA31/SPI1.DAT3/XPI0.CA_CS0/TRGM0.P07/USB0.ID*%
%TO.N,Net-(RN1-R4.1)*%
X5023306Y8668093D03*
%TO.P,U1,38,PA30/SPI1.DAT2/XPI0.CA_D1/TRGM0.P06/USB0.PWR*%
%TO.N,unconnected-(U1D-PA30{slash}SPI1.DAT2{slash}XPI0.CA_D1{slash}TRGM0.P06{slash}USB0.PWR-Pad38)*%
X5023306Y8268093D03*
%TO.P,U1,39,PA29/I2C3.SCL/SPI1.MOSI/XPI0.CA_D2/TRGM0.P05/USB0.OC*%
%TO.N,Net-(RN1-R3.1)*%
X5023306Y7868093D03*
%TO.P,U1,40,PA28/I2C3.SDA/SPI1.MISO/XPI0.CA_D0/TRGM0.P04*%
%TO.N,unconnected-(U1D-PA28{slash}I2C3.SDA{slash}SPI1.MISO{slash}XPI0.CA_D0{slash}TRGM0.P04-Pad40)*%
X5023306Y7468093D03*
%TO.P,U1,41,PA27/SPI1.SCLK/XPI0.CA_SCLK/TRGM0.P03*%
%TO.N,Net-(RN1-R2.1)*%
X5023306Y7068093D03*
%TO.P,U1,42,PA26/SPI1.CS0/XPI0.CA_D3/TRGM0.P02*%
%TO.N,/core/SPI_CS*%
X5023306Y6668093D03*
%TO.P,U1,43,PA25/I2C2.SDA/SPI1.CS1/XPI0.CA_DQS/TRGM0.P01*%
%TO.N,/core/USB_D-*%
X5023306Y6268093D03*
%TO.P,U1,44,PA24/I2C2.SCL/SPI1.CS2/XPI0.CA_CS1/TRGM0.P00*%
%TO.N,/core/USB_D+*%
X5023306Y5868093D03*
%TO.P,U1,45,VDD_SOC*%
%TO.N,Net-(C10-Pad1)*%
X5023306Y5468093D03*
%TO.P,U1,46,PA07/TMR0.COMP0/URT1.TXD/I2C1.SCL/SPI0.MOSI/TRGM0.P07/JTAG.TMS*%
%TO.N,unconnected-(U1D-PA07{slash}TMR0.COMP0{slash}URT1.TXD{slash}I2C1.SCL{slash}SPI0.MOSI{slash}TRGM0.P07{slash}JTAG.TMS-Pad46)*%
X5023306Y5068093D03*
%TO.P,U1,47,PA06/TMR0.CAPT0/URT1.RXD/I2C1.SDA/SPI0.MISO/TRGM0.P06/JTAG.TCK*%
%TO.N,unconnected-(U1D-PA06{slash}TMR0.CAPT0{slash}URT1.RXD{slash}I2C1.SDA{slash}SPI0.MISO{slash}TRGM0.P06{slash}JTAG.TCK-Pad47)*%
X5023306Y4668093D03*
%TO.P,U1,48,PA05/TMR1.COMP2/URT1.DE/URT1.RTS/SPI0.SCLK/TRGM0.P05/JTAG.TDI*%
%TO.N,/core/LED*%
X5023306Y4268093D03*
D12*
%TO.P,U1,49,VSS*%
%TO.N,GND*%
X7973306Y6468093D03*
%TD*%
D13*
%TO.P,C19,1*%
%TO.N,VBUS*%
X-8035752Y14739878D03*
%TO.P,C19,2*%
%TO.N,GND*%
X-8035752Y13779878D03*
%TD*%
D14*
%TO.P,C15,1*%
%TO.N,GND*%
X13256906Y7515693D03*
%TO.P,C15,2*%
%TO.N,Net-(U1C-VDD_PMCCAP)*%
X12296906Y7515693D03*
%TD*%
D15*
%TO.P,R9,1*%
%TO.N,+3.3V*%
X1600906Y4937693D03*
%TO.P,R9,2*%
%TO.N,Net-(D4-A)*%
X1600906Y3917693D03*
%TD*%
D16*
%TO.P,C24,1*%
%TO.N,GND*%
X7036506Y1398093D03*
%TO.P,C24,2*%
%TO.N,+3.3V*%
X7036506Y2358093D03*
%TD*%
D17*
%TO.P,R8,1*%
%TO.N,Net-(D5-A)*%
X1548106Y2782093D03*
%TO.P,R8,2*%
%TO.N,/core/LED*%
X2568106Y2782093D03*
%TD*%
D18*
%TO.P,X1,1,1*%
%TO.N,/core/XTALI*%
X5544106Y11141693D03*
D19*
%TO.P,X1,2,2*%
%TO.N,GND*%
X4344106Y11141693D03*
D18*
%TO.P,X1,3,3*%
%TO.N,/core/XTALO*%
X3144106Y11141693D03*
%TD*%
D20*
%TO.P,F1,1*%
%TO.N,Net-(F1-Pad1)*%
X-9930694Y12611793D03*
%TO.P,F1,2*%
%TO.N,VBUS*%
X-9930694Y14186793D03*
%TD*%
D21*
%TO.P,SW1,1,1*%
%TO.N,+3.3V*%
X-1091494Y10266893D03*
%TO.P,SW1,2,2*%
%TO.N,Net-(R5-Pad1)*%
X-1091494Y6066893D03*
%TD*%
D22*
%TO.P,C20,1*%
%TO.N,Net-(U2-SS{slash}TR)*%
X-4598194Y15670311D03*
%TO.P,C20,2*%
%TO.N,GND*%
X-3638194Y15670311D03*
%TD*%
D15*
%TO.P,R1,1*%
%TO.N,Net-(U1B-RESETN)*%
X10948106Y2348093D03*
%TO.P,R1,2*%
%TO.N,+3.3V*%
X10948106Y1328093D03*
%TD*%
%TO.P,R3,1*%
%TO.N,GND*%
X-3678194Y14723293D03*
%TO.P,R3,2*%
%TO.N,Net-(U2-FB)*%
X-3678194Y13703293D03*
%TD*%
D23*
%TO.P,RN2,1,R1.1*%
%TO.N,unconnected-(RN2-R1.1-Pad1)*%
X11163306Y10605293D03*
%TO.P,RN2,2,R2.1*%
%TO.N,Net-(RN2-R2.1)*%
X11663306Y10605293D03*
%TO.P,RN2,3,R3.1*%
%TO.N,Net-(RN2-R3.1)*%
X12163306Y10605293D03*
%TO.P,RN2,4,R4.1*%
%TO.N,Net-(RN2-R4.1)*%
X12663306Y10605293D03*
%TO.P,RN2,5,R4.2*%
%TO.N,/JTAG_TDI*%
X12663306Y11605293D03*
%TO.P,RN2,6,R3.2*%
%TO.N,/JTAG_TDO*%
X12163306Y11605293D03*
%TO.P,RN2,7,R2.2*%
%TO.N,/SWCLK{slash}JTAG_TCK*%
X11663306Y11605293D03*
%TO.P,RN2,8,R1.2*%
%TO.N,unconnected-(RN2-R1.2-Pad8)*%
X11163306Y11605293D03*
%TD*%
D24*
%TO.P,J2,1*%
%TO.N,/SWRST{slash}JTAG_TRST*%
X762999Y14750000D03*
%TO.P,J2,3*%
%TO.N,/SWCLK{slash}JTAG_TCK*%
X3302999Y14750000D03*
%TO.P,J2,5*%
%TO.N,/SWDIO{slash}JTAG_TMS*%
X5842999Y14750000D03*
%TO.P,J2,7*%
%TO.N,GND*%
X8382999Y14750000D03*
%TO.P,J2,9*%
%TO.N,/TVCC*%
X10922999Y14750000D03*
%TD*%
D13*
%TO.P,C3,1*%
%TO.N,Net-(C10-Pad1)*%
X5766506Y2358093D03*
%TO.P,C3,2*%
%TO.N,GND*%
X5766506Y1398093D03*
%TD*%
D25*
%TO.P,U2,1,EN*%
%TO.N,VBUS*%
X-6929194Y14374293D03*
%TO.P,U2,2,VIN*%
X-6929194Y13724293D03*
%TO.P,U2,3,GND*%
%TO.N,GND*%
X-6929194Y13074293D03*
%TO.P,U2,4,VOUT*%
%TO.N,+3.3V*%
X-6929194Y12424293D03*
%TO.P,U2,5,VOUT*%
X-4804194Y12424293D03*
%TO.P,U2,6,FB*%
%TO.N,Net-(U2-FB)*%
X-4804194Y13074293D03*
%TO.P,U2,7,PG*%
%TO.N,unconnected-(U2-PG-Pad7)*%
X-4804194Y13724293D03*
%TO.P,U2,8,SS/TR*%
%TO.N,Net-(U2-SS{slash}TR)*%
X-4804194Y14374293D03*
D26*
%TO.P,U2,9,GND*%
%TO.N,GND*%
X-5866694Y13399293D03*
%TD*%
D13*
%TO.P,C12,1*%
%TO.N,Net-(U1B-RESETN)*%
X11880986Y2318093D03*
%TO.P,C12,2*%
%TO.N,GND*%
X11880986Y1358093D03*
%TD*%
D15*
%TO.P,R5,1*%
%TO.N,Net-(R5-Pad1)*%
X-3682294Y11064493D03*
%TO.P,R5,2*%
%TO.N,/core/BOOT1*%
X-3682294Y10044493D03*
%TD*%
D27*
%TO.P,L1,1,1*%
%TO.N,+3.3V*%
X7925038Y11495627D03*
%TO.P,L1,2,2*%
%TO.N,/core/Vana*%
X7925038Y10525627D03*
%TD*%
D14*
%TO.P,C16,1*%
%TO.N,GND*%
X13256906Y6592093D03*
%TO.P,C16,2*%
%TO.N,Net-(U1C-VDD_PMCCAP)*%
X12296906Y6592093D03*
%TD*%
D17*
%TO.P,R7,1*%
%TO.N,Net-(J1-CC2)*%
X-4344694Y3514000D03*
%TO.P,R7,2*%
%TO.N,GND*%
X-3324694Y3514000D03*
%TD*%
D28*
%TO.P,J1,A1,GND*%
%TO.N,GND*%
X-6102001Y8464000D03*
%TO.P,J1,A4,VBUS*%
%TO.N,Net-(F1-Pad1)*%
X-6102001Y7664000D03*
D29*
%TO.P,J1,A5,CC1*%
%TO.N,Net-(J1-CC1)*%
X-6102001Y6514000D03*
%TO.P,J1,A6,D+*%
%TO.N,/core/USB_D+*%
X-6102001Y5514000D03*
%TO.P,J1,A7,D-*%
%TO.N,/core/USB_D-*%
X-6102001Y5014000D03*
%TO.P,J1,A8,SBU1*%
%TO.N,unconnected-(J1-SBU1-PadA8)*%
X-6102001Y4014000D03*
D28*
%TO.P,J1,A9,VBUS*%
%TO.N,Net-(F1-Pad1)*%
X-6102001Y2864000D03*
%TO.P,J1,A12,GND*%
%TO.N,GND*%
X-6102001Y2064000D03*
%TO.P,J1,B1,GND*%
X-6102001Y2064000D03*
%TO.P,J1,B4,VBUS*%
%TO.N,Net-(F1-Pad1)*%
X-6102001Y2864000D03*
D29*
%TO.P,J1,B5,CC2*%
%TO.N,Net-(J1-CC2)*%
X-6102001Y3514000D03*
%TO.P,J1,B6,D+*%
%TO.N,/core/USB_D+*%
X-6102001Y4514000D03*
%TO.P,J1,B7,D-*%
%TO.N,/core/USB_D-*%
X-6102001Y6014000D03*
%TO.P,J1,B8,SBU2*%
%TO.N,unconnected-(J1-SBU2-PadB8)*%
X-6102001Y7014000D03*
D28*
%TO.P,J1,B9,VBUS*%
%TO.N,Net-(F1-Pad1)*%
X-6102001Y7664000D03*
%TO.P,J1,B12,GND*%
%TO.N,GND*%
X-6102001Y8464000D03*
D30*
%TO.P,J1,S1,SHIELD*%
X-6677001Y9584000D03*
D31*
X-10857001Y9584000D03*
D30*
X-6677001Y944000D03*
D31*
X-10857001Y944000D03*
%TD*%
D17*
%TO.P,R6,1*%
%TO.N,Net-(J1-CC1)*%
X-4344694Y7760493D03*
%TO.P,R6,2*%
%TO.N,GND*%
X-3324694Y7760493D03*
%TD*%
D32*
%TO.P,R4,1*%
%TO.N,GND*%
X8458906Y1328093D03*
%TO.P,R4,2*%
%TO.N,/core/BOOT0*%
X8458906Y2348093D03*
%TD*%
D15*
%TO.P,R2,1*%
%TO.N,Net-(U2-FB)*%
X-3678194Y12943293D03*
%TO.P,R2,2*%
%TO.N,+3.3V*%
X-3678194Y11923293D03*
%TD*%
D23*
%TO.P,RN1,1,R1.1*%
%TO.N,unconnected-(RN1-R1.1-Pad1)*%
X1155706Y8581293D03*
%TO.P,RN1,2,R2.1*%
%TO.N,Net-(RN1-R2.1)*%
X1655706Y8581293D03*
%TO.P,RN1,3,R3.1*%
%TO.N,Net-(RN1-R3.1)*%
X2155706Y8581293D03*
%TO.P,RN1,4,R4.1*%
%TO.N,Net-(RN1-R4.1)*%
X2655706Y8581293D03*
%TO.P,RN1,5,R4.2*%
%TO.N,/SWRST{slash}JTAG_TRST*%
X2655706Y9581293D03*
%TO.P,RN1,6,R3.2*%
%TO.N,/SWDIO{slash}JTAG_TMS*%
X2155706Y9581293D03*
%TO.P,RN1,7,R2.2*%
%TO.N,/SWCLK{slash}JTAG_TCK*%
X1655706Y9581293D03*
%TO.P,RN1,8,R1.2*%
%TO.N,unconnected-(RN1-R1.2-Pad8)*%
X1155706Y9581293D03*
%TD*%
D13*
%TO.P,C17,1*%
%TO.N,Net-(U1C-VDD_OTPCAP)*%
X9982906Y2318093D03*
%TO.P,C17,2*%
%TO.N,GND*%
X9982906Y1358093D03*
%TD*%
D33*
%TO.P,D5,1,K*%
%TO.N,GND*%
X-1650494Y3036093D03*
%TO.P,D5,2,A*%
%TO.N,Net-(D5-A)*%
X-75494Y3036093D03*
%TD*%
D13*
%TO.P,C22,1*%
%TO.N,GND*%
X8865306Y11490627D03*
%TO.P,C22,2*%
%TO.N,+3.3V*%
X8865306Y10530627D03*
%TD*%
D16*
%TO.P,C21,1*%
%TO.N,+3.3V*%
X-8035752Y11956576D03*
%TO.P,C21,2*%
%TO.N,GND*%
X-8035752Y12916576D03*
%TD*%
D33*
%TO.P,D4,1,K*%
%TO.N,GND*%
X-1650494Y4624493D03*
%TO.P,D4,2,A*%
%TO.N,Net-(D4-A)*%
X-75494Y4624493D03*
%TD*%
D16*
%TO.P,C5,1*%
%TO.N,Net-(C10-Pad1)*%
X6985706Y10530627D03*
%TO.P,C5,2*%
%TO.N,GND*%
X6985706Y11490627D03*
%TD*%
D13*
%TO.P,C7,1*%
%TO.N,Net-(C10-Pad1)*%
X3836106Y4907693D03*
%TO.P,C7,2*%
%TO.N,GND*%
X3836106Y3947693D03*
%TD*%
D34*
%TO.N,Net-(C10-Pad1)*%
X6985706Y10530627D03*
%TO.N,/core/BOOT1*%
X-2133600Y8077200D03*
X-863600Y5283200D03*
%TO.N,Net-(R5-Pad1)*%
X-355600Y7975600D03*
X457200Y6045200D03*
D35*
%TO.N,Net-(C10-Pad1)*%
X9194800Y2342893D03*
%TO.N,Net-(U1A-DCDC_LP)*%
X12700000Y5127605D03*
%TO.N,Net-(C10-Pad1)*%
X5130800Y2997200D03*
D34*
X9547769Y10431810D03*
%TO.N,+3.3V*%
X8865306Y10530627D03*
%TO.N,Net-(C10-Pad1)*%
X3836106Y4907693D03*
%TO.N,/core/Vana*%
X7925038Y10530627D03*
%TO.N,Net-(U1C-VDD_OTPCAP)*%
X9982906Y2318093D03*
%TO.N,/core/USB_D-*%
X-4139494Y5852293D03*
%TO.N,/core/USB_D+*%
X-4139494Y5299893D03*
%TO.N,/core/BOOT1*%
X3848893Y2172493D03*
X7747706Y2286000D03*
D35*
%TO.N,GND*%
X4852106Y1258093D03*
X-1497894Y1258093D03*
X2312106Y1258093D03*
X6703306Y7738093D03*
D34*
X12065706Y12789693D03*
D35*
X-2615494Y16244093D03*
X13081706Y1969293D03*
D34*
X-5866694Y13958093D03*
X-5866694Y12840493D03*
D35*
X-12318294Y15939293D03*
X-1294694Y12637293D03*
X2413706Y3594893D03*
X-5968294Y15939293D03*
X-12419894Y3798093D03*
X-12419894Y7608093D03*
X-9778294Y15939293D03*
X7646106Y648493D03*
X7973306Y6468093D03*
D34*
X4852106Y9906993D03*
D35*
X-12318294Y13399293D03*
X13386506Y8116093D03*
X6703306Y5198093D03*
X-1294694Y8624093D03*
X-227894Y1258093D03*
X13081706Y3239293D03*
X-12419894Y6338093D03*
D34*
X-5866694Y13399293D03*
D35*
X-8508294Y15939293D03*
X-24694Y12637293D03*
X-12318294Y14669293D03*
D34*
X9474906Y11367293D03*
D35*
X-12318294Y12129293D03*
X-2564694Y12637293D03*
X-4037894Y1258093D03*
X-7238294Y15939293D03*
X6376106Y648493D03*
X3582106Y1258093D03*
X8916106Y648493D03*
D34*
X6274506Y11367293D03*
D35*
X9243306Y7738093D03*
D34*
X6782506Y12738893D03*
D35*
X-11048294Y15939293D03*
X-12419894Y5068093D03*
X-1345494Y16244093D03*
X-2767894Y1258093D03*
X9243306Y5198093D03*
%TO.N,+3.3V*%
X2769306Y4937693D03*
D34*
X6411464Y2358093D03*
D35*
X2464506Y6795293D03*
D34*
%TO.N,/SWDIO{slash}JTAG_TMS*%
X2159706Y10706893D03*
%TO.N,/SWCLK{slash}JTAG_TCK*%
X1651706Y11570493D03*
X9678106Y12129293D03*
%TO.N,/SWRST{slash}JTAG_TRST*%
X3124906Y9296400D03*
%TO.N,/JTAG_TDO*%
X10135306Y11519693D03*
X10998906Y9944893D03*
%TO.N,/JTAG_TDI*%
X13335706Y10097293D03*
X9309527Y12606021D03*
%TO.N,VBUS*%
X-8813094Y14212093D03*
%TO.N,Net-(U1D-PA00{slash}TMR1.COMP0{slash}URT0.TXD{slash}TRGM0.P00)*%
X10769600Y3251200D03*
%TO.N,Net-(U1D-PA01{slash}TMR1.CAPT0{slash}URT0.RXD{slash}TRGM0.P01{slash}ACMP.COMP0)*%
X11405306Y3086893D03*
%TO.N,+3.3V*%
X11938000Y5458593D03*
%TD*%
D36*
%TO.N,/SWRST{slash}JTAG_TRST*%
X2915507Y9581293D02*
X2655706Y9581293D01*
X3124906Y9371894D02*
X2915507Y9581293D01*
X3124906Y9296400D02*
X3124906Y9371894D01*
X558800Y9394793D02*
X558800Y11430000D01*
X2643006Y9140793D02*
X812800Y9140793D01*
X2655706Y9153493D02*
X2643006Y9140793D01*
X2655706Y9581293D02*
X2655706Y9153493D01*
X812800Y9140793D02*
X558800Y9394793D01*
D37*
%TO.N,+3.3V*%
X1854906Y6795293D02*
X101600Y8548599D01*
X101600Y8548599D02*
X101600Y9652000D01*
X101600Y9652000D02*
X-513293Y10266893D01*
X-513293Y10266893D02*
X-1091494Y10266893D01*
X2464506Y6795293D02*
X1854906Y6795293D01*
D36*
%TO.N,/SWRST{slash}JTAG_TRST*%
X762999Y13018000D02*
X762999Y14750000D01*
X558800Y12813801D02*
X762999Y13018000D01*
X558800Y11430000D02*
X558800Y12813801D01*
%TO.N,+3.3V*%
X7547006Y1847593D02*
X7036506Y2358093D01*
X12261592Y1847593D02*
X7547006Y1847593D01*
X12496800Y2082801D02*
X12261592Y1847593D01*
X13258800Y5283200D02*
X13258800Y4116847D01*
X12919095Y5622905D02*
X13258800Y5283200D01*
X12102312Y5622905D02*
X12919095Y5622905D01*
X11938000Y5458593D02*
X12102312Y5622905D01*
X12496800Y3354847D02*
X12496800Y2082801D01*
X13258800Y4116847D02*
X12496800Y3354847D01*
X10922000Y1354199D02*
X10922000Y1847593D01*
X10948106Y1328093D02*
X10922000Y1354199D01*
D38*
%TO.N,/core/SPI_CS*%
X5574707Y6668093D02*
X5023306Y6668093D01*
X5638800Y6604000D02*
X5574707Y6668093D01*
X5638800Y4272399D02*
X5638800Y6604000D01*
X10238406Y4202993D02*
X5708206Y4202993D01*
X5708206Y4202993D02*
X5638800Y4272399D01*
X10273306Y8675094D02*
X10273306Y4237893D01*
X10173306Y8775094D02*
X10273306Y8675094D01*
X10273306Y4237893D02*
X10238406Y4202993D01*
X10173306Y9418093D02*
X10173306Y8775094D01*
D36*
%TO.N,Net-(C10-Pad1)*%
X6973306Y10518227D02*
X6973306Y9418093D01*
X6985706Y10530627D02*
X6973306Y10518227D01*
D37*
%TO.N,+3.3V*%
X-1091494Y11353094D02*
X-1091494Y10266893D01*
X-1661693Y11923293D02*
X-1091494Y11353094D01*
X-3678194Y11923293D02*
X-1661693Y11923293D01*
D36*
%TO.N,/core/BOOT1*%
X-3682294Y9625894D02*
X-3682294Y10044493D01*
X-2133600Y8077200D02*
X-3682294Y9625894D01*
X-812800Y5232400D02*
X-863600Y5283200D01*
X-271722Y2172493D02*
X-812800Y2713571D01*
X-812800Y2713571D02*
X-812800Y5232400D01*
X3848893Y2172493D02*
X-271722Y2172493D01*
D38*
%TO.N,Net-(R5-Pad1)*%
X-761391Y6045200D02*
X-937289Y6221098D01*
X457200Y6045200D02*
X-761391Y6045200D01*
X-355600Y8940800D02*
X-355600Y7975600D01*
X-762000Y9347200D02*
X-355600Y8940800D01*
X-1965001Y9347200D02*
X-762000Y9347200D01*
X-3682294Y11064493D02*
X-1965001Y9347200D01*
D37*
%TO.N,Net-(U1A-DCDC_LP)*%
X10961406Y5029993D02*
X10923306Y5068093D01*
X12213144Y5127605D02*
X12115532Y5029993D01*
X12700000Y5127605D02*
X12213144Y5127605D01*
X12115532Y5029993D02*
X10961406Y5029993D01*
D36*
%TO.N,Net-(C10-Pad1)*%
X8973306Y9857347D02*
X8973306Y9418093D01*
X9547769Y10431810D02*
X8973306Y9857347D01*
%TO.N,Net-(U1C-VDD_OTPCAP)*%
X9373306Y2927693D02*
X9373306Y3518093D01*
X9982906Y2318093D02*
X9373306Y2927693D01*
%TO.N,/core/BOOT1*%
X7747706Y2556493D02*
X8173306Y2982093D01*
X8173306Y2982093D02*
X8173306Y3518093D01*
X7747706Y2286000D02*
X7747706Y2556493D01*
D38*
%TO.N,Net-(U1D-PA00{slash}TMR1.COMP0{slash}URT0.TXD{slash}TRGM0.P00)*%
X10769600Y3251200D02*
X10502707Y3518093D01*
X10502707Y3518093D02*
X10173306Y3518093D01*
%TO.N,Net-(U1D-PA01{slash}TMR1.CAPT0{slash}URT0.RXD{slash}TRGM0.P01{slash}ACMP.COMP0)*%
X9773306Y3012431D02*
X9773306Y3518093D01*
X9981544Y2804193D02*
X9773306Y3012431D01*
X11122606Y2804193D02*
X9981544Y2804193D01*
X11405306Y3086893D02*
X11122606Y2804193D01*
D36*
%TO.N,Net-(C10-Pad1)*%
X5766506Y2361494D02*
X5130800Y2997200D01*
X5766506Y2358093D02*
X5766506Y2361494D01*
%TO.N,+3.3V*%
X11928500Y5468093D02*
X11938000Y5458593D01*
X10923306Y5468093D02*
X11928500Y5468093D01*
%TO.N,Net-(C10-Pad1)*%
X7373306Y3093093D02*
X7373306Y3518093D01*
X7125013Y2844800D02*
X7373306Y3093093D01*
X6253213Y2844800D02*
X7125013Y2844800D01*
X5766506Y2358093D02*
X6253213Y2844800D01*
%TO.N,+3.3V*%
X8573306Y10238627D02*
X8865306Y10530627D01*
X8573306Y9418093D02*
X8573306Y10238627D01*
X7773306Y3518093D02*
X7773306Y2977225D01*
X7773306Y2977225D02*
X7154174Y2358093D01*
X7154174Y2358093D02*
X7036506Y2358093D01*
D39*
X6411464Y2358093D02*
X7036506Y2358093D01*
D36*
%TO.N,Net-(C10-Pad1)*%
X4396506Y5468093D02*
X5023306Y5468093D01*
X3836106Y4907693D02*
X4396506Y5468093D01*
D39*
%TO.N,/core/Vana*%
X7495205Y10095794D02*
X7925038Y10525627D01*
X7773306Y10373895D02*
X7925038Y10525627D01*
X7373306Y9418093D02*
X7373306Y9973895D01*
X7520605Y10121194D02*
X7698605Y10121194D01*
X7773306Y10046493D02*
X7773306Y10373895D01*
X7773306Y9418093D02*
X7773306Y10046493D01*
X7373306Y9973895D02*
X7495205Y10095794D01*
X7495205Y10095794D02*
X7520605Y10121194D01*
X7698605Y10121194D02*
X7773306Y10046493D01*
D36*
%TO.N,Net-(U1B-RESETN)*%
X11646506Y4268093D02*
X11880986Y4033613D01*
X10948106Y2348093D02*
X11850986Y2348093D01*
X11880986Y4033613D02*
X11880986Y2318093D01*
X10923306Y4268093D02*
X11646506Y4268093D01*
X11850986Y2348093D02*
X11880986Y2318093D01*
%TO.N,Net-(U1C-VDD_PMCCAP)*%
X12296906Y6592093D02*
X12296906Y7515693D01*
X11572906Y5868093D02*
X12296906Y6592093D01*
X10923306Y5868093D02*
X11572906Y5868093D01*
D37*
%TO.N,Net-(U2-SS{slash}TR)*%
X-4804194Y14817393D02*
X-4598194Y15023393D01*
X-4598194Y15023393D02*
X-4598194Y15670311D01*
X-4804194Y14374293D02*
X-4804194Y14817393D01*
D40*
%TO.N,/core/USB_D-*%
X-4139494Y5852293D02*
X-4404525Y5852293D01*
X-4404525Y5852293D02*
X-4566232Y6014000D01*
X-6829401Y5861599D02*
X-6829401Y5167200D01*
X-4566232Y6014000D02*
X-6102001Y6014000D01*
X4385805Y6268093D02*
X4287405Y6169693D01*
X-3964895Y5677694D02*
X-4139494Y5852293D01*
X-3927579Y5677694D02*
X-3964895Y5677694D01*
X-6677000Y6014000D02*
X-6829401Y5861599D01*
X-6829401Y5167200D02*
X-6676201Y5014000D01*
X-2301980Y7303293D02*
X-3927579Y5677694D01*
X4287405Y6169693D02*
X1303392Y6169693D01*
X-6102001Y6014000D02*
X-6677000Y6014000D01*
X-6676201Y5014000D02*
X-6102001Y5014000D01*
X1303392Y6169693D02*
X169792Y7303293D01*
X169792Y7303293D02*
X-2301980Y7303293D01*
X5023306Y6268093D02*
X4385805Y6268093D01*
%TO.N,/core/USB_D+*%
X-5333458Y5514000D02*
X-6102001Y5514000D01*
X-5036659Y5810799D02*
X-5333458Y5514000D01*
X-5669094Y4514000D02*
X-6102001Y4514000D01*
X-3843409Y5474492D02*
X-3964895Y5474492D01*
X1219220Y5966493D02*
X85620Y7100093D01*
X-5333458Y5514000D02*
X-5333458Y4849636D01*
X-2217808Y7100093D02*
X-3843409Y5474492D01*
X-4650400Y5810799D02*
X-5036659Y5810799D01*
X4385805Y5868093D02*
X4287405Y5966493D01*
X5023306Y5868093D02*
X4385805Y5868093D01*
X-3964895Y5474492D02*
X-4139494Y5299893D01*
X4287405Y5966493D02*
X1219220Y5966493D01*
X-5333458Y4849636D02*
X-5669094Y4514000D01*
X85620Y7100093D02*
X-2217808Y7100093D01*
X-4139494Y5299893D02*
X-4650400Y5810799D01*
D36*
%TO.N,Net-(J1-CC2)*%
X-6102001Y3514000D02*
X-4344694Y3514000D01*
%TO.N,Net-(J1-CC1)*%
X-4344694Y7760493D02*
X-4344694Y6945693D01*
X-4776387Y6514000D02*
X-6102001Y6514000D01*
X-4344694Y6945693D02*
X-4776387Y6514000D01*
D37*
%TO.N,Net-(U2-FB)*%
X-4804194Y13074293D02*
X-3809194Y13074293D01*
X-3809194Y13074293D02*
X-3678194Y12943293D01*
X-3678194Y13703293D02*
X-3678194Y12943293D01*
D36*
%TO.N,/core/BOOT0*%
X8573306Y2462493D02*
X8458906Y2348093D01*
X8573306Y3518093D02*
X8573306Y2462493D01*
D38*
%TO.N,Net-(RN1-R4.1)*%
X3285306Y8581293D02*
X2655706Y8581293D01*
X5023306Y8668093D02*
X3372106Y8668093D01*
X3372106Y8668093D02*
X3285306Y8581293D01*
%TO.N,Net-(RN1-R3.1)*%
X2155706Y8144293D02*
X2155706Y8581293D01*
X2431906Y7868093D02*
X2155706Y8144293D01*
X5023306Y7868093D02*
X2431906Y7868093D01*
%TO.N,Net-(RN1-R2.1)*%
X5023306Y7068093D02*
X4223706Y7068093D01*
X1655706Y8144293D02*
X1655706Y8581293D01*
X3652306Y7639493D02*
X2160506Y7639493D01*
X4223706Y7068093D02*
X3652306Y7639493D01*
X2160506Y7639493D02*
X1655706Y8144293D01*
D36*
%TO.N,Net-(D4-A)*%
X1074906Y3917693D02*
X1600906Y3917693D01*
X723706Y4624493D02*
X889706Y4458493D01*
X-75494Y4624493D02*
X723706Y4624493D01*
X889706Y4102893D02*
X1074906Y3917693D01*
X889706Y4458493D02*
X889706Y4102893D01*
%TO.N,Net-(RN2-R2.1)*%
X11663306Y9796493D02*
X11663306Y10605293D01*
X10923306Y9056493D02*
X11663306Y9796493D01*
X10923306Y8668093D02*
X10923306Y9056493D01*
%TO.N,Net-(RN2-R3.1)*%
X10923306Y8268093D02*
X11568126Y8268093D01*
X12065706Y8621341D02*
X12163306Y8718941D01*
X11568126Y8268093D02*
X11921374Y8621341D01*
X12163306Y8718941D02*
X12163306Y10605293D01*
X11921374Y8621341D02*
X12065706Y8621341D01*
%TO.N,Net-(RN2-R4.1)*%
X12037106Y8341941D02*
X12291554Y8341941D01*
X12663306Y8713693D02*
X12663306Y10605293D01*
X12291554Y8341941D02*
X12663306Y8713693D01*
X10923306Y7868093D02*
X11563258Y7868093D01*
X11563258Y7868093D02*
X12037106Y8341941D01*
%TO.N,/core/XTALO*%
X3144106Y10291694D02*
X4017707Y9418093D01*
X3144106Y11141693D02*
X3144106Y10291694D01*
X4017707Y9418093D02*
X5773306Y9418093D01*
%TO.N,/core/XTALI*%
X6173306Y9995293D02*
X6173306Y9418093D01*
X5544106Y10624493D02*
X6173306Y9995293D01*
X5544106Y11141693D02*
X5544106Y10624493D01*
D39*
%TO.N,GND*%
X8173306Y6668093D02*
X8173306Y9418093D01*
D36*
X4852106Y9906993D02*
X4585206Y9906993D01*
X4585206Y9906993D02*
X4344106Y10148093D01*
X4344106Y10148093D02*
X4344106Y11141693D01*
D39*
X7973306Y6468093D02*
X8173306Y6668093D01*
D36*
%TO.N,+3.3V*%
X1600906Y4937693D02*
X2769306Y4937693D01*
D39*
X7925038Y11495627D02*
X7925038Y11494761D01*
X7925038Y11494761D02*
X8865306Y10554493D01*
X8865306Y10554493D02*
X8865306Y10530627D01*
D36*
%TO.N,/SWDIO{slash}JTAG_TMS*%
X2159706Y10503693D02*
X2159706Y10706893D01*
X2769306Y12891293D02*
X2159706Y12281693D01*
X2155706Y9581293D02*
X2155706Y10499693D01*
X2159706Y12281693D02*
X2159706Y10706893D01*
X5842999Y14750000D02*
X5842999Y13678986D01*
X5055306Y12891293D02*
X2769306Y12891293D01*
X2155706Y10499693D02*
X2159706Y10503693D01*
X5842999Y13678986D02*
X5055306Y12891293D01*
%TO.N,/SWCLK{slash}JTAG_TCK*%
X2261306Y14618493D02*
X2261306Y12840493D01*
X11663306Y12033093D02*
X11567106Y12129293D01*
X1655706Y12234893D02*
X1655706Y9581293D01*
X3302999Y14750000D02*
X2392813Y14750000D01*
X2392813Y14750000D02*
X2261306Y14618493D01*
X11567106Y12129293D02*
X9678106Y12129293D01*
X11663306Y11605293D02*
X11663306Y12033093D01*
X2261306Y12840493D02*
X1655706Y12234893D01*
%TO.N,/JTAG_TDO*%
X12163306Y11605293D02*
X12163306Y11177493D01*
X10135306Y11519693D02*
X10338506Y11519693D01*
X10744906Y10960893D02*
X10744906Y10198893D01*
X12099106Y11113293D02*
X10897306Y11113293D01*
X10821106Y11037093D02*
X10744906Y10960893D01*
X10744906Y10198893D02*
X10998906Y9944893D01*
X12163306Y11314293D02*
X12163306Y11605293D01*
X12163306Y11177493D02*
X12099106Y11113293D01*
X10897306Y11113293D02*
X10821106Y11037093D01*
X10338506Y11519693D02*
X10821106Y11037093D01*
%TO.N,/JTAG_TDI*%
X9950957Y12408693D02*
X11682837Y12408693D01*
X12663306Y11605293D02*
X13335706Y10932893D01*
X11962237Y12129293D02*
X12573706Y12129293D01*
X11682837Y12408693D02*
X11962237Y12129293D01*
X9309527Y12606021D02*
X9753629Y12606021D01*
X13335706Y10932893D02*
X13335706Y10097293D01*
X9753629Y12606021D02*
X9950957Y12408693D01*
X12663306Y12039693D02*
X12663306Y11605293D01*
X12573706Y12129293D02*
X12663306Y12039693D01*
D37*
%TO.N,Net-(F1-Pad1)*%
X-9067094Y10910093D02*
X-9930694Y11773693D01*
X-9061001Y7602000D02*
X-9067094Y7608093D01*
X-6102001Y2864000D02*
X-6164001Y2926000D01*
X-8195001Y2926000D02*
X-9067094Y3798093D01*
X-9067094Y7608093D02*
X-9067094Y10910093D01*
X-9930694Y11773693D02*
X-9930694Y12611793D01*
X-6164001Y2926000D02*
X-8195001Y2926000D01*
X-6164001Y7602000D02*
X-9061001Y7602000D01*
X-6102001Y7664000D02*
X-6164001Y7602000D01*
X-9067094Y3798093D02*
X-9067094Y7608093D01*
D36*
%TO.N,Net-(D5-A)*%
X940506Y2782093D02*
X1548106Y2782093D01*
X686506Y3036093D02*
X940506Y2782093D01*
X-75494Y3036093D02*
X686506Y3036093D01*
%TO.N,/core/LED*%
X5023306Y3715293D02*
X5023306Y4268093D01*
X4090106Y2782093D02*
X5023306Y3715293D01*
X2568106Y2782093D02*
X4090106Y2782093D01*
%TO.N,Net-(U1D-PA01{slash}TMR1.CAPT0{slash}URT0.RXD{slash}TRGM0.P01{slash}ACMP.COMP0)*%
X9773306Y3518093D02*
X9773306Y3398093D01*
X9773306Y3398093D02*
X9779706Y3391693D01*
%TO.N,+3.3V*%
X6573306Y9418093D02*
X6573306Y10089094D01*
X6350000Y10312400D02*
X6350000Y10820400D01*
X6573306Y10089094D02*
X6350000Y10312400D01*
X6530727Y11001127D02*
X7430538Y11001127D01*
X6350000Y10820400D02*
X6530727Y11001127D01*
X7430538Y11001127D02*
X7925038Y11495627D01*
%TO.N,Net-(C10-Pad1)*%
X8973306Y2564387D02*
X8973306Y3518093D01*
X9194800Y2342893D02*
X8973306Y2564387D01*
%TD*%
%TA.AperFunction,Conductor*%
%TO.N,VBUS*%
G36*
X-6999553Y15007152D02*
G01*
X-6629420Y14637019D01*
X-6616694Y14606295D01*
X-6616694Y14521241D01*
X-6624017Y14497102D01*
X-6656427Y14448598D01*
X-6656429Y14448594D01*
X-6671194Y14374363D01*
X-6671194Y13622243D01*
X-6683920Y13591519D01*
X-6714644Y13578793D01*
X-7152703Y13578793D01*
X-7152715Y13578792D01*
X-7226475Y13568046D01*
X-7340260Y13512421D01*
X-7365662Y13487019D01*
X-7396386Y13474293D01*
X-7441688Y13474293D01*
X-7472412Y13487019D01*
X-7485138Y13517743D01*
X-7484603Y13524540D01*
X-7471252Y13608833D01*
X-7471253Y13950922D01*
X-7485884Y14043305D01*
X-7485885Y14043307D01*
X-7485886Y14043310D01*
X-7542616Y14154648D01*
X-7630983Y14243015D01*
X-7742324Y14299746D01*
X-7788516Y14307062D01*
X-7834707Y14314378D01*
X-7834708Y14314378D01*
X-8236795Y14314378D01*
X-8236797Y14314377D01*
X-8329178Y14299747D01*
X-8329184Y14299745D01*
X-8440522Y14243015D01*
X-8528889Y14154648D01*
X-8585620Y14043307D01*
X-8585620Y14043306D01*
X-8600252Y13950924D01*
X-8600252Y13608836D01*
X-8600251Y13608834D01*
X-8586901Y13524540D01*
X-8594664Y13492203D01*
X-8623019Y13474828D01*
X-8629816Y13474293D01*
X-10112696Y13474293D01*
X-10143420Y13487019D01*
X-10392968Y13736567D01*
X-10405694Y13767291D01*
X-10405694Y14606295D01*
X-10392968Y14637019D01*
X-10022835Y15007152D01*
X-9992111Y15019878D01*
X-7030277Y15019878D01*
X-6999553Y15007152D01*
G37*
%TD.AperFunction*%
%TD*%
%TA.AperFunction,Conductor*%
%TO.N,+3.3V*%
G36*
X-7365662Y12661567D02*
G01*
X-7340262Y12636167D01*
X-7226476Y12580541D01*
X-7226473Y12580541D01*
X-7226471Y12580540D01*
X-7198741Y12576500D01*
X-7152707Y12569793D01*
X-6714644Y12569794D01*
X-6683920Y12557068D01*
X-6671194Y12526344D01*
X-6671194Y12424224D01*
X-6656429Y12349995D01*
X-6656427Y12349990D01*
X-6600180Y12265811D01*
X-6600178Y12265809D01*
X-6515995Y12209559D01*
X-6441761Y12194793D01*
X-5291628Y12194794D01*
X-5291625Y12194794D01*
X-5254511Y12202177D01*
X-5217393Y12209559D01*
X-5133210Y12265809D01*
X-5076960Y12349992D01*
X-5062194Y12424226D01*
X-5062195Y12526345D01*
X-5049469Y12557067D01*
X-5018748Y12569794D01*
X-4580682Y12569794D01*
X-4580677Y12569795D01*
X-4580674Y12569795D01*
X-4546196Y12574818D01*
X-4506912Y12580541D01*
X-4393126Y12636167D01*
X-4367726Y12661567D01*
X-4337002Y12674293D01*
X-4258689Y12674293D01*
X-4227965Y12661567D01*
X-4219975Y12650568D01*
X-4182237Y12576500D01*
X-4094989Y12489252D01*
X-4024705Y12453441D01*
X-3985056Y12433239D01*
X-3893847Y12418793D01*
X-3601693Y12418794D01*
X-3570969Y12406068D01*
X-3370920Y12206019D01*
X-3358194Y12175295D01*
X-3358194Y11622690D01*
X-3370920Y11591966D01*
X-3401644Y11579240D01*
X-3408440Y11579775D01*
X-3466641Y11588993D01*
X-3466642Y11588993D01*
X-3897945Y11588993D01*
X-3897947Y11588992D01*
X-3989155Y11574548D01*
X-3989161Y11574546D01*
X-4099089Y11518535D01*
X-4186336Y11431288D01*
X-4242348Y11321357D01*
X-4242348Y11321356D01*
X-4256794Y11230147D01*
X-4256794Y10898843D01*
X-4256793Y10898839D01*
X-4248225Y10844739D01*
X-4255989Y10812403D01*
X-4284344Y10795028D01*
X-4291140Y10794493D01*
X-7445671Y10794493D01*
X-7476395Y10807219D01*
X-8333026Y11663850D01*
X-8345752Y11694574D01*
X-8345752Y12218579D01*
X-8333027Y12249302D01*
X-8212977Y12369352D01*
X-8182257Y12382077D01*
X-7834708Y12382077D01*
X-7742325Y12396708D01*
X-7630981Y12453441D01*
X-7542617Y12541805D01*
X-7494537Y12636166D01*
X-7487198Y12650569D01*
X-7461911Y12672166D01*
X-7448484Y12674293D01*
X-7396386Y12674293D01*
X-7365662Y12661567D01*
G37*
%TD.AperFunction*%
%TD*%
%TA.AperFunction,Conductor*%
%TO.N,GND*%
G36*
X-870227Y16686774D02*
G01*
X-857501Y16656050D01*
X-857501Y16460432D01*
X-837023Y16384012D01*
X-837022Y16384011D01*
X-797461Y16315489D01*
X-741512Y16259540D01*
X-672990Y16219979D01*
X-596570Y16199501D01*
X-596563Y16199500D01*
X66649Y16199500D01*
X97373Y16186774D01*
X110099Y16156050D01*
X110099Y13184942D01*
X117005Y13150225D01*
X118971Y13140342D01*
X118971Y13140341D01*
X118973Y13140337D01*
X152761Y13089770D01*
X152768Y13089763D01*
X203337Y13055974D01*
X203341Y13055972D01*
X247942Y13047100D01*
X345245Y13047101D01*
X375967Y13034375D01*
X388694Y13003651D01*
X375968Y12972928D01*
X353813Y12950773D01*
X349620Y12940650D01*
X318622Y12865812D01*
X317000Y12861897D01*
X317000Y9937336D01*
X304274Y9906612D01*
X273550Y9893886D01*
X242826Y9906612D01*
X74132Y10075306D01*
X61406Y10106030D01*
X61406Y10500385D01*
X61405Y10500396D01*
X51413Y10568976D01*
X51412Y10568978D01*
X51412Y10568981D01*
X-315Y10674791D01*
X-83596Y10758072D01*
X-83599Y10758074D01*
X-147084Y10789109D01*
X-189406Y10809799D01*
X-189408Y10809800D01*
X-189412Y10809801D01*
X-257992Y10819793D01*
X-258000Y10819793D01*
X-768144Y10819793D01*
X-798868Y10832519D01*
X-811594Y10863243D01*
X-811594Y11389944D01*
X-811595Y11389951D01*
X-829188Y11455606D01*
X-829189Y11455607D01*
X-830388Y11460082D01*
X-830669Y11461131D01*
X-830669Y11461132D01*
X-867518Y11524956D01*
X-1489831Y12147269D01*
X-1553656Y12184118D01*
X-1553657Y12184119D01*
X-1624837Y12203193D01*
X-1624843Y12203193D01*
X-3068584Y12203193D01*
X-3099308Y12215919D01*
X-3111199Y12238167D01*
X-3118445Y12274594D01*
X-3118446Y12274598D01*
X-3118446Y12274599D01*
X-3131172Y12305323D01*
X-3131173Y12305325D01*
X-3187426Y12389513D01*
X-3315402Y12517489D01*
X-3328127Y12548211D01*
X-3315402Y12578934D01*
X-3251563Y12642772D01*
X-3208087Y12741236D01*
X-3205294Y12765309D01*
X-3205294Y13121277D01*
X-3208087Y13145350D01*
X-3251563Y13243814D01*
X-3251564Y13243816D01*
X-3300318Y13292569D01*
X-3313045Y13323293D01*
X-3300319Y13354016D01*
X-3251564Y13402771D01*
X-3251563Y13402772D01*
X-3208087Y13501236D01*
X-3205294Y13525309D01*
X-3205294Y13881277D01*
X-3208087Y13905350D01*
X-3230151Y13955321D01*
X-3251562Y14003813D01*
X-3327675Y14079926D01*
X-3426137Y14123400D01*
X-3426135Y14123400D01*
X-3433015Y14124198D01*
X-3450210Y14126193D01*
X-3906178Y14126193D01*
X-3923373Y14124198D01*
X-3930253Y14123400D01*
X-4028714Y14079926D01*
X-4104827Y14003813D01*
X-4148301Y13905352D01*
X-4148301Y13905350D01*
X-4151094Y13881277D01*
X-4151094Y13525309D01*
X-4150819Y13522941D01*
X-4148301Y13501235D01*
X-4110310Y13415193D01*
X-4109542Y13381947D01*
X-4132508Y13357895D01*
X-4150058Y13354193D01*
X-4360586Y13354193D01*
X-4391310Y13366919D01*
X-4392960Y13368569D01*
X-4405686Y13399293D01*
X-4392960Y13430017D01*
X-4391343Y13431634D01*
X-4383456Y13439521D01*
X-4341489Y13534565D01*
X-4338794Y13557796D01*
X-4338795Y13890789D01*
X-4341489Y13914021D01*
X-4383456Y14009065D01*
X-4392960Y14018569D01*
X-4405686Y14049293D01*
X-4392960Y14080017D01*
X-4383456Y14089521D01*
X-4341489Y14184565D01*
X-4338794Y14207796D01*
X-4338795Y14540789D01*
X-4341489Y14564021D01*
X-4383456Y14659065D01*
X-4444347Y14719956D01*
X-4457073Y14750680D01*
X-4444348Y14781402D01*
X-4374218Y14851531D01*
X-4337369Y14915356D01*
X-4331533Y14937138D01*
X-4318295Y14986537D01*
X-4318294Y14986544D01*
X-4318294Y15213589D01*
X-4305568Y15244313D01*
X-4292394Y15253338D01*
X-4289798Y15254483D01*
X-4212366Y15331915D01*
X-4168135Y15432090D01*
X-4165294Y15456577D01*
X-4165294Y15884045D01*
X-4168135Y15908532D01*
X-4212366Y16008707D01*
X-4289798Y16086139D01*
X-4289799Y16086140D01*
X-4289798Y16086140D01*
X-4389973Y16130370D01*
X-4389971Y16130370D01*
X-4396970Y16131182D01*
X-4414460Y16133211D01*
X-4781928Y16133211D01*
X-4799419Y16131182D01*
X-4806417Y16130370D01*
X-4906590Y16086140D01*
X-4984023Y16008707D01*
X-5028253Y15908534D01*
X-5028253Y15908532D01*
X-5031094Y15884045D01*
X-5031094Y15456577D01*
X-5028727Y15436172D01*
X-5028253Y15432089D01*
X-4984023Y15331916D01*
X-4984022Y15331915D01*
X-4906590Y15254483D01*
X-4903996Y15253338D01*
X-4881029Y15229287D01*
X-4878094Y15213589D01*
X-4878094Y15157329D01*
X-4890820Y15126605D01*
X-5028170Y14989256D01*
X-5065019Y14925431D01*
X-5065020Y14925430D01*
X-5084094Y14854250D01*
X-5084094Y14790592D01*
X-5096820Y14759868D01*
X-5109992Y14750845D01*
X-5151466Y14732532D01*
X-5224931Y14659067D01*
X-5266899Y14564021D01*
X-5269594Y14540786D01*
X-5269594Y14207802D01*
X-5269593Y14207797D01*
X-5266899Y14184565D01*
X-5224932Y14089521D01*
X-5224931Y14089520D01*
X-5215428Y14080017D01*
X-5202702Y14049293D01*
X-5215428Y14018569D01*
X-5224931Y14009067D01*
X-5224932Y14009066D01*
X-5224932Y14009065D01*
X-5259622Y13930502D01*
X-5266899Y13914021D01*
X-5269594Y13890786D01*
X-5269594Y13557802D01*
X-5267482Y13539592D01*
X-5266899Y13534565D01*
X-5224932Y13439521D01*
X-5224931Y13439520D01*
X-5215428Y13430017D01*
X-5202702Y13399293D01*
X-5215428Y13368569D01*
X-5224931Y13359067D01*
X-5224932Y13359066D01*
X-5224932Y13359065D01*
X-5266899Y13264021D01*
X-5269339Y13242981D01*
X-5269594Y13240786D01*
X-5269594Y12907802D01*
X-5268119Y12895084D01*
X-5266899Y12884565D01*
X-5228154Y12796817D01*
X-5224418Y12788358D01*
X-5223650Y12755111D01*
X-5230742Y12744228D01*
X-5230584Y12744122D01*
X-5284873Y12662874D01*
X-5289214Y12656377D01*
X-5293270Y12646585D01*
X-5301350Y12627080D01*
X-5301759Y12626184D01*
X-5301945Y12625642D01*
X-5321695Y12526346D01*
X-5321695Y12497744D01*
X-5334421Y12467020D01*
X-5365145Y12454294D01*
X-6368244Y12454294D01*
X-6398968Y12467020D01*
X-6411694Y12497744D01*
X-6411694Y12526348D01*
X-6431445Y12625643D01*
X-6431446Y12625647D01*
X-6431446Y12625648D01*
X-6444172Y12656372D01*
X-6444174Y12656376D01*
X-6500427Y12740564D01*
X-6584616Y12796816D01*
X-6615340Y12809542D01*
X-6615342Y12809543D01*
X-6615346Y12809544D01*
X-6661150Y12818654D01*
X-6670226Y12821522D01*
X-6676964Y12824498D01*
X-6700214Y12827195D01*
X-6701453Y12827266D01*
X-6701448Y12827355D01*
X-6708279Y12828028D01*
X-6714645Y12829294D01*
X-7130756Y12829294D01*
X-7137026Y12829749D01*
X-7142224Y12830507D01*
X-7155037Y12834467D01*
X-7194419Y12853719D01*
X-7199475Y12856626D01*
X-7235999Y12881030D01*
X-7266358Y12901315D01*
X-7297082Y12914041D01*
X-7297084Y12914042D01*
X-7297088Y12914043D01*
X-7396383Y12933793D01*
X-7396386Y12933793D01*
X-7448484Y12933793D01*
X-7448496Y12933793D01*
X-7489073Y12930598D01*
X-7489089Y12930597D01*
X-7498431Y12929117D01*
X-7502513Y12928470D01*
X-7502516Y12928470D01*
X-7502518Y12928469D01*
X-7502520Y12928469D01*
X-7542100Y12918966D01*
X-7630441Y12869494D01*
X-7655726Y12847898D01*
X-7655728Y12847896D01*
X-7718414Y12768382D01*
X-7718414Y12768381D01*
X-7724159Y12757109D01*
X-7724201Y12757024D01*
X-7752051Y12702368D01*
X-7760041Y12691371D01*
X-7780548Y12670864D01*
X-7791546Y12662874D01*
X-7817382Y12649710D01*
X-7830309Y12645509D01*
X-7841701Y12643705D01*
X-7851757Y12642112D01*
X-7858551Y12641577D01*
X-8182262Y12641577D01*
X-8281559Y12621826D01*
X-8281565Y12621824D01*
X-8312285Y12609099D01*
X-8396469Y12552848D01*
X-8396474Y12552844D01*
X-8514823Y12434495D01*
X-8515607Y12433794D01*
X-8516531Y12432787D01*
X-8572775Y12348606D01*
X-8585501Y12317882D01*
X-8585503Y12317874D01*
X-8605252Y12218583D01*
X-8605252Y11694571D01*
X-8585502Y11595276D01*
X-8585501Y11595272D01*
X-8585500Y11595270D01*
X-8572774Y11564546D01*
X-8572773Y11564544D01*
X-8516520Y11480356D01*
X-8087807Y11051643D01*
X-7660856Y10624692D01*
X-7660046Y10623830D01*
X-7659890Y10623726D01*
X-7659889Y10623725D01*
X-7659888Y10623723D01*
X-7601239Y10584536D01*
X-7582764Y10556888D01*
X-7589251Y10524271D01*
X-7608751Y10508267D01*
X-7700680Y10470189D01*
X-7864461Y10360753D01*
X-8003754Y10221460D01*
X-8113191Y10057678D01*
X-8113191Y10057677D01*
X-8188573Y9875687D01*
X-8188575Y9875679D01*
X-8196865Y9834001D01*
X-8196864Y9834000D01*
X-7393989Y9834000D01*
X-7411206Y9824060D01*
X-7467061Y9768205D01*
X-7506557Y9699796D01*
X-7527001Y9623496D01*
X-7527001Y9544504D01*
X-7506557Y9468204D01*
X-7467061Y9399795D01*
X-7411206Y9343940D01*
X-7393989Y9334000D01*
X-8196864Y9334000D01*
X-8188575Y9292322D01*
X-8188573Y9292314D01*
X-8113191Y9110324D01*
X-8113191Y9110323D01*
X-8003754Y8946541D01*
X-8003750Y8946536D01*
X-7864465Y8807251D01*
X-7864461Y8807248D01*
X-7700678Y8697811D01*
X-7518688Y8622429D01*
X-7518680Y8622427D01*
X-7407279Y8600268D01*
X-7379628Y8581793D01*
X-7373140Y8549177D01*
X-7391615Y8521526D01*
X-7394030Y8520024D01*
X-7438265Y8494485D01*
X-7517486Y8415264D01*
X-7573504Y8318239D01*
X-7602501Y8210025D01*
X-7602501Y8097976D01*
X-7573504Y7989762D01*
X-7548858Y7947075D01*
X-7544517Y7914105D01*
X-7564762Y7887721D01*
X-7586487Y7881900D01*
X-8743744Y7881900D01*
X-8774468Y7894626D01*
X-8787194Y7925350D01*
X-8787194Y10946943D01*
X-8787195Y10946950D01*
X-8806269Y11018130D01*
X-8806270Y11018131D01*
X-8807879Y11020919D01*
X-8843118Y11081955D01*
X-8895232Y11134069D01*
X-9638068Y11876905D01*
X-9650794Y11907629D01*
X-9650794Y11982122D01*
X-9638068Y12012846D01*
X-9613608Y12025118D01*
X-9566932Y12031918D01*
X-9455501Y12086394D01*
X-9367795Y12174100D01*
X-9313319Y12285531D01*
X-9302794Y12357771D01*
X-9302794Y12865815D01*
X-9303330Y12869492D01*
X-9311923Y12928470D01*
X-9313319Y12938055D01*
X-9367795Y13049486D01*
X-9455501Y13137192D01*
X-9458047Y13139738D01*
X-9456880Y13140906D01*
X-9471414Y13164190D01*
X-9463920Y13196590D01*
X-9435710Y13214200D01*
X-9428557Y13214793D01*
X-8629829Y13214793D01*
X-8629816Y13214793D01*
X-8609453Y13215593D01*
X-8602656Y13216128D01*
X-8582431Y13218522D01*
X-8487436Y13253565D01*
X-8459081Y13270940D01*
X-8459073Y13270945D01*
X-8384722Y13339675D01*
X-8342333Y13431627D01*
X-8334570Y13463964D01*
X-8330595Y13565132D01*
X-8340217Y13625887D01*
X-8340752Y13632684D01*
X-8340752Y13927085D01*
X-8340217Y13933880D01*
X-8336822Y13955321D01*
X-8332623Y13968247D01*
X-8319457Y13994088D01*
X-8311471Y14005080D01*
X-8290955Y14025596D01*
X-8279963Y14033582D01*
X-8254122Y14046748D01*
X-8241198Y14050947D01*
X-8231229Y14052525D01*
X-8219745Y14054343D01*
X-8212951Y14054878D01*
X-7858549Y14054878D01*
X-7851753Y14054344D01*
X-7830308Y14050947D01*
X-7817380Y14046746D01*
X-7791548Y14033584D01*
X-7780550Y14025594D01*
X-7760040Y14005084D01*
X-7752050Y13994086D01*
X-7738887Y13968253D01*
X-7734686Y13955326D01*
X-7731289Y13933880D01*
X-7731288Y13933877D01*
X-7730753Y13927078D01*
X-7730753Y13632677D01*
X-7731288Y13625880D01*
X-7740908Y13565143D01*
X-7743304Y13544900D01*
X-7743838Y13538119D01*
X-7744638Y13517742D01*
X-7724888Y13418445D01*
X-7724887Y13418441D01*
X-7722004Y13411480D01*
X-7712160Y13387715D01*
X-7712158Y13387711D01*
X-7688145Y13351773D01*
X-7655907Y13303525D01*
X-7655906Y13303525D01*
X-7655905Y13303523D01*
X-7571716Y13247271D01*
X-7540992Y13234545D01*
X-7540988Y13234545D01*
X-7540987Y13234544D01*
X-7441691Y13214793D01*
X-7441688Y13214793D01*
X-7396383Y13214793D01*
X-7321396Y13229709D01*
X-7297082Y13234545D01*
X-7266358Y13247271D01*
X-7266356Y13247272D01*
X-7199461Y13291972D01*
X-7194433Y13294863D01*
X-7155037Y13314122D01*
X-7142214Y13318083D01*
X-7137012Y13318840D01*
X-7130755Y13319293D01*
X-6714644Y13319293D01*
X-6708279Y13320560D01*
X-6701450Y13321232D01*
X-6701455Y13321321D01*
X-6700211Y13321394D01*
X-6700198Y13321394D01*
X-6676966Y13324088D01*
X-6670217Y13327070D01*
X-6661159Y13329933D01*
X-6615340Y13339045D01*
X-6584616Y13351771D01*
X-6584612Y13351773D01*
X-6500424Y13408026D01*
X-6444172Y13492215D01*
X-6431446Y13522939D01*
X-6424512Y13557802D01*
X-6411694Y13622240D01*
X-6411694Y14335894D01*
X-6407522Y14354472D01*
X-6404057Y14361800D01*
X-6375692Y14421768D01*
X-6368369Y14445907D01*
X-6357194Y14521241D01*
X-6357194Y14606295D01*
X-6357194Y14606299D01*
X-6376945Y14705594D01*
X-6376946Y14705598D01*
X-6382893Y14719956D01*
X-6389672Y14736323D01*
X-6389673Y14736325D01*
X-6445926Y14820513D01*
X-6815093Y15189680D01*
X-6815903Y15190543D01*
X-6816060Y15190648D01*
X-6900249Y15246900D01*
X-6918558Y15254484D01*
X-6930975Y15259627D01*
X-6930979Y15259628D01*
X-7030274Y15279378D01*
X-7030277Y15279378D01*
X-9992111Y15279378D01*
X-9992114Y15279378D01*
X-10091410Y15259628D01*
X-10091414Y15259627D01*
X-10103832Y15254483D01*
X-10122139Y15246900D01*
X-10122141Y15246899D01*
X-10122142Y15246899D01*
X-10122144Y15246898D01*
X-10206326Y15190648D01*
X-10206331Y15190644D01*
X-10575496Y14821480D01*
X-10576357Y14820673D01*
X-10632717Y14736322D01*
X-10645443Y14705598D01*
X-10645444Y14705594D01*
X-10665194Y14606299D01*
X-10665194Y13767288D01*
X-10645444Y13667993D01*
X-10645443Y13667989D01*
X-10645442Y13667987D01*
X-10632716Y13637263D01*
X-10632715Y13637262D01*
X-10632715Y13637261D01*
X-10632714Y13637259D01*
X-10622680Y13622243D01*
X-10576462Y13553073D01*
X-10441834Y13418445D01*
X-10327881Y13304492D01*
X-10327071Y13303629D01*
X-10326914Y13303524D01*
X-10326913Y13303523D01*
X-10277686Y13270631D01*
X-10259210Y13242981D01*
X-10265697Y13210365D01*
X-10291393Y13193196D01*
X-10291229Y13192666D01*
X-10293009Y13192117D01*
X-10293348Y13191889D01*
X-10294240Y13191736D01*
X-10294455Y13191670D01*
X-10405885Y13137194D01*
X-10493595Y13049484D01*
X-10548070Y12938054D01*
X-10558594Y12865824D01*
X-10558594Y12357763D01*
X-10548070Y12285533D01*
X-10493595Y12174103D01*
X-10493593Y12174100D01*
X-10405887Y12086394D01*
X-10294456Y12031918D01*
X-10247781Y12025118D01*
X-10219212Y12008096D01*
X-10210594Y11982122D01*
X-10210594Y11736837D01*
X-10191520Y11665657D01*
X-10191519Y11665656D01*
X-10154670Y11601831D01*
X-9359720Y10806881D01*
X-9346994Y10776157D01*
X-9346994Y3761237D01*
X-9327920Y3690057D01*
X-9327919Y3690056D01*
X-9291070Y3626231D01*
X-8418977Y2754138D01*
X-8366863Y2702024D01*
X-8303038Y2665175D01*
X-8231858Y2646101D01*
X-8231851Y2646100D01*
X-7586487Y2646100D01*
X-7555763Y2633374D01*
X-7543037Y2602650D01*
X-7548858Y2580925D01*
X-7573504Y2538239D01*
X-7602501Y2430025D01*
X-7602501Y2317976D01*
X-7573504Y2209762D01*
X-7527971Y2130897D01*
X-7517486Y2112737D01*
X-7438264Y2033515D01*
X-7394030Y2007977D01*
X-7373786Y1981594D01*
X-7378126Y1948623D01*
X-7404509Y1928379D01*
X-7407278Y1927733D01*
X-7518682Y1905574D01*
X-7518688Y1905572D01*
X-7700678Y1830190D01*
X-7700679Y1830190D01*
X-7864461Y1720753D01*
X-8003754Y1581460D01*
X-8113191Y1417678D01*
X-8113191Y1417677D01*
X-8188573Y1235687D01*
X-8188575Y1235679D01*
X-8196865Y1194001D01*
X-8196864Y1194000D01*
X-7393989Y1194000D01*
X-7411206Y1184060D01*
X-7467061Y1128205D01*
X-7506557Y1059796D01*
X-7527001Y983496D01*
X-7527001Y904504D01*
X-7506557Y828204D01*
X-7467061Y759795D01*
X-7411206Y703940D01*
X-7393989Y694000D01*
X-8196864Y694000D01*
X-8188575Y652322D01*
X-8188573Y652314D01*
X-8113191Y470324D01*
X-8113191Y470323D01*
X-8044880Y368090D01*
X-8038392Y335474D01*
X-8056867Y307823D01*
X-8081007Y300500D01*
X-9602995Y300500D01*
X-9633719Y313226D01*
X-9646445Y343950D01*
X-9639122Y368090D01*
X-9570812Y470323D01*
X-9570812Y470324D01*
X-9495430Y652314D01*
X-9495428Y652322D01*
X-9487138Y694000D01*
X-10290013Y694000D01*
X-10272796Y703940D01*
X-10216941Y759795D01*
X-10177445Y828204D01*
X-10157001Y904504D01*
X-10157001Y983496D01*
X-10177445Y1059796D01*
X-10216941Y1128205D01*
X-10272796Y1184060D01*
X-10290013Y1194000D01*
X-9487138Y1194000D01*
X-9487138Y1194001D01*
X-9495428Y1235679D01*
X-9495430Y1235687D01*
X-9570812Y1417677D01*
X-9570812Y1417678D01*
X-9680249Y1581460D01*
X-9680252Y1581464D01*
X-9819537Y1720749D01*
X-9819542Y1720753D01*
X-9983325Y1830190D01*
X-10165315Y1905572D01*
X-10165321Y1905574D01*
X-10358508Y1944000D01*
X-10607001Y1944000D01*
X-10607001Y1244000D01*
X-11107001Y1244000D01*
X-11107001Y1944000D01*
X-11355494Y1944000D01*
X-11548682Y1905574D01*
X-11548688Y1905572D01*
X-11730678Y1830190D01*
X-11730679Y1830190D01*
X-11894461Y1720753D01*
X-12033754Y1581460D01*
X-12143191Y1417678D01*
X-12143191Y1417677D01*
X-12218573Y1235687D01*
X-12218575Y1235679D01*
X-12226865Y1194001D01*
X-12226864Y1194000D01*
X-11423989Y1194000D01*
X-11441206Y1184060D01*
X-11497061Y1128205D01*
X-11536557Y1059796D01*
X-11557001Y983496D01*
X-11557001Y904504D01*
X-11536557Y828204D01*
X-11497061Y759795D01*
X-11441206Y703940D01*
X-11423989Y694000D01*
X-12226864Y694000D01*
X-12218575Y652322D01*
X-12218573Y652314D01*
X-12143191Y470324D01*
X-12143191Y470323D01*
X-12074880Y368090D01*
X-12068392Y335474D01*
X-12086867Y307823D01*
X-12111007Y300500D01*
X-12454862Y300500D01*
X-12459121Y300709D01*
X-12589206Y313523D01*
X-12597560Y315185D01*
X-12720591Y352507D01*
X-12728458Y355766D01*
X-12790318Y388832D01*
X-12841840Y416371D01*
X-12848921Y421103D01*
X-12948305Y502665D01*
X-12954329Y508688D01*
X-13035894Y608077D01*
X-13040619Y615149D01*
X-13101228Y728543D01*
X-13104486Y736410D01*
X-13141806Y859442D01*
X-13143466Y867785D01*
X-13156293Y998021D01*
X-13156501Y1002276D01*
X-13156501Y1005591D01*
X-13156500Y1047592D01*
X-13156501Y1047596D01*
X-13156501Y9834001D01*
X-12226865Y9834001D01*
X-12226864Y9834000D01*
X-11423989Y9834000D01*
X-11441206Y9824060D01*
X-11497061Y9768205D01*
X-11536557Y9699796D01*
X-11557001Y9623496D01*
X-11557001Y9544504D01*
X-11536557Y9468204D01*
X-11497061Y9399795D01*
X-11441206Y9343940D01*
X-11423989Y9334000D01*
X-12226864Y9334000D01*
X-12218575Y9292322D01*
X-12218573Y9292314D01*
X-12143191Y9110324D01*
X-12143191Y9110323D01*
X-12033754Y8946541D01*
X-12033750Y8946536D01*
X-11894465Y8807251D01*
X-11894461Y8807248D01*
X-11730678Y8697811D01*
X-11548688Y8622429D01*
X-11548682Y8622427D01*
X-11355494Y8584000D01*
X-11107001Y8584000D01*
X-11107001Y9284000D01*
X-10607001Y9284000D01*
X-10607001Y8584000D01*
X-10358508Y8584000D01*
X-10165321Y8622427D01*
X-10165315Y8622429D01*
X-9983325Y8697811D01*
X-9983324Y8697811D01*
X-9819542Y8807248D01*
X-9819537Y8807251D01*
X-9680252Y8946536D01*
X-9680249Y8946541D01*
X-9570812Y9110323D01*
X-9570812Y9110324D01*
X-9495430Y9292314D01*
X-9495428Y9292322D01*
X-9487138Y9334000D01*
X-10290013Y9334000D01*
X-10272796Y9343940D01*
X-10216941Y9399795D01*
X-10177445Y9468204D01*
X-10157001Y9544504D01*
X-10157001Y9623496D01*
X-10177445Y9699796D01*
X-10216941Y9768205D01*
X-10272796Y9824060D01*
X-10290013Y9834000D01*
X-9487138Y9834000D01*
X-9487138Y9834001D01*
X-9495428Y9875679D01*
X-9495430Y9875687D01*
X-9570812Y10057677D01*
X-9570812Y10057678D01*
X-9680249Y10221460D01*
X-9680252Y10221464D01*
X-9819537Y10360749D01*
X-9819542Y10360753D01*
X-9983325Y10470190D01*
X-10165315Y10545572D01*
X-10165321Y10545574D01*
X-10358508Y10584000D01*
X-10607001Y10584000D01*
X-10607001Y9884000D01*
X-11107001Y9884000D01*
X-11107001Y10584000D01*
X-11355494Y10584000D01*
X-11548682Y10545574D01*
X-11548688Y10545572D01*
X-11730678Y10470190D01*
X-11730679Y10470190D01*
X-11894461Y10360753D01*
X-12033754Y10221460D01*
X-12143191Y10057678D01*
X-12143191Y10057677D01*
X-12218573Y9875687D01*
X-12218575Y9875679D01*
X-12226865Y9834001D01*
X-13156501Y9834001D01*
X-13156501Y15997865D01*
X-13156292Y16002124D01*
X-13155644Y16008707D01*
X-13143478Y16132214D01*
X-13141819Y16140554D01*
X-13104493Y16263600D01*
X-13101238Y16271455D01*
X-13040627Y16384851D01*
X-13035906Y16391918D01*
X-12954330Y16491318D01*
X-12948319Y16497329D01*
X-12848919Y16578905D01*
X-12841852Y16583626D01*
X-12728456Y16644237D01*
X-12720601Y16647492D01*
X-12597555Y16684818D01*
X-12589215Y16686477D01*
X-12459121Y16699292D01*
X-12454862Y16699500D01*
X-12409404Y16699500D01*
X-900951Y16699500D01*
X-870227Y16686774D01*
G37*
%TD.AperFunction*%
%TA.AperFunction,Conductor*%
G36*
X13495407Y16699499D02*
G01*
X13540863Y16699500D01*
X13545122Y16699291D01*
X13567194Y16697118D01*
X13675214Y16686479D01*
X13683559Y16684819D01*
X13806596Y16647498D01*
X13814461Y16644240D01*
X13927859Y16583629D01*
X13934935Y16578900D01*
X14034323Y16497335D01*
X14040346Y16491312D01*
X14121907Y16391930D01*
X14126639Y16384848D01*
X14187245Y16271464D01*
X14190505Y16263595D01*
X14227828Y16140562D01*
X14229490Y16132208D01*
X14242290Y16002263D01*
X14242499Y15998004D01*
X14242499Y1050265D01*
X14242498Y1050247D01*
X14242498Y1002135D01*
X14242289Y997877D01*
X14229478Y867791D01*
X14227816Y859436D01*
X14190496Y736408D01*
X14187237Y728539D01*
X14126629Y615148D01*
X14121896Y608065D01*
X14040336Y508685D01*
X14034314Y502663D01*
X13934934Y421103D01*
X13927851Y416370D01*
X13814460Y355762D01*
X13806591Y352503D01*
X13683563Y315183D01*
X13675208Y313521D01*
X13545122Y300710D01*
X13540864Y300501D01*
X13491911Y300501D01*
X13491899Y300500D01*
X2314978Y300500D01*
X2284254Y313226D01*
X2273402Y331326D01*
X2213123Y529846D01*
X2113602Y728252D01*
X1981925Y906942D01*
X1981923Y906944D01*
X1981921Y906947D01*
X1821898Y1060754D01*
X1821894Y1060758D01*
X1690004Y1150114D01*
X1638130Y1185259D01*
X1508453Y1244000D01*
X1435941Y1276847D01*
X1379907Y1291466D01*
X1221162Y1332881D01*
X999999Y1351739D01*
X778835Y1332881D01*
X564057Y1276847D01*
X361867Y1185259D01*
X178105Y1060759D01*
X178099Y1060754D01*
X18076Y906947D01*
X18074Y906944D01*
X-113605Y728252D01*
X-113606Y728249D01*
X-213124Y529850D01*
X-213125Y529847D01*
X-231199Y470323D01*
X-272144Y335474D01*
X-273404Y331326D01*
X-294508Y305625D01*
X-314980Y300500D01*
X-5272995Y300500D01*
X-5303719Y313226D01*
X-5316445Y343950D01*
X-5309122Y368090D01*
X-5240812Y470323D01*
X-5240812Y470324D01*
X-5165430Y652314D01*
X-5165428Y652322D01*
X-5157138Y694000D01*
X-5960013Y694000D01*
X-5942796Y703940D01*
X-5886941Y759795D01*
X-5847445Y828204D01*
X-5827001Y904504D01*
X-5827001Y983496D01*
X-5847445Y1059796D01*
X-5886941Y1128205D01*
X-5942796Y1184060D01*
X-5960013Y1194000D01*
X-5157138Y1194000D01*
X-5157138Y1194001D01*
X-5165428Y1235679D01*
X-5165430Y1235687D01*
X-5240812Y1417677D01*
X-5240812Y1417678D01*
X-5350249Y1581460D01*
X-5350252Y1581464D01*
X-5489537Y1720749D01*
X-5489542Y1720753D01*
X-5653325Y1830190D01*
X-5835315Y1905572D01*
X-5835321Y1905574D01*
X-6028508Y1944000D01*
X-6427001Y1944000D01*
X-6427001Y1244000D01*
X-6927001Y1244000D01*
X-6927001Y1944000D01*
X-6939589Y1956588D01*
X-6952315Y1987312D01*
X-6939589Y2018036D01*
X-6930589Y2024941D01*
X-6915738Y2033515D01*
X-6836516Y2112737D01*
X-6780498Y2209763D01*
X-6760899Y2282909D01*
X-6751502Y2317976D01*
X-6751501Y2317983D01*
X-6751501Y2415333D01*
X-6738775Y2446057D01*
X-6708051Y2458783D01*
X-6690508Y2455083D01*
X-6597551Y2414038D01*
X-6572227Y2411100D01*
X-6572222Y2411100D01*
X-5631780Y2411100D01*
X-5631775Y2411100D01*
X-5606451Y2414038D01*
X-5502856Y2459780D01*
X-5422781Y2539855D01*
X-5377039Y2643450D01*
X-5374101Y2668774D01*
X-5374101Y3059226D01*
X-5377039Y3084550D01*
X-5422781Y3188145D01*
X-5432662Y3198026D01*
X-5445388Y3228750D01*
X-5432662Y3259474D01*
X-5401938Y3272200D01*
X-4797642Y3272200D01*
X-4766918Y3259474D01*
X-4757894Y3246300D01*
X-4721327Y3163481D01*
X-4645214Y3087368D01*
X-4595983Y3065631D01*
X-4546753Y3043894D01*
X-4546754Y3043894D01*
X-4546751Y3043893D01*
X-4522678Y3041100D01*
X-4522673Y3041100D01*
X-4166715Y3041100D01*
X-4166710Y3041100D01*
X-4142637Y3043893D01*
X-4044173Y3087369D01*
X-3968063Y3163479D01*
X-3924587Y3261943D01*
X-3921794Y3286016D01*
X-3921794Y3741984D01*
X-3924587Y3766057D01*
X-3961685Y3850077D01*
X-3968062Y3864520D01*
X-4044175Y3940633D01*
X-4142637Y3984107D01*
X-4142635Y3984107D01*
X-4149515Y3984905D01*
X-4166710Y3986900D01*
X-4522678Y3986900D01*
X-4539873Y3984905D01*
X-4546753Y3984107D01*
X-4645214Y3940633D01*
X-4721327Y3864520D01*
X-4757894Y3781700D01*
X-4781946Y3758734D01*
X-4797642Y3755800D01*
X-5369029Y3755800D01*
X-5399753Y3768526D01*
X-5412479Y3799250D01*
X-5405157Y3823389D01*
X-5398436Y3833448D01*
X-5387324Y3850078D01*
X-5374101Y3916553D01*
X-5374102Y4111446D01*
X-5374102Y4111447D01*
X-5374102Y4111449D01*
X-5379568Y4138926D01*
X-5387324Y4177922D01*
X-5428711Y4239862D01*
X-5435197Y4272477D01*
X-5428710Y4288139D01*
X-5387324Y4350078D01*
X-5374101Y4416553D01*
X-5374102Y4502922D01*
X-5361376Y4533644D01*
X-5218073Y4676947D01*
X-5218071Y4676947D01*
X-5160769Y4734249D01*
X-5150221Y4759714D01*
X-5146307Y4769162D01*
X-5146305Y4769169D01*
X-5129757Y4809117D01*
X-5129757Y4890155D01*
X-5129757Y4893651D01*
X-5129758Y4893665D01*
X-5129758Y5411627D01*
X-5117032Y5442351D01*
X-4965009Y5594373D01*
X-4934285Y5607099D01*
X-4752773Y5607099D01*
X-4722050Y5594374D01*
X-4502983Y5375306D01*
X-4490257Y5344583D01*
X-4490792Y5337787D01*
X-4496793Y5299895D01*
X-4496793Y5299893D01*
X-4479307Y5189484D01*
X-4479305Y5189478D01*
X-4428557Y5089880D01*
X-4349508Y5010831D01*
X-4249910Y4960083D01*
X-4249907Y4960082D01*
X-4249905Y4960081D01*
X-4194700Y4951338D01*
X-4139495Y4942594D01*
X-4139494Y4942594D01*
X-4139493Y4942594D01*
X-4102691Y4948423D01*
X-4029083Y4960081D01*
X-3929479Y5010832D01*
X-3850433Y5089878D01*
X-3808188Y5172789D01*
X-3799684Y5189478D01*
X-3799684Y5189479D01*
X-3799682Y5189482D01*
X-3789482Y5253891D01*
X-3772107Y5282243D01*
X-3763197Y5287234D01*
X-3728022Y5301803D01*
X-3670720Y5359105D01*
X-3670720Y5359107D01*
X-2146159Y6883667D01*
X-2115435Y6896393D01*
X-16753Y6896393D01*
X13971Y6883667D01*
X429652Y6467986D01*
X442378Y6437262D01*
X429652Y6406538D01*
X405725Y6394347D01*
X346790Y6385013D01*
X346784Y6385011D01*
X247186Y6334263D01*
X187250Y6274326D01*
X156526Y6261600D01*
X104632Y6261600D01*
X73908Y6274326D01*
X62736Y6298993D01*
X61633Y6298832D01*
X51413Y6368976D01*
X51412Y6368978D01*
X51412Y6368981D01*
X-315Y6474791D01*
X-83596Y6558072D01*
X-83599Y6558074D01*
X-138808Y6585064D01*
X-189406Y6609799D01*
X-189408Y6609800D01*
X-189412Y6609801D01*
X-257992Y6619793D01*
X-258000Y6619793D01*
X-1924988Y6619793D01*
X-1924997Y6619793D01*
X-1993577Y6609801D01*
X-1993582Y6609799D01*
X-2099390Y6558074D01*
X-2182675Y6474789D01*
X-2234400Y6368981D01*
X-2234402Y6368976D01*
X-2244394Y6300396D01*
X-2244394Y5833391D01*
X-2234402Y5764811D01*
X-2234400Y5764806D01*
X-2182675Y5658998D01*
X-2182673Y5658995D01*
X-2099392Y5575714D01*
X-1993582Y5523987D01*
X-1993579Y5523987D01*
X-1993577Y5523986D01*
X-1924997Y5513994D01*
X-1924992Y5513994D01*
X-1924988Y5513993D01*
X-1212978Y5513993D01*
X-1182254Y5501267D01*
X-1169528Y5470543D01*
X-1174264Y5450817D01*
X-1203411Y5393616D01*
X-1203413Y5393610D01*
X-1220899Y5283201D01*
X-1220899Y5283200D01*
X-1203413Y5172791D01*
X-1203411Y5172785D01*
X-1152663Y5073187D01*
X-1152661Y5073185D01*
X-1073615Y4994139D01*
X-1073610Y4994137D01*
X-1072519Y4993344D01*
X-1072042Y4992566D01*
X-1071197Y4991721D01*
X-1071400Y4991519D01*
X-1055137Y4964994D01*
X-1054600Y4958186D01*
X-1054600Y2761668D01*
X-1054600Y2665474D01*
X-1017788Y2576602D01*
X-476710Y2035524D01*
X-408691Y1967505D01*
X-319819Y1930693D01*
X3573619Y1930693D01*
X3604343Y1917967D01*
X3638879Y1883431D01*
X3738477Y1832683D01*
X3738480Y1832682D01*
X3738482Y1832681D01*
X3793687Y1823938D01*
X3848892Y1815194D01*
X3848893Y1815194D01*
X3848894Y1815194D01*
X3885696Y1821023D01*
X3959304Y1832681D01*
X4058908Y1883432D01*
X4137954Y1962478D01*
X4181481Y2047904D01*
X4188703Y2062078D01*
X4188703Y2062079D01*
X4188705Y2062082D01*
X4206192Y2172493D01*
X4205896Y2174359D01*
X4188705Y2282903D01*
X4188703Y2282909D01*
X4137955Y2382507D01*
X4058905Y2461557D01*
X4058719Y2461692D01*
X4058638Y2461824D01*
X4056490Y2463972D01*
X4057005Y2464488D01*
X4041344Y2490047D01*
X4049108Y2522383D01*
X4077463Y2539758D01*
X4084259Y2540293D01*
X4138201Y2540293D01*
X4138203Y2540293D01*
X4227075Y2577105D01*
X4604347Y2954379D01*
X4635070Y2967104D01*
X4665794Y2954378D01*
X4678078Y2929838D01*
X4685745Y2876513D01*
X4687124Y2866925D01*
X4741798Y2747204D01*
X4827988Y2647736D01*
X4827989Y2647735D01*
X4938704Y2576582D01*
X4938707Y2576581D01*
X4938709Y2576580D01*
X5064993Y2539500D01*
X5064995Y2539500D01*
X5196604Y2539500D01*
X5196607Y2539500D01*
X5210472Y2543572D01*
X5243535Y2540018D01*
X5253437Y2532606D01*
X5290880Y2495163D01*
X5303606Y2464439D01*
X5303606Y2174359D01*
X5305973Y2153954D01*
X5306447Y2149871D01*
X5350677Y2049698D01*
X5428110Y1972265D01*
X5428109Y1972265D01*
X5463615Y1956588D01*
X5528283Y1928035D01*
X5528282Y1928035D01*
X5528285Y1928034D01*
X5552772Y1925193D01*
X5552777Y1925193D01*
X5980235Y1925193D01*
X5980240Y1925193D01*
X6004727Y1928034D01*
X6104902Y1972265D01*
X6179273Y2046637D01*
X6209996Y2059362D01*
X6229722Y2054626D01*
X6301048Y2018283D01*
X6301051Y2018282D01*
X6301053Y2018281D01*
X6356258Y2009538D01*
X6411463Y2000794D01*
X6411464Y2000794D01*
X6411465Y2000794D01*
X6426560Y2003186D01*
X6521875Y2018281D01*
X6580012Y2047905D01*
X6613164Y2050514D01*
X6630459Y2039916D01*
X6698110Y1972265D01*
X6698109Y1972265D01*
X6733615Y1956588D01*
X6798283Y1928035D01*
X6798282Y1928035D01*
X6798285Y1928034D01*
X6822772Y1925193D01*
X7109451Y1925193D01*
X7140175Y1912467D01*
X7342018Y1710624D01*
X7410037Y1642605D01*
X7498909Y1605793D01*
X10444716Y1605793D01*
X10475440Y1593067D01*
X10488166Y1562343D01*
X10484464Y1544793D01*
X10477999Y1530152D01*
X10477999Y1530150D01*
X10475206Y1506077D01*
X10475206Y1150109D01*
X10477533Y1130049D01*
X10477999Y1126035D01*
X10521473Y1027574D01*
X10597586Y951461D01*
X10646817Y929724D01*
X10696047Y907987D01*
X10696046Y907987D01*
X10696049Y907986D01*
X10720122Y905193D01*
X10720127Y905193D01*
X11176085Y905193D01*
X11176090Y905193D01*
X11200163Y907986D01*
X11298627Y951462D01*
X11374737Y1027572D01*
X11418213Y1126036D01*
X11421006Y1150109D01*
X11421006Y1506077D01*
X11418213Y1530150D01*
X11417134Y1532593D01*
X11411748Y1544793D01*
X11410980Y1578040D01*
X11433946Y1602091D01*
X11451496Y1605793D01*
X12309687Y1605793D01*
X12309689Y1605793D01*
X12398561Y1642605D01*
X12701788Y1945832D01*
X12738600Y2034704D01*
X12738600Y2130897D01*
X12738600Y3236692D01*
X12751326Y3267416D01*
X13105162Y3621252D01*
X13463788Y3979878D01*
X13500600Y4068750D01*
X13500600Y4164944D01*
X13500600Y5331297D01*
X13463788Y5420169D01*
X13395769Y5488188D01*
X13056064Y5827893D01*
X12967192Y5864705D01*
X12150409Y5864705D01*
X12054215Y5864705D01*
X12037803Y5857908D01*
X12012351Y5847365D01*
X11979096Y5847366D01*
X11955581Y5870881D01*
X11955582Y5904136D01*
X11964997Y5918229D01*
X12163236Y6116467D01*
X12193960Y6129193D01*
X12480635Y6129193D01*
X12480640Y6129193D01*
X12505127Y6132034D01*
X12605302Y6176265D01*
X12682734Y6253697D01*
X12726965Y6353872D01*
X12729806Y6378359D01*
X12729806Y6805827D01*
X12726965Y6830314D01*
X12682734Y6930489D01*
X12605302Y7007921D01*
X12605300Y7007923D01*
X12605298Y7007924D01*
X12591205Y7014147D01*
X12568240Y7038199D01*
X12569009Y7071445D01*
X12591206Y7093642D01*
X12605302Y7099865D01*
X12682734Y7177297D01*
X12726965Y7277472D01*
X12729806Y7301959D01*
X12729806Y7729427D01*
X12726965Y7753914D01*
X12682734Y7854089D01*
X12605302Y7931521D01*
X12605301Y7931522D01*
X12605302Y7931522D01*
X12505127Y7975752D01*
X12505129Y7975752D01*
X12498130Y7976564D01*
X12480640Y7978593D01*
X12120613Y7978593D01*
X12089889Y7991319D01*
X12077163Y8022043D01*
X12089889Y8052767D01*
X12124537Y8087415D01*
X12155261Y8100141D01*
X12339649Y8100141D01*
X12339651Y8100141D01*
X12428523Y8136953D01*
X12868294Y8576724D01*
X12879832Y8604579D01*
X12891211Y8632049D01*
X12905106Y8665597D01*
X12905106Y10008012D01*
X12917832Y10038736D01*
X12948556Y10051462D01*
X12979280Y10038736D01*
X12991471Y10014809D01*
X12995893Y9986884D01*
X12995895Y9986878D01*
X13046643Y9887280D01*
X13125692Y9808231D01*
X13225290Y9757483D01*
X13225293Y9757482D01*
X13225295Y9757481D01*
X13280500Y9748738D01*
X13335705Y9739994D01*
X13335706Y9739994D01*
X13335707Y9739994D01*
X13388755Y9748396D01*
X13446117Y9757481D01*
X13545721Y9808232D01*
X13624767Y9887278D01*
X13675518Y9986882D01*
X13693005Y10097293D01*
X13675518Y10207704D01*
X13675517Y10207706D01*
X13675516Y10207709D01*
X13624768Y10307307D01*
X13590232Y10341843D01*
X13577506Y10372567D01*
X13577506Y10980989D01*
X13574316Y10988691D01*
X13540694Y11069862D01*
X13472675Y11137881D01*
X12988931Y11621625D01*
X12976205Y11652349D01*
X12976205Y11870352D01*
X12972370Y11889631D01*
X12967334Y11914951D01*
X12967331Y11914955D01*
X12967331Y11914957D01*
X12933542Y11965525D01*
X12933540Y11965526D01*
X12933540Y11965527D01*
X12924413Y11971626D01*
X12905940Y11999277D01*
X12905106Y12007751D01*
X12905106Y12087789D01*
X12905106Y12087790D01*
X12868294Y12176662D01*
X12800275Y12244681D01*
X12800274Y12244682D01*
X12710675Y12334281D01*
X12621803Y12371093D01*
X12621801Y12371093D01*
X12080392Y12371093D01*
X12049668Y12383819D01*
X11819807Y12613680D01*
X11819806Y12613681D01*
X11730934Y12650493D01*
X11730932Y12650493D01*
X10069112Y12650493D01*
X10038388Y12663219D01*
X9890599Y12811008D01*
X9890598Y12811009D01*
X9801726Y12847821D01*
X9801724Y12847821D01*
X9584801Y12847821D01*
X9554077Y12860547D01*
X9519540Y12895084D01*
X9419942Y12945832D01*
X9419936Y12945834D01*
X9309528Y12963320D01*
X9309526Y12963320D01*
X9199117Y12945834D01*
X9199111Y12945832D01*
X9099513Y12895084D01*
X9020464Y12816035D01*
X8969716Y12716437D01*
X8969714Y12716431D01*
X8952228Y12606022D01*
X8952228Y12606021D01*
X8969714Y12495612D01*
X8969716Y12495606D01*
X9020464Y12396008D01*
X9099513Y12316959D01*
X9199111Y12266211D01*
X9199114Y12266210D01*
X9199116Y12266209D01*
X9296068Y12250854D01*
X9324423Y12233478D01*
X9332186Y12201142D01*
X9320807Y12129295D01*
X9320807Y12129293D01*
X9338293Y12018884D01*
X9338295Y12018878D01*
X9389043Y11919280D01*
X9468092Y11840231D01*
X9567690Y11789483D01*
X9567693Y11789482D01*
X9567695Y11789481D01*
X9622900Y11780738D01*
X9678105Y11771994D01*
X9678106Y11771994D01*
X9678107Y11771994D01*
X9731862Y11780508D01*
X9788517Y11789481D01*
X9788520Y11789483D01*
X9791773Y11790539D01*
X9792034Y11789736D01*
X9821614Y11792071D01*
X9846906Y11770479D01*
X9849524Y11737327D01*
X9846911Y11731018D01*
X9795495Y11630109D01*
X9795493Y11630103D01*
X9778007Y11519694D01*
X9778007Y11519693D01*
X9795493Y11409284D01*
X9795495Y11409278D01*
X9846243Y11309680D01*
X9925292Y11230631D01*
X10024890Y11179883D01*
X10024893Y11179882D01*
X10024895Y11179881D01*
X10080100Y11171138D01*
X10135305Y11162394D01*
X10135306Y11162394D01*
X10135307Y11162394D01*
X10157998Y11165988D01*
X10245717Y11179881D01*
X10277637Y11196147D01*
X10310787Y11198756D01*
X10328086Y11188156D01*
X10490380Y11025862D01*
X10503106Y10995138D01*
X10503106Y10246990D01*
X10503106Y10150796D01*
X10539918Y10061924D01*
X10539919Y10061923D01*
X10628881Y9972961D01*
X10639229Y9947979D01*
X10641072Y9948270D01*
X10659093Y9834484D01*
X10659095Y9834478D01*
X10709843Y9734880D01*
X10788892Y9655831D01*
X10888490Y9605083D01*
X10888493Y9605082D01*
X10888495Y9605081D01*
X10943700Y9596338D01*
X10998905Y9587594D01*
X10998906Y9587594D01*
X11001733Y9588042D01*
X11034069Y9580283D01*
X11051448Y9551930D01*
X11043689Y9519593D01*
X11039258Y9514404D01*
X10786337Y9261481D01*
X10718319Y9193464D01*
X10718318Y9193463D01*
X10718318Y9193462D01*
X10687092Y9118074D01*
X10681506Y9104589D01*
X10681506Y8964443D01*
X10668780Y8933719D01*
X10638056Y8920993D01*
X10528320Y8920993D01*
X10485807Y8912537D01*
X10469138Y8909221D01*
X10469137Y8909221D01*
X10464941Y8908386D01*
X10464487Y8910668D01*
X10439340Y8910711D01*
X10415866Y8934267D01*
X10415901Y8959271D01*
X10413599Y8959728D01*
X10426206Y9023107D01*
X10426206Y9813080D01*
X10421806Y9835197D01*
X10414434Y9872261D01*
X10414432Y9872264D01*
X10414432Y9872265D01*
X10369592Y9939373D01*
X10369585Y9939380D01*
X10302477Y9984220D01*
X10302474Y9984221D01*
X10282746Y9988145D01*
X10243292Y9995993D01*
X10243290Y9995993D01*
X10103322Y9995993D01*
X10103320Y9995993D01*
X10044138Y9984221D01*
X9997445Y9953022D01*
X9964829Y9946535D01*
X9949167Y9953022D01*
X9931532Y9964805D01*
X9902474Y9984221D01*
X9882746Y9988145D01*
X9843292Y9995993D01*
X9843290Y9995993D01*
X9703322Y9995993D01*
X9703320Y9995993D01*
X9644138Y9984221D01*
X9597445Y9953022D01*
X9564829Y9946535D01*
X9549166Y9953023D01*
X9510325Y9978976D01*
X9491850Y10006627D01*
X9498338Y10039243D01*
X9503737Y10045823D01*
X9519701Y10061786D01*
X9544682Y10072134D01*
X9544391Y10073976D01*
X9547769Y10074511D01*
X9658180Y10091998D01*
X9757784Y10142749D01*
X9836830Y10221795D01*
X9887581Y10321399D01*
X9905068Y10431810D01*
X9898989Y10470189D01*
X9888135Y10538722D01*
X9887581Y10542221D01*
X9887580Y10542223D01*
X9887579Y10542226D01*
X9836831Y10641824D01*
X9757782Y10720873D01*
X9658184Y10771621D01*
X9658178Y10771623D01*
X9547770Y10789109D01*
X9547768Y10789109D01*
X9437359Y10771623D01*
X9437350Y10771620D01*
X9375041Y10739872D01*
X9341889Y10737263D01*
X9316602Y10758861D01*
X9315568Y10761036D01*
X9310893Y10771623D01*
X9281134Y10839023D01*
X9203702Y10916455D01*
X9203701Y10916456D01*
X9203702Y10916456D01*
X9103527Y10960686D01*
X9103529Y10960686D01*
X9096530Y10961498D01*
X9079040Y10963527D01*
X9079035Y10963527D01*
X8831924Y10963527D01*
X8801200Y10976253D01*
X8410664Y11366789D01*
X8397938Y11397513D01*
X8397938Y11687973D01*
X8397938Y11687977D01*
X8395024Y11713095D01*
X8349660Y11815834D01*
X8270245Y11895249D01*
X8167506Y11940613D01*
X8142388Y11943527D01*
X7707688Y11943527D01*
X7686756Y11941099D01*
X7682569Y11940613D01*
X7579829Y11895248D01*
X7500417Y11815836D01*
X7460168Y11724681D01*
X7455052Y11713095D01*
X7452904Y11694574D01*
X7452138Y11687973D01*
X7452138Y11382682D01*
X7439412Y11351958D01*
X7343107Y11255653D01*
X7312383Y11242927D01*
X6482630Y11242927D01*
X6399765Y11208603D01*
X6393756Y11206114D01*
X6325738Y11138095D01*
X6206920Y11019278D01*
X6145013Y10957371D01*
X6145012Y10957370D01*
X6145012Y10957369D01*
X6128252Y10916907D01*
X6108199Y10868495D01*
X6108071Y10867847D01*
X6107704Y10867299D01*
X6106563Y10864543D01*
X6106014Y10864771D01*
X6089594Y10840197D01*
X6056977Y10833711D01*
X6029327Y10852188D01*
X6022006Y10876326D01*
X6022006Y11866154D01*
X6022005Y11866155D01*
X6015959Y11912084D01*
X6014622Y11914951D01*
X5968954Y12012889D01*
X5890301Y12091542D01*
X5789501Y12138545D01*
X5789497Y12138546D01*
X5774186Y12140562D01*
X5743568Y12144593D01*
X5743566Y12144593D01*
X5344646Y12144593D01*
X5344643Y12144593D01*
X5298715Y12138546D01*
X5298710Y12138545D01*
X5197910Y12091542D01*
X5119257Y12012889D01*
X5072254Y11912089D01*
X5072253Y11912084D01*
X5066206Y11866156D01*
X5066206Y10417231D01*
X5070237Y10386613D01*
X5072086Y10372567D01*
X5072253Y10371303D01*
X5072254Y10371298D01*
X5119257Y10270498D01*
X5197910Y10191845D01*
X5298710Y10144842D01*
X5298711Y10144842D01*
X5298715Y10144840D01*
X5344644Y10138794D01*
X5344645Y10138793D01*
X5344646Y10138793D01*
X5669851Y10138793D01*
X5700575Y10126067D01*
X5756475Y10070167D01*
X5769201Y10039443D01*
X5756475Y10008719D01*
X5725751Y9995993D01*
X5703320Y9995993D01*
X5644138Y9984221D01*
X5644134Y9984220D01*
X5577026Y9939380D01*
X5577019Y9939373D01*
X5532179Y9872265D01*
X5532178Y9872261D01*
X5520406Y9813080D01*
X5520406Y9703343D01*
X5507680Y9672619D01*
X5476956Y9659893D01*
X4135862Y9659893D01*
X4105138Y9672619D01*
X3568831Y10208926D01*
X3556105Y10239650D01*
X3567407Y10266938D01*
X3566773Y10267382D01*
X3568777Y10270245D01*
X3568831Y10270374D01*
X3568953Y10270496D01*
X3615959Y10371302D01*
X3622006Y10417233D01*
X3622006Y11866153D01*
X3615959Y11912084D01*
X3614622Y11914951D01*
X3568954Y12012889D01*
X3490301Y12091542D01*
X3389501Y12138545D01*
X3389497Y12138546D01*
X3374186Y12140562D01*
X3343568Y12144593D01*
X3343566Y12144593D01*
X2944646Y12144593D01*
X2944643Y12144593D01*
X2898715Y12138546D01*
X2898710Y12138545D01*
X2797910Y12091542D01*
X2719257Y12012889D01*
X2672254Y11912089D01*
X2672253Y11912084D01*
X2666206Y11866156D01*
X2666206Y10417231D01*
X2670237Y10386613D01*
X2672086Y10372567D01*
X2672253Y10371303D01*
X2672254Y10371298D01*
X2719257Y10270498D01*
X2797910Y10191845D01*
X2898710Y10144842D01*
X2898712Y10144842D01*
X2898715Y10144840D01*
X2941418Y10139218D01*
X2942003Y10139141D01*
X2967056Y10126787D01*
X3812719Y9281124D01*
X3880738Y9213105D01*
X3969610Y9176293D01*
X5476956Y9176293D01*
X5507680Y9163567D01*
X5520406Y9132843D01*
X5520406Y9023107D01*
X5533013Y8959728D01*
X5530724Y8959273D01*
X5530701Y8934161D01*
X5507165Y8910667D01*
X5482125Y8910667D01*
X5481671Y8908386D01*
X5477474Y8909221D01*
X5460804Y8912537D01*
X5418292Y8920993D01*
X5418290Y8920993D01*
X4628322Y8920993D01*
X4628320Y8920993D01*
X4569138Y8909221D01*
X4569137Y8909221D01*
X4543090Y8891816D01*
X4518950Y8884493D01*
X3329060Y8884493D01*
X3296116Y8870848D01*
X3249526Y8851550D01*
X3208396Y8810419D01*
X3177672Y8797693D01*
X3012055Y8797693D01*
X2981331Y8810419D01*
X2968605Y8841143D01*
X2968605Y8846352D01*
X2965020Y8864373D01*
X2959734Y8890951D01*
X2957477Y8894328D01*
X2950990Y8926943D01*
X2969465Y8954594D01*
X3002081Y8961082D01*
X3013331Y8957181D01*
X3014495Y8956588D01*
X3069700Y8947845D01*
X3124905Y8939101D01*
X3124906Y8939101D01*
X3124907Y8939101D01*
X3161709Y8944930D01*
X3235317Y8956588D01*
X3334921Y9007339D01*
X3413967Y9086385D01*
X3464718Y9185989D01*
X3482205Y9296400D01*
X3464718Y9406811D01*
X3464717Y9406813D01*
X3464716Y9406816D01*
X3413968Y9506414D01*
X3334919Y9585463D01*
X3235318Y9636212D01*
X3210319Y9640172D01*
X3186394Y9652363D01*
X3052477Y9786280D01*
X3052476Y9786281D01*
X2995263Y9809980D01*
X2971750Y9833493D01*
X2969055Y9844262D01*
X2969022Y9844255D01*
X2968886Y9844935D01*
X2968650Y9845881D01*
X2968605Y9846333D01*
X2968605Y9846349D01*
X2959734Y9890951D01*
X2959731Y9890955D01*
X2959731Y9890957D01*
X2925943Y9941524D01*
X2925936Y9941531D01*
X2875367Y9975320D01*
X2875363Y9975322D01*
X2830765Y9984193D01*
X2480645Y9984193D01*
X2480645Y9984192D01*
X2449431Y9977984D01*
X2416815Y9984472D01*
X2398341Y10012124D01*
X2397506Y10020599D01*
X2397506Y10427619D01*
X2410232Y10458343D01*
X2422079Y10470190D01*
X2448767Y10496878D01*
X2485503Y10568976D01*
X2499516Y10596478D01*
X2499516Y10596479D01*
X2499518Y10596482D01*
X2517005Y10706893D01*
X2516303Y10711323D01*
X2506035Y10776157D01*
X2499518Y10817304D01*
X2499517Y10817306D01*
X2499516Y10817309D01*
X2448768Y10916907D01*
X2414232Y10951443D01*
X2401506Y10982167D01*
X2401506Y12163539D01*
X2414232Y12194263D01*
X2856736Y12636767D01*
X2887460Y12649493D01*
X5103401Y12649493D01*
X5103403Y12649493D01*
X5192275Y12686305D01*
X5540344Y13034376D01*
X5571068Y13047101D01*
X6358057Y13047101D01*
X6370046Y13049486D01*
X6402657Y13055972D01*
X6402661Y13055975D01*
X6402662Y13055975D01*
X6453229Y13089763D01*
X6453229Y13089764D01*
X6453233Y13089766D01*
X6459175Y13098658D01*
X6487025Y13140339D01*
X6487027Y13140343D01*
X6488023Y13145350D01*
X6495899Y13184943D01*
X6495898Y16156051D01*
X6508624Y16186774D01*
X6539348Y16199500D01*
X10226649Y16199500D01*
X10257373Y16186774D01*
X10270099Y16156050D01*
X10270099Y13184942D01*
X10277005Y13150225D01*
X10278971Y13140342D01*
X10278971Y13140341D01*
X10278973Y13140337D01*
X10312761Y13089770D01*
X10312768Y13089763D01*
X10363337Y13055974D01*
X10363341Y13055972D01*
X10407942Y13047100D01*
X11438055Y13047101D01*
X11438057Y13047101D01*
X11450046Y13049486D01*
X11482657Y13055972D01*
X11482661Y13055975D01*
X11482662Y13055975D01*
X11533229Y13089763D01*
X11533229Y13089764D01*
X11533233Y13089766D01*
X11539175Y13098658D01*
X11567025Y13140339D01*
X11567027Y13140343D01*
X11568023Y13145350D01*
X11575899Y13184943D01*
X11575898Y16156051D01*
X11588624Y16186774D01*
X11619348Y16199500D01*
X12282561Y16199500D01*
X12282567Y16199501D01*
X12335602Y16213713D01*
X12358988Y16219979D01*
X12427510Y16259540D01*
X12483459Y16315489D01*
X12523020Y16384011D01*
X12529286Y16407397D01*
X12543498Y16460432D01*
X12543499Y16460439D01*
X12543499Y16656050D01*
X12556225Y16686774D01*
X12586949Y16699500D01*
X13495404Y16699500D01*
X13495407Y16699499D01*
G37*
%TD.AperFunction*%
%TA.AperFunction,Conductor*%
G36*
X879985Y6017652D02*
G01*
X1046530Y5851107D01*
X1046531Y5851106D01*
X1103833Y5793804D01*
X1178701Y5762793D01*
X4185032Y5762793D01*
X4215754Y5750068D01*
X4245415Y5720407D01*
X4258141Y5689684D01*
X4245415Y5658960D01*
X3939775Y5353319D01*
X3909051Y5340593D01*
X3622372Y5340593D01*
X3604881Y5338564D01*
X3597883Y5337752D01*
X3497710Y5293522D01*
X3420277Y5216089D01*
X3376047Y5115916D01*
X3376019Y5115673D01*
X3373206Y5091427D01*
X3373206Y4723959D01*
X3375094Y4707687D01*
X3376047Y4699471D01*
X3420277Y4599298D01*
X3497710Y4521865D01*
X3497709Y4521865D01*
X3524824Y4509893D01*
X3597883Y4477635D01*
X3597882Y4477635D01*
X3597885Y4477634D01*
X3622372Y4474793D01*
X3622377Y4474793D01*
X4049835Y4474793D01*
X4049840Y4474793D01*
X4074327Y4477634D01*
X4174502Y4521865D01*
X4251934Y4599297D01*
X4296165Y4699472D01*
X4299006Y4723959D01*
X4299006Y5010639D01*
X4311731Y5041362D01*
X4371232Y5100864D01*
X4401956Y5113589D01*
X4432680Y5100863D01*
X4445406Y5070139D01*
X4445406Y4998107D01*
X4451993Y4964994D01*
X4457178Y4938925D01*
X4472480Y4916024D01*
X4488377Y4892232D01*
X4494864Y4859616D01*
X4488377Y4843954D01*
X4457178Y4797261D01*
X4445406Y4738080D01*
X4445406Y4598107D01*
X4447371Y4588230D01*
X4457178Y4538925D01*
X4471778Y4517075D01*
X4488377Y4492232D01*
X4494864Y4459616D01*
X4488377Y4443954D01*
X4457178Y4397261D01*
X4445406Y4338080D01*
X4445406Y4198107D01*
X4457178Y4138926D01*
X4457179Y4138922D01*
X4502019Y4071814D01*
X4502026Y4071807D01*
X4569134Y4026967D01*
X4569135Y4026967D01*
X4569138Y4026965D01*
X4611477Y4018544D01*
X4628320Y4015193D01*
X4628322Y4015193D01*
X4738056Y4015193D01*
X4768780Y4002467D01*
X4781506Y3971743D01*
X4781506Y3833448D01*
X4768780Y3802724D01*
X4002675Y3036619D01*
X3971951Y3023893D01*
X3021054Y3023893D01*
X2990330Y3036619D01*
X2981306Y3049793D01*
X2944738Y3132613D01*
X2868625Y3208726D01*
X2770163Y3252200D01*
X2770165Y3252200D01*
X2763285Y3252998D01*
X2746090Y3254993D01*
X2390122Y3254993D01*
X2372927Y3252998D01*
X2366047Y3252200D01*
X2267586Y3208726D01*
X2191473Y3132613D01*
X2147999Y3034152D01*
X2147999Y3034150D01*
X2145206Y3010077D01*
X2145206Y2554109D01*
X2146429Y2543572D01*
X2147999Y2530035D01*
X2172170Y2475293D01*
X2172938Y2442047D01*
X2149972Y2417995D01*
X2132422Y2414293D01*
X1983790Y2414293D01*
X1953066Y2427019D01*
X1940340Y2457743D01*
X1944042Y2475293D01*
X1953557Y2496843D01*
X1968213Y2530036D01*
X1971006Y2554109D01*
X1971006Y3010077D01*
X1968213Y3034150D01*
X1955066Y3063925D01*
X1924738Y3132613D01*
X1848625Y3208726D01*
X1750163Y3252200D01*
X1750165Y3252200D01*
X1743285Y3252998D01*
X1726090Y3254993D01*
X1370122Y3254993D01*
X1352927Y3252998D01*
X1346047Y3252200D01*
X1247586Y3208726D01*
X1171473Y3132613D01*
X1134906Y3049793D01*
X1110854Y3026827D01*
X1095158Y3023893D01*
X1058661Y3023893D01*
X1027937Y3036619D01*
X823476Y3241080D01*
X823475Y3241081D01*
X734603Y3277893D01*
X734601Y3277893D01*
X558356Y3277893D01*
X527632Y3290619D01*
X514906Y3321343D01*
X514906Y3327612D01*
X514905Y3327624D01*
X504381Y3399854D01*
X502870Y3402944D01*
X449905Y3511286D01*
X362199Y3598992D01*
X362196Y3598994D01*
X250766Y3653469D01*
X178536Y3663993D01*
X178528Y3663993D01*
X-329516Y3663993D01*
X-329525Y3663993D01*
X-401755Y3653469D01*
X-508467Y3601300D01*
X-541658Y3599239D01*
X-566585Y3621252D01*
X-571000Y3640335D01*
X-571000Y4020252D01*
X-558274Y4050976D01*
X-527550Y4063702D01*
X-508469Y4059288D01*
X-401756Y4007118D01*
X-378725Y4003763D01*
X-329525Y3996594D01*
X-329521Y3996594D01*
X-329516Y3996593D01*
X-329512Y3996593D01*
X178524Y3996593D01*
X178528Y3996593D01*
X178533Y3996594D01*
X178536Y3996594D01*
X204705Y4000407D01*
X250768Y4007118D01*
X362199Y4061594D01*
X449905Y4149300D01*
X504381Y4260731D01*
X514906Y4332971D01*
X514906Y4339243D01*
X527632Y4369967D01*
X558356Y4382693D01*
X604456Y4382693D01*
X635180Y4369967D01*
X647906Y4339243D01*
X647906Y4150990D01*
X647906Y4054796D01*
X684718Y3965924D01*
X937937Y3712705D01*
X1026809Y3675893D01*
X1120035Y3675893D01*
X1150759Y3663167D01*
X1159781Y3649996D01*
X1174275Y3617172D01*
X1174276Y3617171D01*
X1250386Y3541061D01*
X1299617Y3519324D01*
X1348847Y3497587D01*
X1348846Y3497587D01*
X1348849Y3497586D01*
X1372922Y3494793D01*
X1372927Y3494793D01*
X1828885Y3494793D01*
X1828890Y3494793D01*
X1852963Y3497586D01*
X1949613Y3540261D01*
X1951425Y3541061D01*
X1951425Y3541062D01*
X1951427Y3541062D01*
X2027537Y3617172D01*
X2029339Y3621252D01*
X2048210Y3663993D01*
X2071013Y3715636D01*
X2073806Y3739709D01*
X2073806Y4095677D01*
X2071013Y4119750D01*
X2062546Y4138926D01*
X2027538Y4218213D01*
X1951425Y4294326D01*
X1852963Y4337800D01*
X1852965Y4337800D01*
X1846085Y4338598D01*
X1828890Y4340593D01*
X1372922Y4340593D01*
X1355727Y4338598D01*
X1348847Y4337800D01*
X1250386Y4294326D01*
X1205680Y4249619D01*
X1174956Y4236893D01*
X1144232Y4249619D01*
X1131506Y4280343D01*
X1131506Y4506589D01*
X1131506Y4506590D01*
X1094694Y4595462D01*
X1026675Y4663481D01*
X860675Y4829481D01*
X771803Y4866293D01*
X771801Y4866293D01*
X558356Y4866293D01*
X527632Y4879019D01*
X514906Y4909743D01*
X514906Y4916012D01*
X514905Y4916024D01*
X504381Y4988254D01*
X502686Y4991721D01*
X449905Y5099686D01*
X433914Y5115677D01*
X1128006Y5115677D01*
X1128006Y4759709D01*
X1128492Y4755523D01*
X1130799Y4735635D01*
X1174273Y4637174D01*
X1250386Y4561061D01*
X1299617Y4539324D01*
X1348847Y4517587D01*
X1348846Y4517587D01*
X1348849Y4517586D01*
X1372922Y4514793D01*
X1372927Y4514793D01*
X1828885Y4514793D01*
X1828890Y4514793D01*
X1852963Y4517586D01*
X1951427Y4561062D01*
X2027537Y4637172D01*
X2042029Y4669995D01*
X2066081Y4692959D01*
X2081777Y4695893D01*
X2353360Y4695893D01*
X2384084Y4683167D01*
X2386186Y4680909D01*
X2466494Y4588229D01*
X2466495Y4588228D01*
X2577210Y4517075D01*
X2577213Y4517074D01*
X2577215Y4517073D01*
X2703499Y4479993D01*
X2703501Y4479993D01*
X2835111Y4479993D01*
X2835113Y4479993D01*
X2961397Y4517073D01*
X2961399Y4517075D01*
X2961401Y4517075D01*
X3072116Y4588228D01*
X3072115Y4588228D01*
X3072118Y4588229D01*
X3158308Y4687697D01*
X3212982Y4807418D01*
X3231713Y4937693D01*
X3212982Y5067968D01*
X3158308Y5187689D01*
X3072118Y5287157D01*
X3072116Y5287158D01*
X3072116Y5287159D01*
X2961401Y5358312D01*
X2903520Y5375307D01*
X2835113Y5395393D01*
X2703499Y5395393D01*
X2635092Y5375307D01*
X2577210Y5358312D01*
X2466495Y5287159D01*
X2466494Y5287157D01*
X2386195Y5194489D01*
X2356460Y5179604D01*
X2353360Y5179493D01*
X2081777Y5179493D01*
X2051053Y5192219D01*
X2042029Y5205392D01*
X2037306Y5216089D01*
X2027537Y5238214D01*
X1951427Y5314324D01*
X1951425Y5314326D01*
X1852963Y5357800D01*
X1852965Y5357800D01*
X1846085Y5358598D01*
X1828890Y5360593D01*
X1372922Y5360593D01*
X1355727Y5358598D01*
X1348847Y5357800D01*
X1250386Y5314326D01*
X1174273Y5238213D01*
X1130799Y5139752D01*
X1130799Y5139750D01*
X1128006Y5115677D01*
X433914Y5115677D01*
X362199Y5187392D01*
X362196Y5187394D01*
X250766Y5241869D01*
X178536Y5252393D01*
X178528Y5252393D01*
X-329516Y5252393D01*
X-329525Y5252393D01*
X-401755Y5241869D01*
X-447102Y5219700D01*
X-480293Y5217639D01*
X-505220Y5239652D01*
X-509100Y5265531D01*
X-506301Y5283200D01*
X-523788Y5393611D01*
X-523789Y5393613D01*
X-523790Y5393616D01*
X-552936Y5450817D01*
X-555546Y5483969D01*
X-533948Y5509257D01*
X-514222Y5513993D01*
X-258002Y5513993D01*
X-258000Y5513993D01*
X-257996Y5513994D01*
X-257992Y5513994D01*
X-189412Y5523986D01*
X-189412Y5523987D01*
X-189406Y5523987D01*
X-83596Y5575714D01*
X-315Y5658995D01*
X51412Y5764805D01*
X55318Y5791615D01*
X72340Y5820182D01*
X98314Y5828800D01*
X156526Y5828800D01*
X187250Y5816074D01*
X247186Y5756138D01*
X346784Y5705390D01*
X346787Y5705389D01*
X346789Y5705388D01*
X401994Y5696645D01*
X457199Y5687901D01*
X457200Y5687901D01*
X457201Y5687901D01*
X504573Y5695404D01*
X567611Y5705388D01*
X667215Y5756139D01*
X746261Y5835185D01*
X797012Y5934789D01*
X806346Y5993726D01*
X823722Y6022080D01*
X856058Y6029843D01*
X879985Y6017652D01*
G37*
%TD.AperFunction*%
%TA.AperFunction,Conductor*%
G36*
X8327804Y10103924D02*
G01*
X8331506Y10086373D01*
X8331506Y9873162D01*
X8330671Y9864685D01*
X8320406Y9813080D01*
X8320406Y9023107D01*
X8332178Y8963926D01*
X8332179Y8963922D01*
X8377019Y8896814D01*
X8377026Y8896807D01*
X8444134Y8851967D01*
X8444135Y8851967D01*
X8444138Y8851965D01*
X8486477Y8843544D01*
X8503320Y8840193D01*
X8503322Y8840193D01*
X8643292Y8840193D01*
X8658036Y8843127D01*
X8702474Y8851965D01*
X8749166Y8883165D01*
X8781782Y8889652D01*
X8797444Y8883165D01*
X8844138Y8851965D01*
X8883682Y8844100D01*
X8903320Y8840193D01*
X8903322Y8840193D01*
X9043292Y8840193D01*
X9058036Y8843127D01*
X9102474Y8851965D01*
X9149166Y8883165D01*
X9181782Y8889652D01*
X9197444Y8883165D01*
X9244138Y8851965D01*
X9283682Y8844100D01*
X9303320Y8840193D01*
X9303322Y8840193D01*
X9443292Y8840193D01*
X9458036Y8843127D01*
X9502474Y8851965D01*
X9549166Y8883165D01*
X9581782Y8889652D01*
X9597444Y8883165D01*
X9644138Y8851965D01*
X9683682Y8844100D01*
X9703320Y8840193D01*
X9703322Y8840193D01*
X9843292Y8840193D01*
X9864808Y8844474D01*
X9902474Y8851965D01*
X9902475Y8851966D01*
X9904979Y8852464D01*
X9937595Y8845977D01*
X9956071Y8818326D01*
X9956906Y8809849D01*
X9956906Y8732049D01*
X9989851Y8652513D01*
X10044180Y8598184D01*
X10056906Y8567461D01*
X10056906Y4462843D01*
X10044180Y4432119D01*
X10013456Y4419393D01*
X5898650Y4419393D01*
X5867926Y4432119D01*
X5855200Y4462843D01*
X5855200Y6647044D01*
X5842410Y6677922D01*
X5822255Y6726581D01*
X5761381Y6787455D01*
X5761380Y6787456D01*
X5758162Y6790674D01*
X5697288Y6851548D01*
X5697287Y6851549D01*
X5614478Y6885850D01*
X5590963Y6909365D01*
X5590963Y6934258D01*
X5588599Y6934728D01*
X5601206Y6998107D01*
X5601206Y7138080D01*
X5596806Y7160197D01*
X5589434Y7197261D01*
X5558234Y7243954D01*
X5551747Y7276569D01*
X5558235Y7292233D01*
X5560298Y7295320D01*
X5589434Y7338925D01*
X5601206Y7398109D01*
X5601206Y7538077D01*
X5601206Y7538080D01*
X5593988Y7574366D01*
X5589434Y7597261D01*
X5558234Y7643954D01*
X5551747Y7676569D01*
X5558235Y7692233D01*
X5589434Y7738925D01*
X5601206Y7798109D01*
X5601206Y7938077D01*
X5601206Y7938080D01*
X5595495Y7966789D01*
X5589434Y7997261D01*
X5558234Y8043954D01*
X5551747Y8076569D01*
X5558235Y8092233D01*
X5560162Y8095117D01*
X5589434Y8138925D01*
X5599021Y8187124D01*
X5601206Y8198107D01*
X5601206Y8338080D01*
X5595600Y8366261D01*
X5589434Y8397261D01*
X5558234Y8443954D01*
X5551747Y8476569D01*
X5558235Y8492233D01*
X5559740Y8494485D01*
X5589434Y8538925D01*
X5601206Y8598109D01*
X5601206Y8738077D01*
X5601206Y8738080D01*
X5588599Y8801458D01*
X5590896Y8801916D01*
X5590890Y8826979D01*
X5614399Y8850500D01*
X5639484Y8850507D01*
X5639941Y8852800D01*
X5644137Y8851966D01*
X5644138Y8851965D01*
X5660807Y8848650D01*
X5703320Y8840193D01*
X5703322Y8840193D01*
X5843292Y8840193D01*
X5858036Y8843127D01*
X5902474Y8851965D01*
X5949166Y8883165D01*
X5981782Y8889652D01*
X5997444Y8883165D01*
X6044138Y8851965D01*
X6083682Y8844100D01*
X6103320Y8840193D01*
X6103322Y8840193D01*
X6243292Y8840193D01*
X6258036Y8843127D01*
X6302474Y8851965D01*
X6349166Y8883165D01*
X6381782Y8889652D01*
X6397444Y8883165D01*
X6444138Y8851965D01*
X6483682Y8844100D01*
X6503320Y8840193D01*
X6503322Y8840193D01*
X6643292Y8840193D01*
X6658036Y8843127D01*
X6702474Y8851965D01*
X6749166Y8883165D01*
X6781782Y8889652D01*
X6797444Y8883165D01*
X6844138Y8851965D01*
X6883682Y8844100D01*
X6903320Y8840193D01*
X6903322Y8840193D01*
X7043292Y8840193D01*
X7058036Y8843127D01*
X7102474Y8851965D01*
X7149166Y8883165D01*
X7181782Y8889652D01*
X7197444Y8883165D01*
X7244138Y8851965D01*
X7283682Y8844100D01*
X7303320Y8840193D01*
X7303322Y8840193D01*
X7443292Y8840193D01*
X7458036Y8843127D01*
X7502474Y8851965D01*
X7549166Y8883165D01*
X7581782Y8889652D01*
X7597444Y8883165D01*
X7644138Y8851965D01*
X7683682Y8844100D01*
X7703320Y8840193D01*
X7703322Y8840193D01*
X7843292Y8840193D01*
X7858036Y8843127D01*
X7902474Y8851965D01*
X7919200Y8863141D01*
X7969585Y8896807D01*
X7969585Y8896808D01*
X7969589Y8896810D01*
X7976125Y8906591D01*
X8014432Y8963922D01*
X8014432Y8963923D01*
X8014434Y8963925D01*
X8026206Y9023109D01*
X8026206Y9813077D01*
X8026206Y9991125D01*
X8026207Y9991134D01*
X8026207Y10034277D01*
X8038933Y10065001D01*
X8069657Y10077727D01*
X8142383Y10077727D01*
X8142388Y10077727D01*
X8167506Y10080641D01*
X8270245Y10126005D01*
X8270247Y10126008D01*
X8270505Y10126121D01*
X8303752Y10126889D01*
X8327804Y10103924D01*
G37*
%TD.AperFunction*%
%TA.AperFunction,Conductor*%
G36*
X-3995354Y10671321D02*
G01*
X-3975994Y10662773D01*
X-3934353Y10644387D01*
X-3934354Y10644387D01*
X-3934351Y10644386D01*
X-3910278Y10641593D01*
X-3583427Y10641593D01*
X-3552703Y10628867D01*
X-3465403Y10541567D01*
X-3452677Y10510843D01*
X-3465403Y10480119D01*
X-3496127Y10467393D01*
X-3910278Y10467393D01*
X-3927473Y10465398D01*
X-3934353Y10464600D01*
X-4032814Y10421126D01*
X-4108927Y10345013D01*
X-4152401Y10246552D01*
X-4152401Y10246550D01*
X-4155194Y10222477D01*
X-4155194Y9866509D01*
X-4154982Y9864685D01*
X-4152401Y9842435D01*
X-4108927Y9743974D01*
X-4032814Y9667861D01*
X-3949994Y9631293D01*
X-3927028Y9607241D01*
X-3924094Y9591545D01*
X-3924094Y9577797D01*
X-3887282Y9488925D01*
X-3887281Y9488924D01*
X-2503625Y8105268D01*
X-2493277Y8080286D01*
X-2491434Y8080577D01*
X-2473413Y7966791D01*
X-2473411Y7966785D01*
X-2422663Y7867187D01*
X-2343614Y7788138D01*
X-2244016Y7737390D01*
X-2244013Y7737389D01*
X-2244011Y7737388D01*
X-2193746Y7729427D01*
X-2133601Y7719901D01*
X-2133600Y7719901D01*
X-2133599Y7719901D01*
X-2096797Y7725730D01*
X-2023189Y7737388D01*
X-2020170Y7738926D01*
X-1923587Y7788138D01*
X-1923588Y7788138D01*
X-1923585Y7788139D01*
X-1844539Y7867185D01*
X-1811758Y7931521D01*
X-1793790Y7966785D01*
X-1793790Y7966786D01*
X-1793788Y7966789D01*
X-1776301Y8077200D01*
X-1779592Y8097976D01*
X-1793733Y8187265D01*
X-1793788Y8187611D01*
X-1793789Y8187613D01*
X-1793790Y8187616D01*
X-1844538Y8287214D01*
X-1923587Y8366263D01*
X-2023185Y8417011D01*
X-2023191Y8417013D01*
X-2136977Y8435034D01*
X-2136686Y8436877D01*
X-2161668Y8447225D01*
X-3326315Y9611872D01*
X-3339041Y9642596D01*
X-3326315Y9673320D01*
X-3296292Y9703343D01*
X-3255663Y9743972D01*
X-3212187Y9842436D01*
X-3209394Y9866509D01*
X-3209394Y10180660D01*
X-3196668Y10211384D01*
X-3165944Y10224110D01*
X-3135221Y10211385D01*
X-2148457Y9224620D01*
X-2148456Y9224619D01*
X-2087582Y9163745D01*
X-2008046Y9130800D01*
X-2008045Y9130800D01*
X-1921957Y9130800D01*
X-869633Y9130800D01*
X-838909Y9118074D01*
X-584726Y8863891D01*
X-572000Y8833167D01*
X-572000Y8276274D01*
X-584726Y8245550D01*
X-644663Y8185614D01*
X-695411Y8086016D01*
X-695413Y8086010D01*
X-712899Y7975601D01*
X-712899Y7975600D01*
X-695413Y7865191D01*
X-695411Y7865185D01*
X-644663Y7765587D01*
X-565614Y7686538D01*
X-466016Y7635790D01*
X-466013Y7635789D01*
X-466011Y7635788D01*
X-410806Y7627045D01*
X-355601Y7618301D01*
X-355600Y7618301D01*
X-355599Y7618301D01*
X-318797Y7624130D01*
X-245189Y7635788D01*
X-145585Y7686539D01*
X-66539Y7765585D01*
X-15788Y7865189D01*
X1699Y7975600D01*
X-791Y7991319D01*
X-10523Y8052767D01*
X-15788Y8086011D01*
X-15789Y8086013D01*
X-15790Y8086016D01*
X-66538Y8185614D01*
X-126474Y8245550D01*
X-139200Y8276274D01*
X-139200Y8288663D01*
X-126474Y8319387D01*
X-95750Y8332113D01*
X-65026Y8319387D01*
X1683044Y6571317D01*
X1746868Y6534468D01*
X1818049Y6515394D01*
X1818056Y6515393D01*
X2081573Y6515393D01*
X2112297Y6502667D01*
X2114410Y6500397D01*
X2162155Y6445297D01*
X2172657Y6413744D01*
X2157772Y6384006D01*
X2129318Y6373393D01*
X1405766Y6373393D01*
X1375042Y6386119D01*
X342481Y7418679D01*
X342481Y7418680D01*
X285179Y7475982D01*
X210311Y7506993D01*
X-2342499Y7506993D01*
X-2379933Y7491488D01*
X-2417368Y7475982D01*
X-2474670Y7418679D01*
X-3810014Y6083336D01*
X-3840738Y6070610D01*
X-3871461Y6083336D01*
X-3929479Y6141354D01*
X-3929480Y6141355D01*
X-3929481Y6141356D01*
X-4029079Y6192104D01*
X-4029085Y6192106D01*
X-4139493Y6209592D01*
X-4139495Y6209592D01*
X-4249904Y6192106D01*
X-4249910Y6192104D01*
X-4349512Y6141354D01*
X-4351925Y6139600D01*
X-4384262Y6131838D01*
X-4408186Y6144030D01*
X-4450844Y6186688D01*
X-4450845Y6186689D01*
X-4525713Y6217700D01*
X-4525714Y6217700D01*
X-4641427Y6217700D01*
X-4672151Y6230426D01*
X-4684877Y6261150D01*
X-4672151Y6291874D01*
X-4658056Y6301293D01*
X-4639418Y6309012D01*
X-4139706Y6808724D01*
X-4102894Y6897596D01*
X-4102894Y6993790D01*
X-4102894Y7279623D01*
X-4090168Y7310347D01*
X-4076993Y7319371D01*
X-4044175Y7333861D01*
X-4044175Y7333862D01*
X-4044173Y7333862D01*
X-3968063Y7409972D01*
X-3967888Y7410367D01*
X-3947722Y7456040D01*
X-3924587Y7508436D01*
X-3921794Y7532509D01*
X-3921794Y7988477D01*
X-3924587Y8012550D01*
X-3947470Y8064376D01*
X-3968062Y8111013D01*
X-4044175Y8187126D01*
X-4142637Y8230600D01*
X-4142635Y8230600D01*
X-4149515Y8231398D01*
X-4166710Y8233393D01*
X-4522678Y8233393D01*
X-4539873Y8231398D01*
X-4546753Y8230600D01*
X-4645214Y8187126D01*
X-4721327Y8111013D01*
X-4764801Y8012552D01*
X-4764801Y8012550D01*
X-4767594Y7988477D01*
X-4767594Y7532509D01*
X-4765784Y7516912D01*
X-4764801Y7508435D01*
X-4721327Y7409974D01*
X-4645214Y7333861D01*
X-4612395Y7319371D01*
X-4589428Y7295320D01*
X-4586494Y7279623D01*
X-4586494Y7063848D01*
X-4599220Y7033124D01*
X-4863818Y6768526D01*
X-4894542Y6755800D01*
X-5369029Y6755800D01*
X-5399753Y6768526D01*
X-5412479Y6799250D01*
X-5405157Y6823389D01*
X-5400530Y6830314D01*
X-5387324Y6850078D01*
X-5374101Y6916553D01*
X-5374102Y7111446D01*
X-5374102Y7111447D01*
X-5374102Y7111449D01*
X-5379399Y7138077D01*
X-5387324Y7177922D01*
X-5437694Y7253307D01*
X-5440720Y7256333D01*
X-5439761Y7257293D01*
X-5455091Y7280236D01*
X-5448604Y7312853D01*
X-5443201Y7319436D01*
X-5422781Y7339855D01*
X-5377039Y7443450D01*
X-5374101Y7468774D01*
X-5374101Y7859226D01*
X-5377039Y7884550D01*
X-5422781Y7988145D01*
X-5502856Y8068220D01*
X-5606451Y8113962D01*
X-5631775Y8116900D01*
X-6572227Y8116900D01*
X-6593331Y8114452D01*
X-6597552Y8113962D01*
X-6620559Y8103803D01*
X-6690502Y8072920D01*
X-6723747Y8072152D01*
X-6747799Y8095117D01*
X-6751501Y8112668D01*
X-6751501Y8210018D01*
X-6751502Y8210025D01*
X-6771066Y8283035D01*
X-6780498Y8318237D01*
X-6836516Y8415263D01*
X-6915738Y8494485D01*
X-6915739Y8494486D01*
X-6930591Y8503061D01*
X-6950835Y8529444D01*
X-6946493Y8562415D01*
X-6939588Y8571413D01*
X-6927001Y8584000D01*
X-6927001Y9284000D01*
X-6427001Y9284000D01*
X-6427001Y8584000D01*
X-6028508Y8584000D01*
X-5835321Y8622427D01*
X-5835315Y8622429D01*
X-5653325Y8697811D01*
X-5653324Y8697811D01*
X-5489542Y8807248D01*
X-5489537Y8807251D01*
X-5350252Y8946536D01*
X-5350249Y8946541D01*
X-5240812Y9110323D01*
X-5240812Y9110324D01*
X-5165430Y9292314D01*
X-5165428Y9292322D01*
X-5157138Y9334000D01*
X-5960013Y9334000D01*
X-5942796Y9343940D01*
X-5886941Y9399795D01*
X-5847445Y9468204D01*
X-5827001Y9544504D01*
X-5827001Y9623496D01*
X-5847445Y9699796D01*
X-5886941Y9768205D01*
X-5942796Y9824060D01*
X-5960013Y9834000D01*
X-5157138Y9834000D01*
X-5157138Y9834001D01*
X-5165428Y9875679D01*
X-5165430Y9875687D01*
X-5240812Y10057677D01*
X-5240812Y10057678D01*
X-5350249Y10221460D01*
X-5350252Y10221464D01*
X-5489537Y10360749D01*
X-5489542Y10360753D01*
X-5631214Y10455416D01*
X-5649689Y10483066D01*
X-5643201Y10515683D01*
X-5615551Y10534158D01*
X-5607074Y10534993D01*
X-4291152Y10534993D01*
X-4291140Y10534993D01*
X-4270774Y10535793D01*
X-4263978Y10536328D01*
X-4243756Y10538722D01*
X-4148761Y10573765D01*
X-4131180Y10584538D01*
X-4120407Y10591139D01*
X-4042910Y10662773D01*
X-4041428Y10661169D01*
X-4019728Y10674484D01*
X-3995354Y10671321D01*
G37*
%TD.AperFunction*%
%TD*%
M02*
