M48
; DRILL file {KiCad 8.0.2} date 2024-07-01T18:09:32+0800
; FORMAT={-:-/ absolute / inch / decimal}
; #@! TF.CreationDate,2024-07-01T18:09:32+08:00
; #@! TF.GenerationSoftware,Kicad,Pcbnew,8.0.2
; #@! TF.FileFunction,Plated,1,2,PTH
FMAT,2
INCH
; #@! TA.AperFunction,Plated,PTH,ViaDrill
T1C0.0118
; #@! TA.AperFunction,Plated,PTH,ViaDrill
T2C0.0120
; #@! TA.AperFunction,Plated,PTH,ComponentDrill
T3C0.0236
%
G90
G05
T1
X-0.347Y0.5595
X-0.231Y0.5495
X-0.231Y0.5275
X-0.231Y0.5055
X-0.163Y0.2304
X-0.163Y0.2087
X-0.084Y0.318
X-0.034Y0.208
X-0.014Y0.314
X0.018Y0.238
X0.065Y0.4555
X0.085Y0.4215
X0.123Y0.366
X0.151Y0.1932
X0.1515Y0.0855
X0.191Y0.39
X0.247Y0.4475
X0.2524Y0.0928
X0.267Y0.5015
X0.275Y0.4146
X0.305Y0.09
X0.312Y0.4146
X0.349Y0.4146
X0.3665Y0.4963
X0.373Y0.4475
X0.3759Y0.4107
X0.381Y0.4775
X0.393Y0.0913
X0.399Y0.4535
X0.424Y0.128
X0.433Y0.3915
X0.449Y0.1215
X0.47Y0.2149
X0.475Y0.5035
X0.525Y0.3975
T2
X-0.489Y0.2995
X-0.489Y0.2495
X-0.489Y0.1995
X-0.489Y0.1495
X-0.485Y0.6275
X-0.485Y0.5775
X-0.485Y0.5275
X-0.485Y0.4775
X-0.435Y0.6275
X-0.385Y0.6275
X-0.335Y0.6275
X-0.285Y0.6275
X-0.235Y0.6275
X-0.159Y0.0495
X-0.109Y0.0495
X-0.103Y0.6395
X-0.101Y0.4975
X-0.059Y0.0495
X-0.053Y0.6395
X-0.051Y0.4975
X-0.051Y0.3395
X-0.009Y0.0495
X-0.001Y0.4975
X0.091Y0.0495
X0.095Y0.1415
X0.097Y0.2675
X0.109Y0.1944
X0.141Y0.0495
X0.191Y0.0495
X0.202Y0.118
X0.251Y0.0255
X0.2639Y0.3046
X0.2639Y0.2046
X0.301Y0.0255
X0.3139Y0.2546
X0.351Y0.0255
X0.362Y0.0922
X0.3639Y0.3046
X0.3639Y0.2046
X0.5Y0.2019
X0.515Y0.1275
X0.515Y0.0775
X0.527Y0.3195
T3
G00X-0.4117Y0.3773
M15
G01X-0.4432Y0.3773
M16
G05
G00X-0.4117Y0.0372
M15
G01X-0.4432Y0.0372
M16
G05
G00X-0.2412Y0.3773
M15
G01X-0.2845Y0.3773
M16
G05
G00X-0.2412Y0.0372
M15
G01X-0.2845Y0.0372
M16
G05
M30
